<svg xmlns="http://www.w3.org/2000/svg" width="88" height="88" fill="none" viewBox="0 0 88 88"><g filter="url(#filter0_d)"><mask id="mask0" width="80" height="80" x="4" y="0" mask-type="alpha" maskUnits="userSpaceOnUse"><circle cx="44" cy="40" r="40" fill="#094492"/></mask><g mask="url(#mask0)"><circle cx="44" cy="40" r="40" fill="#6F39C4"/><path fill="#fff" d="M51.9418 46.5584C51.6208 45.6049 50.9984 44.775 50.1639 44.1877C49.3294 43.6004 48.3256 43.2859 47.2965 43.2893H39.7038C38.6747 43.2858 37.6709 43.6003 36.8364 44.1876C36.0019 44.7749 35.3795 45.6048 35.0586 46.5584L30.143 61.2046C30.0216 61.5609 29.9768 61.9378 30.0113 62.3117C30.0721 62.9586 30.3595 63.5654 30.8252 64.0298C31.2909 64.4943 31.9064 64.7882 32.5682 64.862C33.23 64.9357 33.8977 64.7849 34.4589 64.435C35.0201 64.085 35.4405 63.5571 35.6494 62.9403L36.4822 60.4591V82.1414C36.4822 82.8992 36.7909 83.6259 37.3404 84.1618C37.8898 84.6976 38.635 84.9986 39.4121 84.9986C40.1891 84.9986 40.9344 84.6976 41.4838 84.1618C42.0333 83.6259 42.342 82.8992 42.342 82.1414V65.1756H44.6573V82.1425C44.6573 82.9004 44.966 83.6272 45.5155 84.1631C46.065 84.6989 46.8103 85 47.5874 85C48.3645 85 49.1098 84.6989 49.6593 84.1631C50.2088 83.6272 50.5176 82.9004 50.5176 82.1425V60.4569L51.3504 62.9381C51.5596 63.5548 51.9801 64.0823 52.5412 64.4322C53.1024 64.782 53.77 64.9327 54.4317 64.8589C55.0934 64.7852 55.7089 64.4914 56.1746 64.0271C56.6404 63.5628 56.928 62.9563 56.9891 62.3095C57.0229 61.9356 56.9781 61.5588 56.8573 61.2024L51.9418 46.5562V46.5584ZM40.9466 40.7475C41.8755 41.0553 42.8661 41.1433 43.8368 41.0042C44.8074 40.8652 45.7303 40.503 46.5292 39.9477C47.3281 39.3924 47.9802 38.6598 48.4316 37.8104C48.883 36.9609 49.1209 36.019 49.1256 35.0622C49.1308 33.9517 48.8217 32.8612 48.2323 31.911C47.6429 30.9607 46.7959 30.1876 45.7848 29.6766C44.7737 29.1656 43.6376 28.9367 42.5016 29.015C41.3656 29.0933 40.2738 29.4759 39.3465 30.1205C38.4191 30.7651 37.6922 31.6468 37.2457 32.6684C36.7992 33.6901 36.6505 34.8121 36.8159 35.9109C36.9814 37.0097 37.4546 38.0426 38.1834 38.896C38.9122 39.7494 39.8683 40.39 40.9466 40.7475Z"/></g></g><defs><filter id="filter0_d" width="88" height="88" x="0" y="0" color-interpolation-filters="sRGB" filterUnits="userSpaceOnUse"><feFlood flood-opacity="0" result="BackgroundImageFix"/><feColorMatrix in="SourceAlpha" type="matrix" values="0 0 0 0 0 0 0 0 0 0 0 0 0 0 0 0 0 0 127 0"/><feOffset dy="4"/><feGaussianBlur stdDeviation="2"/><feColorMatrix type="matrix" values="0 0 0 0 0 0 0 0 0 0 0 0 0 0 0 0 0 0 0.25 0"/><feBlend in2="BackgroundImageFix" mode="normal" result="effect1_dropShadow"/><feBlend in="SourceGraphic" in2="effect1_dropShadow" mode="normal" result="shape"/></filter></defs></svg>