<svg xmlns="http://www.w3.org/2000/svg" width="127.528" height="131.887" viewBox="0 0 127.528 131.887"><g id="人" transform="translate(-13.1 -24.3)"><g id="Group_10" data-name="Group 10" transform="translate(13.1 24.3)"><path id="Path_57" fill="#fff" d="M105.091,107.929A89.051,89.051,0,0,0,92.583,99.3,37.621,37.621,0,0,1,67.17,109.354c-10.054,0-18.683-4.037-26.046-10.054-16.7,8.708-28.025,20.029-28.025,40.771H66.933l18.525-32.141h19.633Z" data-name="Path 57" transform="translate(-13.1 -39.925)"/><ellipse id="Ellipse_4" cx="30.083" cy="30.716" fill="#fff" data-name="Ellipse 4" rx="30.083" ry="30.716" transform="translate(23.354)"/></g><path id="Path_58" fill="none" stroke="#fff" stroke-miterlimit="10" stroke-width="3" d="M136.6,113.6H102.158L84.9,143.446l17.258,29.846H136.6l17.258-29.846Z" data-name="Path 58" transform="translate(-14.959 -18.605)"/><text id="STOP" fill="#fff" font-family="ArialRoundedMTBold, Arial Rounded MT Bold" font-size="15" transform="translate(85.036 129.65)"><tspan x="0" y="0">STOP</tspan></text></g></svg>