<svg xmlns="http://www.w3.org/2000/svg" xmlns:xlink="http://www.w3.org/1999/xlink" id="Capa_1" x="0" y="0" enable-background="new 0 0 448.8 448.8" version="1.1" viewBox="0 0 448.8 448.8" xml:space="preserve"><g><polygon fill="#D9AC80" points="299.2 292.4 224.4 248.4 299.2 204.8 374 160.8 448.8 204.8 374 248.4"/><polygon fill="#A67E4F" points="223.6 248 223.6 419.6 372 333.6 372 249.6 299.2 292.4 224.4 248.4"/><polygon fill="#D9AC80" points="149.6 292.4 224.4 248.4 149.6 204.8 74.8 160.8 0 204.8 74.8 248.4"/><polygon fill="#643513" points="224.4 72.8 299.2 116.8 374 160.8 299.2 204.8 224.4 248.4 149.6 204.8 74.8 160.8 149.6 116.8"/><g><polygon fill="#D9AC80" points="149.6 29.2 224.4 72.8 149.6 116.8 74.8 160.8 0 116.8 74.8 72.8"/><polygon fill="#D9AC80" points="299.2 29.2 224.4 72.8 299.2 116.8 374 160.8 448.8 116.8 374 72.8"/></g><polygon fill="#926E43" points="223.6 249.2 223.6 419.6 74.8 333.6 74.8 248.4 149.6 292.4"/><polygon fill="#8D5122" points="149.6 116.8 74.8 160.8 149.6 204.8 173.6 218.8 224.4 189.2 224.4 72.8"/><polygon fill="#77411B" points="224.4 72.8 224.4 189.2 275.2 218.8 299.2 204.8 374 160.8 299.2 116.8"/></g></svg>