<svg id="Layer_1" data-name="Layer 1" xmlns="http://www.w3.org/2000/svg" viewBox="0 0 89.65 108.38"><defs><style>.cls-1{fill:#fff;}</style></defs><title>Child Waiting</title><path class="cls-1" d="M136.29,106.76a30.62,30.62,0,0,0-1.81-10.08c.74-.08,1.48-.18,2.22-.25l2.11-.4-.58-2.1A34.58,34.58,0,0,0,72,93.55l-.39,1.16,1.54,1.54L76,96.5A30.48,30.48,0,0,0,74.11,107a7.58,7.58,0,0,0-5.39,6.92v.19c0,4.18,3.69,7.42,8.28,7.42.25,0,.43,0,.64,0a31.12,31.12,0,0,0,55.12-.06,9.62,9.62,0,0,0,1.25.11c4.43,0,8.28-3.28,8.28-7.52a7.54,7.54,0,0,0-6-7.2ZM72.56,114A3.42,3.42,0,0,1,74.4,111a31.76,31.76,0,0,0,1.54,6.43c-2-.39-3.38-1.7-3.38-3.5Zm32.54,19.63A26.62,26.62,0,0,1,78.52,107a26.07,26.07,0,0,1,2-10.1l7.19.67,3.65-6,2.7,5.59.58,1h1.16c1.34,0,4.82.2,9.82.2,6.35,0,14.8-.25,24.06-1.15a26.09,26.09,0,0,1,1.94,9.82,26.6,26.6,0,0,1-26.57,26.58Zm29.32-16a31,31,0,0,0,1.64-6.78,3.61,3.61,0,0,1,2.36,3.18C138.42,115.94,136.7,117.38,134.42,117.56Z" transform="translate(-68.72 -29.68)"/><path class="cls-1" d="M91.14,112.3a3.5,3.5,0,1,0,7,0h0a3.5,3.5,0,0,0-7,0Z" transform="translate(-68.72 -29.68)"/><path class="cls-1" d="M122.52,109.28a3.49,3.49,0,1,0,0,6,3.51,3.51,0,0,0,1.76-3A3.45,3.45,0,0,0,122.52,109.28Z" transform="translate(-68.72 -29.68)"/><path class="cls-1" d="M125.4,35.86H127V63H125.4Z" transform="translate(-68.72 -29.68)"/><path class="cls-1" d="M127.18,63.16h-1.93V35.71h1.93Zm-1.63-.3h1.32V36h-1.32Z" transform="translate(-68.72 -29.68)"/><path class="cls-1" d="M124.82,61.66h18.61v1.63H124.82Z" transform="translate(-68.72 -29.68)"/><path class="cls-1" d="M143.61,63.44H124.67V61.51h18.91v1.93ZM125,63.13h18.31V61.82H125Z" transform="translate(-68.72 -29.68)"/><path class="cls-1" d="M125.62,95.3a32.81,32.81,0,1,1,32.74-32.81A32.82,32.82,0,0,1,125.62,95.3Zm0-64.09a31.28,31.28,0,1,0,31.21,31.28A31.29,31.29,0,0,0,125.62,31.21Z" transform="translate(-68.72 -29.68)"/><path class="cls-1" d="M126.2,65.18A2.17,2.17,0,1,1,128.34,63,2.16,2.16,0,0,1,126.2,65.18Zm0-2.84a.64.64,0,0,0,0,1.28.64.64,0,0,0,0-1.28Z" transform="translate(-68.72 -29.68)"/></svg>