<svg xmlns="http://www.w3.org/2000/svg" id="ClassroomClimate" viewBox="0 0 165 165"><defs><style>.cls-1{fill:#0988ec}.cls-2{fill:none;stroke:#fff;stroke-linecap:round;stroke-linejoin:round;stroke-width:3.93px}.cls-3{opacity:.1}.cls-4{fill:#fff}</style></defs><title>Artboard 1</title><rect width="163.64" height="163.64" x="1" y=".5" class="cls-1" rx="19.64"/><path d="M73.21,38.41c3.14,3.84,9.89,3.51,9.89,3.51s.19-7.25-3.5-9.85c-2.78-2-10.18-3.25-10.18-3.25S70.93,35.61,73.21,38.41Z" class="cls-2"/><path d="M74.5,55.27c-5.5.23-6.5,3.23-6.45,6" class="cls-2"/><path d="M88.48,48.32c-3.29,1.34-5.67,2.28-5.51,2.45,0,0-1.73-1.89-6.42-2.75-5.62-1-12.13.51-15.13,5.78-3.13,5.51-1,11.64,1.89,16.72C67.37,77.68,73.1,83.9,79,89.61c3.1,3,5,2.24,7.94-.07A62.71,62.71,0,0,0,95,81.73c5.2-5.88,11.32-13.8,11.32-22.07C106.3,51,96.49,45.05,88.48,48.32Z" class="cls-2"/><path d="M89.78,34.08s-4,1.61-6.68,7.84" class="cls-2"/><line x1="38.91" x2="49.9" y1="46.68" y2="51.24" class="cls-2"/><line x1="38.91" x2="49.9" y1="82.11" y2="77.55" class="cls-2"/><line x1="63.98" x2="68.64" y1="107.22" y2="96.04" class="cls-2"/><line x1="57.62" x2="38.99" y1="88.43" y2="106.98" class="cls-2"/><line x1="21.31" x2="47.53" y1="64.47" y2="64.47" class="cls-2"/><line x1="127.72" x2="116.72" y1="46.68" y2="51.24" class="cls-2"/><line x1="127.72" x2="116.72" y1="82.11" y2="77.55" class="cls-2"/><line x1="102.64" x2="97.99" y1="107.22" y2="96.04" class="cls-2"/><line x1="109.01" x2="127.64" y1="88.43" y2="106.98" class="cls-2"/><line x1="145.31" x2="119.09" y1="64.47" y2="64.47" class="cls-2"/><path d="M145,164.14H20.64A19.64,19.64,0,0,1,1,144.5V20.14A19,19,0,0,1,7.55,5.41L158.09,159.23A19.6,19.6,0,0,1,145,164.14Z" class="cls-3"/><path d="M27.31,142.53V143c0,1.6-.28,3.62-2.94,3.62-2.4,0-2.88-1.58-2.88-3.58v-6.76c0-2.1.94-3.38,2.92-3.38,2.38,0,2.84,1.62,2.84,3.44v.56h-1.8v-.76c0-1-.2-1.62-1.06-1.62s-1.06.62-1.06,1.64v7c0,1.06.22,1.82,1.1,1.82s1.06-.72,1.06-1.82v-.66Z" class="cls-4"/><path d="M29.09,133.09h1.8v11.76h3.36l-.18,1.6h-5Z" class="cls-4"/><path d="M37.67,142.59l-.54,3.86H35.31l2.18-13.36H40l2.26,13.36H40.41l-.6-3.86Zm1.92-1.66c-.36-2.54-.68-4.76-.82-6.16h-.06c-.06,1.08-.5,4-.8,6.16Z" class="cls-4"/><path d="M45.41,142.59v.8c0,1.1.36,1.72,1.2,1.72s1.16-.74,1.16-1.86c0-1.48-.32-2-1.76-3.12s-2.18-1.84-2.18-3.8c0-1.74.52-3.44,2.8-3.44s2.72,1.58,2.72,3.14v.66H47.57v-.62c0-1-.18-1.64-1-1.64s-1,.68-1,1.64.2,1.54,1.4,2.42c1.94,1.44,2.54,2.28,2.54,4.5,0,1.88-.62,3.64-3,3.64s-2.94-1.5-2.94-3.26v-.78Z" class="cls-4"/><path d="M52.89,142.59v.8c0,1.1.36,1.72,1.2,1.72s1.16-.74,1.16-1.86c0-1.48-.32-2-1.76-3.12s-2.18-1.84-2.18-3.8c0-1.74.52-3.44,2.8-3.44s2.72,1.58,2.72,3.14v.66H55.05v-.62c0-1-.18-1.64-1-1.64s-1,.68-1,1.64.2,1.54,1.4,2.42c1.94,1.44,2.54,2.28,2.54,4.5,0,1.88-.62,3.64-3,3.64s-2.94-1.5-2.94-3.26v-.78Z" class="cls-4"/><path d="M58.91,133.09h2.64c2,0,3.12.84,3.12,3.16v.54c0,2-.74,2.58-1.36,2.8.82.36,1.24.94,1.24,2.74a37.84,37.84,0,0,0,.12,4.12H63a28.91,28.91,0,0,1-.14-4c0-1.66-.24-2.08-1.48-2.08h-.62v6.08h-1.8Zm1.8,5.78h.64c1.16,0,1.54-.54,1.54-2v-.52c0-1.12-.28-1.78-1.52-1.78h-.66Z" class="cls-4"/><path d="M72.69,136.53V143c0,2.48-1,3.66-3.18,3.66s-3-1.26-3-3.64v-6.48c0-2.44,1.18-3.6,3.14-3.6S72.69,134.15,72.69,136.53Zm-4.36-.16v6.82c0,1.28.46,1.82,1.26,1.82s1.28-.52,1.28-1.86v-6.78c0-1.22-.4-1.84-1.28-1.84S68.33,135.11,68.33,136.37Z" class="cls-4"/><path d="M80.75,136.53V143c0,2.48-1,3.66-3.18,3.66s-3-1.26-3-3.64v-6.48c0-2.44,1.18-3.6,3.14-3.6S80.75,134.15,80.75,136.53Zm-4.36-.16v6.82c0,1.28.46,1.82,1.26,1.82s1.28-.52,1.28-1.86v-6.78c0-1.22-.4-1.84-1.28-1.84S76.39,135.11,76.39,136.37Z" class="cls-4"/><path d="M89.55,141.23c0-2.36,0-5.1.08-6.58h0c-.32,2.28-1.18,7.88-1.82,11.8h-1.7c-.48-3.46-1.36-9.4-1.66-11.82h0c0,1.56.1,4.58.1,6.88v4.94H82.85V133.09h2.66c.62,3.62,1.3,7.9,1.48,9.7h0c.2-1.8,1.06-6.28,1.68-9.7h2.58v13.36H89.55Z" class="cls-4"/><path d="M102.33,142.53V143c0,1.6-.28,3.62-2.94,3.62-2.41,0-2.89-1.58-2.89-3.58v-6.76c0-2.1,1-3.38,2.93-3.38,2.38,0,2.84,1.62,2.84,3.44v.56h-1.8v-.76c0-1-.2-1.62-1.06-1.62s-1.06.62-1.06,1.64v7c0,1.06.22,1.82,1.1,1.82s1.06-.72,1.06-1.82v-.66Z" class="cls-4"/><path d="M104.1,133.09h1.81v11.76h3.36l-.18,1.6h-5Z" class="cls-4"/><path d="M112.41,133.09v13.36h-1.8V133.09Z" class="cls-4"/><path d="M121.49,141.23c0-2.36,0-5.1.08-6.58h0c-.32,2.28-1.18,7.88-1.82,11.8H118c-.48-3.46-1.36-9.4-1.66-11.82h0c0,1.56.1,4.58.1,6.88v4.94h-1.64V133.09h2.66c.62,3.62,1.3,7.9,1.48,9.7h0c.2-1.8,1.06-6.28,1.68-9.7h2.58v13.36h-1.72Z" class="cls-4"/><path d="M127,142.59l-.54,3.86h-1.82l2.18-13.36h2.55l2.26,13.36h-1.88l-.6-3.86Zm1.93-1.66c-.36-2.54-.68-4.76-.82-6.16h-.07c-.05,1.08-.5,4-.79,6.16Z" class="cls-4"/><path d="M133.71,134.75h-2.17v-1.66h6.11v1.66h-2.16v11.7h-1.78Z" class="cls-4"/><path d="M143.81,140.19h-3v4.62h3.38l-.22,1.64h-5V133.09H144v1.66h-3.12v3.8h3Z" class="cls-4"/></svg>