<svg xmlns="http://www.w3.org/2000/svg" width="120.463" height="119.657" viewBox="0 0 120.463 119.657"><path id="打扫" fill="#fff" d="M72.458,155.582h3.858v3.858H72.458Zm0,7.729h3.858v3.858H72.458Zm31.453-9.087c-2.083,2.083-5.672,2.85-8,3.132.484-3.092,1.519-7.742,3.253-10.35,2.2-3.307,6.9-4.4,9.691-4.758-.6,3.535-2.07,9.1-4.947,11.976Zm7.151-16.009c-.43,0-10.74.081-15.122,6.654-3.266,4.893-4.14,14.02-4.18,14.4l-.188,2.11H93.7c.349,0,8.576-.054,12.944-4.422,5.363-5.363,6.318-16.184,6.344-16.641l.175-2.083Zm8.105,11.573a6.172,6.172,0,0,1,4.032-3.938l19.033-5.713h11.009l18.966,5.686a6.3,6.3,0,0,1,4.086,3.965Zm24.706-21.224h7.715v7.783l-7.715-.054Zm0-54.049a3.858,3.858,0,1,1,7.715,0v50.177h-7.715V74.515Zm34.988,79.144h1.694v-1.936a10.38,10.38,0,0,0-7.164-9.57l-17.931-5.377V74.515a7.715,7.715,0,0,0-15.431,0v62.342l-17.985,5.323a10.352,10.352,0,0,0-7.111,9.544v1.936h1.694L113,184.306l3.831.457,3.67-31.1h2.03l-1.815,30.768,3.858.229,1.828-31h2.043v30.875H132.3V153.659h1.936v30.875h3.844V153.659h1.936v30.875h3.858V153.659h1.936v30.875h3.858V153.659H151.6v30.875h3.858V153.659h1.936v30.875h3.858V153.659h1.936v30.875h3.858V153.659h2.043l1.828,31,3.858-.229-1.828-30.768h2.03l3.656,31.1,3.831-.457-3.6-30.647ZM97.553,174.884h13.509v3.858H97.553Zm-30.889,3.858a3.866,3.866,0,0,1,3.858-3.858h9.651a5.793,5.793,0,1,0,0-11.587v3.858a1.936,1.936,0,1,1,0,3.871H70.522a7.715,7.715,0,0,0,0,15.431h38.6V182.6H70.535a3.852,3.852,0,0,1-3.871-3.858Zm35.714-78.163a1.936,1.936,0,1,1-1.936,1.936A1.936,1.936,0,0,1,102.378,100.579Zm0,7.715a5.793,5.793,0,1,0-5.793-5.793A5.8,5.8,0,0,0,102.378,108.294Zm-16.412,6.761a3.858,3.858,0,1,1-3.858,3.858A3.866,3.866,0,0,1,85.966,115.055Zm0,11.573a7.715,7.715,0,1,0-7.715-7.715A7.724,7.724,0,0,0,85.966,126.628ZM72.458,140.151a12.489,12.489,0,0,1,6.465,1.936,12.369,12.369,0,0,1-6.465,1.922,8.9,8.9,0,0,1-4.7-1.936,8.987,8.987,0,0,1,4.7-1.922Zm0,7.715a16.668,16.668,0,0,0,11.009-4.422l1.371-1.371L83.466,140.7a16.677,16.677,0,0,0-11.009-4.422c-4.53,0-8.629,3.979-9.087,4.422L62,142.059l1.371,1.384c.457.444,4.557,4.422,9.086,4.422Z" transform="translate(-62 -66.8)"/></svg>