<svg xmlns="http://www.w3.org/2000/svg" xmlns:xlink="http://www.w3.org/1999/xlink" fill="none" stroke="none" stroke-linecap="square" stroke-miterlimit="10" version="1.1" viewBox="0 0 476.491 457.247"><clipPath id="p.0"><path d="m0 0l476.4908 0l0 457.2467l-476.4908 0l0 -457.2467z" clip-rule="nonzero"/></clipPath><g clip-path="url(#p.0)"><path fill="#000" fill-opacity="0" fill-rule="evenodd" d="m0 0l476.4908 0l0 457.2467l-476.4908 0z"/><path fill="#fff" fill-rule="evenodd" d="m13.610236 156.26903l0 0c0 -78.49401 63.631973 -142.12598 142.12599 -142.12598l0 0c37.694153 0 73.84445 14.973945 100.498245 41.62774c26.653809 26.653793 41.627747 62.804092 41.627747 100.498245l0 0c0 78.49402 -63.631973 142.12599 -142.12599 142.12599l0 0c-78.49401 0 -142.12599 -63.631973 -142.12599 -142.12599z"/><path fill-rule="evenodd" stroke="#0988ec" stroke-linecap="butt" stroke-linejoin="round" stroke-width="24" d="m13.610236 156.26903l0 0c0 -78.49401 63.631973 -142.12598 142.12599 -142.12598l0 0c37.694153 0 73.84445 14.973945 100.498245 41.62774c26.653809 26.653793 41.627747 62.804092 41.627747 100.498245l0 0c0 78.49402 -63.631973 142.12599 -142.12599 142.12599l0 0c-78.49401 0 -142.12599 -63.631973 -142.12599 -142.12599z"/><path fill="#0988ec" fill-rule="evenodd" d="m52.822834 156.26903l0 0c0 -56.837494 46.075893 -102.91338 102.91339 -102.91338l0 0c27.294327 0 53.47075 10.8426285 72.77075 30.142632c19.300003 19.300003 30.142624 45.476425 30.142624 72.77075l0 0c0 56.837494 -46.075882 102.913376 -102.913376 102.913376l0 0c-56.837494 0 -102.91339 -46.075882 -102.91339 -102.913376z"/><path fill-rule="evenodd" stroke="#0988ec" stroke-linecap="butt" stroke-linejoin="round" stroke-width="2" d="m52.822834 156.26903l0 0c0 -56.837494 46.075893 -102.91338 102.91339 -102.91338l0 0c27.294327 0 53.47075 10.8426285 72.77075 30.142632c19.300003 19.300003 30.142624 45.476425 30.142624 72.77075l0 0c0 56.837494 -46.075882 102.913376 -102.913376 102.913376l0 0c-56.837494 0 -102.91339 -46.075882 -102.91339 -102.913376z"/><path fill="#0988ec" fill-rule="evenodd" d="m277.04852 236.91483l50.740173 50.740173l-20.692932 20.692902l-50.740143 -50.740143z"/><path fill-rule="evenodd" stroke="#0988ec" stroke-linecap="butt" stroke-linejoin="round" stroke-width="1" d="m277.04852 236.91483l50.740173 50.740173l-20.692932 20.692902l-50.740143 -50.740143z"/><path fill="#0988ec" fill-rule="evenodd" d="m349.77194 278.79535l124.449585 124.46719l-50.49518 50.488037l-124.449615 -124.46719z"/><path fill-rule="evenodd" stroke="#0988ec" stroke-linecap="butt" stroke-linejoin="round" stroke-width="1" d="m349.77194 278.79535l124.449585 124.46719l-50.49518 50.488037l-124.449615 -124.46719z"/><path fill="#0988ec" fill-rule="evenodd" d="m349.33765 278.6278l0 0c3.3578491 3.3583374 -5.188904 17.298187 -19.089691 31.135498l0 0c-13.900818 13.837341 -27.891724 22.332275 -31.249573 18.973938l0 0c-3.3578796 -3.3583374 5.1888733 -17.298187 19.089691 -31.135529l0 0c13.900787 -13.837341 27.891693 -22.332245 31.249573 -18.973907z"/><path fill-rule="evenodd" stroke="#0988ec" stroke-linecap="butt" stroke-linejoin="round" stroke-width="1" d="m349.33765 278.6278l0 0c3.3578491 3.3583374 -5.188904 17.298187 -19.089691 31.135498l0 0c-13.900818 13.837341 -27.891724 22.332275 -31.249573 18.973938l0 0c-3.3578796 -3.3583374 5.1888733 -17.298187 19.089691 -31.135529l0 0c13.900787 -13.837341 27.891693 -22.332245 31.249573 -18.973907z"/><path fill="#0988ec" fill-rule="evenodd" d="m473.78723 403.095l0 0c3.3578796 3.3583374 -5.1888733 17.298187 -19.089691 31.135529l0 0c-13.900787 13.837341 -27.891693 22.332245 -31.249573 18.973907l0 0c-3.3578491 -3.3583374 5.188904 -17.298187 19.089691 -31.135529l0 0c13.900818 -13.837341 27.891724 -22.332245 31.249573 -18.973907z"/><path fill-rule="evenodd" stroke="#0988ec" stroke-linecap="butt" stroke-linejoin="round" stroke-width="1" d="m473.78723 403.095l0 0c3.3578796 3.3583374 -5.1888733 17.298187 -19.089691 31.135529l0 0c-13.900787 13.837341 -27.891693 22.332245 -31.249573 18.973907l0 0c-3.3578491 -3.3583374 5.188904 -17.298187 19.089691 -31.135529l0 0c13.900818 -13.837341 27.891724 -22.332245 31.249573 -18.973907z"/><path fill="#000" fill-opacity="0" fill-rule="evenodd" d="m99.02756 83.57612l113.41733 0l0 145.38583l-113.41733 0z"/><path fill="#fff" fill-rule="nonzero" d="m155.30653 96.9159q18.75 0 29.25 9.109375q10.515625 9.09375 10.515625 22.609367q-0.390625 7.265625 -1.5625 10.90625q-1.171875 3.625 -3.515625 6.984375q-2.34375 3.359375 -6.5625 6.953125l-9.296875 6.796875q-3.4375 2.96875 -5.234375 5.515625q-1.796875 2.53125 -2.96875 7.6875l0 6.171875l-21.5625 0l0 -7.1875q0.546875 -8.046875 4.015625 -14.21875q3.484375 -6.171875 10.59375 -11.5625q7.109375 -5.390625 9.0625 -8.828125q1.953125 -3.4375 1.953125 -7.8125q0 -7.0312424 -3.484375 -10.703117q-3.46875 -3.671875 -10.109375 -3.671875q-7.890625 0 -12.1875 5.546875q-4.296875 5.546875 -4.296875 15.234367l-23.515625 0q0.46875 -17.734367 11.09375 -28.624992q10.625 -10.90625 27.8125 -10.90625zm11.953125 92.34374l0 24.609375l-25.15625 0l0 -24.609375l25.15625 0z"/><path fill="#0988ec" fill-rule="evenodd" d="m137.94751 183.8874l31.149597 0l0 32.346466l-31.149597 0z"/><path fill-rule="evenodd" stroke="#0988ec" stroke-linecap="butt" stroke-linejoin="round" stroke-width="1" d="m137.94751 183.8874l31.149597 0l0 32.346466l-31.149597 0z"/><path fill="#fff" fill-rule="evenodd" d="m142.3189 202.82545l0 0c0 -7.4101715 6.007141 -13.417313 13.417328 -13.417313l0 0c3.558487 0 6.971237 1.4136047 9.487473 3.92984c2.5162354 2.5162354 3.9298553 5.9289856 3.9298553 9.487473l0 0c0 7.410187 -6.007141 13.417328 -13.417328 13.417328l0 0c-7.410187 0 -13.417328 -6.007141 -13.417328 -13.417328z"/><path fill-rule="evenodd" stroke="#fff" stroke-linecap="butt" stroke-linejoin="round" stroke-width="1" d="m142.3189 202.82545l0 0c0 -7.4101715 6.007141 -13.417313 13.417328 -13.417313l0 0c3.558487 0 6.971237 1.4136047 9.487473 3.92984c2.5162354 2.5162354 3.9298553 5.9289856 3.9298553 9.487473l0 0c0 7.410187 -6.007141 13.417328 -13.417328 13.417328l0 0c-7.410187 0 -13.417328 -6.007141 -13.417328 -13.417328z"/></g></svg>