<svg width="584" height="584" viewBox="0 0 584 584" fill="none" xmlns="http://www.w3.org/2000/svg">
<circle cx="292" cy="292" r="292" fill="white"/>
<circle cx="292.5" cy="292.5" r="224.5" fill="#EC2409"/>
<path d="M321.636 291.999L418.846 194.784C421.52 192.108 422.996 188.538 423 184.731C423 180.922 421.525 177.348 418.846 174.676L410.328 166.159C407.649 163.477 404.079 162.008 400.268 162.008C396.463 162.008 392.893 163.477 390.215 166.159L293.004 263.367L195.79 166.159C193.116 163.477 189.543 162.008 185.734 162.008C181.929 162.008 178.357 163.477 175.683 166.159L167.16 174.676C161.613 180.222 161.613 189.244 167.16 194.784L264.373 291.999L167.16 389.209C164.484 391.89 163.011 395.46 163.011 399.267C163.011 403.074 164.484 406.644 167.16 409.322L175.681 417.839C178.355 420.519 181.929 421.991 185.732 421.991C189.541 421.991 193.113 420.519 195.787 417.839L293.002 320.629L390.212 417.839C392.891 420.519 396.461 421.991 400.266 421.991H400.27C404.077 421.991 407.647 420.519 410.325 417.839L418.844 409.322C421.518 406.646 422.994 403.074 422.994 399.267C422.994 395.46 421.518 391.89 418.844 389.212L321.636 291.999Z" fill="white"/>
</svg>
