<svg xmlns="http://www.w3.org/2000/svg" id="Layer_1" width="468.06" height="511" data-name="Layer 1" viewBox="0 0 468.06 511"><title>coach</title><path fill="#3c4c5c" d="M90,254.3H345.3V501.1H90Z" transform="translate(-21.9 1)"/><path fill="#d1e3ee" d="M90,254.3V501.1H30.5V313.9A59.54,59.54,0,0,1,90,254.3Z" transform="translate(-21.9 1)"/><path fill="#d1e3ee" d="M141.1,254.3H294.3v25.5a76.6,76.6,0,0,1-153.2,0V254.3Z" transform="translate(-21.9 1)"/><path fill="#f6f6e7" d="M370.9,305.4,481.5,416l-76.6,76.6h-34L268.8,390.5l85.1-85.1Z" transform="translate(-21.9 1)"/><path fill="#f8c09c" d="M277.3,450h76.6v51.1H277.3Z" transform="translate(-21.9 1)"/><path fill="#d1e3ee" d="M345.3,254.3a59.62,59.62,0,0,1,59.6,59.6V501.1H345.3Z" transform="translate(-21.9 1)"/><path fill="#f8c09c" d="M294.3,84.1V220.6a33.72,33.72,0,0,1-33.7,33.7H174.8a33.72,33.72,0,0,1-33.7-33.7h0V84.1Z" transform="translate(-21.9 1)"/><path fill="#ef937d" d="M186.1,160.3l29.2-87.4,16.1,5.4-29.2,87.4Z" transform="translate(-21.9 1)"/><path fill="#f8c09c" d="M175.1,245.8h85.1v34a42.5,42.5,0,0,1-85,0v-34Z" transform="translate(-21.9 1)"/><path fill="#67342c" d="M294.3,116.6l-19.6,26.1a25.07,25.07,0,0,1-33.6,5.2,25.66,25.66,0,0,0-14-4.3H208.3a25.1,25.1,0,0,0-14,4.3,25.19,25.19,0,0,1-33.6-5.2L141.1,119V220.6a33.72,33.72,0,0,0,33.7,33.7h85.8a33.72,33.72,0,0,0,33.7-33.7h0v-104Z" transform="translate(-21.9 1)"/><path fill="#ffbf41" d="M174.8,7.5h85.8a33.72,33.72,0,0,1,33.7,33.7V92.6H141.1V41.2A33.72,33.72,0,0,1,174.8,7.5Z" transform="translate(-21.9 1)"/><path d="M487.5,410.4l-74.1-74.1v-22a68.18,68.18,0,0,0-68.1-68.1H294.2a41.61,41.61,0,0,0,8.5-25.2V41.2A42.21,42.21,0,0,0,260.5-1H174.7a42.21,42.21,0,0,0-42.2,42.2V63.7A124.66,124.66,0,0,0,101,86.6a8.5,8.5,0,0,0,6,14.5h25.5V178a2.72,2.72,0,0,1,0,.9,16.41,16.41,0,0,1-.2,2.3,11.48,11.48,0,0,1,.1,1.9,11,11,0,0,1,.2,1.8,14.92,14.92,0,0,1-.2,2.1c0,.5-.1,1.1-.1,1.6s.1,1.3.1,1.9a20.76,20.76,0,0,1-.1,3.5,3.4,3.4,0,0,0,.1,1h.1v26a41.83,41.83,0,0,0,8.5,25.2H90a68.18,68.18,0,0,0-68.1,68.1V501.5a8.49,8.49,0,0,0,8.5,8.5H404.8a8.49,8.49,0,0,0,8.5-8.5v-5l74.1-74.1A8.42,8.42,0,0,0,487.5,410.4ZM81.5,493H39V314.3a51.18,51.18,0,0,1,42.5-50.4ZM174.8,16h85.8a25.22,25.22,0,0,1,25.2,25.2V73.4A110.39,110.39,0,0,0,217.7,50H189.3a123.58,123.58,0,0,0-39.6,6.5V41.2h0A25.07,25.07,0,0,1,174.8,16Zm85.8,230.2H174.8A25.22,25.22,0,0,1,149.6,221V195.1h17v-17h-17V142.9l4.5,5.6a33.54,33.54,0,0,0,45,7,16.86,16.86,0,0,1,9.2-2.8h18.8a16.61,16.61,0,0,1,9.2,2.8,33.54,33.54,0,0,0,45-7l4.5-5.6V221A25.29,25.29,0,0,1,260.6,246.2Zm25.2,17v17a68.19,68.19,0,0,1-59.6,67.5V330.5a51.08,51.08,0,0,0,42.5-50.3v-17ZM149.6,115.6V101.1H206l-12.7,38.1a27.06,27.06,0,0,0-3.7,2.1,16.61,16.61,0,0,1-22.2-3.4ZM268,137.8a16.44,16.44,0,0,1-22.2,3.4,32.85,32.85,0,0,0-18.7-5.6H212.5L224,101.1h61.8v14.5ZM131.1,84.1a106.3,106.3,0,0,1,58.2-17h28.4a93.78,93.78,0,0,1,54.1,17ZM209.2,493H98.5V263.2h34v17a85.3,85.3,0,0,0,76.6,84.7V493Zm0-145.3a68.19,68.19,0,0,1-59.6-67.5v-17h17v17a51.08,51.08,0,0,0,42.5,50.3v17.2Zm-25.6-67.5v-17h68.1v17a34.05,34.05,0,0,1-68.1,0ZM336.8,493H285.7V459h51.1Zm0-51.1h-5l-51.1-51.1,56-56V441.9Zm0-131.1-74.1,74.1a8.51,8.51,0,0,0,0,12l45.1,45H277.3a8.49,8.49,0,0,0-8.5,8.5V493H226.3V364.9a85.23,85.23,0,0,0,76.6-84.7v-17h34v47.6ZM396.4,493H353.9V263.9a51.09,51.09,0,0,1,42.5,50.4Zm17-20.6V360.3l56.1,56Z" transform="translate(-21.9 1)"/><rect width="30.8" height="35.3" x="127.7" y="176.2" fill="#67342c"/></svg>