<svg width="584" height="584" viewBox="0 0 584 584" fill="none" xmlns="http://www.w3.org/2000/svg">
<path d="M292 584C453.267 584 584 453.267 584 292C584 130.733 453.267 0 292 0C130.733 0 0 130.733 0 292C0 453.267 130.733 584 292 584Z" fill="white"/>
<path d="M390.03 69.3475L147.982 311.395C147.458 311.915 147.09 312.575 146.918 313.295L113.11 454.671C112.786 456.023 113.194 457.443 114.174 458.427C115.158 459.411 116.582 459.811 117.93 459.491L259.274 425.655C259.994 425.483 260.65 425.115 261.174 424.591L503.226 182.543C509.462 176.311 512.574 168.128 512.574 159.94C512.574 151.756 509.458 143.568 503.226 137.336L435.242 69.3515C422.774 56.8835 402.494 56.8835 390.03 69.3475Z" fill="#E6E7E8"/>
<path d="M242.346 437.759L101.002 471.599L134.81 330.223L376.858 88.1755C387.782 77.2515 405.49 77.2515 416.41 88.1755L484.394 156.159C495.318 167.083 495.318 184.791 484.394 195.711L242.346 437.759Z" fill="#FFD7E5"/>
<path d="M242.346 437.759L242.094 384.251L188.594 384.007L188.33 330.487L134.81 330.223L376.858 88.1755C387.782 77.2515 405.49 77.2515 416.41 88.1755L484.394 156.159C495.318 167.083 495.318 184.791 484.394 195.711L242.346 437.759Z" fill="#FFED99"/>
<path d="M377.578 141.235L188.33 330.487L188.594 384.007L242.094 384.251L431.342 195L377.578 141.235Z" fill="#FFD300"/>
<path d="M458.226 221.884L484.394 195.715C495.318 184.791 495.318 167.084 484.394 156.164L416.41 88.1795C405.486 77.2555 387.778 77.2555 376.858 88.1795L350.69 114.352L458.226 221.884Z" fill="#E55529"/>
<path d="M407.926 96.6595L475.91 164.643C486.834 175.567 486.83 193.275 475.91 204.195L484.394 195.711C495.318 184.787 495.318 167.079 484.394 156.159L416.41 88.1755C405.486 77.2515 387.778 77.2555 376.858 88.1755L368.374 96.6595C379.294 85.7395 397.006 85.7395 407.926 96.6595Z" fill="white"/>
<path d="M312.958 200.203C311.394 201.767 311.394 204.296 312.958 205.86C314.522 207.424 317.05 207.424 318.614 205.86L337.446 187.028C338.226 186.248 338.618 185.223 338.618 184.199C338.618 183.175 338.226 182.151 337.446 181.371C335.882 179.807 333.354 179.807 331.79 181.371L312.958 200.203Z" fill="#094492"/>
<path d="M374.034 85.3475L131.982 327.395C131.458 327.915 131.09 328.575 130.918 329.295L97.1098 470.671C96.7858 472.015 97.1898 473.447 98.1738 474.427C99.1578 475.411 100.582 475.811 101.93 475.491L243.274 441.651C243.994 441.479 244.65 441.111 245.174 440.587L487.226 198.539C493.458 192.307 496.574 184.119 496.574 175.935C496.574 167.747 493.458 159.564 487.226 153.332L419.242 85.3475C406.774 72.8835 386.498 72.8835 374.034 85.3475ZM371.922 141.236L344.422 168.736C342.858 170.3 342.858 172.828 344.422 174.392C345.986 175.956 348.514 175.956 350.078 174.392L377.578 146.892L425.686 195.004L240.446 380.247L192.57 380.027L192.334 332.139L306.546 217.927C307.326 217.147 307.718 216.123 307.718 215.099C307.718 214.075 307.326 213.051 306.546 212.271C304.982 210.707 302.454 210.707 300.89 212.271L186.682 326.479L144.422 326.271L350.69 120.004L371.922 141.236ZM246.298 428.147L246.102 385.899L431.342 200.655L452.566 221.879L246.298 428.147ZM142.89 457.455L115.134 429.699L137.962 334.239L184.346 334.467L184.59 384.023C184.602 386.215 186.378 387.995 188.57 388.003L238.114 388.231L238.33 434.603L142.89 457.455ZM413.582 91.0035L481.566 158.987C490.906 168.331 490.91 183.54 481.566 192.888L458.222 216.232L356.342 114.352L379.686 91.0075C389.034 81.6595 404.238 81.6595 413.582 91.0035Z" fill="#094492"/>
</svg>
