<svg xmlns="http://www.w3.org/2000/svg" id="StudentEngagement" viewBox="0 0 165 165"><defs><style>.cls-1{fill:#e99c2e}.cls-2,.cls-3,.cls-4{fill:none;stroke:#fff;stroke-width:3.93px}.cls-3{stroke-miterlimit:10}.cls-4{stroke-linecap:round;stroke-linejoin:round}.cls-5{opacity:.1}.cls-6{fill:#fff}</style></defs><title>Artboard 1</title><rect width="163.64" height="163.64" x=".73" y=".5" class="cls-1" rx="19.64"/><line x1="89.25" x2="93.96" y1="39.12" y2="34.41" class="cls-2"/><line x1="68.4" x2="73.09" y1="59.96" y2="55.27" class="cls-2"/><path d="M92.42,47.19A11.24,11.24,0,1,1,81.18,36,11.24,11.24,0,0,1,92.42,47.19Z" class="cls-3"/><line x1="91.25" x2="89.12" y1="85.01" y2="90.41" class="cls-2"/><line x1="99.26" x2="97.14" y1="64.73" y2="70.11" class="cls-2"/><line x1="86.85" x2="81.52" y1="80.75" y2="83.06" class="cls-2"/><line x1="106.85" x2="101.55" y1="72.08" y2="74.38" class="cls-2"/><line x1="101.63" x2="107.03" y1="80.51" y2="82.64" class="cls-2"/><line x1="81.35" x2="86.73" y1="72.5" y2="74.62" class="cls-2"/><path d="M101.5,80.46a7.86,7.86,0,1,1-4.42-10.2A7.86,7.86,0,0,1,101.5,80.46Z" class="cls-3"/><line x1="81.18" x2="81.18" y1="35.77" y2="29.12" class="cls-2"/><line x1="81.18" x2="81.18" y1="65.26" y2="58.62" class="cls-2"/><line x1="92.59" x2="99.24" y1="47.19" y2="47.19" class="cls-2"/><line x1="63.11" x2="69.74" y1="47.19" y2="47.19" class="cls-2"/><line x1="73.11" x2="68.4" y1="39.12" y2="34.41" class="cls-2"/><line x1="93.95" x2="89.26" y1="59.97" y2="55.27" class="cls-2"/><line x1="97.37" x2="99.68" y1="84.91" y2="90.23" class="cls-2"/><line x1="88.7" x2="91" y1="64.9" y2="70.21" class="cls-2"/><path d="M67,116.89A17.54,17.54,0,0,0,64.27,105c-1.63-2.46-14.22,2.37-17.43.78a6.1,6.1,0,0,1-3.24-4.37c-.19-1.07-.07-2.18-.25-3.26-.43-2.73-2.6-4.86-3.45-7.5.46-.61,4-2.24,4.42-2.85-5.6-.35-7-3.26-4.39-6.79-.09.12-11-5.07-6.62-10.3,1.46-1.76,3.65-2.76,5.29-4.35,5.32-5.17,3.44-15.16,5.64-21.76C49.9,27.58,67,18.66,84,18.7c40.53.11,46.48,33.37,45.5,46.43-1.27,17-12.31,27.71-26.49,35.18-3.06,1.62-3,6.36-1.8,9,1.11,2.37,2.92,4.36,4,6.73" class="cls-4"/><path d="M144.72,164.14H20.37A19.64,19.64,0,0,1,.73,144.5V20.14A19,19,0,0,1,7.27,5.41L157.82,159.23A19.61,19.61,0,0,1,144.72,164.14Z" class="cls-5"/><path d="M17.88,142.59v.8c0,1.1.36,1.72,1.2,1.72s1.16-.74,1.16-1.86c0-1.48-.32-2-1.76-3.12s-2.18-1.84-2.18-3.8c0-1.74.52-3.44,2.8-3.44s2.72,1.58,2.72,3.14v.66H20v-.62c0-1-.18-1.64-1-1.64s-1,.68-1,1.64.2,1.54,1.4,2.42c1.94,1.44,2.54,2.28,2.54,4.5,0,1.88-.62,3.64-3,3.64s-2.94-1.5-2.94-3.26v-.78Z" class="cls-6"/><path d="M25.2,134.75H23v-1.66h6.1v1.66H27v11.7H25.2Z" class="cls-6"/><path d="M32.28,133.09v10.26c0,1,.34,1.66,1.22,1.66s1.22-.66,1.22-1.66V133.09H36.5v10.22c0,2.08-.94,3.32-3,3.32s-3-1.1-3-3.3V133.09Z" class="cls-6"/><path d="M38.82,133.09H41.5c2.86,0,3.4,1.6,3.4,3.92v5.2c0,2-.34,4.24-3.44,4.24H38.82Zm1.8,11.82h.72c1.46,0,1.74-.88,1.74-2.42v-5.64c0-1.36-.24-2.22-1.74-2.22h-.72Z" class="cls-6"/><path d="M51.74,140.19h-3v4.62h3.38l-.22,1.64H47V133.09H51.9v1.66H48.78v3.8h3Z" class="cls-6"/><path d="M53.72,146.45V133.09h2.1l2,7.4a22.53,22.53,0,0,1,.52,2.38h0c-.1-1.72-.1-3.6-.1-5.78v-4H59.9v13.36h-2L55.68,138c-.18-.7-.28-1.26-.36-1.66h0c.08,1.62.1,3.56.1,6v4.12Z" class="cls-6"/><path d="M63.54,134.75H61.38v-1.66h6.1v1.66H65.32v11.7H63.54Z" class="cls-6"/><path d="M76.8,140.19h-3v4.62h3.38L77,146.45H72V133.09H77v1.66H73.84v3.8h3Z" class="cls-6"/><path d="M78.78,146.45V133.09h2.1l2,7.4a22.53,22.53,0,0,1,.52,2.38h0c-.1-1.72-.1-3.6-.1-5.78v-4H85v13.36h-2L80.74,138c-.18-.7-.28-1.26-.36-1.66h0c.08,1.62.1,3.56.1,6v4.12Z" class="cls-6"/><path d="M93.08,146.45h-1.4c0-.22-.08-.78-.1-1.06a2,2,0,0,1-2,1.24c-1.9,0-2.54-1.4-2.54-3.6v-6.44c0-2.2.88-3.68,3-3.68,2.62,0,3,1.88,3,3.42v.4H91.26v-.46c0-.82-.12-1.74-1.18-1.74-.82,0-1.2.56-1.2,1.8v6.86c0,1.18.32,1.86,1.16,1.86,1,0,1.24-.92,1.24-2.42v-2H90v-1.54h3.1Z" class="cls-6"/><path d="M97.08,142.59l-.54,3.86H94.72l2.18-13.36h2.54l2.26,13.36H99.82l-.6-3.86ZM99,140.93c-.36-2.54-.68-4.76-.82-6.16h-.06c-.06,1.08-.5,4-.8,6.16Z" class="cls-6"/><path d="M109.16,146.45h-1.4c0-.22-.08-.78-.1-1.06a2,2,0,0,1-2,1.24c-1.9,0-2.54-1.4-2.54-3.6v-6.44c0-2.2.88-3.68,3-3.68,2.62,0,3,1.88,3,3.42v.4h-1.78v-.46c0-.82-.12-1.74-1.18-1.74-.82,0-1.2.56-1.2,1.8v6.86c0,1.18.32,1.86,1.16,1.86,1,0,1.24-.92,1.24-2.42v-2h-1.3v-1.54h3.1Z" class="cls-6"/><path d="M116.14,140.19h-3v4.62h3.38l-.22,1.64h-5V133.09h4.92v1.66h-3.12v3.8h3Z" class="cls-6"/><path d="M124.88,141.23c0-2.36,0-5.1.08-6.58h0c-.32,2.28-1.18,7.88-1.82,11.8h-1.7c-.48-3.46-1.36-9.4-1.66-11.82h0c0,1.56.1,4.58.1,6.88v4.94h-1.64V133.09h2.66c.62,3.62,1.3,7.9,1.48,9.7h0c.2-1.8,1.06-6.28,1.68-9.7h2.58v13.36h-1.72Z" class="cls-6"/><path d="M133.72,140.19h-3v4.62h3.38l-.22,1.64h-5V133.09h4.92v1.66h-3.12v3.8h3Z" class="cls-6"/><path d="M135.7,146.45V133.09h2.1l2,7.4a22.53,22.53,0,0,1,.52,2.38h0c-.1-1.72-.1-3.6-.1-5.78v-4h1.66v13.36h-2l-2.2-8.44c-.18-.7-.28-1.26-.36-1.66h0c.08,1.62.1,3.56.1,6v4.12Z" class="cls-6"/><path d="M145.52,134.75h-2.16v-1.66h6.1v1.66H147.3v11.7h-1.78Z" class="cls-6"/></svg>