<?xml version="1.0" encoding="utf-8"?>
<!-- Generator: Adobe Illustrator 25.4.1, SVG Export Plug-In . SVG Version: 6.00 Build 0)  -->
<svg version="1.1" id="Layer_1" xmlns="http://www.w3.org/2000/svg" xmlns:xlink="http://www.w3.org/1999/xlink" x="0px" y="0px"
	 viewBox="0 0 50 50" style="enable-background:new 0 0 50 50;" xml:space="preserve">
<style type="text/css">
	.st0{fill:#FFFFFF;}
	.st1{font-family:'MyriadPro-Regular';}
	.st2{font-size:17.9172px;}
</style>
<path class="st0" d="M22,0c-2.2,0-4,1.8-4,4v16c0,2.2,1.8,4,4,4h15.6l7.7,6.8c0.3,0.3,0.7,0.3,1.1,0.2c0.4-0.2,0.6-0.5,0.6-0.9v-6.2
	c1.7-0.4,3-2,3-3.8V4c0-2.2-1.8-4-4-4H22z M22,2h24c1.2,0,2,0.8,2,2v16c0,1.2-0.8,2-2,2c-0.6,0-1,0.4-1,1v4.8l-6.3-5.6
	C38.5,22.1,38.2,22,38,22H22c-1.2,0-2-0.8-2-2V4C20,2.8,20.8,2,22,2z M4,19c-2.2,0-4,1.8-4,4v16c0,1.9,1.3,3.4,3,3.8V49
	c0,0.4,0.2,0.7,0.6,0.9c0.4,0.2,0.8,0.1,1.1-0.2l7.7-6.8H28c2.2,0,4-1.8,4-4V25h-2v14c0,1.2-0.8,2-2,2H12c-0.2,0-0.5,0.1-0.7,0.2
	L5,46.8V42c0-0.6-0.4-1-1-1c-1.2,0-2-0.8-2-2V23c0-1.2,0.8-2,2-2h13v-2H4z"/>
<text transform="matrix(1 0 0 1 30.1582 17.703)" class="st0 st1 st2">?</text>
<text transform="matrix(-1 0 0 1 20 37.1381)" class="st0 st1 st2">?</text>
</svg>
