<svg fill="#fff" xmlns="http://www.w3.org/2000/svg"  viewBox="0 0 50 50" width="50px" height="50px"><path d="M 22 0 C 19.789063 0 18 1.789063 18 4 L 18 20 C 18 22.210938 19.789063 24 22 24 L 37.625 24 L 45.34375 30.75 C 45.640625 31.007813 46.054688 31.066406 46.414063 30.90625 C 46.769531 30.746094 47 30.390625 47 30 L 47 23.8125 C 48.714844 23.363281 50 21.855469 50 20 L 50 4 C 50 1.789063 48.210938 0 46 0 Z M 22 2 L 46 2 C 47.191406 2 48 2.808594 48 4 L 48 20 C 48 21.191406 47.191406 22 46 22 C 45.449219 22 45 22.449219 45 23 L 45 27.8125 L 38.65625 22.25 C 38.476563 22.089844 38.242188 22 38 22 L 22 22 C 20.808594 22 20 21.191406 20 20 L 20 4 C 20 2.808594 20.808594 2 22 2 Z M 33 6.09375 L 30.5 17.59375 L 32.3125 17.59375 L 32.90625 14.59375 L 35.09375 14.59375 L 35.6875 17.59375 L 37.5 17.59375 L 35.09375 6.09375 Z M 34 8 L 34.09375 8 C 34.195313 8.800781 34.300781 9.894531 34.5 10.59375 L 35 13.1875 L 33.09375 13.1875 L 33.59375 10.59375 C 33.695313 9.894531 33.898438 8.800781 34 8 Z M 4 19 C 1.789063 19 0 20.789063 0 23 L 0 39 C 0 40.855469 1.285156 42.363281 3 42.8125 L 3 49 C 3 49.390625 3.230469 49.746094 3.585938 49.90625 C 3.945313 50.066406 4.359375 50.007813 4.65625 49.75 L 12.375 43 L 28 43 C 30.210938 43 32 41.210938 32 39 L 32 25 L 30 25 L 30 39 C 30 40.191406 29.191406 41 28 41 L 12 41 C 11.757813 41 11.523438 41.089844 11.34375 41.25 L 5 46.8125 L 5 42 C 5 41.449219 4.550781 41 4 41 C 2.808594 41 2 40.191406 2 39 L 2 23 C 2 21.808594 2.808594 21 4 21 L 17 21 L 17 19 Z M 15.59375 25 C 13.292969 25 12 27.414063 12 30.8125 C 12 34.710938 13.304688 36.6875 15.40625 36.6875 C 15.507813 36.6875 15.707031 36.804688 15.90625 36.90625 C 16.605469 37.304688 17.789063 37.914063 18.6875 38.3125 L 19.3125 36.90625 C 18.613281 36.707031 17.792969 36.394531 17.09375 36.09375 L 17.09375 36 C 18.195313 35.398438 18.90625 33.6875 18.90625 30.6875 C 18.90625 27.585938 17.992188 25 15.59375 25 Z M 15.5 26.5 C 16.601563 26.5 17 28.488281 17 30.6875 C 17 33.085938 16.601563 35.09375 15.5 35.09375 C 14.300781 35.09375 13.90625 33.085938 13.90625 30.6875 C 13.90625 28.585938 14.300781 26.5 15.5 26.5 Z"/></svg>