<?xml version="1.0" encoding="iso-8859-1"?>
<!-- Generator: Adobe Illustrator 19.0.0, SVG Export Plug-In . SVG Version: 6.00 Build 0)  -->
<svg version="1.1" id="Capa_1" xmlns="http://www.w3.org/2000/svg" xmlns:xlink="http://www.w3.org/1999/xlink" x="0px" y="0px"
	 viewBox="0 0 59.99 59.99" style="enable-background:new 0 0 59.99 59.99;" xml:space="preserve">
<g id="XMLID_5_">
	<path id="XMLID_148_" style="fill:#556180;" d="M30.005,51c-11.579,0-21-9.421-21-21s9.421-21,21-21s21,9.421,21,21
		S41.584,51,30.005,51"/>
	<path id="XMLID_147_" style="fill:#FFFFFF;" d="M30.005,15c-0.552,0-1-0.447-1-1v-2c0-0.553,0.448-1,1-1c0.552,0,1,0.447,1,1v2
		C31.005,14.553,30.557,15,30.005,15"/>
	<path id="XMLID_146_" style="fill:#FFFFFF;" d="M30.005,49c-0.552,0-1-0.447-1-1v-2c0-0.553,0.448-1,1-1c0.552,0,1,0.447,1,1v2
		C31.005,48.553,30.557,49,30.005,49"/>
	<path id="XMLID_145_" style="fill:#FFFFFF;" d="M48.005,31h-2c-0.552,0-1-0.447-1-1c0-0.553,0.448-1,1-1h2c0.552,0,1,0.447,1,1
		C49.005,30.553,48.557,31,48.005,31"/>
	<path id="XMLID_144_" style="fill:#FFFFFF;" d="M14.005,31h-2c-0.552,0-1-0.447-1-1c0-0.553,0.448-1,1-1h2c0.552,0,1,0.447,1,1
		C15.005,30.553,14.557,31,14.005,31"/>
	<path id="XMLID_141_" style="fill:#FFFFFF;" d="M30.005,33c-2.206,0-4-1.794-4-4s1.794-4,4-4c2.206,0,4,1.794,4,4
		S32.211,33,30.005,33 M30.005,27c-1.103,0-2,0.897-2,2s0.897,2,2,2c1.103,0,2-0.897,2-2S31.108,27,30.005,27"/>
	<path id="XMLID_140_" style="fill:#FFFFFF;" d="M30.005,27c-0.552,0-1-0.447-1-1v-6c0-0.553,0.448-1,1-1c0.552,0,1,0.447,1,1v6
		C31.005,26.553,30.557,27,30.005,27"/>
	<path id="XMLID_139_" style="fill:#FFFFFF;" d="M19.005,41c-0.256,0-0.512-0.098-0.707-0.293c-0.391-0.391-0.391-1.023,0-1.414
		l8.879-8.879c0.391-0.391,1.023-0.391,1.414,0c0.391,0.391,0.391,1.023,0,1.414l-8.879,8.879C19.517,40.902,19.261,41,19.005,41"/>
	<path id="XMLID_138_" style="fill:#D8635F;" d="M1.005,31c-0.552,0-1-0.447-1-1c0-16.542,13.458-30,30-30
		c7.733,0,15.081,2.946,20.69,8.295c0.4,0.381,0.415,1.014,0.034,1.414c-0.381,0.4-1.015,0.414-1.414,0.033
		C44.08,4.75,37.222,2,30.005,2c-15.439,0-28,12.561-28,28C2.005,30.553,1.557,31,1.005,31"/>
	<path id="XMLID_137_" style="fill:#D8635F;" d="M51.005,10h-9c-0.552,0-1-0.447-1-1c0-0.553,0.448-1,1-1h7V1c0-0.553,0.448-1,1-1
		c0.552,0,1,0.447,1,1V10z"/>
	<path id="XMLID_105_" style="fill:#D8635F;" d="M29.425,59.99c-0.55-0.011-0.99-0.46-0.98-1.02c0.01-0.55,0.47-0.991,1.02-0.98
		c0.55,0.01,0.99,0.47,0.98,1.02c-0.01,0.55-0.45,0.98-1,0.98H29.425z M31.445,58.979c-0.05-0.549,0.36-1.029,0.91-1.08
		c0.55-0.04,1.04,0.371,1.08,0.92c0.05,0.551-0.36,1.031-0.91,1.071v0.009h-0.08C31.925,59.899,31.485,59.5,31.445,58.979
		 M26.335,59.78v-0.01c-0.55-0.06-0.94-0.56-0.87-1.11c0.07-0.551,0.56-0.94,1.11-0.87c0.55,0.069,0.94,0.56,0.87,1.109
		c-0.06,0.511-0.49,0.881-0.99,0.881H26.335z M34.425,58.68c-0.1-0.54,0.26-1.071,0.8-1.17c0.54-0.1,1.07,0.25,1.17,0.8
		c0.1,0.54-0.26,1.06-0.8,1.169c-0.06,0.011-0.12,0.011-0.18,0.011C34.945,59.49,34.515,59.16,34.425,58.68 M23.275,59.24
		c-0.53-0.12-0.87-0.66-0.75-1.2c0.13-0.54,0.66-0.87,1.2-0.75c0.54,0.12,0.88,0.66,0.75,1.2c-0.1,0.46-0.52,0.77-0.97,0.77
		C23.425,59.26,23.355,59.26,23.275,59.24 M37.365,58.069c-0.16-0.529,0.14-1.09,0.67-1.239c0.53-0.16,1.09,0.14,1.25,0.66
		c0.16,0.53-0.14,1.09-0.67,1.25c-0.1,0.03-0.2,0.04-0.29,0.04C37.895,58.78,37.495,58.5,37.365,58.069 M20.295,58.39
		c-0.52-0.18-0.8-0.75-0.62-1.27c0.18-0.53,0.75-0.801,1.27-0.62c0.52,0.17,0.8,0.74,0.62,1.27c-0.14,0.41-0.53,0.669-0.94,0.669
		C20.515,58.439,20.405,58.42,20.295,58.39 M40.225,57.16c-0.21-0.511,0.03-1.1,0.54-1.31c0.51-0.21,1.09,0.03,1.31,0.54
		c0.21,0.509-0.03,1.089-0.54,1.31c-0.13,0.05-0.26,0.07-0.39,0.07C40.755,57.77,40.385,57.54,40.225,57.16 M17.415,57.229
		c-0.5-0.229-0.71-0.83-0.48-1.33c0.23-0.5,0.82-0.719,1.33-0.479c0.5,0.229,0.71,0.82,0.48,1.32c-0.17,0.369-0.53,0.579-0.91,0.579
		C17.695,57.319,17.555,57.29,17.415,57.229 M42.975,55.95c-0.27-0.48-0.09-1.091,0.4-1.35c0.48-0.27,1.09-0.09,1.35,0.4
		c0.27,0.479,0.09,1.09-0.4,1.35c-0.15,0.089-0.31,0.129-0.47,0.129C43.495,56.479,43.155,56.29,42.975,55.95 M14.675,55.78
		c-0.47-0.28-0.63-0.9-0.34-1.37c0.28-0.48,0.89-0.63,1.37-0.35c0.47,0.29,0.63,0.9,0.34,1.37c-0.19,0.32-0.52,0.49-0.86,0.49
		C15.015,55.92,14.835,55.88,14.675,55.78 M45.585,54.47c-0.32-0.45-0.2-1.08,0.25-1.39c0.46-0.31,1.08-0.2,1.39,0.26
		c0.32,0.45,0.2,1.08-0.25,1.389c-0.18,0.121-0.37,0.17-0.57,0.17C46.085,54.899,45.775,54.75,45.585,54.47 M12.105,54.06
		L12.105,54.06c-0.45-0.331-0.54-0.96-0.21-1.4c0.33-0.45,0.96-0.54,1.4-0.21c0.44,0.33,0.53,0.96,0.21,1.4
		c-0.2,0.27-0.5,0.4-0.81,0.4C12.485,54.25,12.275,54.189,12.105,54.06 M48.025,52.729c-0.36-0.419-0.31-1.049,0.11-1.41
		c0.42-0.359,1.05-0.31,1.41,0.111c0.36,0.42,0.31,1.049-0.11,1.41c-0.19,0.16-0.42,0.24-0.65,0.24
		C48.505,53.08,48.225,52.96,48.025,52.729 M9.715,52.08L9.715,52.08c-0.41-0.38-0.44-1.011-0.06-1.42
		c0.37-0.4,1.01-0.431,1.41-0.06v0.009c0.41,0.37,0.43,1,0.06,1.411c-0.2,0.209-0.47,0.32-0.74,0.32
		C10.145,52.34,9.905,52.25,9.715,52.08 M50.275,50.74c-0.4-0.381-0.42-1.011-0.03-1.41c0.38-0.4,1.01-0.41,1.41-0.03
		c0.4,0.38,0.41,1.01,0.03,1.41c-0.19,0.21-0.46,0.31-0.72,0.31C50.715,51.02,50.465,50.93,50.275,50.74 M7.545,49.859
		c-0.37-0.409-0.33-1.04,0.08-1.409c0.42-0.36,1.05-0.33,1.41,0.09c0.37,0.41,0.33,1.04-0.08,1.41c-0.19,0.17-0.43,0.25-0.66,0.25
		C8.015,50.2,7.735,50.09,7.545,49.859 M52.305,48.54c-0.43-0.34-0.51-0.971-0.17-1.4c0.34-0.44,0.96-0.52,1.4-0.18
		c0.44,0.34,0.52,0.97,0.18,1.399c-0.2,0.261-0.5,0.391-0.79,0.391C52.705,48.75,52.495,48.68,52.305,48.54 M5.605,47.439
		c-0.32-0.449-0.22-1.069,0.23-1.399c0.45-0.32,1.08-0.21,1.4,0.23c0.32,0.45,0.22,1.08-0.23,1.4c-0.18,0.13-0.38,0.189-0.58,0.189
		C6.105,47.859,5.805,47.71,5.605,47.439 M54.105,46.14c-0.47-0.29-0.61-0.911-0.32-1.38c0.29-0.46,0.91-0.611,1.38-0.321
		c0.47,0.29,0.61,0.911,0.32,1.38c-0.19,0.311-0.52,0.471-0.85,0.471C54.455,46.29,54.275,46.24,54.105,46.14 M3.935,44.83
		c-0.28-0.48-0.11-1.09,0.37-1.36c0.48-0.281,1.09-0.111,1.36,0.37h0.01c0.27,0.479,0.1,1.09-0.38,1.36
		c-0.15,0.09-0.33,0.13-0.49,0.13C4.455,45.33,4.115,45.149,3.935,44.83 M55.645,43.569c-0.49-0.239-0.7-0.84-0.46-1.34
		c0.24-0.5,0.85-0.699,1.34-0.459c0.5,0.24,0.7,0.839,0.46,1.339c-0.17,0.351-0.53,0.561-0.9,0.561
		C55.935,43.67,55.785,43.64,55.645,43.569 M2.535,42.06c-0.22-0.51,0.01-1.1,0.51-1.32c0.51-0.22,1.1,0.01,1.32,0.51
		c0.22,0.51-0.01,1.1-0.51,1.319c-0.13,0.061-0.27,0.091-0.4,0.091C3.065,42.66,2.705,42.43,2.535,42.06 M56.915,40.85
		c-0.52-0.19-0.78-0.76-0.59-1.281c0.18-0.52,0.76-0.789,1.28-0.599c0.52,0.19,0.78,0.759,0.59,1.28c-0.14,0.41-0.53,0.66-0.94,0.66
		C57.145,40.91,57.025,40.89,56.915,40.85 M1.435,39.16c-0.17-0.53,0.12-1.091,0.65-1.261c0.52-0.17,1.09,0.121,1.25,0.651
		c0.17,0.52-0.12,1.09-0.64,1.26c-0.1,0.03-0.21,0.04-0.31,0.04C1.965,39.85,1.575,39.58,1.435,39.16 M57.895,38.02
		c-0.53-0.14-0.86-0.68-0.73-1.22c0.14-0.53,0.68-0.861,1.22-0.73c0.53,0.141,0.86,0.681,0.72,1.221c-0.11,0.45-0.52,0.76-0.97,0.76
		C58.055,38.05,57.975,38.04,57.895,38.02 M0.645,36.16c-0.12-0.54,0.23-1.07,0.77-1.181c0.54-0.12,1.07,0.231,1.18,0.771
		c0.12,0.54-0.23,1.069-0.77,1.18c-0.07,0.02-0.14,0.02-0.21,0.02C1.155,36.95,0.735,36.63,0.645,36.16 M58.575,35.09
		c-0.55-0.08-0.93-0.58-0.85-1.13c0.08-0.54,0.59-0.93,1.13-0.851c0.55,0.08,0.93,0.591,0.85,1.131c-0.07,0.5-0.5,0.86-0.99,0.86
		C58.675,35.1,58.625,35.1,58.575,35.09 M0.165,33.09c-0.06-0.54,0.34-1.04,0.89-1.09c0.55-0.061,1.04,0.34,1.1,0.89
		c0.06,0.549-0.34,1.04-0.89,1.1h-0.11C0.655,33.99,0.215,33.609,0.165,33.09 M58.945,32.12c-0.55-0.02-0.98-0.49-0.96-1.04
		c0.02-0.55,0.49-0.98,1.04-0.96c0.55,0.02,0.98,0.48,0.96,1.04c-0.02,0.529-0.46,0.96-1,0.96H58.945z M0.005,30c0-0.55,0.45-1,1-1
		c0.55,0,1,0.45,1,1s-0.45,1-1,1C0.455,31,0.005,30.55,0.005,30"/>
</g>
<g>
</g>
<g>
</g>
<g>
</g>
<g>
</g>
<g>
</g>
<g>
</g>
<g>
</g>
<g>
</g>
<g>
</g>
<g>
</g>
<g>
</g>
<g>
</g>
<g>
</g>
<g>
</g>
<g>
</g>
</svg>
