<svg width="80" height="80" viewBox="0 0 80 80" fill="none" xmlns="http://www.w3.org/2000/svg">
<mask id="mask0" mask-type="alpha" maskUnits="userSpaceOnUse" x="0" y="0" width="80" height="80">
<circle cx="40" cy="40" r="40" fill="#094492"/>
</mask>
<g mask="url(#mask0)">
<circle cx="40" cy="40" r="40" fill="#DFDFDF"/>
<path d="M47.9418 46.5584C47.6208 45.6049 46.9984 44.775 46.1639 44.1877C45.3294 43.6004 44.3256 43.2859 43.2965 43.2893H35.7038C34.6747 43.2858 33.6709 43.6003 32.8364 44.1876C32.0019 44.7749 31.3795 45.6048 31.0586 46.5584L26.143 61.2046C26.0216 61.5609 25.9768 61.9378 26.0113 62.3117C26.0721 62.9586 26.3595 63.5654 26.8252 64.0298C27.2909 64.4943 27.9064 64.7882 28.5682 64.862C29.23 64.9357 29.8977 64.7849 30.4589 64.435C31.0201 64.085 31.4405 63.5571 31.6494 62.9403L32.4822 60.4591V82.1414C32.4822 82.8992 32.7909 83.6259 33.3404 84.1618C33.8898 84.6976 34.635 84.9986 35.4121 84.9986C36.1891 84.9986 36.9344 84.6976 37.4838 84.1618C38.0333 83.6259 38.342 82.8992 38.342 82.1414V65.1756H40.6573V82.1425C40.6573 82.9004 40.966 83.6272 41.5155 84.1631C42.065 84.6989 42.8103 85 43.5874 85C44.3645 85 45.1098 84.6989 45.6593 84.1631C46.2088 83.6272 46.5176 82.9004 46.5176 82.1425V60.4569L47.3504 62.9381C47.5596 63.5548 47.9801 64.0823 48.5412 64.4322C49.1024 64.782 49.77 64.9327 50.4317 64.8589C51.0934 64.7852 51.7089 64.4914 52.1746 64.0271C52.6404 63.5628 52.928 62.9563 52.9891 62.3095C53.0229 61.9356 52.9781 61.5588 52.8573 61.2024L47.9418 46.5562V46.5584ZM36.9466 40.7475C37.8755 41.0553 38.8661 41.1433 39.8368 41.0042C40.8074 40.8652 41.7303 40.503 42.5292 39.9477C43.3281 39.3924 43.9802 38.6598 44.4316 37.8104C44.883 36.9609 45.1209 36.019 45.1256 35.0622C45.1308 33.9517 44.8217 32.8612 44.2323 31.911C43.6429 30.9607 42.7959 30.1876 41.7848 29.6766C40.7737 29.1656 39.6376 28.9367 38.5016 29.015C37.3656 29.0933 36.2738 29.4759 35.3465 30.1205C34.4191 30.7651 33.6922 31.6468 33.2457 32.6684C32.7992 33.6901 32.6505 34.8121 32.8159 35.9109C32.9814 37.0097 33.4546 38.0426 34.1834 38.896C34.9122 39.7494 35.8683 40.39 36.9466 40.7475Z" fill="white"/>
</g>
</svg>
