<svg xmlns="http://www.w3.org/2000/svg" xmlns:xlink="http://www.w3.org/1999/xlink" fill="none" stroke="none" stroke-linecap="square" stroke-miterlimit="10" version="1.1" viewBox="0 0 800.197 720.892"><clipPath id="p.0"><path d="m0 0l800.19684 0l0 720.8924l-800.19684 0l0 -720.8924z" clip-rule="nonzero"/></clipPath><g clip-path="url(#p.0)"><path fill="#000" fill-opacity="0" fill-rule="evenodd" d="m0 0l800.19684 0l0 720.8924l-800.19684 0z"/><path fill="#ccc" fill-rule="evenodd" d="m555.34644 35.64042l100.69293 0l0 50.803154l-100.69293 0z"/><path fill-rule="evenodd" stroke="#ccc" stroke-linecap="butt" stroke-linejoin="round" stroke-width="4" d="m555.34644 35.64042l100.69293 0l0 50.803154l-100.69293 0z"/><path fill="#000" fill-opacity="0" fill-rule="evenodd" d="m666.7323 25.84252l0 141.6693"/><path fill-rule="evenodd" stroke="#b7b7b7" stroke-linecap="butt" stroke-linejoin="round" stroke-width="24" d="m666.7323 25.84252l0 141.6693"/><path fill="#f3f3f3" fill-rule="evenodd" d="m68.519684 199.61417l662.9606 0l0 436.6299l-662.9606 0z"/><path fill-rule="evenodd" stroke="#b7b7b7" stroke-linecap="butt" stroke-linejoin="round" stroke-width="24" d="m68.519684 199.61417l662.9606 0l0 436.6299l-662.9606 0z"/><path fill="#ccc" fill-rule="evenodd" d="m66.44095 199.61417l333.55905 -161.29134l333.55908 161.29134z"/><path fill-rule="evenodd" stroke="#b7b7b7" stroke-linecap="butt" stroke-linejoin="round" stroke-width="24" d="m66.44095 199.61417l333.55905 -161.29134l333.55908 161.29134z"/><path fill="#ccc" fill-rule="evenodd" d="m17.716536 617.0842l0 0c0 -7.1348877 5.783985 -12.918884 12.918894 -12.918884l738.7291 0c3.4263306 0 6.7122803 1.361084 9.135071 3.7838745c2.4227295 2.4227295 3.7838135 5.70874 3.7838135 9.13501l0 51.674072c0 7.1348877 -5.7839966 12.918884 -12.918884 12.918884l-738.7291 0l0 0c-7.1349087 0 -12.918894 -5.7839966 -12.918894 -12.918884z"/><path fill-rule="evenodd" stroke="#b7b7b7" stroke-linecap="butt" stroke-linejoin="round" stroke-width="24" d="m17.716536 617.0842l0 0c0 -7.1348877 5.783985 -12.918884 12.918894 -12.918884l738.7291 0c3.4263306 0 6.7122803 1.361084 9.135071 3.7838745c2.4227295 2.4227295 3.7838135 5.70874 3.7838135 9.13501l0 51.674072c0 7.1348877 -5.7839966 12.918884 -12.918884 12.918884l-738.7291 0l0 0c-7.1349087 0 -12.918894 -5.7839966 -12.918894 -12.918884z"/><path fill="#efefef" fill-rule="evenodd" d="m354.11023 132.33333l0 0c0 -25.344215 20.545563 -45.889755 45.88977 -45.889755l0 0c12.170715 0 23.842957 4.8348007 32.448975 13.440796c8.605988 8.606003 13.440796 20.278244 13.440796 32.44896l0 0c0 25.344223 -20.545563 45.88977 -45.88977 45.88977l0 0c-25.344208 0 -45.88977 -20.545547 -45.88977 -45.88977z"/><path fill-rule="evenodd" stroke="#999" stroke-linecap="butt" stroke-linejoin="round" stroke-width="24" d="m354.11023 132.33333l0 0c0 -25.344215 20.545563 -45.889755 45.88977 -45.889755l0 0c12.170715 0 23.842957 4.8348007 32.448975 13.440796c8.605988 8.606003 13.440796 20.278244 13.440796 32.44896l0 0c0 25.344223 -20.545563 45.88977 -45.88977 45.88977l0 0c-25.344208 0 -45.88977 -20.545547 -45.88977 -45.88977z"/><path fill="#000" fill-opacity="0" fill-rule="evenodd" d="m391.53018 137.24672l32.97638 -16.944885"/><path fill-rule="evenodd" stroke="#b7b7b7" stroke-linecap="butt" stroke-linejoin="round" stroke-width="16" d="m391.53018 137.24672l32.97638 -16.944885"/><path fill="#000" fill-opacity="0" fill-rule="evenodd" d="m400.88452 137.24672l10.992126 23.149612"/><path fill-rule="evenodd" stroke="#b7b7b7" stroke-linecap="butt" stroke-linejoin="round" stroke-width="16" d="m400.88452 137.24672l10.992126 23.149612"/><path fill="#d9d9d9" fill-rule="evenodd" d="m297.53018 395.05103l0 0c0 -2.62146 2.125122 -4.7465515 4.746582 -4.7465515l100.995026 0c1.2588806 0 2.4661865 0.50006104 3.3563538 1.3902283c0.8901367 0.89016724 1.3902283 2.0974731 1.3902283 3.3563232l0 192.7746c0 2.62146 -2.125122 4.746582 -4.746582 4.746582l-100.995026 0c-2.62146 0 -4.746582 -2.125122 -4.746582 -4.746582z"/><path fill="#d9d9d9" fill-rule="evenodd" d="m408.01837 395.05103l0 0c0 -2.62146 2.125122 -4.7465515 4.746582 -4.7465515l100.995056 0c1.2588501 0 2.4661865 0.50006104 3.3563232 1.3902283c0.8901367 0.89016724 1.3902588 2.0974731 1.3902588 3.3563232l0 192.7746c0 2.62146 -2.125122 4.746582 -4.746582 4.746582l-100.995056 0c-2.62146 0 -4.746582 -2.125122 -4.746582 -4.746582z"/><path fill="#efefef" fill-rule="evenodd" d="m548.5171 260.209l0 0c0 -9.596329 7.779297 -17.375687 17.375671 -17.375687l93.5636 0c4.6082764 0 9.027893 1.830658 12.286438 5.089218c3.258606 3.2585754 5.0892334 7.6781464 5.0892334 12.2864685l0 69.50061c0 9.596313 -7.779358 17.375671 -17.375671 17.375671l-93.5636 0l0 0c-9.5963745 0 -17.375671 -7.779358 -17.375671 -17.375671z"/><path fill-rule="evenodd" stroke="#b7b7b7" stroke-linecap="butt" stroke-linejoin="round" stroke-width="24" d="m548.5171 260.209l0 0c0 -9.596329 7.779297 -17.375687 17.375671 -17.375687l93.5636 0c4.6082764 0 9.027893 1.830658 12.286438 5.089218c3.258606 3.2585754 5.0892334 7.6781464 5.0892334 12.2864685l0 69.50061c0 9.596313 -7.779358 17.375671 -17.375671 17.375671l-93.5636 0l0 0c-9.5963745 0 -17.375671 -7.779358 -17.375671 -17.375671z"/><path fill="#000" fill-opacity="0" fill-rule="evenodd" d="m612.67456 242.83333l0 104.25197"/><path fill-rule="evenodd" stroke="#b7b7b7" stroke-linecap="butt" stroke-linejoin="round" stroke-width="24" d="m612.67456 242.83333l0 104.25197"/><path fill="#000" fill-opacity="0" fill-rule="evenodd" d="m548.5171 294.95932l128.31494 0"/><path fill-rule="evenodd" stroke="#b7b7b7" stroke-linecap="butt" stroke-linejoin="round" stroke-width="24" d="m548.5171 294.95932l128.31494 0"/><path fill="#efefef" fill-rule="evenodd" d="m335.84253 260.209l0 0c0 -9.596329 7.779358 -17.375687 17.375671 -17.375687l93.5636 0c4.608307 0 9.027893 1.830658 12.2864685 5.089218c3.2585754 3.2585754 5.089203 7.6781464 5.089203 12.2864685l0 69.50061c0 9.596313 -7.779358 17.375671 -17.375671 17.375671l-93.5636 0l0 0c-9.596313 0 -17.375671 -7.779358 -17.375671 -17.375671z"/><path fill-rule="evenodd" stroke="#b7b7b7" stroke-linecap="butt" stroke-linejoin="round" stroke-width="24" d="m335.84253 260.209l0 0c0 -9.596329 7.779358 -17.375687 17.375671 -17.375687l93.5636 0c4.608307 0 9.027893 1.830658 12.2864685 5.089218c3.2585754 3.2585754 5.089203 7.6781464 5.089203 12.2864685l0 69.50061c0 9.596313 -7.779358 17.375671 -17.375671 17.375671l-93.5636 0l0 0c-9.596313 0 -17.375671 -7.779358 -17.375671 -17.375671z"/><path fill="#000" fill-opacity="0" fill-rule="evenodd" d="m400.0 242.83333l0 104.25197"/><path fill-rule="evenodd" stroke="#b7b7b7" stroke-linecap="butt" stroke-linejoin="round" stroke-width="24" d="m400.0 242.83333l0 104.25197"/><path fill="#000" fill-opacity="0" fill-rule="evenodd" d="m335.84253 294.95932l128.31494 0"/><path fill-rule="evenodd" stroke="#b7b7b7" stroke-linecap="butt" stroke-linejoin="round" stroke-width="24" d="m335.84253 294.95932l128.31494 0"/><path fill="#efefef" fill-rule="evenodd" d="m123.16798 260.209l0 0c0 -9.596329 7.7793503 -17.375687 17.375679 -17.375687l93.563614 0c4.608307 0 9.027878 1.830658 12.286453 5.089218c3.2585754 3.2585754 5.089218 7.6781464 5.089218 12.2864685l0 69.50061c0 9.596313 -7.779358 17.375671 -17.375671 17.375671l-93.563614 0l0 0c-9.596329 0 -17.375679 -7.779358 -17.375679 -17.375671z"/><path fill-rule="evenodd" stroke="#b7b7b7" stroke-linecap="butt" stroke-linejoin="round" stroke-width="24" d="m123.16798 260.209l0 0c0 -9.596329 7.7793503 -17.375687 17.375679 -17.375687l93.563614 0c4.608307 0 9.027878 1.830658 12.286453 5.089218c3.2585754 3.2585754 5.089218 7.6781464 5.089218 12.2864685l0 69.50061c0 9.596313 -7.779358 17.375671 -17.375671 17.375671l-93.563614 0l0 0c-9.596329 0 -17.375679 -7.779358 -17.375679 -17.375671z"/><path fill="#000" fill-opacity="0" fill-rule="evenodd" d="m187.32545 242.83333l0 104.25197"/><path fill-rule="evenodd" stroke="#b7b7b7" stroke-linecap="butt" stroke-linejoin="round" stroke-width="24" d="m187.32545 242.83333l0 104.25197"/><path fill="#000" fill-opacity="0" fill-rule="evenodd" d="m123.16798 294.95932l128.31497 0"/><path fill-rule="evenodd" stroke="#b7b7b7" stroke-linecap="butt" stroke-linejoin="round" stroke-width="24" d="m123.16798 294.95932l128.31497 0"/><path fill="#999" fill-rule="evenodd" d="m386.03937 499.74802l0 0c0 -3.8529358 3.1234436 -6.976349 6.9763794 -6.976349l0 0c1.8502502 0 3.6247253 0.73498535 4.9330444 2.043335c1.3083191 1.3083191 2.043335 3.0827637 2.043335 4.933014l0 0c0 3.8529663 -3.1234436 6.9763794 -6.9763794 6.9763794l0 0c-3.8529358 0 -6.9763794 -3.123413 -6.9763794 -6.9763794z"/><path fill="#999" fill-rule="evenodd" d="m416.2966 499.74802l0 0c0 -3.8529358 3.123413 -6.976349 6.9763794 -6.976349l0 0c1.8502502 0 3.6246948 0.73498535 4.9330444 2.043335c1.3083191 1.3083191 2.0433044 3.0827637 2.0433044 4.933014l0 0c0 3.8529663 -3.123413 6.9763794 -6.976349 6.9763794l0 0c-3.8529663 0 -6.9763794 -3.123413 -6.9763794 -6.9763794z"/><path fill="#000" fill-opacity="0" fill-rule="evenodd" d="m-14.71986 611.3186l746.1732 -568.5669l83.46454 109.574814l-746.1732 568.5669z"/><path fill="#666" fill-rule="nonzero" d="m141.88223 620.62573q-8.165314 6.2218018 -17.48494 7.704895q-9.30719 1.4736938 -17.87613 -1.9368896q-8.5784 -3.4230347 -14.628403 -11.365662q-6.0499954 -7.942627 -7.0720673 -17.123413q-1.0220642 -9.180786 2.869484 -17.764221q3.9039688 -8.592957 12.143852 -14.871582q6.947357 -5.293701 14.430077 -7.1254883q7.482727 -1.8317871 14.7823715 -0.16491699l-2.3555374 13.384888q-10.190521 -2.1356812 -18.219131 3.9819336q-4.958847 3.7785645 -7.1949463 8.939758q-2.2331314 5.139282 -1.4446106 10.687073q0.78852844 5.5477905 4.575691 10.519653q3.7777023 4.9595337 8.92556 7.2052q5.1383896 2.2332764 10.685303 1.444397q5.559334 -0.7984009 10.518181 -4.5769043q8.02861 -6.1176147 8.618668 -16.585754l13.527679 1.2822876q-0.26498413 7.5684204 -4.0546265 14.325928q-3.799118 6.745117 -10.746475 12.038818zm55.136276 -42.012573q-8.326874 6.3449097 -17.749481 7.847534q-9.410156 1.4931641 -17.988556 -1.9298096q-8.578415 -3.4230347 -14.562134 -11.2786255q-5.9931946 -7.868042 -7.015259 -17.048828q-1.0220642 -9.180786 2.9156494 -17.858398q3.9501343 -8.687012 12.277023 -15.031921q8.314453 -6.335449 17.699753 -7.8096924q9.385315 -1.4742432 18.001007 1.9203491q8.615677 3.3946533 14.608871 11.262695q5.983734 7.855591 6.968506 17.064758q0.984787 9.2092285 -2.92807 17.867859q-3.9128418 8.65863 -12.22731 14.99408zm-8.028793 -10.540466q4.735138 -3.6080322 6.8937073 -8.690552q2.1585693 -5.0825195 1.3700409 -10.630249q-0.7979889 -5.5602417 -4.5756836 -10.519714q-3.7871704 -4.971863 -8.925568 -7.205139q-5.138382 -2.2332764 -10.610733 -1.5012207q-5.4817963 0.7196655 -10.216934 4.327759q-4.735138 3.6080322 -6.8966675 8.712463q-2.1585693 5.0824585 -1.3700409 10.630249q0.7885132 5.5477295 4.5756836 10.519653q3.7776947 4.9594727 8.925568 7.2052q5.138382 2.2332764 10.610718 1.5011597q5.4847717 -0.7415161 10.21991 -4.3496094zm94.530945 -56.825867l-24.5018 -32.011993l4.385254 38.402252l-5.580261 4.252075l-35.245667 -13.806915l23.906494 31.385162l-11.607925 8.844971l-40.721527 -53.46045l10.228409 -7.7937927l45.31711 17.978088l-5.60907 -48.23471l10.153824 -7.7369995l40.883102 53.33734l-11.607941 8.844971zm-16.44281 -71.960266l12.366058 -9.422638l40.721497 53.46045l-12.366028 9.422638l-40.721527 -53.46045zm74.06244 -56.43387l40.721497 53.46045l-10.153809 7.736969l-51.36676 -12.150452l24.720734 32.454132l-12.216919 9.3089905l-40.721527 -53.46042l10.228394 -7.7938232l51.292206 12.207275l-24.720734 -32.454132l12.216919 -9.3089905zm68.51907 -11.29129l11.297211 -8.608246l16.521545 21.689972q-1.8503418 6.5959473 -6.2352905 12.726624q-4.3819885 6.108795 -10.185974 10.531311q-8.326874 6.344879 -17.683777 7.856415q-9.344482 1.5020752 -17.913422 -1.9085083q-8.5784 -3.4230347 -14.628387 -11.365662q-6.0500183 -7.9425964 -7.0720825 -17.123383q-1.0220642 -9.180756 2.9813538 -17.849487q4.015808 -8.678162 12.417267 -15.079895q7.0219116 -5.3505554 14.559692 -7.3421326q7.52829 -2.0039978 14.855164 -0.45611572l-2.3555298 13.384888q-10.330811 -1.6752014 -18.42154 4.4897766q-5.1080017 3.8921814 -7.456543 9.060486q-2.33609 5.158844 -1.5878296 10.7569275q0.7512512 5.576172 4.595215 10.62265q3.77771 4.959503 8.96286 7.1767883q5.1881104 2.1953735 10.772278 1.3780823q5.584198 -0.8173218 10.630035 -4.66214q5.3441467 -4.0720825 7.8773193 -9.616852l-11.929565 -15.661499zm83.62729 -18.697784q-6.338379 4.8296814 -13.5607605 7.622101q-7.2318726 2.7799683 -12.916016 2.7698364l-2.9002075 -12.523193q5.352173 -0.09048462 11.251862 -2.1696777q5.8996887 -2.0792236 10.634827 -5.6872864q5.269562 -4.0152893 6.599518 -7.503845q1.329956 -3.488556 -0.6488342 -6.0863647q-1.4486084 -1.9017639 -3.8962402 -2.0207825q-2.4570923 -0.13140869 -5.371155 0.89071655q-2.9110718 1.0002441 -7.576294 3.1013794q-7.2129517 3.2173767 -12.210724 4.7272034q-4.997772 1.5098267 -10.236816 0.4336853q-5.226654 -1.0856018 -9.297852 -6.4303894q-3.550476 -4.6611633 -3.9057922 -10.362213q-0.35531616 -5.7010803 3.0300903 -11.777344q3.3883667 -6.0981445 10.721008 -11.685425q5.107971 -3.8921814 10.929565 -6.3833313q5.824585 -2.5130615 11.232971 -3.0196533l3.3298645 12.31369q-10.60733 1.4428406 -18.014557 7.0869446q-5.182556 3.9490051 -6.380554 7.5334473q-1.2074585 3.5720215 0.88494873 6.3190002q2.0924072 2.7469788 5.973419 1.9112854q3.8840027 -0.85757446 10.747192 -4.0441895q7.222412 -3.204956 12.220184 -4.7147827q4.997772 -1.5098267 10.167603 -0.4988098q5.1727905 0.98913574 9.243988 6.3339233q3.4936523 4.586609 3.8117065 10.316071q0.31802368 5.7294617 -3.1076355 11.856018q-3.4226685 6.1046753 -10.75531 11.691986zm57.043793 -43.466064q-8.326904 6.3449097 -17.749512 7.8475647q-9.410156 1.4931641 -17.988525 -1.9298401q-8.57843 -3.4230347 -14.562164 -11.2786255q-5.9931946 -7.868042 -7.015259 -17.048828q-1.0220642 -9.180756 2.9156494 -17.858368q3.9501343 -8.687042 12.277039 -15.031952q8.314423 -6.3354187 17.699738 -7.809662q9.385315 -1.4742432 18.001038 1.9203644q8.615662 3.3946075 14.608826 11.26265q5.9837646 7.8556213 6.968506 17.064789q0.98480225 9.2091675 -2.9280396 17.867828q-3.9128418 8.658661 -12.227295 14.99408zm-8.028809 -10.540436q4.7351074 -3.6080627 6.8936768 -8.690582q2.1585693 -5.082489 1.3700562 -10.630249q-0.79797363 -5.560211 -4.5756836 -10.519684q-3.7871704 -4.9718933 -8.925537 -7.2051697q-5.1384277 -2.2332764 -10.610779 -1.5011902q-5.4817505 0.719635 -10.216919 4.3276978q-4.735138 3.6080933 -6.8966675 8.712494q-2.1585693 5.082489 -1.3700256 10.630249q0.7885132 5.54776 4.575653 10.519684q3.77771 4.9594727 8.925598 7.2051697q5.1383667 2.2332764 10.610718 1.5011902q5.484741 -0.74154663 10.21991 -4.3496094zm72.475525 -38.56653q-8.326843 6.3449097 -17.74945 7.8475647q-9.410156 1.4931946 -17.988586 -1.9298401q-8.578369 -3.4230042 -14.562134 -11.2786255q-5.993164 -7.868042 -7.015259 -17.048813q-1.0220337 -9.180771 2.9156494 -17.858353q3.9501343 -8.687073 12.277039 -15.031967q8.314453 -6.3354187 17.699768 -7.809662q9.385315 -1.4742432 18.000977 1.9203644q8.615723 3.3945923 14.608887 11.262634q5.9837036 7.8556213 6.968506 17.064804q0.98480225 9.209183 -2.9280396 17.867828q-3.9129028 8.658646 -12.227356 14.994064zm-8.028748 -10.540436q4.7351074 -3.6080627 6.8936768 -8.690567q2.1585693 -5.082489 1.3700562 -10.630264q-0.79803467 -5.560196 -4.5756836 -10.519669q-3.7871704 -4.9719086 -8.925598 -7.2051697q-5.1383667 -2.2332764 -10.610718 -1.5011902q-5.4818115 0.71965027 -10.216919 4.327713q-4.7351685 3.6080627 -6.8966675 8.712463q-2.1585693 5.0825043 -1.3700562 10.630264q0.7885132 5.54776 4.5756836 10.519669q3.77771 4.959488 8.925537 7.205185q5.1384277 2.233261 10.610779 1.5011902q5.484741 -0.74154663 10.21991 -4.3496246zm54.18225 -110.570404l40.721497 53.460434l-10.153809 7.7369843l-51.36676 -12.150452l24.720703 32.454132l-12.216919 9.309006l-40.721497 -53.46045l10.228394 -7.7937927l51.292175 12.207275l-24.720703 -32.454132l12.216919 -9.309006zm10.307312 -7.853958l14.205444 -10.824196l24.224548 36.702095l-9.470276 7.2161255l-28.959717 -33.094025zm48.294373 48.652664q-3.131897 2.386444 -6.7660522 1.9732513q-3.6436768 -0.42562866 -5.859131 -3.334198q-2.2060547 -2.8961334 -1.6293945 -6.419632q0.5765991 -3.5234833 3.783081 -5.966751q3.206421 -2.4432526 6.7559814 -2.063797q3.5495605 0.37945557 5.755554 3.275589q2.2155151 2.9085693 1.6584473 6.5350494q-0.56658936 3.6140442 -3.6984863 6.0004883z"/></g></svg>