<svg version="1.1" viewBox="0.0 0.0 596.1391076115485 720.0" fill="none" stroke="none" stroke-linecap="square" stroke-miterlimit="10" xmlns:xlink="http://www.w3.org/1999/xlink" xmlns="http://www.w3.org/2000/svg"><clipPath id="p.0"><path d="m0 0l596.1391 0l0 720.0l-596.1391 0l0 -720.0z" clip-rule="nonzero"/></clipPath><g clip-path="url(#p.0)"><path fill="#000000" fill-opacity="0.0" d="m0 0l596.1391 0l0 720.0l-596.1391 0z" fill-rule="evenodd"/><path fill="#efefef" d="m23.643045 112.720985l0 0c0 -50.443016 40.892143 -91.33516 91.33516 -91.33516l365.32968 0l0 0c24.223572 0 47.455048 9.622784 64.58371 26.75145c17.128662 17.128662 26.751465 40.360123 26.751465 64.58371l0 494.558c0 50.443054 -40.89215 91.335205 -91.335175 91.335205l-365.32968 0c-50.443016 0 -91.33516 -40.89215 -91.33516 -91.335205z" fill-rule="evenodd"/><path stroke="#999999" stroke-width="24.0" stroke-linejoin="round" stroke-linecap="butt" d="m23.643045 112.720985l0 0c0 -50.443016 40.892143 -91.33516 91.33516 -91.33516l365.32968 0l0 0c24.223572 0 47.455048 9.622784 64.58371 26.75145c17.128662 17.128662 26.751465 40.360123 26.751465 64.58371l0 494.558c0 50.443054 -40.89215 91.335205 -91.335175 91.335205l-365.32968 0c-50.443016 0 -91.33516 -40.89215 -91.33516 -91.335205z" fill-rule="evenodd"/><path fill="#cccccc" d="m91.367455 90.0l420.59842 0l0 543.5591l-420.59842 0z" fill-rule="evenodd"/><path stroke="#999999" stroke-width="24.0" stroke-linejoin="round" stroke-linecap="butt" d="m91.367455 90.0l420.59842 0l0 543.5591l-420.59842 0z" fill-rule="evenodd"/><path fill="#000000" fill-opacity="0.0" d="m415.0201 152.50613l0 0c37.08017 23.506119 58.601837 68.19931 59.830414 124.24759c1.2285767 56.04828 -17.936523 118.86044 -53.279236 174.61856l-139.81104 -88.629944z" fill-rule="evenodd"/><path fill="#000000" fill-opacity="0.0" d="m415.0201 152.50613l0 0c37.08017 23.506119 58.601837 68.19931 59.830414 124.24759c1.2285767 56.04828 -17.936523 118.86044 -53.279236 174.61856" fill-rule="evenodd"/><path stroke="#f3f3f3" stroke-width="24.0" stroke-linejoin="round" stroke-linecap="butt" d="m415.0201 152.50613l0 0c37.08017 23.506119 58.601837 68.19931 59.830414 124.24759c1.2285767 56.04828 -17.936523 118.86044 -53.279236 174.61856" fill-rule="evenodd"/><path fill="#efefef" d="m165.76903 42.031765l0 0c0 -7.465416 6.0519104 -13.51733 13.517334 -13.51733l236.71336 0c3.585022 0 7.023224 1.4241447 9.558197 3.959137c2.5350037 2.5349884 3.959137 5.973175 3.959137 9.558193l0 54.0677c0 7.465416 -6.0519104 13.517334 -13.517334 13.517334l-236.71336 0c-7.4654236 0 -13.517334 -6.051918 -13.517334 -13.517334z" fill-rule="evenodd"/><path stroke="#999999" stroke-width="24.0" stroke-linejoin="round" stroke-linecap="butt" d="m165.76903 42.031765l0 0c0 -7.465416 6.0519104 -13.51733 13.517334 -13.51733l236.71336 0c3.585022 0 7.023224 1.4241447 9.558197 3.959137c2.5350037 2.5349884 3.959137 5.973175 3.959137 9.558193l0 54.0677c0 7.465416 -6.0519104 13.517334 -13.517334 13.517334l-236.71336 0c-7.4654236 0 -13.517334 -6.051918 -13.517334 -13.517334z" fill-rule="evenodd"/><path fill="#f3f3f3" d="m-382.2527 246.95049l17.930206 -17.930222l19.046875 19.04689l19.046906 -19.04689l17.930206 17.930222l-19.046875 19.04689l19.046875 19.046906l-17.930206 17.930206l-19.046906 -19.046906l-19.046875 19.046906l-17.930206 -17.930206l19.046875 -19.046906z" fill-rule="evenodd"/><path fill="#f3f3f3" d="m-473.0926 246.95049l17.930206 -17.930222l19.046906 19.04689l19.046875 -19.04689l17.930237 17.930222l-19.046906 19.04689l19.046906 19.046906l-17.930237 17.930206l-19.046875 -19.046906l-19.046906 19.046906l-17.930206 -17.930206l19.046875 -19.046906z" fill-rule="evenodd"/><path fill="#f3f3f3" d="m170.59245 246.95049l17.930206 -17.930222l19.04689 19.04689l19.04689 -19.04689l17.930222 17.930222l-19.04689 19.04689l19.04689 19.046906l-17.930222 17.930206l-19.04689 -19.046906l-19.04689 19.046906l-17.930206 -17.930206l19.04689 -19.046906z" fill-rule="evenodd"/><path fill="#f3f3f3" d="m-519.6916 360.0l0 0c0 -22.395813 18.155365 -40.551178 40.551178 -40.551178l0 0c10.754822 0 21.069183 4.272339 28.674011 11.877167c7.604828 7.604828 11.877167 17.919159 11.877167 28.674011l0 0c0 22.395813 -18.155396 40.551178 -40.551178 40.551178l0 0c-22.395813 0 -40.551178 -18.155365 -40.551178 -40.551178zm20.275574 0l0 0c0 11.1979065 9.077698 20.275604 20.275604 20.275604c11.197876 0 20.275574 -9.077698 20.275574 -20.275604c0 -11.1979065 -9.077698 -20.275604 -20.275574 -20.275604l0 0c-11.1979065 0 -20.275604 9.077698 -20.275604 20.275604z" fill-rule="evenodd"/><path fill="#f3f3f3" d="m-425.59448 360.0l0 0c0 -22.395813 18.155365 -40.551178 40.551178 -40.551178l0 0c10.754852 0 21.069183 4.272339 28.674011 11.877167c7.604828 7.604828 11.877167 17.919159 11.877167 28.674011l0 0c0 22.395813 -18.155396 40.551178 -40.551178 40.551178l0 0c-22.395813 0 -40.551178 -18.155365 -40.551178 -40.551178zm20.275574 0l0 0c0 11.1979065 9.077698 20.275604 20.275604 20.275604c11.1979065 0 20.275574 -9.077698 20.275574 -20.275604c0 -11.1979065 -9.077667 -20.275604 -20.275574 -20.275604l0 0c-11.1979065 0 -20.275604 9.077698 -20.275604 20.275604z" fill-rule="evenodd"/><path fill="#f3f3f3" d="m108.29586 151.48329l17.930214 -17.930222l19.04689 19.046906l19.04689 -19.046906l17.930222 17.930222l-19.04689 19.04689l19.04689 19.04689l-17.930222 17.930222l-19.04689 -19.04689l-19.04689 19.04689l-17.930214 -17.930222l19.04689 -19.04689z" fill-rule="evenodd"/><path fill="#f3f3f3" d="m261.11548 457.98163l0 0c0 -22.395813 18.155396 -40.551178 40.551178 -40.551178l0 0c10.754852 0 21.069214 4.272339 28.674011 11.877167c7.604828 7.604828 11.877167 17.919159 11.877167 28.674011l0 0c0 22.395813 -18.155365 40.551178 -40.551178 40.551178l0 0c-22.395782 0 -40.551178 -18.155365 -40.551178 -40.551178zm20.275604 0l0 0c0 11.1979065 9.077698 20.275604 20.275574 20.275604c11.1979065 0 20.275604 -9.077698 20.275604 -20.275604c0 -11.1979065 -9.077698 -20.275604 -20.275604 -20.275604l0 0c-11.197876 0 -20.275574 9.077698 -20.275574 20.275604z" fill-rule="evenodd"/><path fill="#f3f3f3" d="m347.93176 496.25723l0 0c0 -22.395813 18.155365 -40.55121 40.551178 -40.55121l0 0c10.754852 0 21.069183 4.2723694 28.674011 11.877167c7.604828 7.604828 11.877167 17.91919 11.877167 28.674042l0 0c0 22.395782 -18.155365 40.551178 -40.551178 40.551178l0 0c-22.395813 0 -40.551178 -18.155396 -40.551178 -40.551178zm20.275574 0l0 0c0 11.197876 9.077698 20.275604 20.275604 20.275604c11.1979065 0 20.275604 -9.077728 20.275604 -20.275604c0 -11.1979065 -9.077698 -20.275604 -20.275604 -20.275604l0 0c-11.1979065 0 -20.275604 9.077698 -20.275604 20.275604z" fill-rule="evenodd"/><path fill="#f3f3f3" d="m319.37796 166.51706l0 0c0 -22.395798 18.155365 -40.551178 40.551178 -40.551178l0 0c10.754852 0 21.069183 4.272339 28.674011 11.877167c7.604828 7.6048126 11.877167 17.919174 11.877167 28.674011l0 0c0 22.395798 -18.155396 40.551178 -40.551178 40.551178l0 0c-22.395813 0 -40.551178 -18.15538 -40.551178 -40.551178zm20.275574 0l0 0c0 11.1979065 9.077698 20.275589 20.275604 20.275589c11.1979065 0 20.275574 -9.0776825 20.275574 -20.275589c0 -11.197891 -9.077667 -20.275589 -20.275574 -20.275589l0 0c-11.1979065 0 -20.275604 9.077698 -20.275604 20.275589z" fill-rule="evenodd"/><path fill="#000000" fill-opacity="0.0" d="m-49.543026 519.9595l611.2441 -465.7638l195.77954 256.97638l-611.2441 465.7638z" fill-rule="evenodd"/><path fill="#666666" d="m76.58605 532.9188q-6.8105927 5.189636 -14.569874 6.426819q-7.746853 1.2276611 -14.8995285 -1.6118774q-7.149719 -2.8615112 -12.18726 -9.473694q-5.0375366 -6.6121826 -5.8891716 -14.253113q-0.8486767 -7.6628113 2.3909035 -14.806702q3.2520103 -7.1533203 10.124744 -12.390289q5.7914886 -4.413086 12.017376 -5.9355164q6.2288475 -1.5443115 12.317444 -0.15301514l-1.9654007 11.162598q-8.4883995 -1.7824707 -15.174713 3.312439q-4.1385536 3.1535645 -5.9998055 7.4398804q-1.861248 4.286316 -1.2043266 8.912903q0.6569252 4.626587 3.8101196 8.765381q3.1531982 4.138855 7.4391212 6.000122q4.285927 1.8613281 8.91214 1.2042236q4.626217 -0.65704346 8.764767 -3.810608q6.6863174 -5.0949097 7.1733627 -13.81485l11.273483 1.0550232q-0.21778107 6.314575 -3.3750992 11.942078q-3.1667938 5.6151123 -8.958282 10.028198zm45.9486 -35.012543q-6.9348755 5.2843323 -14.775238 6.5440063q-7.8498306 1.2472534 -15.002502 -1.5923157q-7.149719 -2.8614807 -12.139915 -9.41153q-4.990196 -6.5500183 -5.8418274 -14.1909485q-0.8486786 -7.662842 2.4465332 -14.888397q3.2857437 -7.237976 10.220619 -12.522308q6.9348755 -5.2843323 14.747414 -6.503174q7.815506 -1.2407227 15.00251 1.5923462q7.177536 2.8206482 12.167725 9.3706665q4.9901886 6.550049 5.8140106 14.231812q0.8143616 7.669342 -2.4465332 14.888397q-3.2579193 7.1971436 -10.192795 12.481445zm-6.685158 -8.77478q3.939705 -3.0020447 5.7388153 -7.2409973q1.7991104 -4.238983 1.1421814 -8.86557q-0.6569214 -4.6265564 -3.8101196 -8.765381q-3.1531906 -4.1388245 -7.4391174 -6.0001526q-4.285927 -1.8612976 -8.849998 -1.2515564q-4.5640793 0.6097107 -8.503784 3.6117554q-3.9521332 3.0115051 -5.751236 7.250458q-1.7991104 4.238983 -1.142189 8.86557q0.6569214 4.6265564 3.8101196 8.765381q3.1531982 4.1388245 7.439125 6.0001526q4.285919 1.8612976 8.849998 1.2515564q4.5640717 -0.6097412 8.516205 -3.6212158zm78.7656 -47.348297l-20.420624 -26.674805l3.6705017 31.993103l-4.648102 3.541809l-29.383621 -11.496216l19.922897 26.150421l-9.669067 7.367737l-33.937096 -44.545166l8.525673 -6.496521l37.753662 14.979736l-4.6700897 -40.18918l8.4635315 -6.4491577l34.073807 44.44101l-9.681473 7.377228zm-13.696777 -59.96817l10.302887 -7.8507385l33.937103 44.545197l-10.302887 7.850708l-33.937103 -44.545166zm61.722366 -47.032013l33.937103 44.545166l-8.4635315 6.4491577l-42.813675 -10.122192l20.604675 27.045288l-10.178604 7.7560425l-33.937103 -44.545197l8.525665 -6.4964905l42.751526 10.169525l-20.60466 -27.045288l10.178604 -7.756012zm57.102448 -9.409271l9.408081 -7.1688843l13.768005 18.071625q-1.5333862 5.4901733 -5.1884155 10.593292q-3.6645203 5.0907288 -8.499023 8.774597q-6.9473267 5.2937927 -14.731445 6.5499268q-7.784149 1.256134 -14.936829 -1.5834656q-7.149719 -2.8614807 -12.187256 -9.473663q-5.0375366 -6.6121826 -5.88916 -14.253113q-0.84869385 -7.662842 2.490326 -14.882446q3.3514404 -7.229126 10.34845 -12.560791q5.8536377 -4.4604187 12.131592 -6.120758q6.2684937 -1.67276 12.371887 -0.39093018l-1.9529724 11.153107q-8.607361 -1.3971558 -15.355804 3.7451172q-4.262848 3.24823 -6.2175903 7.5665283q-1.9518127 4.2963867 -1.3321533 8.9513855q0.63204956 4.645508 3.832611 8.846466q3.1531982 4.1388245 7.4639587 5.981201q4.3232117 1.8328857 8.986725 1.1473999q4.6634827 -0.68548584 8.864197 -3.886383q4.4492493 -3.3903198 6.5578613 -8.022278l-9.933044 -13.037933zm69.68378 -15.597656q-5.2819214 4.024811 -11.30484 6.3551025q-6.022888 2.3303223 -10.760345 2.325714l-2.4134521 -10.438629q4.45874 -0.07766724 9.373749 -1.7994995q4.9179688 -1.7437439 8.870117 -4.755249q4.3871155 -3.3429565 5.4931946 -6.2484436q1.1061096 -2.905487 -0.5415039 -5.068115q-1.2120361 -1.5909119 -3.2502441 -1.6879272q-2.047699 -0.109436035 -4.469391 0.7340393q-2.4311829 0.83102417 -6.3146667 2.591919q-6.0140076 2.6771545 -10.176239 3.9432373q-4.171692 1.2536621 -8.531616 0.35238647q-4.359894 -0.90130615 -7.749817 -5.3508606q-2.9638062 -3.8902283 -3.2591248 -8.635193q-0.2953186 -4.7449646 2.5288086 -9.804291q2.8270874 -5.0812073 8.92926 -9.731049q4.262848 -3.2482605 9.115723 -5.335266q4.8434143 -2.099472 9.358948 -2.5150757l2.7839355 10.254578q-8.847046 1.2016907 -15.023804 5.908325q-4.3249817 3.2956238 -5.330475 6.2815857q-1.002533 2.9640808 0.74923706 5.2634277q1.7423096 2.2869263 4.9807434 1.5872498q3.2289124 -0.71209717 8.9618225 -3.37146q6.011078 -2.6552734 10.173309 -3.9213562q4.1622314 -1.2660828 8.474762 -0.42694092q4.312561 0.83914185 7.702484 5.2886963q2.9164734 3.8280945 3.1744995 8.601471q0.2704773 4.763916 -2.5814514 9.864075q-2.8614197 5.0877075 -8.963623 9.737549zm47.53195 -36.218994q-6.9348755 5.2843018 -14.775238 6.5440063q-7.849823 1.2472229 -15.002502 -1.5923462q-7.149719 -2.8614807 -12.139923 -9.41153q-4.990204 -6.5500183 -5.8418274 -14.190964q-0.84866333 -7.6628265 2.4465332 -14.888382q3.285736 -7.237976 10.220612 -12.522308q6.9348755 -5.284317 14.747437 -6.5031586q7.8154907 -1.2407379 15.002502 1.5923309q7.1775208 2.8206482 12.167725 9.370682q4.990204 6.5500336 5.8139954 14.231812q0.8143616 7.669342 -2.4465332 14.888382q-3.257904 7.1971436 -10.19278 12.481476zm-6.68515 -8.774811q3.9396973 -3.0020447 5.7388 -7.2409973q1.7991028 -4.238983 1.1421814 -8.865555q-0.6569214 -4.626587 -3.8101196 -8.765411q-3.1531982 -4.1388245 -7.4391174 -6.000122q-4.285919 -1.8613129 -8.850006 -1.2515717q-4.5640564 0.60972595 -8.503784 3.6117554q-3.952118 3.0114899 -5.7512207 7.250473q-1.7991028 4.238968 -1.1421814 8.86554q0.6569214 4.6265717 3.8101196 8.765396q3.1531677 4.1388245 7.4391174 6.0001526q4.285919 1.8612976 8.849976 1.2515564q4.564087 -0.6097107 8.516235 -3.6212158zm60.39038 -32.148224q-6.9348755 5.2843323 -14.775238 6.5440063q-7.849823 1.2472534 -15.002502 -1.5923309q-7.149719 -2.8614807 -12.139923 -9.411514q-4.990204 -6.5500336 -5.8418274 -14.190964q-0.84866333 -7.662842 2.4465332 -14.888382q3.285736 -7.2379913 10.220612 -12.522308q6.9348755 -5.2843323 14.747437 -6.503174q7.8154907 -1.2407379 15.002502 1.5923462q7.1775208 2.820633 12.167725 9.3706665q4.990204 6.5500336 5.8139954 14.231812q0.8143616 7.669342 -2.4465332 14.888382q-3.257904 7.1971436 -10.19278 12.481461zm-6.68515 -8.774796q3.9396973 -3.0020294 5.7388 -7.2409973q1.7991028 -4.238968 1.1421814 -8.865555q-0.6569214 -4.6265717 -3.8101196 -8.765396q-3.1531982 -4.1388245 -7.4391174 -6.0001373q-4.285919 -1.8612976 -8.850006 -1.2515717q-4.5640564 0.60972595 -8.503784 3.6117554q-3.952118 3.0115051 -5.7512207 7.250473q-1.7991333 4.238968 -1.1421814 8.865555q0.6569214 4.6265717 3.8101196 8.765396q3.1531677 4.1388245 7.4391174 6.0001373q4.285919 1.8612976 8.849976 1.2515717q4.564087 -0.6097412 8.516235 -3.621231zm45.15161 -92.13971l33.937134 44.54518l-8.463562 6.4491425l-42.81366 -10.122177l20.604675 27.045288l-10.178619 7.756027l-33.937103 -44.54518l8.525696 -6.4965057l42.751526 10.16954l-20.604675 -27.045288l10.178589 -7.756027zm8.58728 -6.5434494l11.843994 -9.025017l20.181519 30.58937l-7.8918457 6.0135345l-24.133667 -27.577888zm40.24109 40.54699q-2.6098633 1.9887238 -5.640564 1.6461182q-3.02771 -0.3645172 -4.8742065 -2.7881622q-1.8464355 -2.4236298 -1.3623657 -5.3462677q0.4746704 -2.9350586 3.1466675 -4.9711304q2.672058 -2.0360718 5.6275635 -1.7147675q2.958496 0.29940796 4.8049927 2.7230377q1.8464355 2.423645 1.381897 5.4492645q-0.47406006 3.0131836 -3.0839844 5.0019073z" fill-rule="nonzero"/></g></svg>