<svg xmlns="http://www.w3.org/2000/svg" width="80" height="80" fill="none" viewBox="0 0 80 80"><mask id="mask0" width="80" height="80" x="0" y="0" mask-type="alpha" maskUnits="userSpaceOnUse"><circle cx="40" cy="40" r="40" fill="#094492"/></mask><g mask="url(#mask0)"><circle cx="40" cy="40" r="40" fill="#DFDFDF"/><path fill="#fff" d="M30.9418 46.5584C30.6208 45.6049 29.9984 44.775 29.1639 44.1877C28.3294 43.6004 27.3256 43.2859 26.2965 43.2893H18.7038C17.6747 43.2858 16.6709 43.6003 15.8364 44.1876C15.0019 44.7749 14.3795 45.6048 14.0586 46.5584L9.14302 61.2046C9.02162 61.5609 8.97678 61.9378 9.01128 62.3117C9.07205 62.9586 9.35947 63.5654 9.82517 64.0298C10.2909 64.4943 10.9064 64.7882 11.5682 64.862C12.23 64.9357 12.8977 64.7849 13.4589 64.435C14.0201 64.085 14.4405 63.5571 14.6494 62.9403L15.4822 60.4591V82.1414C15.4822 82.8992 15.7909 83.6259 16.3404 84.1618C16.8898 84.6976 17.635 84.9986 18.4121 84.9986C19.1891 84.9986 19.9344 84.6976 20.4838 84.1618C21.0333 83.6259 21.342 82.8992 21.342 82.1414V65.1756H23.6573V82.1425C23.6573 82.9004 23.966 83.6272 24.5155 84.1631C25.065 84.6989 25.8103 85 26.5874 85C27.3645 85 28.1098 84.6989 28.6593 84.1631C29.2088 83.6272 29.5176 82.9004 29.5176 82.1425V60.4569L30.3504 62.9381C30.5596 63.5548 30.9801 64.0823 31.5412 64.4322C32.1024 64.782 32.77 64.9327 33.4317 64.8589C34.0934 64.7852 34.7089 64.4914 35.1746 64.0271C35.6404 63.5628 35.928 62.9563 35.9891 62.3095C36.0229 61.9356 35.9781 61.5588 35.8573 61.2024L30.9418 46.5562V46.5584ZM19.9466 40.7475C20.8755 41.0553 21.8661 41.1433 22.8368 41.0042C23.8074 40.8652 24.7303 40.503 25.5292 39.9477C26.3281 39.3924 26.9802 38.6598 27.4316 37.8104C27.883 36.9609 28.1209 36.019 28.1256 35.0622C28.1308 33.9517 27.8217 32.8612 27.2323 31.911C26.6429 30.9607 25.7959 30.1876 24.7848 29.6766C23.7737 29.1656 22.6376 28.9367 21.5016 29.015C20.3656 29.0933 19.2738 29.4759 18.3465 30.1205C17.4191 30.7651 16.6922 31.6468 16.2457 32.6684C15.7992 33.6901 15.6505 34.8121 15.8159 35.9109C15.9814 37.0097 16.4546 38.0426 17.1834 38.896C17.9122 39.7494 18.8683 40.39 19.9466 40.7475Z"/><path fill="#B9B9B9" d="M77.9418 38.5584C77.6208 37.6049 76.9984 36.775 76.1639 36.1877C75.3294 35.6004 74.3256 35.2859 73.2965 35.2893H65.7038C64.6747 35.2858 63.6709 35.6003 62.8364 36.1876C62.0019 36.7749 61.3795 37.6048 61.0586 38.5584L56.143 53.2046C56.0216 53.5609 55.9768 53.9378 56.0113 54.3117C56.0721 54.9586 56.3595 55.5654 56.8252 56.0298C57.2909 56.4943 57.9064 56.7882 58.5682 56.862C59.23 56.9357 59.8977 56.7849 60.4589 56.435C61.0201 56.085 61.4405 55.5571 61.6494 54.9403L62.4822 52.4591V74.1414C62.4822 74.8992 62.7909 75.6259 63.3404 76.1618C63.8898 76.6976 64.635 76.9986 65.4121 76.9986C66.1891 76.9986 66.9344 76.6976 67.4838 76.1618C68.0333 75.6259 68.342 74.8992 68.342 74.1414V57.1756H70.6573V74.1425C70.6573 74.9004 70.966 75.6272 71.5155 76.1631C72.065 76.6989 72.8103 77 73.5874 77C74.3645 77 75.1098 76.6989 75.6593 76.1631C76.2088 75.6272 76.5176 74.9004 76.5176 74.1425V52.4569L77.3504 54.9381C77.5596 55.5548 77.9801 56.0823 78.5412 56.4322C79.1024 56.782 79.77 56.9327 80.4317 56.8589C81.0934 56.7852 81.7089 56.4914 82.1746 56.0271C82.6404 55.5628 82.928 54.9563 82.9891 54.3095C83.0229 53.9356 82.9781 53.5588 82.8573 53.2024L77.9418 38.5562V38.5584ZM66.9466 32.7475C67.8755 33.0553 68.8661 33.1433 69.8368 33.0042C70.8074 32.8652 71.7303 32.503 72.5292 31.9477C73.3281 31.3924 73.9802 30.6598 74.4316 29.8104C74.883 28.9609 75.1209 28.019 75.1256 27.0622C75.1308 25.9517 74.8217 24.8612 74.2323 23.911C73.6429 22.9607 72.7959 22.1876 71.7848 21.6766C70.7737 21.1656 69.6376 20.9367 68.5016 21.015C67.3656 21.0933 66.2738 21.4759 65.3465 22.1205C64.4191 22.7651 63.6922 23.6468 63.2457 24.6684C62.7992 25.6901 62.6505 26.8121 62.8159 27.9109C62.9814 29.0097 63.4546 30.0426 64.1834 30.896C64.9122 31.7494 65.8683 32.39 66.9466 32.7475Z"/><path fill="#D5D2D2" d="M71.9418 42.5584C71.6208 41.6049 70.9984 40.775 70.1639 40.1877C69.3294 39.6004 68.3256 39.2859 67.2965 39.2893H59.7038C58.6747 39.2858 57.6709 39.6003 56.8364 40.1876C56.0019 40.7749 55.3795 41.6048 55.0586 42.5584L50.143 57.2046C50.0216 57.5609 49.9768 57.9378 50.0113 58.3117C50.0721 58.9586 50.3595 59.5654 50.8252 60.0298C51.2909 60.4943 51.9064 60.7882 52.5682 60.862C53.23 60.9357 53.8977 60.7849 54.4589 60.435C55.0201 60.085 55.4405 59.5571 55.6494 58.9403L56.4822 56.4591V78.1414C56.4822 78.8992 56.7909 79.6259 57.3404 80.1618C57.8898 80.6976 58.635 80.9986 59.4121 80.9986C60.1891 80.9986 60.9344 80.6976 61.4838 80.1618C62.0333 79.6259 62.342 78.8992 62.342 78.1414V61.1756H64.6573V78.1425C64.6573 78.9004 64.966 79.6272 65.5155 80.1631C66.065 80.6989 66.8103 81 67.5874 81C68.3645 81 69.1098 80.6989 69.6593 80.1631C70.2088 79.6272 70.5176 78.9004 70.5176 78.1425V56.4569L71.3504 58.9381C71.5596 59.5548 71.9801 60.0823 72.5412 60.4322C73.1024 60.782 73.77 60.9327 74.4317 60.8589C75.0934 60.7852 75.7089 60.4914 76.1746 60.0271C76.6404 59.5628 76.928 58.9563 76.9891 58.3095C77.0229 57.9356 76.9781 57.5588 76.8573 57.2024L71.9418 42.5562V42.5584ZM60.9466 36.7475C61.8755 37.0553 62.8661 37.1433 63.8368 37.0042C64.8074 36.8652 65.7303 36.503 66.5292 35.9477C67.3281 35.3924 67.9802 34.6598 68.4316 33.8104C68.883 32.9609 69.1209 32.019 69.1256 31.0622C69.1308 29.9517 68.8217 28.8612 68.2323 27.911C67.6429 26.9607 66.7959 26.1876 65.7848 25.6766C64.7737 25.1656 63.6376 24.9367 62.5016 25.015C61.3656 25.0933 60.2738 25.4759 59.3465 26.1205C58.4191 26.7651 57.6922 27.6468 57.2457 28.6684C56.7992 29.6901 56.6505 30.8121 56.8159 31.9109C56.9814 33.0097 57.4546 34.0426 58.1834 34.896C58.9122 35.7494 59.8683 36.39 60.9466 36.7475Z"/><path fill="#fff" d="M65.9418 46.5584C65.6208 45.6049 64.9984 44.775 64.1639 44.1877C63.3294 43.6004 62.3256 43.2859 61.2965 43.2893H53.7038C52.6747 43.2858 51.6709 43.6003 50.8364 44.1876C50.0019 44.7749 49.3795 45.6048 49.0586 46.5584L44.143 61.2046C44.0216 61.5609 43.9768 61.9378 44.0113 62.3117C44.0721 62.9586 44.3595 63.5654 44.8252 64.0298C45.2909 64.4943 45.9064 64.7882 46.5682 64.862C47.23 64.9357 47.8977 64.7849 48.4589 64.435C49.0201 64.085 49.4405 63.5571 49.6494 62.9403L50.4822 60.4591V82.1414C50.4822 82.8992 50.7909 83.6259 51.3404 84.1618C51.8898 84.6976 52.635 84.9986 53.4121 84.9986C54.1891 84.9986 54.9344 84.6976 55.4838 84.1618C56.0333 83.6259 56.342 82.8992 56.342 82.1414V65.1756H58.6573V82.1425C58.6573 82.9004 58.966 83.6272 59.5155 84.1631C60.065 84.6989 60.8103 85 61.5874 85C62.3645 85 63.1098 84.6989 63.6593 84.1631C64.2088 83.6272 64.5176 82.9004 64.5176 82.1425V60.4569L65.3504 62.9381C65.5596 63.5548 65.9801 64.0823 66.5412 64.4322C67.1024 64.782 67.77 64.9327 68.4317 64.8589C69.0934 64.7852 69.7089 64.4914 70.1746 64.0271C70.6404 63.5628 70.928 62.9563 70.9891 62.3095C71.0229 61.9356 70.9781 61.5588 70.8573 61.2024L65.9418 46.5562V46.5584ZM54.9466 40.7475C55.8755 41.0553 56.8661 41.1433 57.8368 41.0042C58.8074 40.8652 59.7303 40.503 60.5292 39.9477C61.3281 39.3924 61.9802 38.6598 62.4316 37.8104C62.883 36.9609 63.1209 36.019 63.1256 35.0622C63.1308 33.9517 62.8217 32.8612 62.2323 31.911C61.6429 30.9607 60.7959 30.1876 59.7848 29.6766C58.7737 29.1656 57.6376 28.9367 56.5016 29.015C55.3656 29.0933 54.2738 29.4759 53.3465 30.1205C52.4191 30.7651 51.6922 31.6468 51.2457 32.6684C50.7992 33.6901 50.6505 34.8121 50.8159 35.9109C50.9814 37.0097 51.4546 38.0426 52.1834 38.896C52.9122 39.7494 53.8683 40.39 54.9466 40.7475Z"/></g></svg>