<svg xmlns="http://www.w3.org/2000/svg" id="LevelofInstruction" viewBox="0 0 165 165"><defs><style>.cls-1{fill:#009365}.cls-2,.cls-3,.cls-4,.cls-5{fill:none;stroke:#fff;stroke-width:3.93px}.cls-2,.cls-5{stroke-miterlimit:10}.cls-3,.cls-5{stroke-linecap:round}.cls-3,.cls-4{stroke-linejoin:round}.cls-6{opacity:.1}.cls-7{fill:#fff}</style></defs><title>Artboard 1</title><rect width="163.64" height="163.64" x=".64" y=".86" class="cls-1" rx="19.64"/><path d="M57.83,37.55a8.18,8.18,0,1,1-8.17-8.17A8.17,8.17,0,0,1,57.83,37.55Z" class="cls-2"/><path d="M58.61,114.11l1.1-43.26c17.34,8.83,16.36-5.24,7.85-6.55l-3.27-5.24c-2.84-4.72-4.26-5.59-7.43-5.59H42.45a6.54,6.54,0,0,0-6.35,5.74L33.65,83.55c-.32,3.16,3.27,5.67,6.27,6.75l.78,23.81" class="cls-3"/><polyline points="127.51 41.38 127.51 90.91 70.32 90.91" class="cls-4"/><polyline points="64.96 33.22 131.81 33.22 131.81 41.06 64.96 41.06" class="cls-4"/><line x1="72.17" x2="106.15" y1="72.95" y2="53.33" class="cls-5"/><path d="M144.63,164.5H20.28A19.64,19.64,0,0,1,.64,144.86V20.5A19,19,0,0,1,7.18,5.77L157.73,159.59A19.61,19.61,0,0,1,144.63,164.5Z" class="cls-6"/><path d="M18.15,133.11H20v11.76h3.36l-.18,1.6h-5Z" class="cls-7"/><path d="M29.39,140.21h-3v4.62h3.38l-.22,1.64h-5V133.11h4.92v1.66H26.43v3.8h3Z" class="cls-7"/><path d="M32.81,133.11l.78,5.66c.26,1.84.6,3.9.72,5.36h0c.12-1.4.48-3.46.7-5.3l.78-5.72h1.9l-2.3,13.36h-2.2l-2.34-13.36Z" class="cls-7"/><path d="M44,140.21H41v4.62h3.38l-.22,1.64h-5V133.11h4.92v1.66H41v3.8h3Z" class="cls-7"/><path d="M46,133.11h1.8v11.76h3.36l-.18,1.6H46Z" class="cls-7"/><path d="M60.55,139.15v4.32c0,2.22-1,3.16-2.6,3.16s-2.54-.92-2.54-3.1v-4.4c0-1.9,1-3,2.6-3S60.55,137.27,60.55,139.15Zm-3.86,0v4.46c0,1.16.4,1.9,1.28,1.9s1.28-.56,1.28-1.92v-4.46c0-1-.36-1.8-1.26-1.8S56.69,138,56.69,139.13Z" class="cls-7"/><path d="M63,146.47v-9H61.87v-1.14H63v-1.54c0-1.2.44-2.36,2-2.36a3.1,3.1,0,0,1,.66.06v1.18a3.88,3.88,0,0,0-.48,0c-.74,0-.9.52-.9,1.3v1.4h1.32v1.14H64.23v9Z" class="cls-7"/><path d="M71.83,133.11v13.36H70V133.11Z" class="cls-7"/><path d="M74.21,146.47V133.11h2.1l2,7.4a22.53,22.53,0,0,1,.52,2.38h0c-.1-1.72-.1-3.6-.1-5.78v-4h1.66v13.36h-2L76.17,138c-.18-.7-.28-1.26-.36-1.66h0c.08,1.62.1,3.56.1,6v4.12Z" class="cls-7"/><path d="M83.89,142.61v.8c0,1.1.36,1.72,1.2,1.72s1.16-.74,1.16-1.86c0-1.48-.32-2-1.76-3.12s-2.18-1.84-2.18-3.8c0-1.74.52-3.44,2.8-3.44s2.72,1.58,2.72,3.14v.66H86.05v-.62c0-1-.18-1.64-1-1.64s-1,.68-1,1.64.2,1.54,1.4,2.42c1.94,1.44,2.54,2.28,2.54,4.5,0,1.88-.62,3.64-3,3.64s-2.94-1.5-2.94-3.26v-.78Z" class="cls-7"/><path d="M91.21,134.77H89.05v-1.66h6.1v1.66H93v11.7H91.21Z" class="cls-7"/><path d="M96.57,133.11h2.64c2,0,3.12.84,3.12,3.16v.54c0,2-.74,2.58-1.36,2.8.82.36,1.24.94,1.24,2.74a37.84,37.84,0,0,0,.12,4.12h-1.72a28.91,28.91,0,0,1-.14-4c0-1.66-.24-2.08-1.48-2.08h-.62v6.08h-1.8Zm1.8,5.78H99c1.16,0,1.54-.54,1.54-2v-.52c0-1.12-.28-1.78-1.52-1.78h-.66Z" class="cls-7"/><path d="M106.05,133.11v10.26c0,1,.34,1.66,1.22,1.66s1.22-.66,1.22-1.66V133.11h1.78v10.22c0,2.08-.94,3.32-3,3.32s-3-1.1-3-3.3V133.11Z" class="cls-7"/><path d="M118.11,142.55V143c0,1.6-.28,3.62-2.94,3.62-2.4,0-2.88-1.58-2.88-3.58v-6.76c0-2.1.94-3.38,2.92-3.38,2.38,0,2.84,1.62,2.84,3.44v.56h-1.8v-.76c0-1-.2-1.62-1.06-1.62s-1.06.62-1.06,1.64v7c0,1.06.22,1.82,1.1,1.82s1.06-.72,1.06-1.82v-.66Z" class="cls-7"/><path d="M121.39,134.77h-2.16v-1.66h6.1v1.66h-2.16v11.7h-1.78Z" class="cls-7"/><path d="M128.55,133.11v13.36h-1.8V133.11Z" class="cls-7"/><path d="M136.83,136.55V143c0,2.48-1,3.66-3.18,3.66s-3-1.26-3-3.64v-6.48c0-2.44,1.18-3.6,3.14-3.6S136.83,134.17,136.83,136.55Zm-4.36-.16v6.82c0,1.28.46,1.82,1.26,1.82s1.28-.52,1.28-1.86v-6.78c0-1.22-.4-1.84-1.28-1.84S132.47,135.13,132.47,136.39Z" class="cls-7"/><path d="M138.93,146.47V133.11H141l2,7.4a22.53,22.53,0,0,1,.52,2.38h0c-.1-1.72-.1-3.6-.1-5.78v-4h1.66v13.36h-2l-2.2-8.44c-.18-.7-.28-1.26-.36-1.66h0c.08,1.62.1,3.56.1,6v4.12Z" class="cls-7"/></svg>