<svg xmlns="http://www.w3.org/2000/svg" width="1173" height="906" fill="none" viewBox="0 0 1173 906"><rect width="1123" height="856" x="25" y="25" fill="#fff" stroke="#000" stroke-linejoin="round" stroke-width="50" rx="75"/><path fill="#459AEB" d="M50 100C50 72.3858 72.3858 50 100 50H1073C1100.61 50 1123 72.3858 1123 100V146H50V100Z"/><line x1="172" x2="223" y1="86.5" y2="86.5" stroke="#fff" stroke-width="5"/><line x1="172" x2="223" y1="116.5" y2="116.5" stroke="#fff" stroke-width="5"/><line x1="172" x2="223" y1="101.5" y2="101.5" stroke="#fff" stroke-width="5"/><circle cx="108.5" cy="100.5" r="33.5" fill="#fff"/><path fill="#094492" d="M123.192 87.764C123.559 89.0386 123.581 90.3904 123.253 91.6762C122.926 92.962 122.261 94.134 121.331 95.0681C120.4 96.0022 119.238 96.6635 117.967 96.9822C116.697 97.3008 115.365 97.2648 114.112 96.878L108.545 102.527V123.475C119.947 123.475 129.191 114.097 129.191 102.527C129.198 96.9939 127.04 91.6841 123.192 87.764V87.764Z"/><path fill="#0988EC" d="M102.98 96.881C101.726 97.2678 100.393 97.3028 99.1209 96.9824C97.8491 96.662 96.6865 95.9981 95.7566 95.0612C94.8268 94.1243 94.1644 92.9494 93.8397 91.6613C93.515 90.3731 93.5403 89.0198 93.9127 87.745C92.0022 89.6872 90.4877 91.9923 89.4558 94.5287C88.4239 97.0651 87.8948 99.783 87.8987 102.527C87.8987 114.097 97.1425 123.475 108.545 123.475V102.527L102.98 96.881Z"/><path fill="#4FD9B3" d="M108.545 102.533V123.475C111.391 123.478 114.208 122.881 116.815 121.722L108.545 102.533Z"/><path fill="#094492" d="M116 123.278C116.022 123.18 116.034 123.079 116.034 122.978C116.034 122.665 115.927 122.362 115.732 122.119C115.537 121.877 115.265 121.71 114.962 121.648C114.66 121.585 114.346 121.63 114.072 121.776C113.799 121.921 113.584 122.158 113.463 122.446C113.36 122.201 113.189 121.991 112.969 121.844C112.75 121.697 112.494 121.619 112.231 121.619C111.968 121.619 111.711 121.697 111.492 121.844C111.273 121.991 111.102 122.201 110.999 122.446C110.897 122.202 110.727 121.995 110.51 121.848C110.293 121.701 110.038 121.622 109.777 121.62C109.517 121.618 109.261 121.693 109.042 121.836C108.823 121.98 108.65 122.185 108.544 122.427C108.438 122.185 108.265 121.98 108.046 121.837C107.827 121.694 107.571 121.619 107.311 121.621C107.05 121.623 106.796 121.702 106.579 121.849C106.362 121.995 106.192 122.203 106.09 122.446C105.987 122.201 105.815 121.992 105.596 121.845C105.377 121.699 105.12 121.62 104.858 121.62C104.595 121.62 104.338 121.699 104.119 121.845C103.9 121.992 103.729 122.201 103.626 122.446C103.505 122.158 103.29 121.92 103.017 121.775C102.743 121.629 102.429 121.584 102.126 121.646C101.824 121.709 101.552 121.876 101.357 122.118C101.161 122.361 101.055 122.665 101.055 122.978C101.056 123.079 101.067 123.18 101.089 123.278H97.3604V125.078H119.859V123.278H116Z"/><path fill="#E55529" d="M108.973 89.835C108.973 88.3959 109.388 86.9884 110.168 85.7864C110.948 84.5845 112.058 83.6409 113.361 83.0722C114.664 82.5036 116.102 82.335 117.499 82.5871C118.895 82.8393 120.188 83.5012 121.218 84.491L123.144 82.56C119.228 78.7205 113.991 76.5796 108.545 76.591V97.2L110.902 94.836C109.659 93.4766 108.969 91.6896 108.973 89.835V89.835Z"/><path fill="#E55529" d="M116.241 86.153C115.833 86.1528 115.429 86.2225 115.044 86.359C115.352 86.4083 115.64 86.5462 115.873 86.7564C116.106 86.9665 116.275 87.2401 116.36 87.5447C116.445 87.8493 116.442 88.1722 116.351 88.4751C116.261 88.7781 116.087 89.0483 115.85 89.2539C115.612 89.4595 115.322 89.5918 115.013 89.6352C114.704 89.6785 114.389 89.6311 114.106 89.4985C113.823 89.366 113.583 89.1538 113.415 88.8871C113.246 88.6205 113.157 88.3106 113.157 87.994C113.157 87.958 113.157 87.922 113.162 87.887C112.737 88.5794 112.55 89.3955 112.631 90.2072C112.713 91.0189 113.057 91.7803 113.611 92.3717C114.165 92.963 114.897 93.351 115.692 93.4745C116.487 93.5981 117.3 93.4503 118.003 93.0543C118.706 92.6584 119.26 92.0367 119.577 91.2869C119.894 90.5371 119.956 89.7017 119.755 88.9119C119.553 88.122 119.099 87.4225 118.463 86.9232C117.827 86.4238 117.045 86.1529 116.241 86.153V86.153Z"/><path fill="#E99C2E" d="M100.874 86.153C100.418 86.1529 99.9657 86.2401 99.5414 86.41C99.8103 86.4942 100.053 86.6476 100.247 86.8551C100.44 87.0627 100.577 87.3174 100.645 87.5946C100.713 87.8718 100.709 88.162 100.633 88.4372C100.558 88.7123 100.414 88.963 100.214 89.165C100.015 89.3669 99.7684 89.5132 99.4972 89.5897C99.226 89.6663 98.94 89.6703 98.6668 89.6016C98.3936 89.5329 98.1425 89.3937 97.9379 89.1975C97.7334 89.0014 97.5823 88.7549 97.4992 88.482C97.2141 89.2143 97.1678 90.02 97.3672 90.7809C97.5665 91.5419 98.001 92.2179 98.6069 92.7099C99.2128 93.2018 99.9582 93.4837 100.734 93.5143C101.509 93.5448 102.274 93.3223 102.915 92.8795C103.557 92.4367 104.042 91.7968 104.299 91.0538C104.555 90.3109 104.571 89.5039 104.342 88.7514C104.114 87.999 103.654 87.3406 103.03 86.8729C102.405 86.4052 101.65 86.1529 100.874 86.153Z"/><path fill="#E99C2E" d="M94.1189 82.56L95.956 84.424C97.3343 83.1432 99.1466 82.4515 101.015 82.4931C102.884 82.5347 104.664 83.3064 105.986 84.6473C107.308 85.9882 108.068 87.7949 108.109 89.6908C108.15 91.5867 107.468 93.4255 106.206 94.824L108.545 97.2V76.591C103.151 76.5849 97.9704 78.7284 94.1189 82.56V82.56Z"/><path fill="#000" d="M227.039 205.336C227.039 208.789 226.375 211.812 225.047 214.406C223.734 217 221.844 218.992 219.375 220.383C216.906 221.773 213.992 222.469 210.633 222.469C207.242 222.469 204.312 221.781 201.844 220.406C199.391 219.031 197.516 217.047 196.219 214.453C194.922 211.844 194.273 208.805 194.273 205.336C194.273 200.055 195.719 195.93 198.609 192.961C201.5 189.977 205.523 188.484 210.68 188.484C214.039 188.484 216.953 189.156 219.422 190.5C221.891 191.828 223.773 193.766 225.07 196.312C226.383 198.859 227.039 201.867 227.039 205.336ZM222.469 205.336C222.469 201.227 221.438 198 219.375 195.656C217.328 193.312 214.43 192.141 210.68 192.141C206.898 192.141 203.977 193.297 201.914 195.609C199.852 197.922 198.82 201.164 198.82 205.336C198.82 209.477 199.859 212.766 201.938 215.203C204.031 217.625 206.93 218.836 210.633 218.836C214.445 218.836 217.367 217.664 219.398 215.32C221.445 212.961 222.469 209.633 222.469 205.336ZM254.039 209.203C254.039 218.047 250.93 222.469 244.711 222.469C242.789 222.469 241.188 222.125 239.906 221.438C238.641 220.734 237.609 219.609 236.812 218.062H236.766C236.766 218.547 236.734 219.289 236.672 220.289C236.609 221.273 236.562 221.844 236.531 222H232.453C232.547 221.156 232.594 219.414 232.594 216.773V187.219H236.812V197.133C236.812 198.148 236.781 199.344 236.719 200.719H236.812C237.594 199.094 238.625 197.93 239.906 197.227C241.203 196.523 242.805 196.172 244.711 196.172C247.914 196.172 250.266 197.25 251.766 199.406C253.281 201.562 254.039 204.828 254.039 209.203ZM249.609 209.344C249.609 205.797 249.141 203.258 248.203 201.727C247.266 200.195 245.742 199.43 243.633 199.43C241.258 199.43 239.523 200.242 238.43 201.867C237.352 203.492 236.812 206.07 236.812 209.602C236.812 212.93 237.344 215.391 238.406 216.984C239.469 218.562 241.195 219.352 243.586 219.352C245.711 219.352 247.242 218.57 248.18 217.008C249.133 215.43 249.609 212.875 249.609 209.344ZM278.344 214.992C278.344 217.383 277.438 219.227 275.625 220.523C273.828 221.82 271.305 222.469 268.055 222.469C264.898 222.469 262.461 221.953 260.742 220.922C259.039 219.875 257.93 218.25 257.414 216.047L261.141 215.32C261.5 216.68 262.242 217.68 263.367 218.32C264.492 218.945 266.055 219.258 268.055 219.258C270.195 219.258 271.758 218.93 272.742 218.273C273.742 217.617 274.242 216.633 274.242 215.32C274.242 214.32 273.898 213.508 273.211 212.883C272.523 212.258 271.414 211.742 269.883 211.336L266.859 210.539C264.438 209.914 262.711 209.305 261.68 208.711C260.664 208.102 259.867 207.367 259.289 206.508C258.711 205.648 258.422 204.594 258.422 203.344C258.422 201.031 259.242 199.273 260.883 198.07C262.539 196.852 264.945 196.242 268.102 196.242C270.898 196.242 273.117 196.734 274.758 197.719C276.414 198.703 277.461 200.281 277.898 202.453L274.102 202.922C273.867 201.797 273.234 200.938 272.203 200.344C271.188 199.734 269.82 199.43 268.102 199.43C266.195 199.43 264.789 199.719 263.883 200.297C262.977 200.875 262.523 201.75 262.523 202.922C262.523 203.641 262.711 204.234 263.086 204.703C263.461 205.172 264.016 205.57 264.75 205.898C265.484 206.227 267.031 206.68 269.391 207.258C271.625 207.82 273.234 208.344 274.219 208.828C275.203 209.297 275.977 209.82 276.539 210.398C277.117 210.977 277.562 211.648 277.875 212.414C278.188 213.164 278.344 214.023 278.344 214.992ZM286.547 210.211C286.547 213.117 287.148 215.359 288.352 216.938C289.555 218.516 291.312 219.305 293.625 219.305C295.453 219.305 296.914 218.938 298.008 218.203C299.117 217.469 299.867 216.539 300.258 215.414L303.961 216.469C302.445 220.469 299 222.469 293.625 222.469C289.875 222.469 287.016 221.352 285.047 219.117C283.094 216.883 282.117 213.562 282.117 209.156C282.117 204.969 283.094 201.758 285.047 199.523C287.016 197.289 289.82 196.172 293.461 196.172C300.914 196.172 304.641 200.664 304.641 209.648V210.211H286.547ZM300.281 206.977C300.047 204.305 299.367 202.359 298.242 201.141C297.117 199.906 295.5 199.289 293.391 199.289C291.344 199.289 289.719 199.977 288.516 201.352C287.328 202.711 286.688 204.586 286.594 206.977H300.281ZM310.125 222V202.547C310.125 200.766 310.078 198.797 309.984 196.641H313.969C314.094 199.516 314.156 201.242 314.156 201.82H314.25C314.922 199.648 315.695 198.164 316.57 197.367C317.445 196.57 318.68 196.172 320.273 196.172C320.836 196.172 321.406 196.25 321.984 196.406V200.273C321.422 200.117 320.672 200.039 319.734 200.039C317.984 200.039 316.648 200.797 315.727 202.312C314.805 203.812 314.344 205.969 314.344 208.781V222H310.125ZM337.148 222H332.156L322.945 196.641H327.445L333.023 213.141C333.227 213.766 333.766 215.617 334.641 218.695L335.461 215.953L336.375 213.188L342.141 196.641H346.617L337.148 222ZM353.25 210.211C353.25 213.117 353.852 215.359 355.055 216.938C356.258 218.516 358.016 219.305 360.328 219.305C362.156 219.305 363.617 218.938 364.711 218.203C365.82 217.469 366.57 216.539 366.961 215.414L370.664 216.469C369.148 220.469 365.703 222.469 360.328 222.469C356.578 222.469 353.719 221.352 351.75 219.117C349.797 216.883 348.82 213.562 348.82 209.156C348.82 204.969 349.797 201.758 351.75 199.523C353.719 197.289 356.523 196.172 360.164 196.172C367.617 196.172 371.344 200.664 371.344 209.648V210.211H353.25ZM366.984 206.977C366.75 204.305 366.07 202.359 364.945 201.141C363.82 199.906 362.203 199.289 360.094 199.289C358.047 199.289 356.422 199.977 355.219 201.352C354.031 202.711 353.391 204.586 353.297 206.977H366.984Z"/><path fill="#000" d="M837.057 203.343C837.057 204.515 836.673 205.446 835.905 206.138C835.144 206.829 834.106 207.175 832.794 207.175H829.155V212H827.477V199.616H832.688C834.077 199.616 835.152 199.941 835.914 200.592C836.676 201.242 837.057 202.159 837.057 203.343ZM835.369 203.36C835.369 201.761 834.408 200.961 832.486 200.961H829.155V205.848H832.557C834.432 205.848 835.369 205.019 835.369 203.36ZM839.254 212V204.705C839.254 204.037 839.236 203.299 839.201 202.49H840.695C840.742 203.568 840.766 204.216 840.766 204.433H840.801C841.053 203.618 841.343 203.062 841.671 202.763C841.999 202.464 842.462 202.314 843.06 202.314C843.271 202.314 843.484 202.344 843.701 202.402V203.853C843.49 203.794 843.209 203.765 842.857 203.765C842.201 203.765 841.7 204.049 841.354 204.617C841.009 205.18 840.836 205.988 840.836 207.043V212H839.254ZM847.639 212.176C846.684 212.176 845.966 211.924 845.485 211.42C845.005 210.916 844.765 210.225 844.765 209.346C844.765 208.361 845.087 207.605 845.731 207.078C846.382 206.551 847.428 206.27 848.869 206.234L851.005 206.199V205.681C851.005 204.907 850.841 204.354 850.513 204.02C850.185 203.686 849.669 203.519 848.966 203.519C848.257 203.519 847.741 203.639 847.419 203.879C847.097 204.119 846.903 204.503 846.839 205.03L845.187 204.881C845.456 203.17 846.728 202.314 849.001 202.314C850.196 202.314 851.096 202.59 851.699 203.141C852.303 203.686 852.604 204.477 852.604 205.514V209.609C852.604 210.078 852.666 210.433 852.789 210.673C852.912 210.907 853.146 211.024 853.492 211.024C853.645 211.024 853.817 211.004 854.011 210.963V211.947C853.612 212.041 853.205 212.088 852.789 212.088C852.203 212.088 851.775 211.936 851.506 211.631C851.242 211.32 851.093 210.837 851.058 210.181H851.005C850.601 210.907 850.129 211.423 849.59 211.728C849.057 212.026 848.406 212.176 847.639 212.176ZM847.999 210.989C848.579 210.989 849.095 210.857 849.546 210.594C849.997 210.33 850.352 209.97 850.609 209.513C850.873 209.05 851.005 208.575 851.005 208.089V207.307L849.273 207.342C848.529 207.354 847.964 207.43 847.577 207.57C847.196 207.711 846.903 207.928 846.698 208.221C846.493 208.514 846.391 208.897 846.391 209.372C846.391 209.888 846.528 210.286 846.804 210.567C847.085 210.849 847.483 210.989 847.999 210.989ZM856.437 207.201C856.437 208.467 856.636 209.404 857.034 210.014C857.433 210.623 858.033 210.928 858.836 210.928C859.398 210.928 859.867 210.775 860.242 210.471C860.623 210.166 860.857 209.697 860.945 209.064L862.545 209.17C862.422 210.084 862.032 210.813 861.376 211.358C860.72 211.903 859.888 212.176 858.88 212.176C857.55 212.176 856.533 211.757 855.83 210.919C855.133 210.075 854.784 208.848 854.784 207.236C854.784 205.637 855.136 204.418 855.839 203.58C856.542 202.736 857.55 202.314 858.862 202.314C859.835 202.314 860.641 202.566 861.279 203.07C861.924 203.574 862.328 204.269 862.492 205.153L860.866 205.276C860.784 204.749 860.576 204.33 860.242 204.02C859.908 203.709 859.434 203.554 858.818 203.554C857.98 203.554 857.374 203.832 856.999 204.389C856.624 204.945 856.437 205.883 856.437 207.201ZM867.889 211.93C867.367 212.07 866.834 212.141 866.289 212.141C865.023 212.141 864.391 211.423 864.391 209.987V203.642H863.292V202.49H864.452L864.918 200.363H865.973V202.49H867.73V203.642H865.973V209.645C865.973 210.102 866.046 210.424 866.192 210.611C866.345 210.793 866.605 210.884 866.975 210.884C867.186 210.884 867.49 210.843 867.889 210.761V211.93ZM869.233 200.469V198.957H870.815V200.469H869.233ZM869.233 212V202.49H870.815V212H869.233ZM874.454 207.201C874.454 208.467 874.653 209.404 875.052 210.014C875.45 210.623 876.051 210.928 876.854 210.928C877.416 210.928 877.885 210.775 878.26 210.471C878.641 210.166 878.875 209.697 878.963 209.064L880.562 209.17C880.439 210.084 880.05 210.813 879.394 211.358C878.737 211.903 877.905 212.176 876.897 212.176C875.567 212.176 874.551 211.757 873.848 210.919C873.15 210.075 872.802 208.848 872.802 207.236C872.802 205.637 873.153 204.418 873.856 203.58C874.56 202.736 875.567 202.314 876.88 202.314C877.853 202.314 878.658 202.566 879.297 203.07C879.941 203.574 880.346 204.269 880.51 205.153L878.884 205.276C878.802 204.749 878.594 204.33 878.26 204.02C877.926 203.709 877.451 203.554 876.836 203.554C875.998 203.554 875.392 203.832 875.017 204.389C874.642 204.945 874.454 205.883 874.454 207.201ZM883.463 207.579C883.463 208.669 883.688 209.51 884.14 210.102C884.591 210.693 885.25 210.989 886.117 210.989C886.803 210.989 887.351 210.852 887.761 210.576C888.177 210.301 888.458 209.952 888.604 209.53L889.993 209.926C889.425 211.426 888.133 212.176 886.117 212.176C884.711 212.176 883.639 211.757 882.9 210.919C882.168 210.081 881.802 208.836 881.802 207.184C881.802 205.613 882.168 204.409 882.9 203.571C883.639 202.733 884.69 202.314 886.056 202.314C888.851 202.314 890.248 203.999 890.248 207.368V207.579H883.463ZM888.613 206.366C888.525 205.364 888.271 204.635 887.849 204.178C887.427 203.715 886.82 203.483 886.029 203.483C885.262 203.483 884.652 203.741 884.201 204.257C883.756 204.767 883.516 205.47 883.48 206.366H888.613ZM902.061 200.987V212H900.391V200.987H896.137V199.616H906.314V200.987H902.061ZM907.158 207.579C907.158 208.669 907.384 209.51 907.835 210.102C908.286 210.693 908.945 210.989 909.812 210.989C910.498 210.989 911.046 210.852 911.456 210.576C911.872 210.301 912.153 209.952 912.3 209.53L913.688 209.926C913.12 211.426 911.828 212.176 909.812 212.176C908.406 212.176 907.334 211.757 906.596 210.919C905.863 210.081 905.497 208.836 905.497 207.184C905.497 205.613 905.863 204.409 906.596 203.571C907.334 202.733 908.386 202.314 909.751 202.314C912.546 202.314 913.943 203.999 913.943 207.368V207.579H907.158ZM912.309 206.366C912.221 205.364 911.966 204.635 911.544 204.178C911.122 203.715 910.516 203.483 909.725 203.483C908.957 203.483 908.348 203.741 907.896 204.257C907.451 204.767 907.211 205.47 907.176 206.366H912.309ZM918.391 212.176C917.436 212.176 916.718 211.924 916.237 211.42C915.757 210.916 915.517 210.225 915.517 209.346C915.517 208.361 915.839 207.605 916.483 207.078C917.134 206.551 918.18 206.27 919.621 206.234L921.757 206.199V205.681C921.757 204.907 921.593 204.354 921.265 204.02C920.937 203.686 920.421 203.519 919.718 203.519C919.009 203.519 918.493 203.639 918.171 203.879C917.849 204.119 917.655 204.503 917.591 205.03L915.938 204.881C916.208 203.17 917.479 202.314 919.753 202.314C920.948 202.314 921.848 202.59 922.451 203.141C923.055 203.686 923.356 204.477 923.356 205.514V209.609C923.356 210.078 923.418 210.433 923.541 210.673C923.664 210.907 923.898 211.024 924.244 211.024C924.396 211.024 924.569 211.004 924.763 210.963V211.947C924.364 212.041 923.957 212.088 923.541 212.088C922.955 212.088 922.527 211.936 922.258 211.631C921.994 211.32 921.845 210.837 921.81 210.181H921.757C921.353 210.907 920.881 211.423 920.342 211.728C919.809 212.026 919.158 212.176 918.391 212.176ZM918.751 210.989C919.331 210.989 919.847 210.857 920.298 210.594C920.749 210.33 921.104 209.97 921.361 209.513C921.625 209.05 921.757 208.575 921.757 208.089V207.307L920.025 207.342C919.281 207.354 918.716 207.43 918.329 207.57C917.948 207.711 917.655 207.928 917.45 208.221C917.245 208.514 917.143 208.897 917.143 209.372C917.143 209.888 917.28 210.286 917.556 210.567C917.837 210.849 918.235 210.989 918.751 210.989ZM927.188 207.201C927.188 208.467 927.388 209.404 927.786 210.014C928.185 210.623 928.785 210.928 929.588 210.928C930.15 210.928 930.619 210.775 930.994 210.471C931.375 210.166 931.609 209.697 931.697 209.064L933.297 209.17C933.174 210.084 932.784 210.813 932.128 211.358C931.472 211.903 930.64 212.176 929.632 212.176C928.302 212.176 927.285 211.757 926.582 210.919C925.885 210.075 925.536 208.848 925.536 207.236C925.536 205.637 925.888 204.418 926.591 203.58C927.294 202.736 928.302 202.314 929.614 202.314C930.587 202.314 931.393 202.566 932.031 203.07C932.676 203.574 933.08 204.269 933.244 205.153L931.618 205.276C931.536 204.749 931.328 204.33 930.994 204.02C930.66 203.709 930.186 203.554 929.57 203.554C928.732 203.554 928.126 203.832 927.751 204.389C927.376 204.945 927.188 205.883 927.188 207.201ZM936.558 204.116C936.897 203.495 937.305 203.041 937.779 202.754C938.26 202.461 938.866 202.314 939.599 202.314C940.63 202.314 941.389 202.572 941.875 203.088C942.367 203.598 942.613 204.456 942.613 205.663V212H941.022V205.971C941.022 205.303 940.961 204.808 940.838 204.485C940.715 204.157 940.513 203.917 940.231 203.765C939.95 203.612 939.561 203.536 939.062 203.536C938.318 203.536 937.721 203.794 937.27 204.31C936.824 204.825 936.602 205.52 936.602 206.393V212H935.02V198.957H936.602V202.35C936.602 202.707 936.59 203.076 936.566 203.457C936.549 203.838 936.537 204.058 936.531 204.116H936.558ZM946.217 207.579C946.217 208.669 946.442 209.51 946.894 210.102C947.345 210.693 948.004 210.989 948.871 210.989C949.557 210.989 950.104 210.852 950.515 210.576C950.931 210.301 951.212 209.952 951.358 209.53L952.747 209.926C952.179 211.426 950.887 212.176 948.871 212.176C947.465 212.176 946.393 211.757 945.654 210.919C944.922 210.081 944.556 208.836 944.556 207.184C944.556 205.613 944.922 204.409 945.654 203.571C946.393 202.733 947.444 202.314 948.81 202.314C951.604 202.314 953.002 203.999 953.002 207.368V207.579H946.217ZM951.367 206.366C951.279 205.364 951.024 204.635 950.603 204.178C950.181 203.715 949.574 203.483 948.783 203.483C948.016 203.483 947.406 203.741 946.955 204.257C946.51 204.767 946.27 205.47 946.234 206.366H951.367ZM955.059 212V204.705C955.059 204.037 955.041 203.299 955.006 202.49H956.5C956.547 203.568 956.57 204.216 956.57 204.433H956.605C956.857 203.618 957.147 203.062 957.476 202.763C957.804 202.464 958.267 202.314 958.864 202.314C959.075 202.314 959.289 202.344 959.506 202.402V203.853C959.295 203.794 959.014 203.765 958.662 203.765C958.006 203.765 957.505 204.049 957.159 204.617C956.813 205.18 956.641 205.988 956.641 207.043V212H955.059Z"/><path fill="#6F39C4" d="M901.73 658.86H777.37C766.523 658.86 757.73 667.653 757.73 678.5V802.86C757.73 813.707 766.523 822.5 777.37 822.5H901.73C912.577 822.5 921.37 813.707 921.37 802.86V678.5C921.37 667.653 912.577 658.86 901.73 658.86Z"/><path stroke="#fff" stroke-linecap="round" stroke-linejoin="round" stroke-width="3.93" d="M860.35 728.12L879.29 725.12C882.98 724.45 886.44 726.33 887.04 729.65C887.64 732.97 885.11 736.23 881.42 736.89L841.85 744L839.93 743.86L808.22 734.48C808.22 734.48 803.81 734.3 797.15 738.23"/><path stroke="#fff" stroke-linecap="round" stroke-linejoin="round" stroke-width="3.93" d="M791.35 718.08L809.87 709.59C818.37 707.15 825.79 712.43 825.79 712.43C829.44 714.78 836.79 717.43 836.79 717.43L849.12 721.43C852.8 722.62 854.95 726.23 853.91 729.43C852.87 732.63 849 734.3 845.34 733.1L828.28 727.56"/><path stroke="#fff" stroke-linecap="round" stroke-linejoin="round" stroke-width="3.93" d="M821.66 697.36L802.72 700.36C799.03 701.02 795.57 699.15 794.97 695.83C794.37 692.51 796.9 689.25 800.59 688.59L840.16 681.5L842.08 681.63L873.79 691C873.79 691 878.2 691.18 884.85 687.26"/><path stroke="#fff" stroke-linecap="round" stroke-linejoin="round" stroke-width="3.93" d="M890.66 707.4L872.14 715.89C863.64 718.32 856.22 713.05 856.22 713.05C852.57 710.69 845.22 708.05 845.22 708.05L832.88 704C829.2 702.8 827.05 699.2 828.09 696C829.13 692.8 832.99 691.15 836.67 692.34L853.73 697.89"/><path fill="#000" d="M901.72 822.5H777.37C772.161 822.5 767.166 820.431 763.482 816.748C759.799 813.064 757.73 808.069 757.73 802.86V678.5C757.674 675.715 758.231 672.953 759.361 670.407C760.491 667.862 762.167 665.596 764.27 663.77L914.82 817.59C911.206 820.782 906.542 822.53 901.72 822.5V822.5Z" opacity=".1"/><path fill="#fff" d="M805.07 766.58L804.53 770.44H802.71L804.89 757.08H807.43L809.69 770.44H807.81L807.21 766.58H805.07ZM807 764.92C806.64 762.38 806.32 760.16 806.18 758.76H806.12C806.06 759.84 805.62 762.76 805.32 764.92H807Z"/><path fill="#fff" d="M812.81 766.58V767.38C812.81 768.48 813.17 769.1 814.01 769.1C814.85 769.1 815.17 768.36 815.17 767.24C815.17 765.76 814.85 765.24 813.41 764.12C811.97 763 811.23 762.28 811.23 760.32C811.23 758.58 811.75 756.88 814.03 756.88C816.31 756.88 816.75 758.46 816.75 760.02V760.68H815V760.06C815 759.06 814.82 758.42 814 758.42C813.18 758.42 813 759.1 813 760.06C813 761.02 813.2 761.6 814.4 762.48C816.34 763.92 816.94 764.76 816.94 766.98C816.94 768.86 816.32 770.62 813.94 770.62C811.56 770.62 811 769.12 811 767.36V766.58H812.81Z"/><path fill="#fff" d="M820.29 766.58V767.38C820.29 768.48 820.65 769.1 821.49 769.1C822.33 769.1 822.65 768.36 822.65 767.24C822.65 765.76 822.33 765.24 820.89 764.12C819.45 763 818.71 762.28 818.71 760.32C818.71 758.58 819.23 756.88 821.51 756.88C823.79 756.88 824.23 758.46 824.23 760.02V760.68H822.45V760.06C822.45 759.06 822.27 758.42 821.45 758.42C820.63 758.42 820.45 759.1 820.45 760.06C820.45 761.02 820.65 761.6 821.85 762.48C823.79 763.92 824.39 764.76 824.39 766.98C824.39 768.86 823.77 770.62 821.39 770.62C819.01 770.62 818.45 769.12 818.45 767.36V766.58H820.29Z"/><path fill="#fff" d="M832.37 760.52V767C832.37 769.48 831.37 770.66 829.19 770.66C827.01 770.66 826.19 769.4 826.19 767.02V760.5C826.19 758.06 827.37 756.9 829.33 756.9C831.29 756.9 832.37 758.14 832.37 760.52ZM828 760.36V767.18C828 768.46 828.46 769 829.26 769C830.06 769 830.54 768.48 830.54 767.14V760.36C830.54 759.14 830.14 758.52 829.26 758.52C828.38 758.52 828 759.1 828 760.36Z"/><path fill="#fff" d="M840.05 766.52V767C840.05 768.6 839.77 770.62 837.11 770.62C834.71 770.62 834.23 769.04 834.23 767.04V760.28C834.23 758.18 835.17 756.9 837.15 756.9C839.53 756.9 839.99 758.52 839.99 760.34V760.9H838.19V760.14C838.19 759.14 837.99 758.52 837.13 758.52C836.27 758.52 836.07 759.14 836.07 760.16V767.16C836.07 768.22 836.29 768.98 837.17 768.98C838.05 768.98 838.23 768.26 838.23 767.16V766.5L840.05 766.52Z"/><path fill="#fff" d="M843.63 757.08V770.44H841.83V757.08H843.63Z"/><path fill="#fff" d="M847.59 766.58L847.05 770.44H845.23L847.41 757.08H850L852.26 770.44H850.33L849.73 766.58H847.59ZM849.51 764.92C849.15 762.38 848.83 760.16 848.69 758.76H848.63C848.57 759.84 848.13 762.76 847.83 764.92H849.51Z"/><path fill="#fff" d="M854.25 758.74H852.09V757.08H858.19V758.74H856V770.44H854.25V758.74Z"/><path fill="#fff" d="M861.41 757.08V770.44H859.61V757.08H861.41Z"/><path fill="#fff" d="M864.93 757.08L865.71 762.74C865.97 764.58 866.31 766.64 866.43 768.1C866.55 766.7 866.91 764.64 867.13 762.8L867.91 757.08H869.81L867.51 770.44H865.31L863 757.08H864.93Z"/><path fill="#fff" d="M876.11 764.18H873.11V768.8H876.49L876.27 770.44H871.27V757.08H876.19V758.74H873.07V762.54H876.07L876.11 764.18Z"/><path fill="#fff" d="M793.89 787.76C793.89 788.46 793.89 789.16 793.89 789.44H792.75C792.692 789.164 792.658 788.882 792.65 788.6C792.519 788.924 792.287 789.197 791.987 789.378C791.688 789.558 791.338 789.636 790.99 789.6C789.55 789.6 788.99 788.32 788.99 786.76V786.58C788.99 784.32 790.35 783.48 792.15 783.48H792.63V781.8C792.63 780.86 792.47 780.24 791.63 780.24C790.79 780.24 790.57 780.88 790.57 781.7V782H789.29V781.72C789.29 780.32 789.85 779.14 791.65 779.14C793.45 779.14 793.89 780.26 793.89 781.72V787.76ZM792.65 784.52H792.11C790.91 784.52 790.21 785.02 790.21 786.52V786.7C790.21 787.64 790.49 788.42 791.33 788.42C792.33 788.42 792.65 787.62 792.65 786.06V784.52Z"/><path fill="#fff" d="M796.33 782.38C796.33 780.38 796.33 779.8 796.33 779.3H797.53C797.576 779.631 797.596 779.966 797.59 780.3C797.725 779.923 797.98 779.602 798.317 779.385C798.653 779.168 799.051 779.068 799.45 779.1C800.53 779.1 801.45 779.7 801.45 781.56V789.4H800.13V781.8C800.13 780.8 799.81 780.28 799.03 780.28C798.25 780.28 797.59 780.7 797.59 782.76V789.4H796.33V782.38Z"/><path fill="#fff" d="M808.67 775.48V786.88C808.67 788 808.67 788.88 808.67 789.44H807.47C807.47 789.26 807.41 788.7 807.41 788.44C807.288 788.802 807.049 789.113 806.73 789.323C806.411 789.534 806.031 789.631 805.65 789.6C803.97 789.6 803.53 788.28 803.53 786.34V782.14C803.53 780.34 804.25 779.14 805.81 779.14C806.118 779.11 806.428 779.165 806.706 779.299C806.985 779.433 807.221 779.641 807.39 779.9V775.48H808.67ZM804.81 786.36C804.81 787.72 805.17 788.42 806.01 788.42C807.13 788.42 807.39 787.34 807.39 785.9V782.5C807.39 781.38 807.27 780.32 806.05 780.32C805.19 780.32 804.81 781.04 804.81 782.2V786.36Z"/><path fill="#fff" d="M819.75 785.52V786C819.75 787.6 819.47 789.62 816.81 789.62C814.41 789.62 813.93 788.04 813.93 786.04V779.28C813.93 777.18 814.87 775.9 816.85 775.9C819.23 775.9 819.69 777.52 819.69 779.34V779.9H817.89V779.14C817.89 778.14 817.69 777.52 816.83 777.52C815.97 777.52 815.77 778.14 815.77 779.16V786.16C815.77 787.22 815.99 787.98 816.87 787.98C817.75 787.98 817.93 787.26 817.93 786.16V785.5L819.75 785.52Z"/><path fill="#fff" d="M827.63 779.52V786C827.63 788.48 826.63 789.66 824.45 789.66C822.27 789.66 821.45 788.4 821.45 786.02V779.5C821.45 777.06 822.63 775.9 824.59 775.9C826.55 775.9 827.63 777.14 827.63 779.52ZM823.27 779.36V786.18C823.27 787.46 823.73 788 824.53 788C825.33 788 825.81 787.48 825.81 786.14V779.36C825.81 778.14 825.41 777.52 824.53 777.52C823.65 777.52 823.27 778.1 823.27 779.36Z"/><path fill="#fff" d="M835.69 779.52V786C835.69 788.48 834.69 789.66 832.51 789.66C830.33 789.66 829.51 788.4 829.51 786.02V779.5C829.51 777.06 830.69 775.9 832.65 775.9C834.61 775.9 835.69 777.14 835.69 779.52ZM831.33 779.36V786.18C831.33 787.46 831.79 788 832.59 788C833.39 788 833.87 787.48 833.87 786.14V779.36C833.87 778.14 833.47 777.52 832.59 777.52C831.71 777.52 831.33 778.1 831.33 779.36Z"/><path fill="#fff" d="M837.79 776.08H840.53C842.61 776.08 843.63 777.08 843.63 779.38V780.18C843.63 782.3 842.91 783.78 840.43 783.78H839.59V789.44H837.79V776.08ZM839.59 782.3H840.25C841.63 782.3 841.85 781.48 841.85 780.14V779.46C841.85 778.46 841.65 777.58 840.41 777.58H839.59V782.3Z"/><path fill="#fff" d="M850.19 783.18H847.19V787.8H850.57L850.35 789.44H845.35V776.08H850.27V777.74H847.23V781.54H850.23L850.19 783.18Z"/><path fill="#fff" d="M852.17 776.08H854.81C856.81 776.08 857.93 776.92 857.93 779.24V779.78C857.93 781.78 857.19 782.36 856.57 782.58C857.39 782.94 857.81 783.52 857.81 785.32C857.775 786.695 857.815 788.07 857.93 789.44H856.21C856.071 788.112 856.024 786.775 856.07 785.44C856.07 783.78 855.83 783.36 854.59 783.36H854V789.44H852.2L852.17 776.08ZM853.97 781.86H854.61C855.77 781.86 856.15 781.32 856.15 779.86V779.34C856.15 778.22 855.87 777.56 854.63 777.56H854L853.97 781.86Z"/><path fill="#fff" d="M861.73 785.58L861.19 789.44H859.37L861.55 776.08H864.09L866.35 789.44H864.47L863.87 785.58H861.73ZM863.65 783.92C863.29 781.38 862.97 779.16 862.83 777.76H862.77C862.71 778.84 862.27 781.76 861.97 783.92H863.65Z"/><path fill="#fff" d="M868.39 777.74H866.23V776.08H872.33V777.74H870.17V789.44H868.39V777.74Z"/><path fill="#fff" d="M875.55 776.08V789.44H873.75V776.08H875.55Z"/><path fill="#fff" d="M879.07 776.08L879.85 781.74C880.11 783.58 880.45 785.64 880.57 787.1C880.69 785.7 881.05 783.64 881.27 781.8L882.05 776.08H884L881.7 789.44H879.5L877.15 776.08H879.07Z"/><path fill="#fff" d="M890.25 783.18H887.25V787.8H890.63L890.41 789.44H885.41V776.08H890.33V777.74H887.21V781.54H890.21L890.25 783.18Z"/><path fill="#fff" d="M800.61 795.08V808.44H798.81V795.08H800.61Z"/><path fill="#fff" d="M803 808.44V795.08H805.1L807.1 802.48C807.316 803.263 807.49 804.058 807.62 804.86V804.86C807.52 803.14 807.52 801.26 807.52 799.08V795.08H809.18V808.44H807.18L805 800C804.82 799.3 804.72 798.74 804.64 798.34C804.72 799.96 804.74 801.9 804.74 804.34V808.46L803 808.44Z"/><path fill="#fff" d="M812.81 796.74H810.65V795.08H816.75V796.74H814.59V808.44H812.81V796.74Z"/><path fill="#fff" d="M822.91 802.18H820V806.8H823.38L823.16 808.44H818.16V795.08H823.08V796.74H820V800.54H823L822.91 802.18Z"/><path fill="#fff" d="M824.89 795.08H827.53C829.53 795.08 830.65 795.92 830.65 798.24V798.78C830.65 800.78 829.91 801.36 829.29 801.58C830.11 801.94 830.53 802.52 830.53 804.32C830.495 805.695 830.535 807.07 830.65 808.44H828.93C828.791 807.112 828.744 805.775 828.79 804.44C828.79 802.78 828.55 802.36 827.31 802.36H826.69V808.44H824.89V795.08ZM826.69 800.86H827.33C828.49 800.86 828.87 800.32 828.87 798.86V798.34C828.87 797.22 828.59 796.56 827.35 796.56H826.69V800.86Z"/><path fill="#fff" d="M834.45 804.58L833.91 808.44H832.09L834.27 795.08H836.81L839.07 808.44H837.19L836.59 804.58H834.45ZM836.37 802.92C836.01 800.38 835.69 798.16 835.55 796.76H835.49C835.43 797.84 834.99 800.76 834.69 802.92H836.37Z"/><path fill="#fff" d="M846.31 804.52V805C846.31 806.6 846.03 808.62 843.37 808.62C840.97 808.62 840.49 807.04 840.49 805.04V798.28C840.49 796.18 841.43 794.9 843.41 794.9C845.79 794.9 846.25 796.52 846.25 798.34V798.9H844.45V798.14C844.45 797.14 844.25 796.52 843.39 796.52C842.53 796.52 842.33 797.14 842.33 798.16V805.16C842.33 806.22 842.55 806.98 843.43 806.98C844.31 806.98 844.49 806.26 844.49 805.16V804.5L846.31 804.52Z"/><path fill="#fff" d="M849.59 796.74H847.43V795.08H853.53V796.74H851.37V808.44H849.59V796.74Z"/><path fill="#fff" d="M856.75 795.08V808.44H855V795.08H856.75Z"/><path fill="#fff" d="M865 798.52V805C865 807.48 864 808.66 861.82 808.66C859.64 808.66 858.82 807.4 858.82 805.02V798.5C858.82 796.06 860 794.9 861.96 794.9C863.92 794.9 865 796.14 865 798.52ZM860.64 798.36V805.18C860.64 806.46 861.1 807 861.9 807C862.7 807 863.18 806.48 863.18 805.14V798.36C863.18 797.14 862.78 796.52 861.9 796.52C861.02 796.52 860.67 797.1 860.67 798.36H860.64Z"/><path fill="#fff" d="M867.13 808.44V795.08H869.23L871.23 802.48C871.446 803.263 871.62 804.058 871.75 804.86V804.86C871.65 803.14 871.65 801.26 871.65 799.08V795.08H873.31V808.44H871.31L869.11 800C868.93 799.3 868.83 798.74 868.75 798.34C868.83 799.96 868.85 801.9 868.85 804.34V808.46L867.13 808.44Z"/><path fill="#fff" d="M876.81 804.58V805.38C876.81 806.48 877.17 807.1 878.01 807.1C878.85 807.1 879.17 806.36 879.17 805.24C879.17 803.76 878.85 803.24 877.41 802.12C875.97 801 875.23 800.28 875.23 798.32C875.23 796.58 875.75 794.88 878.03 794.88C880.31 794.88 880.75 796.46 880.75 798.02V798.68H879V798.06C879 797.06 878.82 796.42 878 796.42C877.18 796.42 877 797.1 877 798.06C877 799.02 877.2 799.6 878.4 800.48C880.34 801.92 880.94 802.76 880.94 804.98C880.94 806.86 880.32 808.62 877.94 808.62C875.56 808.62 875 807.12 875 805.36V804.58H876.81Z"/><path fill="#0988EC" d="M649 264.5H524.64C513.793 264.5 505 273.293 505 284.14V408.5C505 419.347 513.793 428.14 524.64 428.14H649C659.847 428.14 668.64 419.347 668.64 408.5V284.14C668.64 273.293 659.847 264.5 649 264.5Z"/><path stroke="#fff" stroke-linecap="round" stroke-linejoin="round" stroke-width="3.93" d="M577.21 302.41C580.35 306.25 587.1 305.92 587.1 305.92C587.1 305.92 587.29 298.67 583.6 296.07C580.82 294.07 573.42 292.82 573.42 292.82C573.42 292.82 574.93 299.61 577.21 302.41Z"/><path stroke="#fff" stroke-linecap="round" stroke-linejoin="round" stroke-width="3.93" d="M578.5 319.27C573 319.5 572 322.5 572.05 325.27"/><path stroke="#fff" stroke-linecap="round" stroke-linejoin="round" stroke-width="3.93" d="M592.48 312.32C589.19 313.66 586.81 314.6 586.97 314.77C586.97 314.77 585.24 312.88 580.55 312.02C574.93 311.02 568.42 312.53 565.42 317.8C562.29 323.31 564.42 329.44 567.31 334.52C571.37 341.68 577.1 347.9 583 353.61C586.1 356.61 588 355.85 590.94 353.54C593.855 351.183 596.552 348.569 599 345.73C604.2 339.85 610.32 331.93 610.32 323.66C610.3 315 600.49 309.05 592.48 312.32Z"/><path stroke="#fff" stroke-linecap="round" stroke-linejoin="round" stroke-width="3.93" d="M593.78 298.08C593.78 298.08 589.78 299.69 587.1 305.92"/><path stroke="#fff" stroke-linecap="round" stroke-linejoin="round" stroke-width="3.93" d="M542.91 310.68L553.9 315.24"/><path stroke="#fff" stroke-linecap="round" stroke-linejoin="round" stroke-width="3.93" d="M542.91 346.11L553.9 341.55"/><path stroke="#fff" stroke-linecap="round" stroke-linejoin="round" stroke-width="3.93" d="M567.98 371.22L572.64 360.04"/><path stroke="#fff" stroke-linecap="round" stroke-linejoin="round" stroke-width="3.93" d="M561.62 352.43L542.99 370.98"/><path stroke="#fff" stroke-linecap="round" stroke-linejoin="round" stroke-width="3.93" d="M525.31 328.47H551.53"/><path stroke="#fff" stroke-linecap="round" stroke-linejoin="round" stroke-width="3.93" d="M631.72 310.68L620.72 315.24"/><path stroke="#fff" stroke-linecap="round" stroke-linejoin="round" stroke-width="3.93" d="M631.72 346.11L620.72 341.55"/><path stroke="#fff" stroke-linecap="round" stroke-linejoin="round" stroke-width="3.93" d="M606.64 371.22L601.99 360.04"/><path stroke="#fff" stroke-linecap="round" stroke-linejoin="round" stroke-width="3.93" d="M613.01 352.43L631.64 370.98"/><path stroke="#fff" stroke-linecap="round" stroke-linejoin="round" stroke-width="3.93" d="M649.31 328.47H623.09"/><path fill="#000" d="M649 428.14H524.64C519.431 428.14 514.436 426.071 510.752 422.388C507.069 418.704 505 413.709 505 408.5V284.14C504.945 281.355 505.503 278.591 506.635 276.046C507.767 273.5 509.445 271.235 511.55 269.41L662.09 423.23C658.479 426.42 653.819 428.168 649 428.14V428.14Z" opacity=".1"/><path fill="#fff" d="M531.31 406.53V407C531.31 408.6 531.03 410.62 528.37 410.62C525.97 410.62 525.49 409.04 525.49 407.04V400.28C525.49 398.18 526.43 396.9 528.41 396.9C530.79 396.9 531.25 398.52 531.25 400.34V400.9H529.45V400.14C529.45 399.14 529.25 398.52 528.39 398.52C527.53 398.52 527.33 399.14 527.33 400.16V407.16C527.33 408.22 527.55 408.98 528.43 408.98C529.31 408.98 529.49 408.26 529.49 407.16V406.5L531.31 406.53Z"/><path fill="#fff" d="M533.09 397.09H534.89V408.85H538.25L538.07 410.45H533.07L533.09 397.09Z"/><path fill="#fff" d="M541.67 406.59L541.13 410.45H539.31L541.49 397.09H544L546.26 410.45H544.41L543.81 406.59H541.67ZM543.59 404.93C543.23 402.39 542.91 400.17 542.77 398.77H542.71C542.65 399.85 542.21 402.77 541.91 404.93H543.59Z"/><path fill="#fff" d="M549.41 406.59V407.39C549.41 408.49 549.77 409.11 550.61 409.11C551.45 409.11 551.77 408.37 551.77 407.25C551.77 405.77 551.45 405.25 550.01 404.13C548.57 403.01 547.83 402.29 547.83 400.33C547.83 398.59 548.35 396.89 550.63 396.89C552.91 396.89 553.35 398.47 553.35 400.03V400.69H551.57V400.07C551.57 399.07 551.39 398.43 550.57 398.43C549.75 398.43 549.57 399.11 549.57 400.07C549.57 401.03 549.77 401.61 550.97 402.49C552.91 403.93 553.51 404.77 553.51 406.99C553.51 408.87 552.89 410.63 550.51 410.63C548.13 410.63 547.57 409.13 547.57 407.37V406.59H549.41Z"/><path fill="#fff" d="M556.89 406.59V407.39C556.89 408.49 557.25 409.11 558.09 409.11C558.93 409.11 559.25 408.37 559.25 407.25C559.25 405.77 558.93 405.25 557.49 404.13C556.05 403.01 555.31 402.29 555.31 400.33C555.31 398.59 555.83 396.89 558.11 396.89C560.39 396.89 560.83 398.47 560.83 400.03V400.69H559.05V400.07C559.05 399.07 558.87 398.43 558.05 398.43C557.23 398.43 557.05 399.11 557.05 400.07C557.05 401.03 557.25 401.61 558.45 402.49C560.39 403.93 560.99 404.77 560.99 406.99C560.99 408.87 560.37 410.63 557.99 410.63C555.61 410.63 555.05 409.13 555.05 407.37V406.59H556.89Z"/><path fill="#fff" d="M562.91 397.09H565.55C567.55 397.09 568.67 397.93 568.67 400.25V400.79C568.67 402.79 567.93 403.37 567.31 403.59C568.13 403.95 568.55 404.53 568.55 406.33C568.515 407.704 568.555 409.08 568.67 410.45H567C566.861 409.121 566.814 407.785 566.86 406.45C566.86 404.79 566.62 404.37 565.38 404.37H564.76V410.45H562.96L562.91 397.09ZM564.71 402.87H565.35C566.51 402.87 566.89 402.33 566.89 400.87V400.35C566.89 399.23 566.61 398.57 565.37 398.57H564.71V402.87Z"/><path fill="#fff" d="M576.69 400.53V407C576.69 409.48 575.69 410.66 573.51 410.66C571.33 410.66 570.51 409.4 570.51 407.02V400.54C570.51 398.1 571.69 396.94 573.65 396.94C575.61 396.94 576.69 398.15 576.69 400.53ZM572.33 400.37V407.19C572.33 408.47 572.79 409.01 573.59 409.01C574.39 409.01 574.87 408.49 574.87 407.15V400.37C574.87 399.15 574.47 398.53 573.59 398.53C572.71 398.53 572.33 399.11 572.33 400.37Z"/><path fill="#fff" d="M584.75 400.53V407C584.75 409.48 583.75 410.66 581.57 410.66C579.39 410.66 578.57 409.4 578.57 407.02V400.54C578.57 398.1 579.75 396.94 581.71 396.94C583.67 396.94 584.75 398.15 584.75 400.53ZM580.39 400.37V407.19C580.39 408.47 580.85 409.01 581.65 409.01C582.45 409.01 582.93 408.49 582.93 407.15V400.37C582.93 399.15 582.53 398.53 581.65 398.53C580.77 398.53 580.39 399.11 580.39 400.37Z"/><path fill="#fff" d="M593.55 405.23C593.55 402.87 593.55 400.13 593.63 398.65C593.31 400.93 592.45 406.53 591.81 410.45H590.11C589.63 406.99 588.75 401.05 588.45 398.63C588.45 400.19 588.55 403.21 588.55 405.51V410.45H586.85V397.09H589.51C590.13 400.71 590.81 404.99 590.99 406.79C591.19 404.99 592.05 400.51 592.67 397.09H595.25V410.45H593.55V405.23Z"/><path fill="#fff" d="M606.33 406.53V407C606.33 408.6 606.05 410.62 603.39 410.62C600.98 410.62 600.5 409.04 600.5 407.04V400.28C600.5 398.18 601.5 396.9 603.43 396.9C605.81 396.9 606.27 398.52 606.27 400.34V400.9H604.47V400.14C604.47 399.14 604.27 398.52 603.41 398.52C602.55 398.52 602.35 399.14 602.35 400.16V407.16C602.35 408.22 602.57 408.98 603.45 408.98C604.33 408.98 604.51 408.26 604.51 407.16V406.5L606.33 406.53Z"/><path fill="#fff" d="M608.1 397.09H609.91V408.85H613.27L613.09 410.45H608.09L608.1 397.09Z"/><path fill="#fff" d="M616.41 397.09V410.45H614.61V397.09H616.41Z"/><path fill="#fff" d="M625.49 405.23C625.49 402.87 625.49 400.13 625.57 398.65C625.25 400.93 624.39 406.53 623.75 410.45H622C621.52 406.99 620.64 401.05 620.34 398.63C620.34 400.19 620.44 403.21 620.44 405.51V410.45H618.8V397.09H621.46C622.08 400.71 622.76 404.99 622.94 406.79C623.14 404.99 624 400.51 624.62 397.09H627.2V410.45H625.48L625.49 405.23Z"/><path fill="#fff" d="M631 406.59L630.46 410.45H628.64L630.82 397.09H633.37L635.63 410.45H633.75L633.15 406.59H631ZM632.93 404.93C632.57 402.39 632.25 400.17 632.11 398.77H632.04C631.99 399.85 631.54 402.77 631.25 404.93H632.93Z"/><path fill="#fff" d="M637.71 398.75H635.54V397.09H641.65V398.75H639.49V410.45H637.71V398.75Z"/><path fill="#fff" d="M647.81 404.19H644.81V408.81H648.19L647.97 410.45H642.97V397.09H648V398.75H644.88V402.55H647.88L647.81 404.19Z"/><path fill="#E55529" d="M394.64 264.5H270.28C259.433 264.5 250.64 273.293 250.64 284.14V408.5C250.64 419.347 259.433 428.14 270.28 428.14H394.64C405.487 428.14 414.28 419.347 414.28 408.5V284.14C414.28 273.293 405.487 264.5 394.64 264.5Z"/><path stroke="#fff" stroke-linecap="round" stroke-linejoin="round" stroke-width="3.93" d="M348.1 309.2L333.55 334.14L319.36 320.23"/><path stroke="#fff" stroke-linecap="round" stroke-linejoin="round" stroke-width="3.93" d="M369.93 334.14H361.98"/><path stroke="#fff" stroke-linecap="round" stroke-linejoin="round" stroke-width="3.93" d="M305.63 334.14H297.68"/><path stroke="#fff" stroke-linecap="round" stroke-linejoin="round" stroke-width="3.93" d="M333.37 369.82V361.88"/><path stroke="#fff" stroke-linecap="round" stroke-linejoin="round" stroke-width="3.93" d="M333.37 304.23V296.28"/><path stroke="#fff" stroke-linecap="round" stroke-linejoin="round" stroke-width="3.93" d="M299.38 293.84L299.17 302.21"/><path stroke="#fff" stroke-linecap="round" stroke-linejoin="round" stroke-width="3.93" d="M299.38 302.48L307.33 303.19"/><path stroke="#fff" stroke-linecap="round" stroke-linejoin="round" stroke-width="3.93" d="M367.59 371.96L367.79 363.59"/><path stroke="#fff" stroke-linecap="round" stroke-linejoin="round" stroke-width="3.93" d="M367.59 363.32L359.64 362.61"/><path stroke="#fff" stroke-linecap="round" stroke-linejoin="round" stroke-width="3.93" d="M294.08 310.08C288.453 319.87 286.646 331.396 289.007 342.438C291.369 353.48 297.731 363.259 306.87 369.892C316.009 376.524 327.278 379.542 338.509 378.364C349.739 377.186 360.137 371.895 367.7 363.51"/><path stroke="#fff" stroke-linecap="round" stroke-linejoin="round" stroke-width="3.93" d="M373.21 356C378.927 346.199 380.797 334.623 378.457 323.52C376.117 312.418 369.734 302.581 360.547 295.922C351.361 289.262 340.027 286.254 328.747 287.483C317.468 288.711 307.047 294.089 299.51 302.57"/><path fill="#000" d="M394.63 428.14H270.28C265.071 428.14 260.076 426.071 256.392 422.388C252.709 418.704 250.64 413.709 250.64 408.5V284.14C250.584 281.355 251.141 278.593 252.271 276.047C253.401 273.502 255.077 271.236 257.18 269.41L407.73 423.23C404.115 426.422 399.452 428.17 394.63 428.14Z" opacity=".1"/><path fill="#fff" d="M283.52 398.75H281.36V397.09H287.46V398.75H285.3V410.45H283.52V398.75Z"/><path fill="#fff" d="M288.88 397.09H291.52C293.52 397.09 294.64 397.93 294.64 400.25V400.79C294.64 402.79 293.9 403.37 293.28 403.59C294.1 403.95 294.52 404.53 294.52 406.33C294.485 407.704 294.525 409.08 294.64 410.45H292.92C292.781 409.121 292.734 407.785 292.78 406.45C292.78 404.79 292.54 404.37 291.3 404.37H290.68V410.45H288.88V397.09ZM290.68 402.87H291.32C292.48 402.87 292.86 402.33 292.86 400.87V400.35C292.86 399.23 292.58 398.57 291.34 398.57H290.68V402.87Z"/><path fill="#fff" d="M298.44 406.59L297.9 410.45H296.08L298.26 397.09H300.8L303.06 410.45H301.18L300.58 406.59H298.44ZM300.36 404.93C300 402.39 299.68 400.17 299.54 398.77H299.48C299.42 399.85 298.98 402.77 298.68 404.93H300.36Z"/><path fill="#fff" d="M304.6 410.45V397.09H306.7L308.7 404.49C308.916 405.273 309.09 406.068 309.22 406.87V406.87C309.12 405.15 309.12 403.27 309.12 401.09V397.09H310.78V410.45H308.78L306.56 402C306.38 401.3 306.28 400.74 306.2 400.34C306.28 401.96 306.3 403.9 306.3 406.34V410.46L304.6 410.45Z"/><path fill="#fff" d="M314.28 406.59V407.39C314.28 408.49 314.64 409.11 315.48 409.11C316.32 409.11 316.64 408.37 316.64 407.25C316.64 405.77 316.32 405.25 314.88 404.13C313.44 403.01 312.7 402.29 312.7 400.33C312.7 398.59 313.22 396.89 315.5 396.89C317.78 396.89 318.22 398.47 318.22 400.03V400.69H316.44V400.07C316.44 399.07 316.26 398.43 315.44 398.43C314.62 398.43 314.44 399.11 314.44 400.07C314.44 401.03 314.64 401.61 315.84 402.49C317.78 403.93 318.38 404.77 318.38 406.99C318.38 408.87 317.76 410.63 315.38 410.63C313 410.63 312.44 409.13 312.44 407.37V406.59H314.28Z"/><path fill="#fff" d="M322.1 397.09V410.45H320.3V397.09H322.1Z"/><path fill="#fff" d="M325.74 398.75H323.58V397.09H329.68V398.75H327.52V410.45H325.74V398.75Z"/><path fill="#fff" d="M332.9 397.09V410.45H331.1V397.09H332.9Z"/><path fill="#fff" d="M341.18 400.53V407C341.18 409.48 340.18 410.66 338 410.66C335.82 410.66 335 409.4 335 407.02V400.54C335 398.1 336.18 396.94 338.14 396.94C340.1 396.94 341.18 398.15 341.18 400.53ZM336.82 400.37V407.19C336.82 408.47 337.28 409.01 338.08 409.01C338.88 409.01 339.36 408.49 339.36 407.15V400.37C339.36 399.15 338.96 398.53 338.08 398.53C337.2 398.53 336.82 399.11 336.82 400.37V400.37Z"/><path fill="#fff" d="M343.28 410.45V397.09H345.38L347.38 404.49C347.596 405.273 347.77 406.068 347.9 406.87V406.87C347.8 405.15 347.8 403.27 347.8 401.09V397.09H349.46V410.45H347.46L345.24 402C345.06 401.3 344.96 400.74 344.88 400.34C344.96 401.96 344.98 403.9 344.98 406.34V410.46L343.28 410.45Z"/><path fill="#fff" d="M356.2 398.75H354V397.09H360.1V398.75H358V410.45H356.2V398.75Z"/><path fill="#fff" d="M363.36 397.09V410.45H361.56V397.09H363.36Z"/><path fill="#fff" d="M372.44 405.23C372.44 402.87 372.44 400.13 372.52 398.65C372.2 400.93 371.34 406.53 370.7 410.45H369C368.52 406.99 367.64 401.05 367.34 398.63C367.34 400.19 367.44 403.21 367.44 405.51V410.45H365.8V397.09H368.46C369.08 400.71 369.76 404.99 369.94 406.79C370.14 404.99 371 400.51 371.62 397.09H374.2V410.45H372.48L372.44 405.23Z"/><path fill="#fff" d="M381.28 404.19H378.28V408.81H381.66L381.44 410.45H376.44V397.09H381.36V398.75H378.24V402.55H381.24L381.28 404.19Z"/><path fill="#E99C2E" d="M648.73 461.5H524.37C513.523 461.5 504.73 470.293 504.73 481.14V605.5C504.73 616.347 513.523 625.14 524.37 625.14H648.73C659.577 625.14 668.37 616.347 668.37 605.5V481.14C668.37 470.293 659.577 461.5 648.73 461.5Z"/><path stroke="#fff" stroke-width="3.93" d="M593.25 500.12L597.96 495.41"/><path stroke="#fff" stroke-width="3.93" d="M572.4 520.96L577.09 516.27"/><path stroke="#fff" stroke-width="3.93" d="M596.42 508.19C596.43 510.415 595.779 512.593 594.55 514.448C593.321 516.303 591.569 517.752 589.516 518.61C587.463 519.468 585.202 519.698 583.018 519.27C580.834 518.842 578.827 517.776 577.25 516.206C575.673 514.636 574.597 512.633 574.16 510.451C573.722 508.27 573.942 506.007 574.791 503.95C575.64 501.894 577.081 500.135 578.93 498.898C580.78 497.661 582.955 497 585.18 497C588.152 497 591.004 498.177 593.11 500.274C595.217 502.372 596.407 505.218 596.42 508.19V508.19Z"/><path stroke="#fff" stroke-width="3.93" d="M595.25 546.01L593.12 551.41"/><path stroke="#fff" stroke-width="3.93" d="M603.26 525.73L601.14 531.11"/><path stroke="#fff" stroke-width="3.93" d="M590.85 541.75L585.52 544.06"/><path stroke="#fff" stroke-width="3.93" d="M610.85 533.08L605.55 535.38"/><path stroke="#fff" stroke-width="3.93" d="M605.63 541.51L611.03 543.64"/><path stroke="#fff" stroke-width="3.93" d="M585.35 533.5L590.73 535.62"/><path stroke="#fff" stroke-width="3.93" d="M605.5 541.46C604.928 542.906 603.941 544.149 602.662 545.034C601.384 545.918 599.872 546.404 598.318 546.429C596.764 546.454 595.237 546.018 593.93 545.175C592.624 544.332 591.597 543.121 590.979 541.695C590.361 540.269 590.179 538.691 590.458 537.162C590.736 535.632 591.462 534.22 592.543 533.103C593.625 531.986 595.013 531.215 596.532 530.887C598.052 530.559 599.634 530.689 601.08 531.26C602.04 531.639 602.916 532.204 603.658 532.922C604.399 533.64 604.992 534.497 605.403 535.445C605.813 536.392 606.033 537.41 606.05 538.443C606.066 539.475 605.88 540.5 605.5 541.46V541.46Z"/><path stroke="#fff" stroke-width="3.93" d="M585.18 496.77V490.12"/><path stroke="#fff" stroke-width="3.93" d="M585.18 526.26V519.62"/><path stroke="#fff" stroke-width="3.93" d="M596.59 508.19H603.24"/><path stroke="#fff" stroke-width="3.93" d="M567.11 508.19H573.74"/><path stroke="#fff" stroke-width="3.93" d="M577.11 500.12L572.4 495.41"/><path stroke="#fff" stroke-width="3.93" d="M597.95 520.97L593.26 516.27"/><path stroke="#fff" stroke-width="3.93" d="M601.37 545.91L603.68 551.23"/><path stroke="#fff" stroke-width="3.93" d="M592.7 525.9L595 531.21"/><path stroke="#fff" stroke-linejoin="round" stroke-width="3.93" d="M571 577.89C571.542 573.728 570.573 569.509 568.27 566C566.64 563.54 554.05 568.37 550.84 566.78C549.999 566.352 549.268 565.735 548.706 564.976C548.144 564.218 547.765 563.339 547.6 562.41C547.41 561.34 547.53 560.23 547.35 559.15C546.92 556.42 544.75 554.29 543.9 551.65C544.36 551.04 547.9 549.41 548.32 548.8C542.72 548.45 541.32 545.54 543.93 542.01C543.84 542.13 532.93 536.94 537.31 531.71C538.77 529.95 540.96 528.95 542.6 527.36C547.92 522.19 546.04 512.2 548.24 505.6C553.9 488.58 571 479.66 588 479.7C628.53 479.81 634.48 513.07 633.5 526.13C632.23 543.13 621.19 553.84 607.01 561.31C603.95 562.93 604.01 567.67 605.21 570.31C606.32 572.68 608.13 574.67 609.21 577.04"/><path fill="#000" d="M648.72 625.14H524.37C519.161 625.14 514.166 623.071 510.482 619.388C506.799 615.704 504.73 610.709 504.73 605.5V481.14C504.674 478.355 505.231 475.593 506.361 473.047C507.491 470.502 509.167 468.236 511.27 466.41L661.82 620.23C658.206 623.422 653.542 625.17 648.72 625.14Z" opacity=".1"/><path fill="#fff" d="M521.88 603.59V604.39C521.88 605.49 522.24 606.11 523.08 606.11C523.92 606.11 524.24 605.37 524.24 604.25C524.24 602.77 523.92 602.25 522.48 601.13C521.04 600.01 520.3 599.29 520.3 597.33C520.3 595.59 520.82 593.89 523.1 593.89C525.38 593.89 525.82 595.47 525.82 597.03V597.69H524V597.07C524 596.07 523.82 595.43 523 595.43C522.18 595.43 522 596.11 522 597.07C522 598.03 522.2 598.61 523.4 599.49C525.34 600.93 525.94 601.77 525.94 603.99C525.94 605.87 525.32 607.63 522.94 607.63C520.56 607.63 520 606.13 520 604.37V603.59H521.88Z"/><path fill="#fff" d="M529.2 595.75H527V594.09H533.1V595.75H531V607.45H529.2V595.75Z"/><path fill="#fff" d="M536.28 594.09V604.35C536.28 605.35 536.62 606.01 537.5 606.01C538.38 606.01 538.72 605.35 538.72 604.35V594.09H540.5V604.31C540.5 606.39 539.56 607.63 537.5 607.63C535.44 607.63 534.5 606.53 534.5 604.33V594.09H536.28Z"/><path fill="#fff" d="M542.82 594.09H545.5C548.36 594.09 548.9 595.69 548.9 598.01V603.21C548.9 605.21 548.56 607.45 545.46 607.45H542.82V594.09ZM544.62 605.91H545.34C546.8 605.91 547.08 605.03 547.08 603.49V597.85C547.08 596.49 546.84 595.63 545.34 595.63H544.62V605.91Z"/><path fill="#fff" d="M555.74 601.19H552.74V605.81H556.12L555.9 607.45H551V594.09H555.9V595.75H552.78V599.55H555.78L555.74 601.19Z"/><path fill="#fff" d="M557.72 607.45V594.09H559.82L561.82 601.49C562.036 602.273 562.21 603.068 562.34 603.87V603.87C562.24 602.15 562.24 600.27 562.24 598.09V594.09H563.9V607.45H561.9L559.68 599C559.5 598.3 559.4 597.74 559.32 597.34C559.4 598.96 559.42 600.9 559.42 603.34V607.46L557.72 607.45Z"/><path fill="#fff" d="M567.54 595.75H565.38V594.09H571.48V595.75H569.32V607.45H567.54V595.75Z"/><path fill="#fff" d="M580.8 601.19H577.8V605.81H581.18L581 607.45H576V594.09H581V595.75H577.84V599.55H580.84L580.8 601.19Z"/><path fill="#fff" d="M582.78 607.45V594.09H584.88L586.88 601.49C587.096 602.273 587.27 603.068 587.4 603.87V603.87C587.3 602.15 587.3 600.27 587.3 598.09V594.09H589V607.45H587L584.74 599C584.56 598.3 584.46 597.74 584.38 597.34C584.46 598.96 584.48 600.9 584.48 603.34V607.46L582.78 607.45Z"/><path fill="#fff" d="M597.08 607.45H595.68C595.68 607.23 595.6 606.67 595.58 606.39C595.421 606.782 595.141 607.112 594.782 607.335C594.422 607.558 594.002 607.661 593.58 607.63C591.68 607.63 591.04 606.23 591.04 604.03V597.59C591.04 595.39 591.92 593.91 594.04 593.91C596.66 593.91 597.04 595.79 597.04 597.33V597.73H595.26V597.27C595.26 596.45 595.14 595.53 594.08 595.53C593.26 595.53 592.88 596.09 592.88 597.33V604.19C592.88 605.37 593.2 606.05 594.04 606.05C595.04 606.05 595.28 605.13 595.28 603.63V601.63H594V600.09H597.1L597.08 607.45Z"/><path fill="#fff" d="M601.08 603.59L600.54 607.45H598.72L600.9 594.09H603.44L605.7 607.45H603.82L603.22 603.59H601.08ZM603 601.93C602.64 599.39 602.32 597.17 602.18 595.77H602.12C602.06 596.85 601.62 599.77 601.32 601.93H603Z"/><path fill="#fff" d="M613.16 607.45H611.76C611.76 607.23 611.68 606.67 611.66 606.39C611.5 606.782 611.221 607.112 610.862 607.335C610.502 607.558 610.082 607.661 609.66 607.63C607.76 607.63 607.12 606.23 607.12 604.03V597.59C607.12 595.39 608 593.91 610.12 593.91C612.74 593.91 613.12 595.79 613.12 597.33V597.73H611.34V597.27C611.34 596.45 611.22 595.53 610.16 595.53C609.34 595.53 608.96 596.09 608.96 597.33V604.19C608.96 605.37 609.28 606.05 610.12 606.05C611.12 606.05 611.36 605.13 611.36 603.63V601.63H610.06V600.09H613.16V607.45Z"/><path fill="#fff" d="M620.14 601.19H617.14V605.81H620.52L620.3 607.45H615.3V594.09H620.22V595.75H617.1V599.55H620.1L620.14 601.19Z"/><path fill="#fff" d="M628.88 602.23C628.88 599.87 628.88 597.13 628.96 595.65C628.64 597.93 627.78 603.53 627.14 607.45H625.44C624.96 603.99 624.08 598.05 623.78 595.63C623.78 597.19 623.88 600.21 623.88 602.51V607.45H622.24V594.09H624.9C625.52 597.71 626.2 601.99 626.38 603.79C626.58 601.99 627.44 597.51 628.06 594.09H630.64V607.45H628.92L628.88 602.23Z"/><path fill="#fff" d="M637.72 601.19H634.72V605.81H638.1L637.88 607.45H632.88V594.09H637.8V595.75H634.68V599.55H637.68L637.72 601.19Z"/><path fill="#fff" d="M639.7 607.45V594.09H641.8L643.8 601.49C644.016 602.273 644.19 603.068 644.32 603.87V603.87C644.22 602.15 644.22 600.27 644.22 598.09V594.09H645.88V607.45H643.88L641.68 599.01C641.5 598.31 641.4 597.75 641.32 597.35C641.4 598.97 641.42 600.91 641.42 603.35V607.47L639.7 607.45Z"/><path fill="#fff" d="M649.52 595.75H647.36V594.09H653.46V595.75H651.3V607.45H649.52V595.75Z"/><path fill="#009365" d="M394.64 461.86H270.28C259.433 461.86 250.64 470.653 250.64 481.5V605.86C250.64 616.707 259.433 625.5 270.28 625.5H394.64C405.487 625.5 414.28 616.707 414.28 605.86V481.5C414.28 470.653 405.487 461.86 394.64 461.86Z"/><path stroke="#fff" stroke-width="3.93" d="M307.83 498.55C307.832 500.169 307.354 501.752 306.456 503.098C305.557 504.445 304.28 505.495 302.785 506.115C301.29 506.736 299.644 506.899 298.057 506.583C296.469 506.268 295.01 505.489 293.866 504.344C292.721 503.2 291.942 501.741 291.627 500.153C291.311 498.566 291.474 496.92 292.095 495.425C292.715 493.93 293.765 492.652 295.112 491.754C296.458 490.856 298.041 490.378 299.66 490.38C301.827 490.38 303.905 491.241 305.437 492.773C306.969 494.305 307.83 496.383 307.83 498.55V498.55Z"/><path stroke="#fff" stroke-width="3.93" d="M308.61 575.11L309.71 531.85C327.05 540.68 326.07 526.61 317.56 525.3L314.29 520.06C311.45 515.34 310.03 514.47 306.86 514.47H292.45C290.878 514.504 289.372 515.103 288.205 516.157C287.039 517.211 286.292 518.65 286.1 520.21L283.65 544.55C283.33 547.71 286.92 550.22 289.92 551.3L290.7 575.11"/><path stroke="#fff" stroke-width="3.93" d="M377.51 502.38V551.91H320.32"/><path stroke="#fff" stroke-width="3.93" d="M314.96 494.22H381.81V502.06H314.96"/><path stroke="#fff" stroke-width="3.93" d="M322.17 533.95L356.15 514.33"/><path fill="#000" d="M394.63 625.5H270.28C265.071 625.5 260.076 623.431 256.392 619.748C252.709 616.064 250.64 611.069 250.64 605.86V481.5C250.584 478.716 251.141 475.953 252.271 473.407C253.401 470.862 255.077 468.596 257.18 466.77L407.73 620.59C404.115 623.782 399.452 625.53 394.63 625.5V625.5Z" opacity=".1"/><path fill="#fff" d="M268.15 594.11H270V605.87H273.36L273.18 607.47H268.18L268.15 594.11Z"/><path fill="#fff" d="M279.39 601.21H276.39V605.83H279.77L279.55 607.47H274.55V594.11H279.47V595.77H276.43V599.57H279.43L279.39 601.21Z"/><path fill="#fff" d="M282.81 594.11L283.59 599.77C283.85 601.61 284.19 603.67 284.31 605.13C284.43 603.73 284.79 601.67 285.01 599.83L285.79 594.11H287.69L285.39 607.47H283.19L280.85 594.11H282.81Z"/><path fill="#fff" d="M294 601.21H291V605.83H294.38L294.16 607.47H289.16V594.11H294.08V595.77H291V599.57H294V601.21Z"/><path fill="#fff" d="M296 594.11H297.8V605.87H301.16L300.98 607.47H296V594.11Z"/><path fill="#fff" d="M310.55 600.15V604.47C310.55 606.69 309.55 607.63 307.95 607.63C306.35 607.63 305.41 606.71 305.41 604.53V600.13C305.41 598.23 306.41 597.13 308.01 597.13C309.61 597.13 310.55 598.27 310.55 600.15ZM306.69 600.15V604.61C306.69 605.77 307.09 606.51 307.97 606.51C308.85 606.51 309.25 605.95 309.25 604.59V600.13C309.25 599.13 308.89 598.33 307.99 598.33C307.09 598.33 306.69 599 306.69 600.13V600.15Z"/><path fill="#fff" d="M313 607.47V598.47H311.87V597.33H313V595.79C313 594.59 313.44 593.43 315 593.43C315.222 593.426 315.443 593.446 315.66 593.49V594.67C315.5 594.66 315.34 594.66 315.18 594.67C314.44 594.67 314.28 595.19 314.28 595.97V597.37H315.6V598.51H314.23V607.51L313 607.47Z"/><path fill="#fff" d="M321.83 594.11V607.47H320V594.11H321.83Z"/><path fill="#fff" d="M324.21 607.47V594.11H326.31L328.31 601.51C328.526 602.293 328.7 603.088 328.83 603.89V603.89C328.73 602.17 328.73 600.29 328.73 598.11V594.11H330.39V607.47H328.39L326.17 599C325.99 598.3 325.89 597.74 325.81 597.34C325.89 598.96 325.91 600.9 325.91 603.34V607.46L324.21 607.47Z"/><path fill="#fff" d="M333.89 603.61V604.41C333.89 605.51 334.25 606.13 335.09 606.13C335.93 606.13 336.25 605.39 336.25 604.27C336.25 602.79 335.93 602.27 334.49 601.15C333.05 600.03 332.31 599.31 332.31 597.35C332.31 595.61 332.83 593.91 335.11 593.91C337.39 593.91 337.83 595.49 337.83 597.05V597.71H336.05V597.09C336.05 596.09 335.87 595.45 335.05 595.45C334.23 595.45 334.05 596.13 334.05 597.09C334.05 598.05 334.25 598.63 335.45 599.51C337.39 600.95 337.99 601.79 337.99 604.01C337.99 605.89 337.37 607.65 334.99 607.65C332.61 607.65 332.05 606.15 332.05 604.39V603.61H333.89Z"/><path fill="#fff" d="M341.21 595.77H339.05V594.11H345.15V595.77H343V607.47H341.21V595.77Z"/><path fill="#fff" d="M346.57 594.11H349.21C351.21 594.11 352.33 594.95 352.33 597.27V597.81C352.33 599.81 351.59 600.39 350.97 600.61C351.79 600.97 352.21 601.55 352.21 603.35C352.175 604.724 352.215 606.1 352.33 607.47H350.61C350.471 606.141 350.424 604.805 350.47 603.47C350.47 601.81 350.23 601.39 348.99 601.39H348.37V607.47H346.57V594.11ZM348.37 599.89H349C350.16 599.89 350.54 599.35 350.54 597.89V597.37C350.54 596.25 350.26 595.59 349.02 595.59H348.36L348.37 599.89Z"/><path fill="#fff" d="M356.05 594.11V604.37C356.05 605.37 356.39 606.03 357.27 606.03C358.15 606.03 358.49 605.37 358.49 604.37V594.11H360.27V604.33C360.27 606.41 359.33 607.65 357.27 607.65C355.21 607.65 354.27 606.55 354.27 604.35V594.11H356.05Z"/><path fill="#fff" d="M368.11 603.55V604C368.11 605.6 367.83 607.62 365.17 607.62C362.77 607.62 362.29 606.04 362.29 604.04V597.28C362.29 595.18 363.23 593.9 365.21 593.9C367.59 593.9 368.05 595.52 368.05 597.34V597.9H366.25V597.14C366.25 596.14 366.05 595.52 365.19 595.52C364.33 595.52 364.13 596.14 364.13 597.16V604.16C364.13 605.22 364.35 605.98 365.23 605.98C366.11 605.98 366.29 605.26 366.29 604.16V603.5L368.11 603.55Z"/><path fill="#fff" d="M371.39 595.77H369.23V594.11H375.33V595.77H373.17V607.47H371.39V595.77Z"/><path fill="#fff" d="M378.55 594.11V607.47H376.75V594.11H378.55Z"/><path fill="#fff" d="M386.83 597.55V604C386.83 606.48 385.83 607.66 383.65 607.66C381.47 607.66 380.65 606.4 380.65 604.02V597.54C380.65 595.1 381.83 593.94 383.79 593.94C385.75 593.94 386.83 595.17 386.83 597.55ZM382.47 597.39V604.21C382.47 605.49 382.93 606.03 383.73 606.03C384.53 606.03 385.01 605.51 385.01 604.17V597.39C385.01 596.17 384.61 595.55 383.73 595.55C382.85 595.55 382.47 596.13 382.47 597.39V597.39Z"/><path fill="#fff" d="M388.93 607.47V594.11H391L393 601.51C393.216 602.293 393.39 603.088 393.52 603.89V603.89C393.42 602.17 393.42 600.29 393.42 598.11V594.11H395.08V607.47H393.08L390.88 599.03C390.7 598.33 390.6 597.77 390.52 597.37C390.6 598.99 390.62 600.93 390.62 603.37V607.49L388.93 607.47Z"/><path fill="#4FD9B3" d="M902 461.86H777.64C766.793 461.86 758 470.653 758 481.5V605.86C758 616.707 766.793 625.5 777.64 625.5H902C912.847 625.5 921.64 616.707 921.64 605.86V481.5C921.64 470.653 912.847 461.86 902 461.86Z"/><path stroke="#fff" stroke-linecap="round" stroke-linejoin="round" stroke-width="3.93" d="M873.83 536.09L888.46 550.66"/><path stroke="#fff" stroke-linecap="round" stroke-linejoin="round" stroke-width="3.93" d="M810.86 528.42C810.86 528.42 804.17 505.18 821.36 495.31C821.36 495.31 838.72 484.92 854.79 495.63C854.79 495.63 876.12 508.63 864.03 532.87C862.474 535.573 860.541 538.041 858.29 540.2C853.686 545.349 850.79 551.798 850 558.66C850 558.66 850 573.31 836 574.9C836 574.9 825.07 577.66 821.8 562.16"/><path stroke="#fff" stroke-linecap="round" stroke-linejoin="round" stroke-width="3.93" d="M856.54 523.64C856.54 523.64 860.78 510.8 847.83 503.16C847.83 503.16 837.07 496.58 828.73 503.37C828.73 503.37 821.73 509.1 823.21 518.12C823.21 518.12 824.34 533.19 831.02 522.26C831.02 522.26 837.02 511.97 845.02 524.04C845.02 524.04 849.61 531.49 841.12 534.04C841.12 534.04 834.01 536.9 834.26 548.63C834.36 552.69 827.35 556.27 825.91 548.63C824.81 543.41 824.91 542.16 824.91 542.16"/><path stroke="#fff" stroke-linecap="round" stroke-linejoin="round" stroke-width="3.93" d="M885.99 529.96L877.49 526.44"/><path stroke="#fff" stroke-linecap="round" stroke-linejoin="round" stroke-width="3.93" d="M885.99 502.59L877.49 506.11"/><path stroke="#fff" stroke-linecap="round" stroke-linejoin="round" stroke-width="3.93" d="M868.29 482.05L864.7 490.69"/><path stroke="#fff" stroke-linecap="round" stroke-linejoin="round" stroke-width="3.93" d="M871.53 497.7L885.92 483.37"/><path stroke="#fff" stroke-linecap="round" stroke-linejoin="round" stroke-width="3.93" d="M899.58 516.22H879.32"/><path fill="#000" d="M902 625.5H777.64C772.431 625.5 767.436 623.431 763.752 619.748C760.069 616.064 758 611.069 758 605.86V481.5C757.945 478.715 758.503 475.951 759.635 473.406C760.767 470.86 762.445 468.595 764.55 466.77L915.09 620.59C911.479 623.78 906.819 625.528 902 625.5V625.5Z" opacity=".1"/><path fill="#fff" d="M772.87 594.11H774.67V605.87H778L777.82 607.47H772.82L772.87 594.11Z"/><path fill="#fff" d="M781.17 594.11V607.47H779.37V594.11H781.17Z"/><path fill="#fff" d="M784.67 603.61V604.41C784.67 605.51 785.03 606.13 785.87 606.13C786.71 606.13 787.03 605.39 787.03 604.27C787.03 602.79 786.71 602.27 785.27 601.15C783.83 600.03 783.09 599.31 783.09 597.35C783.09 595.61 783.61 593.91 785.89 593.91C788.17 593.91 788.61 595.49 788.61 597.05V597.71H786.83V597.09C786.83 596.09 786.65 595.45 785.83 595.45C785.01 595.45 784.83 596.13 784.83 597.09C784.83 598.05 785.03 598.63 786.23 599.51C788.17 600.95 788.77 601.79 788.77 604.01C788.77 605.89 788.15 607.65 785.77 607.65C783.39 607.65 782.83 606.15 782.83 604.39V603.61H784.67Z"/><path fill="#fff" d="M792 595.77H789.83V594.11H795.93V595.77H793.77V607.47H792V595.77Z"/><path fill="#fff" d="M802.09 601.21H799.09V605.83H802.47L802.25 607.47H797.25V594.11H802.17V595.77H799.13V599.57H802.13L802.09 601.21Z"/><path fill="#fff" d="M804.07 607.47V594.11H806.17L808.17 601.51C808.386 602.293 808.56 603.088 808.69 603.89V603.89C808.59 602.17 808.59 600.29 808.59 598.11V594.11H810.25V607.47H808.25L806 599C805.82 598.3 805.72 597.74 805.64 597.34C805.72 598.96 805.74 600.9 805.74 603.34V607.46L804.07 607.47Z"/><path fill="#fff" d="M814.43 594.11V607.47H812.63V594.11H814.43Z"/><path fill="#fff" d="M816.81 607.47V594.11H818.91L820.91 601.51C821.126 602.293 821.3 603.088 821.43 603.89V603.89C821.33 602.17 821.33 600.29 821.33 598.11V594.11H823V607.47H821L818.77 599C818.59 598.3 818.49 597.74 818.41 597.34C818.49 598.96 818.51 600.9 818.51 603.34V607.46L816.81 607.47Z"/><path fill="#fff" d="M831.11 607.47H829.71C829.71 607.25 829.63 606.69 829.61 606.41C829.45 606.802 829.171 607.132 828.812 607.355C828.452 607.578 828.032 607.681 827.61 607.65C825.71 607.65 825.07 606.25 825.07 604.05V597.61C825.07 595.41 825.95 593.93 828.07 593.93C830.69 593.93 831.07 595.81 831.07 597.35V597.75H829.29V597.29C829.29 596.47 829.17 595.55 828.11 595.55C827.29 595.55 826.91 596.11 826.91 597.35V604.21C826.91 605.39 827.23 606.07 828.07 606.07C829.07 606.07 829.31 605.15 829.31 603.65V601.65H828V600.11H831.1L831.11 607.47Z"/><path fill="#fff" d="M835.51 597.33H836.69V594.83H838V597.33H839.46V598.47H838V605.47C838 605.99 838.1 606.53 838.74 606.53C838.961 606.532 839.183 606.512 839.4 606.47V607.47C839.049 607.568 838.685 607.615 838.32 607.61C837.42 607.61 836.74 607.19 836.74 605.69V598.47H835.51V597.33Z"/><path fill="#fff" d="M845.79 600.15V604.47C845.79 606.69 844.79 607.63 843.19 607.63C841.59 607.63 840.65 606.71 840.65 604.53V600.13C840.65 598.23 841.65 597.13 843.25 597.13C844.85 597.13 845.79 598.27 845.79 600.15ZM841.93 600.15V604.61C841.93 605.77 842.33 606.51 843.21 606.51C844.09 606.51 844.49 605.95 844.49 604.59V600.13C844.49 599.13 844.13 598.33 843.23 598.33C842.33 598.33 841.93 599 841.93 600.13V600.15Z"/><path fill="#fff" d="M856.57 603.55V604C856.57 605.6 856.29 607.62 853.63 607.62C851.23 607.62 850.75 606.04 850.75 604.04V597.28C850.75 595.18 851.69 593.9 853.67 593.9C856.05 593.9 856.51 595.52 856.51 597.34V597.9H854.71V597.14C854.71 596.14 854.51 595.52 853.65 595.52C852.79 595.52 852.59 596.14 852.59 597.16V604.16C852.59 605.22 852.81 605.98 853.69 605.98C854.57 605.98 854.75 605.26 854.75 604.16V603.5L856.57 603.55Z"/><path fill="#fff" d="M858.35 594.11H860.15V599.49H862.59V594.11H864.39V607.47H862.59V601.15H860.15V607.47H858.35V594.11Z"/><path fill="#fff" d="M868.57 594.11V607.47H866.77V594.11H868.57Z"/><path fill="#fff" d="M871 594.11H872.8V605.87H876.16L875.98 607.47H870.98L871 594.11Z"/><path fill="#fff" d="M877.45 594.11H880.13C882.99 594.11 883.53 595.71 883.53 598.03V603.23C883.53 605.23 883.19 607.47 880.09 607.47H877.45V594.11ZM879.25 605.93H880C881.46 605.93 881.74 605.05 881.74 603.51V597.87C881.74 596.51 881.5 595.65 880 595.65H879.28L879.25 605.93Z"/><path fill="#fff" d="M885.62 594.11H888.27C890.27 594.11 891.39 594.95 891.39 597.27V597.81C891.39 599.81 890.65 600.39 890.03 600.61C890.85 600.97 891.27 601.55 891.27 603.35C891.235 604.724 891.275 606.1 891.39 607.47H889.67C889.531 606.141 889.484 604.805 889.53 603.47C889.53 601.81 889.29 601.39 888.05 601.39H887.43V607.47H885.62V594.11ZM887.43 599.89H888.07C889.23 599.89 889.61 599.35 889.61 597.89V597.37C889.61 596.25 889.33 595.59 888.09 595.59H887.43V599.89Z"/><path fill="#fff" d="M898.23 601.21H895.23V605.83H898.61L898.39 607.47H893.39V594.11H898.32V595.77H895.2V599.57H898.2L898.23 601.21Z"/><path fill="#fff" d="M900.2 607.47V594.11H902.3L904.3 601.51C904.57 602.51 904.72 603.31 904.82 603.89C904.71 602.17 904.71 600.29 904.71 598.11V594.11H906.38V607.47H904.38L902.16 599C901.98 598.3 901.88 597.74 901.8 597.34C901.88 598.96 901.9 600.9 901.9 603.34V607.46L900.2 607.47Z"/><path fill="#C4395A" d="M648.36 658.5H524C513.153 658.5 504.36 667.293 504.36 678.14V802.5C504.36 813.347 513.153 822.14 524 822.14H648.36C659.207 822.14 668 813.347 668 802.5V678.14C668 667.293 659.207 658.5 648.36 658.5Z"/><path stroke="#fff" stroke-linecap="round" stroke-linejoin="round" stroke-width="3.93" d="M629.79 759.35H619.93"/><path stroke="#fff" stroke-linecap="round" stroke-miterlimit="10" stroke-width="3.93" d="M630.51 686.57H619.2C617.899 686.575 616.654 687.094 615.734 688.014C614.814 688.934 614.295 690.179 614.29 691.48V697.16H635.43V691.49C635.425 690.187 634.905 688.938 633.983 688.017C633.062 687.095 631.813 686.575 630.51 686.57Z"/><path stroke="#fff" stroke-linecap="round" stroke-linejoin="round" stroke-width="3.93" d="M635.37 705.68V749.38L624.81 771.89L614.34 749.4V705.39"/><path stroke="#fff" stroke-linecap="round" stroke-linejoin="round" stroke-width="3.93" d="M624.86 748.07V705.39"/><path stroke="#fff" stroke-linecap="round" stroke-linejoin="round" stroke-width="3.93" d="M635.25 748.07H614.47"/><path stroke="#fff" stroke-linecap="round" stroke-miterlimit="10" stroke-width="3.93" d="M600.13 770.94H546.13C543.676 770.929 541.325 769.949 539.59 768.213C537.856 766.476 536.878 764.124 536.87 761.67V758.58C536.875 756.125 537.852 753.772 539.587 752.034C541.323 750.297 543.675 749.318 546.13 749.31H600.13V687.53H549.23C545.956 687.541 542.819 688.846 540.505 691.162C538.191 693.478 536.888 696.616 536.88 699.89V758.32"/><path stroke="#fff" stroke-linecap="round" stroke-miterlimit="10" stroke-width="3.93" d="M547.78 687.8V749.02"/><path stroke="#fff" stroke-linecap="round" stroke-miterlimit="10" stroke-width="3.93" d="M546.39 760.07H600.13"/><path fill="#000" d="M648.36 822.14H524C518.792 822.137 513.798 820.067 510.115 816.385C506.433 812.702 504.363 807.708 504.36 802.5V678.14C504.305 675.355 504.863 672.591 505.995 670.046C507.127 667.5 508.805 665.235 510.91 663.41L661.45 817.23C657.84 820.423 653.179 822.171 648.36 822.14V822.14Z" opacity=".1"/><path fill="#fff" d="M519.71 791.09H521.51V802.85H524.87L524.69 804.45H519.69L519.71 791.09Z"/><path fill="#fff" d="M528 791.09V804.45H526.2V791.09H528Z"/><path fill="#fff" d="M531.65 792.75H529.49V791.09H535.59V792.75H533.43V804.45H531.65V792.75Z"/><path fill="#fff" d="M541.75 798.19H538.75V802.81H542.13L542 804.45H537V791.09H541.92V792.75H538.79V796.55H541.79L541.75 798.19Z"/><path fill="#fff" d="M543.73 791.09H546.37C548.37 791.09 549.49 791.93 549.49 794.25V794.79C549.49 796.79 548.75 797.37 548.13 797.59C548.95 797.95 549.37 798.53 549.37 800.33C549.335 801.704 549.375 803.08 549.49 804.45H547.77C547.631 803.121 547.584 801.785 547.63 800.45C547.63 798.79 547.39 798.37 546.15 798.37H545.53V804.45H543.73V791.09ZM545.53 796.87H546.17C547.33 796.87 547.71 796.33 547.71 794.87V794.35C547.71 793.23 547.43 792.57 546.19 792.57H545.53V796.87Z"/><path fill="#fff" d="M553.29 800.59L552.75 804.45H550.93L553.11 791.09H555.65L557.91 804.45H556L555.4 800.59H553.29ZM555.21 798.93C554.85 796.39 554.53 794.17 554.39 792.77H554.33C554.27 793.85 553.83 796.77 553.53 798.93H555.21Z"/><path fill="#fff" d="M565.15 800.53V801C565.15 802.6 564.87 804.62 562.21 804.62C559.81 804.62 559.33 803.04 559.33 801.04V794.28C559.33 792.18 560.27 790.9 562.25 790.9C564.63 790.9 565.09 792.52 565.09 794.34V794.9H563.29V794.14C563.29 793.14 563.09 792.52 562.23 792.52C561.37 792.52 561.17 793.14 561.17 794.16V801.16C561.17 802.22 561.39 802.98 562.27 802.98C563.15 802.98 563.33 802.26 563.33 801.16V800.5L565.15 800.53Z"/><path fill="#fff" d="M568.75 804.45V799.61C568.75 799.468 568.73 799.327 568.69 799.19L566.21 791.09H568.21C568.79 793.37 569.49 796.01 569.69 797.37C569.97 795.93 570.69 793.29 571.19 791.09H573.09L570.57 799.33C570.553 799.483 570.553 799.637 570.57 799.79V804.45H568.75Z"/><path fill="#fff" d="M579.37 791.09V804.45H577.57V791.09H579.37Z"/><path fill="#fff" d="M581.75 804.45V791.09H583.85L585.85 798.49C586.066 799.273 586.24 800.068 586.37 800.87V800.87C586.27 799.15 586.27 797.27 586.27 795.09V791.09H587.93V804.45H585.93L583.71 796C583.53 795.3 583.43 794.74 583.35 794.34C583.43 795.96 583.45 797.9 583.45 800.34V804.46L581.75 804.45Z"/><path fill="#fff" d="M591.43 800.59V801.39C591.43 802.49 591.79 803.11 592.63 803.11C593.47 803.11 593.79 802.37 593.79 801.25C593.79 799.77 593.47 799.25 592.03 798.13C590.59 797.01 589.85 796.29 589.85 794.33C589.85 792.59 590.37 790.89 592.65 790.89C594.93 790.89 595.37 792.47 595.37 794.03V794.69H593.59V794.07C593.59 793.07 593.41 792.43 592.59 792.43C591.77 792.43 591.59 793.11 591.59 794.07C591.59 795.03 591.79 795.61 592.99 796.49C594.93 797.93 595.53 798.77 595.53 800.99C595.53 802.87 594.91 804.63 592.53 804.63C590.15 804.63 589.59 803.13 589.59 801.37V800.59H591.43Z"/><path fill="#fff" d="M598.75 792.75H596.59V791.09H602.69V792.75H600.53V804.45H598.75V792.75Z"/><path fill="#fff" d="M604.11 791.09H606.75C608.75 791.09 609.87 791.93 609.87 794.25V794.79C609.87 796.79 609.13 797.37 608.51 797.59C609.33 797.95 609.75 798.53 609.75 800.33C609.715 801.704 609.755 803.08 609.87 804.45H608.15C608.011 803.121 607.964 801.785 608.01 800.45C608.01 798.79 607.77 798.37 606.53 798.37H605.91V804.45H604.11V791.09ZM605.91 796.87H606.55C607.71 796.87 608.09 796.33 608.09 794.87V794.35C608.09 793.23 607.81 792.57 606.57 792.57H605.91V796.87Z"/><path fill="#fff" d="M613.59 791.09V801.35C613.59 802.35 613.93 803.01 614.81 803.01C615.69 803.01 616.03 802.35 616.03 801.35V791.09H617.81V801.31C617.81 803.39 616.87 804.63 614.81 804.63C612.75 804.63 611.81 803.53 611.81 801.33V791.09H613.59Z"/><path fill="#fff" d="M625.65 800.53V801C625.65 802.6 625.37 804.62 622.71 804.62C620.31 804.62 619.83 803.04 619.83 801.04V794.28C619.83 792.18 620.77 790.9 622.75 790.9C625.13 790.9 625.59 792.52 625.59 794.34V794.9H623.79V794.14C623.79 793.14 623.59 792.52 622.73 792.52C621.87 792.52 621.67 793.14 621.67 794.16V801.16C621.67 802.22 621.89 802.98 622.77 802.98C623.65 802.98 623.83 802.26 623.83 801.16V800.5L625.65 800.53Z"/><path fill="#fff" d="M628.93 792.75H626.77V791.09H632.87V792.75H630.71V804.45H628.93V792.75Z"/><path fill="#fff" d="M636.09 791.09V804.45H634.29V791.09H636.09Z"/><path fill="#fff" d="M644.37 794.53V801C644.37 803.48 643.37 804.66 641.19 804.66C639.01 804.66 638.19 803.4 638.19 801.02V794.54C638.19 792.1 639.37 790.94 641.33 790.94C643.29 790.94 644.37 792.15 644.37 794.53ZM640.01 794.37V801.19C640.01 802.47 640.47 803.01 641.27 803.01C642.07 803.01 642.55 802.49 642.55 801.15V794.37C642.55 793.15 642.15 792.53 641.27 792.53C640.39 792.53 640 793.11 640 794.37H640.01Z"/><path fill="#fff" d="M646.47 804.45V791.09H648.57L650.57 798.49C650.786 799.273 650.96 800.068 651.09 800.87V800.87C650.99 799.15 650.99 797.27 650.99 795.09V791.09H652.65V804.45H650.65L648.45 796.01C648.27 795.31 648.17 794.75 648.09 794.35C648.17 795.97 648.19 797.91 648.19 800.35V804.47L646.47 804.45Z"/><path fill="#094492" d="M901.36 264.5H777C766.153 264.5 757.36 273.293 757.36 284.14V408.5C757.36 419.347 766.153 428.14 777 428.14H901.36C912.207 428.14 921 419.347 921 408.5V284.14C921 273.293 912.207 264.5 901.36 264.5Z"/><path stroke="#fff" stroke-linecap="round" stroke-linejoin="round" stroke-width="3.93" d="M823 338.5H785V376.5H823V338.5Z"/><path stroke="#fff" stroke-linecap="round" stroke-linejoin="round" stroke-width="3.93" d="M834.87 325.57C846.948 325.57 856.74 315.778 856.74 303.7C856.74 291.622 846.948 281.83 834.87 281.83C822.792 281.83 813 291.622 813 303.7C813 315.778 822.792 325.57 834.87 325.57Z"/><path fill="#fff" d="M803.2 362.78V353.9C801.55 355.17 800.44 355.8 799.86 355.8C799.724 355.797 799.59 355.766 799.466 355.709C799.342 355.653 799.231 355.571 799.14 355.47C799.037 355.375 798.955 355.258 798.9 355.129C798.845 355 798.818 354.861 798.82 354.72C798.808 354.581 798.829 354.441 798.883 354.312C798.937 354.183 799.022 354.069 799.13 353.98C799.484 353.751 799.855 353.55 800.24 353.38C800.916 353.076 801.549 352.683 802.12 352.21C802.596 351.804 803.019 351.341 803.38 350.83C803.74 350.32 803.98 350.01 804.09 349.89C804.271 349.757 804.496 349.696 804.72 349.72C804.88 349.715 805.039 349.749 805.184 349.819C805.328 349.888 805.454 349.992 805.55 350.12C805.776 350.44 805.886 350.829 805.86 351.22V362.4C805.86 363.71 805.41 364.4 804.52 364.4C804.333 364.415 804.145 364.385 803.971 364.314C803.798 364.243 803.643 364.132 803.52 363.99C803.259 363.644 803.144 363.21 803.2 362.78Z"/><path stroke="#fff" stroke-linecap="round" stroke-linejoin="round" stroke-width="3.93" d="M867.48 366.5H841.96L854.72 344.4L867.48 322.3L880.24 344.4L893 366.5H867.48Z"/><path fill="#000" d="M901.36 428.14H777C771.792 428.137 766.798 426.067 763.115 422.385C759.433 418.702 757.363 413.708 757.36 408.5V284.14C757.305 281.355 757.863 278.591 758.995 276.046C760.127 273.5 761.805 271.235 763.91 269.41L914.45 423.23C910.84 426.423 906.179 428.171 901.36 428.14V428.14Z" opacity=".1"/><path fill="#fff" d="M789.86 405.23C789.86 402.87 789.86 400.13 789.94 398.65C789.62 400.93 788.76 406.53 788.12 410.45H786.4C785.92 406.99 785.04 401.05 784.74 398.63C784.74 400.19 784.84 403.21 784.84 405.51V410.45H783.16V397.09H785.82C786.44 400.71 787.12 404.99 787.3 406.79C787.5 404.99 788.36 400.51 788.98 397.09H791.56V410.45H789.86V405.23Z"/><path fill="#fff" d="M795.42 406.59L794.88 410.45H793.06L795.24 397.09H797.78L800 410.45H798.16L797.56 406.59H795.42ZM797.34 404.93C796.98 402.39 796.66 400.17 796.52 398.77H796.46C796.4 399.85 795.96 402.77 795.66 404.93H797.34Z"/><path fill="#fff" d="M802.08 398.75H799.92V397.09H806V398.75H803.86V410.45H802.08V398.75Z"/><path fill="#fff" d="M807.44 397.09H809.24V402.47H811.68V397.09H813.48V410.45H811.68V404.13H809.24V410.45H807.44V397.09Z"/><path fill="#fff" d="M820.82 397.09V410.45H819V397.09H820.82Z"/><path fill="#fff" d="M823.2 410.45V397.09H825.3L827.3 404.49C827.516 405.273 827.69 406.068 827.82 406.87V406.87C827.72 405.15 827.72 403.27 827.72 401.09V397.09H829.38V410.45H827.38L825.16 402C824.98 401.3 824.88 400.74 824.8 400.34C824.88 401.96 824.9 403.9 824.9 406.34V410.46L823.2 410.45Z"/><path fill="#fff" d="M832.88 406.59V407.39C832.88 408.49 833.24 409.11 834.08 409.11C834.92 409.11 835.24 408.37 835.24 407.25C835.24 405.77 834.92 405.25 833.48 404.13C832.04 403.01 831.3 402.29 831.3 400.33C831.3 398.59 831.82 396.89 834.1 396.89C836.38 396.89 836.82 398.47 836.82 400.03V400.69H835V400.07C835 399.07 834.82 398.43 834 398.43C833.18 398.43 833 399.11 833 400.07C833 401.03 833.2 401.61 834.4 402.49C836.34 403.93 836.94 404.77 836.94 406.99C836.94 408.87 836.32 410.63 833.94 410.63C831.56 410.63 831 409.13 831 407.37V406.59H832.88Z"/><path fill="#fff" d="M840.2 398.75H838V397.09H844.1V398.75H842V410.45H840.2V398.75Z"/><path fill="#fff" d="M845.56 397.09H848.2C850.2 397.09 851.32 397.93 851.32 400.25V400.79C851.32 402.79 850.58 403.37 849.96 403.59C850.78 403.95 851.2 404.53 851.2 406.33C851.165 407.704 851.205 409.08 851.32 410.45H849.6C849.461 409.121 849.414 407.785 849.46 406.45C849.46 404.79 849.22 404.37 847.98 404.37H847.36V410.45H845.56V397.09ZM847.36 402.87H848C849.16 402.87 849.54 402.33 849.54 400.87V400.35C849.54 399.23 849.26 398.57 848.02 398.57H847.36V402.87Z"/><path fill="#fff" d="M855 397.09V407.35C855 408.35 855.34 409.01 856.22 409.01C857.1 409.01 857.44 408.35 857.44 407.35V397.09H859.22V407.31C859.22 409.39 858.28 410.63 856.22 410.63C854.16 410.63 853.22 409.53 853.22 407.33V397.09H855Z"/><path fill="#fff" d="M867.1 406.53V407C867.1 408.6 866.82 410.62 864.16 410.62C861.76 410.62 861.28 409.04 861.28 407.04V400.28C861.28 398.18 862.22 396.9 864.2 396.9C866.58 396.9 867.04 398.52 867.04 400.34V400.9H865.24V400.14C865.24 399.14 865.04 398.52 864.18 398.52C863.32 398.52 863.12 399.14 863.12 400.16V407.16C863.12 408.22 863.34 408.98 864.22 408.98C865.1 408.98 865.28 408.26 865.28 407.16V406.5L867.1 406.53Z"/><path fill="#fff" d="M870.38 398.75H868.21V397.09H874.32V398.75H872.16V410.45H870.38V398.75Z"/><path fill="#fff" d="M877.54 397.09V410.45H875.74V397.09H877.54Z"/><path fill="#fff" d="M885.82 400.53V407C885.82 409.48 884.82 410.66 882.64 410.66C880.46 410.66 879.64 409.4 879.64 407.02V400.54C879.64 398.1 880.81 396.94 882.78 396.94C884.75 396.94 885.82 398.15 885.82 400.53ZM881.46 400.37V407.19C881.46 408.47 881.92 409.01 882.72 409.01C883.52 409.01 884 408.49 884 407.15V400.37C884 399.15 883.6 398.53 882.72 398.53C881.84 398.53 881.46 399.11 881.46 400.37Z"/><path fill="#fff" d="M887.92 410.45V397.09H890L892 404.49C892.216 405.273 892.39 406.068 892.52 406.87V406.87C892.42 405.15 892.42 403.27 892.42 401.09V397.09H894.08V410.45H892.08L889.88 402.01C889.7 401.31 889.6 400.75 889.52 400.35C889.6 401.97 889.62 403.91 889.62 406.35V410.47L887.92 410.45Z"/><path fill="#fff" d="M832.91 307.82H838C838.414 307.791 838.825 307.9 839.17 308.13C839.301 308.228 839.406 308.357 839.476 308.505C839.546 308.653 839.578 308.816 839.57 308.98C839.573 309.129 839.546 309.278 839.491 309.417C839.436 309.556 839.354 309.683 839.25 309.79C839.117 309.913 838.958 310.007 838.786 310.064C838.613 310.12 838.431 310.14 838.25 310.12H831.1C830.893 310.134 830.685 310.105 830.489 310.036C830.293 309.968 830.113 309.86 829.96 309.72C829.823 309.593 829.715 309.438 829.644 309.265C829.573 309.093 829.541 308.907 829.55 308.72C829.576 308.396 829.665 308.081 829.81 307.79C829.952 307.457 830.148 307.15 830.39 306.88C831.25 305.98 832.04 305.21 832.73 304.57C833.206 304.119 833.707 303.695 834.23 303.3C834.71 302.969 835.156 302.591 835.56 302.17C835.887 301.823 836.16 301.428 836.37 301C836.545 300.634 836.641 300.235 836.65 299.83C836.657 299.436 836.553 299.048 836.35 298.71C836.156 298.384 835.875 298.118 835.54 297.94C835.194 297.76 834.81 297.667 834.42 297.67C834.017 297.663 833.62 297.764 833.269 297.96C832.918 298.157 832.625 298.443 832.42 298.79C832.289 299.047 832.178 299.315 832.09 299.59C831.978 299.952 831.802 300.291 831.57 300.59C831.468 300.711 831.338 300.805 831.192 300.866C831.046 300.927 830.888 300.952 830.73 300.94C830.58 300.945 830.431 300.919 830.292 300.864C830.153 300.809 830.026 300.726 829.92 300.62C829.809 300.503 829.724 300.364 829.669 300.213C829.614 300.062 829.59 299.901 829.6 299.74C829.607 299.255 829.709 298.776 829.9 298.33C830.107 297.83 830.413 297.378 830.8 297C831.239 296.569 831.759 296.229 832.33 296C833.021 295.746 833.754 295.624 834.49 295.64C835.364 295.612 836.233 295.773 837.04 296.11C837.491 296.314 837.898 296.602 838.24 296.96C838.573 297.36 838.83 297.818 839 298.31C839.187 298.784 839.282 299.29 839.28 299.8C839.289 300.575 839.081 301.337 838.68 302C838.35 302.572 837.939 303.094 837.46 303.55C837.04 303.93 836.34 304.52 835.36 305.32C834.639 305.879 833.97 306.502 833.36 307.18C833.194 307.381 833.043 307.595 832.91 307.82V307.82Z"/><path fill="#fff" d="M866.81 349.5C867.373 349.51 867.921 349.322 868.36 348.97C868.666 348.719 868.886 348.378 868.988 347.996C869.09 347.614 869.069 347.209 868.929 346.839C868.788 346.469 868.536 346.152 868.206 345.933C867.876 345.715 867.486 345.605 867.09 345.62C866.749 345.608 866.408 345.666 866.09 345.79C865.854 345.885 865.645 346.036 865.48 346.23C865.311 346.447 865.167 346.681 865.05 346.93L864.69 347.74C864.618 347.887 864.493 348.001 864.34 348.06C864.155 348.143 863.953 348.184 863.75 348.18C863.615 348.178 863.481 348.149 863.357 348.094C863.233 348.039 863.122 347.959 863.03 347.86C862.921 347.75 862.835 347.619 862.78 347.474C862.725 347.329 862.701 347.175 862.71 347.02C862.724 346.662 862.824 346.312 863 346C863.238 345.595 863.542 345.233 863.9 344.93C864.335 344.57 864.834 344.296 865.37 344.12C866.013 343.9 866.69 343.795 867.37 343.81C867.957 343.799 868.542 343.887 869.1 344.07C869.597 344.227 870.058 344.478 870.46 344.81C870.829 345.117 871.125 345.503 871.325 345.939C871.526 346.375 871.627 346.85 871.62 347.33C871.636 347.918 871.491 348.499 871.2 349.01C870.87 349.506 870.465 349.947 870 350.32C870.474 350.567 870.909 350.884 871.29 351.26C871.622 351.593 871.887 351.987 872.07 352.42C872.252 352.861 872.344 353.333 872.34 353.81C872.339 354.402 872.217 354.987 871.98 355.53C871.75 356.083 871.41 356.583 870.98 357C870.504 357.442 869.942 357.782 869.33 358C868.659 358.251 867.947 358.376 867.23 358.37C866.508 358.383 865.791 358.24 865.13 357.95C864.561 357.717 864.042 357.378 863.6 356.95C863.227 356.566 862.92 356.123 862.69 355.64C862.517 355.294 862.415 354.916 862.39 354.53C862.383 354.362 862.411 354.193 862.473 354.037C862.535 353.88 862.629 353.738 862.75 353.62C862.996 353.389 863.323 353.263 863.66 353.27C863.849 353.269 864.033 353.325 864.19 353.43C864.342 353.518 864.458 353.656 864.52 353.82C864.768 354.543 865.137 355.219 865.61 355.82C865.818 356.044 866.073 356.219 866.356 356.333C866.64 356.447 866.945 356.497 867.25 356.48C867.657 356.477 868.058 356.377 868.42 356.19C868.745 355.987 869.024 355.717 869.237 355.398C869.449 355.078 869.592 354.718 869.654 354.339C869.717 353.961 869.698 353.573 869.599 353.203C869.5 352.832 869.323 352.487 869.08 352.19C868.853 351.967 868.582 351.794 868.284 351.682C867.986 351.57 867.668 351.522 867.35 351.54H866.74H866.21C865.909 351.557 865.613 351.461 865.38 351.27C865.282 351.172 865.206 351.055 865.156 350.925C865.106 350.796 865.084 350.658 865.09 350.52C865.087 350.376 865.116 350.234 865.177 350.104C865.238 349.974 865.328 349.86 865.44 349.77C865.734 349.569 866.084 349.467 866.44 349.48L866.81 349.5Z"/><path fill="#FFD300" d="M394.36 658.86H270C259.153 658.86 250.36 667.653 250.36 678.5V802.86C250.36 813.707 259.153 822.5 270 822.5H394.36C405.207 822.5 414 813.707 414 802.86V678.5C414 667.653 405.207 658.86 394.36 658.86Z"/><path stroke="#fff" stroke-linecap="round" stroke-linejoin="round" stroke-width="3.93" d="M332 710.55V727.55H349C347.414 726.366 346.241 724.713 345.648 722.825C345.055 720.937 345.071 718.911 345.695 717.032C346.319 715.154 347.518 713.52 349.123 712.362C350.727 711.204 352.656 710.581 354.635 710.581C356.614 710.581 358.543 711.204 360.147 712.362C361.752 713.52 362.951 715.154 363.575 717.032C364.199 718.911 364.215 720.937 363.622 722.825C363.029 724.713 361.856 726.366 360.27 727.55H377.92V690.92C377.912 688.459 376.931 686.1 375.19 684.36C373.45 682.619 371.091 681.638 368.63 681.63H332V699.27"/><path stroke="#fff" stroke-linecap="round" stroke-linejoin="round" stroke-width="3.93" d="M314.78 727.51H331.78V710.51C330.596 712.096 328.943 713.269 327.055 713.862C325.167 714.455 323.141 714.439 321.262 713.815C319.384 713.191 317.75 711.992 316.592 710.387C315.434 708.783 314.811 706.854 314.811 704.875C314.811 702.896 315.434 700.967 316.592 699.363C317.75 697.758 319.384 696.559 321.262 695.935C323.141 695.311 325.167 695.295 327.055 695.888C328.943 696.481 330.596 697.654 331.78 699.24V681.63H295.16C292.699 681.638 290.34 682.619 288.6 684.36C286.859 686.1 285.878 688.459 285.87 690.92V727.51H303.52"/><path stroke="#fff" stroke-linecap="round" stroke-linejoin="round" stroke-width="3.93" d="M331.74 744.72V727.72H314.74C316.327 728.903 317.501 730.556 318.095 732.444C318.69 734.332 318.674 736.36 318.051 738.238C317.428 740.117 316.228 741.752 314.624 742.91C313.019 744.069 311.089 744.692 309.11 744.692C307.131 744.692 305.201 744.069 303.596 742.91C301.991 741.752 300.792 740.117 300.169 738.238C299.546 736.36 299.53 734.332 300.125 732.444C300.719 730.556 301.893 728.903 303.48 727.72H285.87V764.3C285.878 766.761 286.859 769.12 288.6 770.86C290.34 772.601 292.699 773.582 295.16 773.59H331.74V756.05"/><path stroke="#fff" stroke-linecap="round" stroke-linejoin="round" stroke-width="3.93" d="M349 727.76H332V744.76C333.182 743.171 334.834 741.994 336.723 741.397C338.611 740.801 340.64 740.815 342.52 741.437C344.4 742.059 346.036 743.258 347.196 744.864C348.356 746.469 348.98 748.4 348.98 750.38C348.98 752.361 348.356 754.291 347.196 755.896C346.036 757.502 344.4 758.701 342.52 759.323C340.64 759.945 338.611 759.959 336.723 759.363C334.834 758.766 333.182 757.589 332 756V773.65H368.59C371.051 773.642 373.41 772.661 375.15 770.92C376.891 769.18 377.872 766.821 377.88 764.36V727.76H360.22"/><path fill="#000" d="M394.36 822.5H270C264.791 822.5 259.796 820.431 256.112 816.748C252.429 813.064 250.36 808.069 250.36 802.86V678.5C250.305 675.715 250.863 672.951 251.995 670.406C253.127 667.86 254.805 665.595 256.91 663.77L407.45 817.59C403.84 820.783 399.179 822.531 394.36 822.5V822.5Z" opacity=".1"/><path fill="#fff" d="M265.48 800.54V801.34C265.48 802.44 265.84 803.06 266.68 803.06C267.52 803.06 267.84 802.32 267.84 801.2C267.84 799.72 267.52 799.2 266.08 798.08C264.64 796.96 263.9 796.24 263.9 794.27C263.9 792.53 264.42 790.83 266.7 790.83C268.98 790.83 269.42 792.41 269.42 793.97V794.63H267.64V794C267.64 793 267.46 792.36 266.64 792.36C265.82 792.36 265.64 793.04 265.64 794C265.64 794.96 265.84 795.54 267.04 796.42C268.98 797.87 269.58 798.71 269.58 800.93C269.58 802.81 268.96 804.57 266.58 804.57C264.2 804.57 263.64 803.07 263.64 801.31V800.53L265.48 800.54Z"/><path fill="#fff" d="M276.24 798.14H273.24V802.76H276.62L276.4 804.4H271.4V791H276.4V792.66H273.28V796.47H276.28L276.24 798.14Z"/><path fill="#fff" d="M284.3 794.47V800.92C284.36 801.81 284.143 802.697 283.68 803.46L285.24 804.7L284.16 806L282.26 804.48C281.889 804.581 281.505 804.628 281.12 804.62C279 804.62 278.12 803.36 278.12 800.98V794.5C278.12 792.05 279.3 790.89 281.26 790.89C283.22 790.89 284.3 792.09 284.3 794.47ZM279.94 794.31V801.14C279.94 802.42 280.4 802.96 281.2 802.96C282 802.96 282.48 802.44 282.48 801.1V794.31C282.48 793.09 282.08 792.47 281.2 792.47C280.32 792.47 279.94 793.05 279.94 794.31V794.31Z"/><path fill="#fff" d="M288.14 791V801.3C288.14 802.3 288.48 802.96 289.36 802.96C290.24 802.96 290.58 802.3 290.58 801.3V791H292.36V801.23C292.36 803.31 291.42 804.55 289.36 804.55C287.3 804.55 286.36 803.45 286.36 801.25V791H288.14Z"/><path fill="#fff" d="M299.42 798.14H296.42V802.76H299.8L299.58 804.4H294.58V791H299.5V792.66H296.46V796.47H299.46L299.42 798.14Z"/><path fill="#fff" d="M301.4 804.4V791H303.5L305.5 798.41C305.716 799.193 305.89 799.988 306.02 800.79V800.79C305.92 799.07 305.92 797.18 305.92 795.01V791.01H307.58V804.4H305.58L303.36 796C303.18 795.29 303.08 794.73 303 794.33C303.08 795.96 303.1 797.9 303.1 800.33V804.45L301.4 804.4Z"/><path fill="#fff" d="M311.22 792.69H309.06V791H315.16V792.66H313V804.4H311.22V792.69Z"/><path fill="#fff" d="M318.38 791V804.4H316.58V791H318.38Z"/><path fill="#fff" d="M322.34 800.54L321.8 804.4H320L322.16 791H324.7L327 804.4H325.08L324.48 800.54H322.34ZM324.26 798.88C323.9 796.33 323.58 794.11 323.44 792.71H323.38C323.32 793.79 322.88 796.71 322.58 798.88H324.26Z"/><path fill="#fff" d="M328.5 791H330.3V802.8H333.66L333.48 804.4H328.48L328.5 791Z"/><path fill="#fff" d="M339.8 800.54L339.26 804.4H337.44L339.62 791H342.16L344.42 804.37H342.54L341.94 800.51L339.8 800.54ZM341.72 798.88C341.36 796.33 341.04 794.11 340.9 792.71H340.84C340.78 793.79 340.34 796.71 340.04 798.88H341.72Z"/><path fill="#fff" d="M351.66 800.48V801C351.66 802.6 351.38 804.62 348.72 804.62C346.32 804.62 345.84 803.04 345.84 801.04V794.27C345.84 792.17 346.78 790.89 348.76 790.89C351.14 790.89 351.6 792.51 351.6 794.33V794.89H349.8V794.13C349.8 793.13 349.6 792.51 348.74 792.51C347.88 792.51 347.68 793.13 347.68 794.15V801.15C347.68 802.21 347.9 802.97 348.78 802.97C349.66 802.97 349.84 802.25 349.84 801.15V800.49L351.66 800.48Z"/><path fill="#fff" d="M354.94 792.69H352.78V791H358.88V792.66H356.72V804.4H354.94V792.69Z"/><path fill="#fff" d="M362.1 791V804.4H360.3V791H362.1Z"/><path fill="#fff" d="M365.62 791L366.4 796.67C366.66 798.51 367 800.57 367.12 802.03C367.24 800.63 367.6 798.57 367.82 796.72L368.6 791H370.5L368.2 804.37H366L363.68 791H365.62Z"/><path fill="#fff" d="M373.86 791V804.4H372.06V791H373.86Z"/><path fill="#fff" d="M377.5 792.69H375.33V791H381.44V792.66H379.28V804.4H377.5V792.69Z"/><path fill="#fff" d="M384.66 791V804.4H382.86V791H384.66Z"/><path fill="#fff" d="M391.78 798.14H388.78V802.76H392.16L392 804.4H387V791H391.92V792.66H388.8V796.47H391.8L391.78 798.14Z"/><path fill="#fff" d="M395.25 800.54V801.34C395.25 802.44 395.62 803.06 396.46 803.06C397.3 803.06 397.62 802.32 397.62 801.2C397.62 799.72 397.29 799.2 395.86 798.08C394.43 796.96 393.67 796.24 393.67 794.27C393.67 792.53 394.19 790.83 396.47 790.83C398.75 790.83 399.2 792.41 399.2 793.97V794.63H397.42V794C397.42 793 397.24 792.36 396.42 792.36C395.6 792.36 395.42 793.04 395.42 794C395.42 794.96 395.62 795.54 396.83 796.42C398.77 797.87 399.37 798.71 399.37 800.93C399.37 802.81 398.74 804.57 396.37 804.57C394 804.57 393.42 803.07 393.42 801.31V800.53L395.25 800.54Z"/></svg>