<svg xmlns="http://www.w3.org/2000/svg" width="91" height="106" fill="none" viewBox="0 0 91 106"><path fill="#094492" d="M38.4372 85.0075H37.8487C36.5539 85.0075 35.6122 86.065 35.6122 87.24C35.6122 88.5325 36.6716 89.4725 37.8487 89.4725H38.2018V90.1775H37.8487C36.5539 90.1775 35.6122 91.235 35.6122 92.41C35.6122 93.7025 36.6716 94.6425 37.8487 94.6425H38.2018V95.3475H37.8487C36.5539 95.3475 35.6122 96.405 35.6122 97.58C35.6122 98.8725 36.6716 99.8125 37.8487 99.8125H38.2018C38.2018 99.8125 38.7903 102.515 41.8507 103.807C42.2039 104.512 43.1455 105.687 45.2643 105.687C47.383 105.687 48.3247 104.512 48.6778 103.807C51.6205 102.515 52.3268 99.8125 52.3268 99.8125H53.033C54.3278 99.8125 55.2695 98.755 55.2695 97.58C55.2695 96.2875 54.2101 95.3475 53.033 95.3475H52.3268V94.6425H53.033C54.3278 94.6425 55.2695 93.585 55.2695 92.41C55.2695 91.1175 54.2101 90.1775 53.033 90.1775H52.3268V89.4725H53.033C54.3278 89.4725 55.2695 88.415 55.2695 87.24C55.2695 85.9475 54.2101 85.0075 53.033 85.0075H52.5622C52.5622 85.0075 53.3862 79.72 66.4518 58.57C79.5174 37.42 63.0382 18.0325 45.4997 18.0325C27.9612 18.0325 11.482 37.42 24.5476 58.57C37.6132 79.72 38.4372 85.0075 38.4372 85.0075ZM49.1486 30.37L45.6174 42.355L53.7393 41.5325L41.2622 61.2725L45.7351 46.115L37.3778 46.4675L49.1486 30.37Z"/><path fill="#094492" d="M74.4562 15.5649L71.9844 23.7899L80.224 21.3224L74.4562 15.5649Z"/><path fill="#094492" d="M71.2781 79.4851L77.0458 73.6101L68.6885 71.1426L71.2781 79.4851Z"/><path fill="#094492" d="M90.7001 54.4575V41.5325L78.5762 47.995L90.7001 54.4575Z"/><path fill="#094492" d="M16.5431 15.5649L10.7754 21.3224L19.015 23.7899L16.5431 15.5649Z"/><path fill="#094492" d="M19.7218 79.4851L22.3114 71.1426L13.9541 73.6101L19.7218 79.4851Z"/><path fill="#094492" d="M0.299805 41.5325V54.4575L12.4238 47.995L0.299805 41.5325Z"/><path fill="#094492" d="M51.9733 0.76001H39.0254L45.4993 12.8625L51.9733 0.76001Z"/></svg>