<svg xmlns="http://www.w3.org/2000/svg" id="LiteracyInstruction" viewBox="0 0 165 165"><defs><style>.cls-1{fill:#c4395a}.cls-2,.cls-3{fill:none;stroke:#fff;stroke-linecap:round;stroke-width:3.93px}.cls-2{stroke-linejoin:round}.cls-3{stroke-miterlimit:10}.cls-4{opacity:.1}.cls-5{fill:#fff}</style></defs><title>Artboard 1</title><rect width="163.64" height="163.64" x=".36" y=".5" class="cls-1" rx="19.64"/><line x1="125.79" x2="115.93" y1="101.35" y2="101.35" class="cls-2"/><path d="M126.51,28.57H115.2a4.93,4.93,0,0,0-4.91,4.91v5.68h21.14V33.49A4.94,4.94,0,0,0,126.51,28.57Z" class="cls-3"/><polyline points="131.37 47.68 131.37 91.38 120.81 113.89 110.34 91.4 110.34 47.39" class="cls-2"/><line x1="120.86" x2="120.86" y1="90.07" y2="47.39" class="cls-2"/><line x1="131.25" x2="110.47" y1="90.07" y2="90.07" class="cls-2"/><path d="M96.13,112.94h-54a9.3,9.3,0,0,1-9.26-9.27v-3.09a9.29,9.29,0,0,1,9.26-9.27h54V29.53H45.23A12.39,12.39,0,0,0,32.88,41.89v58.43" class="cls-3"/><line x1="43.78" x2="43.78" y1="29.8" y2="91.02" class="cls-3"/><line x1="42.39" x2="96.13" y1="102.07" y2="102.07" class="cls-3"/><path d="M144.36,164.14H20A19.65,19.65,0,0,1,.36,144.5V20.14A19,19,0,0,1,6.91,5.41L157.45,159.23A19.57,19.57,0,0,1,144.36,164.14Z" class="cls-4"/><path d="M15.71,133.09h1.8v11.76h3.36l-.18,1.6h-5Z" class="cls-5"/><path d="M24,133.09v13.36h-1.8V133.09Z" class="cls-5"/><path d="M27.65,134.75H25.49v-1.66h6.1v1.66H29.43v11.7H27.65Z" class="cls-5"/><path d="M37.75,140.19h-3v4.62h3.38L38,146.45H33V133.09h4.92v1.66H34.79v3.8h3Z" class="cls-5"/><path d="M39.73,133.09h2.64c2,0,3.12.84,3.12,3.16v.54c0,2-.74,2.58-1.36,2.8.82.36,1.24.94,1.24,2.74a37.84,37.84,0,0,0,.12,4.12H43.77a28.91,28.91,0,0,1-.14-4c0-1.66-.24-2.08-1.48-2.08h-.62v6.08h-1.8Zm1.8,5.78h.64c1.16,0,1.54-.54,1.54-2v-.52c0-1.12-.28-1.78-1.52-1.78h-.66Z" class="cls-5"/><path d="M49.29,142.59l-.54,3.86H46.93l2.18-13.36h2.54l2.26,13.36H52l-.6-3.86Zm1.92-1.66c-.36-2.54-.68-4.76-.82-6.16h-.06c-.06,1.08-.5,4-.8,6.16Z" class="cls-5"/><path d="M61.15,142.53V143c0,1.6-.28,3.62-2.94,3.62-2.4,0-2.88-1.58-2.88-3.58v-6.76c0-2.1.94-3.38,2.92-3.38,2.38,0,2.84,1.62,2.84,3.44v.56h-1.8v-.76c0-1-.2-1.62-1.06-1.62s-1.06.62-1.06,1.64v7c0,1.06.22,1.82,1.1,1.82s1.06-.72,1.06-1.82v-.66Z" class="cls-5"/><path d="M64.75,146.45v-4.84a1.52,1.52,0,0,0-.06-.42l-2.48-8.1h2c.58,2.28,1.28,4.92,1.48,6.28h0c.28-1.44,1-4.08,1.5-6.28h1.9l-2.52,8.24a2.11,2.11,0,0,0,0,.46v4.66Z" class="cls-5"/><path d="M75.37,133.09v13.36h-1.8V133.09Z" class="cls-5"/><path d="M77.75,146.45V133.09h2.1l2,7.4a22.53,22.53,0,0,1,.52,2.38h0c-.1-1.72-.1-3.6-.1-5.78v-4h1.66v13.36h-2L79.71,138c-.18-.7-.28-1.26-.36-1.66h0c.08,1.62.1,3.56.1,6v4.12Z" class="cls-5"/><path d="M87.43,142.59v.8c0,1.1.36,1.72,1.2,1.72s1.16-.74,1.16-1.86c0-1.48-.32-2-1.76-3.12s-2.18-1.84-2.18-3.8c0-1.74.52-3.44,2.8-3.44s2.72,1.58,2.72,3.14v.66H89.59v-.62c0-1-.18-1.64-1-1.64s-1,.68-1,1.64.2,1.54,1.4,2.42c1.94,1.44,2.54,2.28,2.54,4.5,0,1.88-.62,3.64-3,3.64s-2.94-1.5-2.94-3.26v-.78Z" class="cls-5"/><path d="M94.75,134.75H92.59v-1.66h6.1v1.66H96.53v11.7H94.75Z" class="cls-5"/><path d="M100.11,133.09h2.64c2,0,3.12.84,3.12,3.16v.54c0,2-.74,2.58-1.36,2.8.82.36,1.24.94,1.24,2.74a37.84,37.84,0,0,0,.12,4.12h-1.72a28.91,28.91,0,0,1-.14-4c0-1.66-.24-2.08-1.48-2.08h-.62v6.08h-1.8Zm1.8,5.78h.64c1.16,0,1.54-.54,1.54-2v-.52c0-1.12-.28-1.78-1.52-1.78h-.66Z" class="cls-5"/><path d="M109.59,133.09v10.26c0,1,.34,1.66,1.22,1.66s1.22-.66,1.22-1.66V133.09h1.78v10.22c0,2.08-.94,3.32-3,3.32s-3-1.1-3-3.3V133.09Z" class="cls-5"/><path d="M121.65,142.53V143c0,1.6-.28,3.62-2.94,3.62-2.4,0-2.88-1.58-2.88-3.58v-6.76c0-2.1.94-3.38,2.92-3.38,2.38,0,2.84,1.62,2.84,3.44v.56h-1.8v-.76c0-1-.2-1.62-1.06-1.62s-1.06.62-1.06,1.64v7c0,1.06.22,1.82,1.1,1.82s1.06-.72,1.06-1.82v-.66Z" class="cls-5"/><path d="M124.93,134.75h-2.16v-1.66h6.1v1.66h-2.16v11.7h-1.78Z" class="cls-5"/><path d="M132.09,133.09v13.36h-1.8V133.09Z" class="cls-5"/><path d="M140.37,136.53V143c0,2.48-1,3.66-3.18,3.66s-3-1.26-3-3.64v-6.48c0-2.44,1.18-3.6,3.14-3.6S140.37,134.15,140.37,136.53Zm-4.36-.16v6.82c0,1.28.46,1.82,1.26,1.82s1.28-.52,1.28-1.86v-6.78c0-1.22-.4-1.84-1.28-1.84S136,135.11,136,136.37Z" class="cls-5"/><path d="M142.47,146.45V133.09h2.1l2,7.4a22.53,22.53,0,0,1,.52,2.38h0c-.1-1.72-.1-3.6-.1-5.78v-4h1.66v13.36h-2l-2.2-8.44c-.18-.7-.28-1.26-.36-1.66h0c.08,1.62.1,3.56.1,6v4.12Z" class="cls-5"/></svg>