<svg xmlns="http://www.w3.org/2000/svg" id="FINAL" viewBox="0 0 436.29 500"><defs><style>.cls-1{fill:#094492}.cls-2{fill:#0988ec}.cls-3{fill:#4fd9b3}.cls-4{fill:#e55529}.cls-5{fill:#e99c2e}</style></defs><title>Artboard 1</title><path d="M367.21,117.64a73.64,73.64,0,0,1-92.12,91.14L218.6,265.27V474.75c115.69,0,209.48-93.78,209.48-209.48A208.81,208.81,0,0,0,367.21,117.64Z" class="cls-1"/><path d="M162.14,208.81a73.62,73.62,0,0,1-92-91.36A208.82,208.82,0,0,0,9.12,265.27c0,115.7,93.79,209.48,209.48,209.48V265.27Z" class="cls-2"/><line x1="218.6" x2="218.6" y1="474.75" y2="265.27" class="cls-1"/><path d="M218.6,265.33V474.75a208.69,208.69,0,0,0,83.91-17.53Z" class="cls-3"/><path d="M294.24,472.78a13.8,13.8,0,0,0,.35-3,13.59,13.59,0,0,0-26.09-5.32,13.58,13.58,0,0,0-25,0,13.58,13.58,0,0,0-24.91-.19,13.58,13.58,0,0,0-24.9.19,13.59,13.59,0,0,0-25,0,13.58,13.58,0,0,0-26.08,5.32,13.79,13.79,0,0,0,.34,3H105.12v18H333.4v-18Z" class="cls-1"/><path d="M222.94,138.35A73.61,73.61,0,0,1,347.18,84.91L366.73,65.6A212.56,212.56,0,0,0,218.6,5.91V212l23.92-23.64A73.33,73.33,0,0,1,222.94,138.35Z" class="cls-4"/><path d="M296.69,101.53a36.76,36.76,0,0,0-12.15,2.06,16.56,16.56,0,1,1-19.14,16.35c0-.36,0-.72.05-1.07a36.82,36.82,0,1,0,31.24-17.34Z" class="cls-4"/><path d="M140.77,101.53a36.82,36.82,0,0,0-13.52,2.57,16.57,16.57,0,1,1-20.72,20.72,36.82,36.82,0,1,0,34.24-23.29Z" class="cls-5"/><path d="M72.23,65.6,90.87,84.24a73.61,73.61,0,0,1,104,104L218.6,212V5.91A208.74,208.74,0,0,0,72.23,65.6Z" class="cls-5"/></svg>