<?xml version="1.0"?>
<svg xmlns="http://www.w3.org/2000/svg" height="512px" viewBox="0 0 464 464" width="512px" class="hovered-paths"><g><g><g><g fill="#7ed63e"><path d="m256 24c0 13.253906-10.746094 24-24 24s-24-10.746094-24-24 10.746094-24 24-24 24 10.746094 24 24zm0 0" data-original="#E55529" class="" style="fill:#E55529" data-old_color="#6F39C4"/><path d="m248 56h-32c-17.671875 0-32 14.328125-32 32v16h96v-16c0-17.671875-14.328125-32-32-32zm0 0" data-original="#E55529" class="" style="fill:#E55529" data-old_color="#6F39C4"/><path d="m440 104c0 13.253906-10.746094 24-24 24s-24-10.746094-24-24 10.746094-24 24-24 24 10.746094 24 24zm0 0" data-original="#E55529" class="" style="fill:#E55529" data-old_color="#6F39C4"/><path d="m432 136h-32c-17.671875 0-32 14.328125-32 32v16h96v-16c0-17.671875-14.328125-32-32-32zm0 0" data-original="#E55529" class="" style="fill:#E55529" data-old_color="#6F39C4"/><path d="m256 384c0 13.253906-10.746094 24-24 24s-24-10.746094-24-24 10.746094-24 24-24 24 10.746094 24 24zm0 0" data-original="#E55529" class="" style="fill:#E55529" data-old_color="#6F39C4"/><path d="m248 416h-32c-17.671875 0-32 14.328125-32 32v16h96v-16c0-17.671875-14.328125-32-32-32zm0 0" data-original="#E55529" class="" style="fill:#E55529" data-old_color="#6F39C4"/><path d="m424 296c0 13.253906-10.746094 24-24 24s-24-10.746094-24-24 10.746094-24 24-24 24 10.746094 24 24zm0 0" data-original="#E55529" class="" style="fill:#E55529" data-old_color="#6F39C4"/><path d="m416 328h-32c-17.671875 0-32 14.328125-32 32v16h96v-16c0-17.671875-14.328125-32-32-32zm0 0" data-original="#E55529" class="" style="fill:#E55529" data-old_color="#6F39C4"/><path d="m72 104c0 13.253906-10.746094 24-24 24s-24-10.746094-24-24 10.746094-24 24-24 24 10.746094 24 24zm0 0" data-original="#E55529" class="" style="fill:#E55529" data-old_color="#6F39C4"/><path d="m64 136h-32c-17.671875 0-32 14.328125-32 32v16h96v-16c0-17.671875-14.328125-32-32-32zm0 0" data-original="#E55529" class="" style="fill:#E55529" data-old_color="#6F39C4"/><path d="m88 296c0 13.253906-10.746094 24-24 24s-24-10.746094-24-24 10.746094-24 24-24 24 10.746094 24 24zm0 0" data-original="#E55529" class="" style="fill:#E55529" data-old_color="#6F39C4"/><path d="m80 328h-32c-17.671875 0-32 14.328125-32 32v16h96v-16c0-17.671875-14.328125-32-32-32zm0 0" data-original="#E55529" class="" style="fill:#E55529" data-old_color="#6F39C4"/></g><path d="m328 232c0 53.019531-42.980469 96-96 96s-96-42.980469-96-96 42.980469-96 96-96 96 42.980469 96 96zm0 0" fill="#ffcd00" data-original="#4FD9B3" class="" style="fill:#4FD9B3" data-old_color="#ffcd00"/><path d="m256 200c0 13.253906-10.746094 24-24 24s-24-10.746094-24-24 10.746094-24 24-24 24 10.746094 24 24zm0 0" fill="#d80027" data-original="#094492" class="" style="fill:#094492" data-old_color="#d80027"/><path d="m248 232h-32c-17.671875 0-32 14.328125-32 32v16h96v-16c0-17.671875-14.328125-32-32-32zm0 0" fill="#d80027" data-original="#094492" class="" style="fill:#094492" data-old_color="#d80027"/><path d="m208 80h8v24h-16v-16c0-4.417969 3.582031-8 8-8zm0 0" fill="#71c138" data-original="#B4421F" class="" style="fill:#B4421F" data-old_color="#71c138"/><path d="m248 80h8c4.417969 0 8 3.582031 8 8v16h-16zm0 0" fill="#71c138" data-original="#B4421F" class="" style="fill:#B4421F" data-old_color="#71c138"/><path d="m208 440h8v24h-16v-16c0-4.417969 3.582031-8 8-8zm0 0" fill="#71c138" data-original="#B4421F" class="" style="fill:#B4421F" data-old_color="#71c138"/><path d="m248 440h8c4.417969 0 8 3.582031 8 8v16h-16zm0 0" fill="#71c138" data-original="#B4421F" class="" style="fill:#B4421F" data-old_color="#71c138"/><path d="m376 352h8v24h-16v-16c0-4.417969 3.582031-8 8-8zm0 0" fill="#71c138" data-original="#B4421F" class="" style="fill:#B4421F" data-old_color="#71c138"/><path d="m416 352h8c4.417969 0 8 3.582031 8 8v16h-16zm0 0" fill="#71c138" data-original="#B4421F" class="" style="fill:#B4421F" data-old_color="#71c138"/><path d="m392 160h8v24h-16v-16c0-4.417969 3.582031-8 8-8zm0 0" fill="#71c138" data-original="#B4421F" class="" style="fill:#B4421F" data-old_color="#71c138"/><path d="m432 160h8c4.417969 0 8 3.582031 8 8v16h-16zm0 0" fill="#71c138" data-original="#B4421F" class="" style="fill:#B4421F" data-old_color="#71c138"/><path d="m24 160h8v24h-16v-16c0-4.417969 3.582031-8 8-8zm0 0" fill="#71c138" data-original="#B4421F" class="" style="fill:#B4421F" data-old_color="#71c138"/><path d="m64 160h8c4.417969 0 8 3.582031 8 8v16h-16zm0 0" fill="#71c138" data-original="#B4421F" class="" style="fill:#B4421F" data-old_color="#71c138"/><path d="m40 352h8v24h-16v-16c0-4.417969 3.582031-8 8-8zm0 0" fill="#71c138" data-original="#B4421F" class="" style="fill:#B4421F" data-old_color="#71c138"/><path d="m80 352h8c4.417969 0 8 3.582031 8 8v16h-16zm0 0" fill="#71c138" data-original="#B4421F" class="" style="fill:#B4421F" data-old_color="#71c138"/><path d="m208 256h8v24h-16v-16c0-4.417969 3.582031-8 8-8zm0 0" fill="#c20023" data-original="#06316A" class="active-path" style="fill:#06316A" data-old_color="#c20023"/><path d="m248 256h8c4.417969 0 8 3.582031 8 8v16h-16zm0 0" fill="#c20023" data-original="#06316A" class="active-path" style="fill:#06316A" data-old_color="#c20023"/></g></g></g> </svg>
