<svg xmlns="http://www.w3.org/2000/svg" xmlns:xlink="http://www.w3.org/1999/xlink" fill="none" stroke="none" stroke-linecap="square" stroke-miterlimit="10" version="1.1" viewBox="0 0 800.197 720.892"><clipPath id="p.0"><path d="m0 0l800.19684 0l0 720.8924l-800.19684 0l0 -720.8924z" clip-rule="nonzero"/></clipPath><g clip-path="url(#p.0)"><path fill="#000" fill-opacity="0" fill-rule="evenodd" d="m0 0l800.19684 0l0 720.8924l-800.19684 0z"/><path fill="#4fd9b3" fill-rule="evenodd" d="m555.34644 35.64042l100.69293 0l0 50.803154l-100.69293 0z"/><path fill-rule="evenodd" stroke="#4fd9b3" stroke-linecap="butt" stroke-linejoin="round" stroke-width="4" d="m555.34644 35.64042l100.69293 0l0 50.803154l-100.69293 0z"/><path fill="#000" fill-opacity="0" fill-rule="evenodd" d="m666.7323 25.84252l0 141.6693"/><path fill-rule="evenodd" stroke="#915b30" stroke-linecap="butt" stroke-linejoin="round" stroke-width="24" d="m666.7323 25.84252l0 141.6693"/><path fill="#fff2cc" fill-rule="evenodd" d="m68.519684 199.61417l662.9606 0l0 436.6299l-662.9606 0z"/><path fill-rule="evenodd" stroke="#094492" stroke-linecap="butt" stroke-linejoin="round" stroke-width="24" d="m68.519684 199.61417l662.9606 0l0 436.6299l-662.9606 0z"/><path fill="#e55529" fill-rule="evenodd" d="m66.44095 199.61417l333.55905 -161.29134l333.55908 161.29134z"/><path fill-rule="evenodd" stroke="#e55529" stroke-linecap="butt" stroke-linejoin="round" stroke-width="24" d="m66.44095 199.61417l333.55905 -161.29134l333.55908 161.29134z"/><path fill="#4fd9b3" fill-rule="evenodd" d="m17.716536 617.0842l0 0c0 -7.1348877 5.783985 -12.918884 12.918894 -12.918884l738.7291 0c3.4263306 0 6.7122803 1.361084 9.135071 3.7838745c2.4227295 2.4227295 3.7838135 5.70874 3.7838135 9.13501l0 51.674072c0 7.1348877 -5.7839966 12.918884 -12.918884 12.918884l-738.7291 0l0 0c-7.1349087 0 -12.918894 -5.7839966 -12.918894 -12.918884z"/><path fill-rule="evenodd" stroke="#094492" stroke-linecap="butt" stroke-linejoin="round" stroke-width="24" d="m17.716536 617.0842l0 0c0 -7.1348877 5.783985 -12.918884 12.918894 -12.918884l738.7291 0c3.4263306 0 6.7122803 1.361084 9.135071 3.7838745c2.4227295 2.4227295 3.7838135 5.70874 3.7838135 9.13501l0 51.674072c0 7.1348877 -5.7839966 12.918884 -12.918884 12.918884l-738.7291 0l0 0c-7.1349087 0 -12.918894 -5.7839966 -12.918894 -12.918884z"/><path fill="#fff2cc" fill-rule="evenodd" d="m354.11023 132.33333l0 0c0 -25.344215 20.545563 -45.889755 45.88977 -45.889755l0 0c12.170715 0 23.842957 4.8348007 32.448975 13.440796c8.605988 8.606003 13.440796 20.278244 13.440796 32.44896l0 0c0 25.344223 -20.545563 45.88977 -45.88977 45.88977l0 0c-25.344208 0 -45.88977 -20.545547 -45.88977 -45.88977z"/><path fill-rule="evenodd" stroke="#0988ec" stroke-linecap="butt" stroke-linejoin="round" stroke-width="24" d="m354.11023 132.33333l0 0c0 -25.344215 20.545563 -45.889755 45.88977 -45.889755l0 0c12.170715 0 23.842957 4.8348007 32.448975 13.440796c8.605988 8.606003 13.440796 20.278244 13.440796 32.44896l0 0c0 25.344223 -20.545563 45.88977 -45.88977 45.88977l0 0c-25.344208 0 -45.88977 -20.545547 -45.88977 -45.88977z"/><path fill="#000" fill-opacity="0" fill-rule="evenodd" d="m391.53018 137.24672l32.97638 -16.944885"/><path fill-rule="evenodd" stroke="#000" stroke-linecap="butt" stroke-linejoin="round" stroke-width="16" d="m391.53018 137.24672l32.97638 -16.944885"/><path fill="#000" fill-opacity="0" fill-rule="evenodd" d="m400.88452 137.24672l10.992126 23.149612"/><path fill-rule="evenodd" stroke="#000" stroke-linecap="butt" stroke-linejoin="round" stroke-width="16" d="m400.88452 137.24672l10.992126 23.149612"/><path fill="#b87a48" fill-rule="evenodd" d="m297.53018 395.05103l0 0c0 -2.62146 2.125122 -4.7465515 4.746582 -4.7465515l100.995026 0c1.2588806 0 2.4661865 0.50006104 3.3563538 1.3902283c0.8901367 0.89016724 1.3902283 2.0974731 1.3902283 3.3563232l0 192.7746c0 2.62146 -2.125122 4.746582 -4.746582 4.746582l-100.995026 0c-2.62146 0 -4.746582 -2.125122 -4.746582 -4.746582z"/><path fill="#b87a48" fill-rule="evenodd" d="m408.01837 395.05103l0 0c0 -2.62146 2.125122 -4.7465515 4.746582 -4.7465515l100.995056 0c1.2588501 0 2.4661865 0.50006104 3.3563232 1.3902283c0.8901367 0.89016724 1.3902588 2.0974731 1.3902588 3.3563232l0 192.7746c0 2.62146 -2.125122 4.746582 -4.746582 4.746582l-100.995056 0c-2.62146 0 -4.746582 -2.125122 -4.746582 -4.746582z"/><path fill="#cfe2f3" fill-rule="evenodd" d="m548.5171 260.209l0 0c0 -9.596329 7.779297 -17.375687 17.375671 -17.375687l93.5636 0c4.6082764 0 9.027893 1.830658 12.286438 5.089218c3.258606 3.2585754 5.0892334 7.6781464 5.0892334 12.2864685l0 69.50061c0 9.596313 -7.779358 17.375671 -17.375671 17.375671l-93.5636 0l0 0c-9.5963745 0 -17.375671 -7.779358 -17.375671 -17.375671z"/><path fill-rule="evenodd" stroke="#4fd9b3" stroke-linecap="butt" stroke-linejoin="round" stroke-width="24" d="m548.5171 260.209l0 0c0 -9.596329 7.779297 -17.375687 17.375671 -17.375687l93.5636 0c4.6082764 0 9.027893 1.830658 12.286438 5.089218c3.258606 3.2585754 5.0892334 7.6781464 5.0892334 12.2864685l0 69.50061c0 9.596313 -7.779358 17.375671 -17.375671 17.375671l-93.5636 0l0 0c-9.5963745 0 -17.375671 -7.779358 -17.375671 -17.375671z"/><path fill="#000" fill-opacity="0" fill-rule="evenodd" d="m612.67456 242.83333l0 104.25197"/><path fill-rule="evenodd" stroke="#4fd9b3" stroke-linecap="butt" stroke-linejoin="round" stroke-width="24" d="m612.67456 242.83333l0 104.25197"/><path fill="#000" fill-opacity="0" fill-rule="evenodd" d="m548.5171 294.95932l128.31494 0"/><path fill-rule="evenodd" stroke="#4fd9b3" stroke-linecap="butt" stroke-linejoin="round" stroke-width="24" d="m548.5171 294.95932l128.31494 0"/><path fill="#cfe2f3" fill-rule="evenodd" d="m335.84253 260.209l0 0c0 -9.596329 7.779358 -17.375687 17.375671 -17.375687l93.5636 0c4.608307 0 9.027893 1.830658 12.2864685 5.089218c3.2585754 3.2585754 5.089203 7.6781464 5.089203 12.2864685l0 69.50061c0 9.596313 -7.779358 17.375671 -17.375671 17.375671l-93.5636 0l0 0c-9.596313 0 -17.375671 -7.779358 -17.375671 -17.375671z"/><path fill-rule="evenodd" stroke="#4fd9b3" stroke-linecap="butt" stroke-linejoin="round" stroke-width="24" d="m335.84253 260.209l0 0c0 -9.596329 7.779358 -17.375687 17.375671 -17.375687l93.5636 0c4.608307 0 9.027893 1.830658 12.2864685 5.089218c3.2585754 3.2585754 5.089203 7.6781464 5.089203 12.2864685l0 69.50061c0 9.596313 -7.779358 17.375671 -17.375671 17.375671l-93.5636 0l0 0c-9.596313 0 -17.375671 -7.779358 -17.375671 -17.375671z"/><path fill="#000" fill-opacity="0" fill-rule="evenodd" d="m400.0 242.83333l0 104.25197"/><path fill-rule="evenodd" stroke="#4fd9b3" stroke-linecap="butt" stroke-linejoin="round" stroke-width="24" d="m400.0 242.83333l0 104.25197"/><path fill="#000" fill-opacity="0" fill-rule="evenodd" d="m335.84253 294.95932l128.31494 0"/><path fill-rule="evenodd" stroke="#4fd9b3" stroke-linecap="butt" stroke-linejoin="round" stroke-width="24" d="m335.84253 294.95932l128.31494 0"/><path fill="#cfe2f3" fill-rule="evenodd" d="m123.16798 260.209l0 0c0 -9.596329 7.7793503 -17.375687 17.375679 -17.375687l93.563614 0c4.608307 0 9.027878 1.830658 12.286453 5.089218c3.2585754 3.2585754 5.089218 7.6781464 5.089218 12.2864685l0 69.50061c0 9.596313 -7.779358 17.375671 -17.375671 17.375671l-93.563614 0l0 0c-9.596329 0 -17.375679 -7.779358 -17.375679 -17.375671z"/><path fill-rule="evenodd" stroke="#4fd9b3" stroke-linecap="butt" stroke-linejoin="round" stroke-width="24" d="m123.16798 260.209l0 0c0 -9.596329 7.7793503 -17.375687 17.375679 -17.375687l93.563614 0c4.608307 0 9.027878 1.830658 12.286453 5.089218c3.2585754 3.2585754 5.089218 7.6781464 5.089218 12.2864685l0 69.50061c0 9.596313 -7.779358 17.375671 -17.375671 17.375671l-93.563614 0l0 0c-9.596329 0 -17.375679 -7.779358 -17.375679 -17.375671z"/><path fill="#000" fill-opacity="0" fill-rule="evenodd" d="m187.32545 242.83333l0 104.25197"/><path fill-rule="evenodd" stroke="#4fd9b3" stroke-linecap="butt" stroke-linejoin="round" stroke-width="24" d="m187.32545 242.83333l0 104.25197"/><path fill="#000" fill-opacity="0" fill-rule="evenodd" d="m123.16798 294.95932l128.31497 0"/><path fill-rule="evenodd" stroke="#4fd9b3" stroke-linecap="butt" stroke-linejoin="round" stroke-width="24" d="m123.16798 294.95932l128.31497 0"/><path fill="#7b4e2b" fill-rule="evenodd" d="m386.03937 499.74802l0 0c0 -3.8529358 3.1234436 -6.976349 6.9763794 -6.976349l0 0c1.8502502 0 3.6247253 0.73498535 4.9330444 2.043335c1.3083191 1.3083191 2.043335 3.0827637 2.043335 4.933014l0 0c0 3.8529663 -3.1234436 6.9763794 -6.9763794 6.9763794l0 0c-3.8529358 0 -6.9763794 -3.123413 -6.9763794 -6.9763794z"/><path fill="#7b4e2b" fill-rule="evenodd" d="m416.2966 499.74802l0 0c0 -3.8529358 3.123413 -6.976349 6.9763794 -6.976349l0 0c1.8502502 0 3.6246948 0.73498535 4.9330444 2.043335c1.3083191 1.3083191 2.0433044 3.0827637 2.0433044 4.933014l0 0c0 3.8529663 -3.123413 6.9763794 -6.976349 6.9763794l0 0c-3.8529663 0 -6.9763794 -3.123413 -6.9763794 -6.9763794z"/></g></svg>