<svg xmlns="http://www.w3.org/2000/svg" xmlns:xlink="http://www.w3.org/1999/xlink" width="200" height="200" class="icon" p-id="5840" t="1561649121243" version="1.1" viewBox="0 0 1024 1024"><defs><style type="text/css"/></defs><path fill="#13227a" d="M940.344 737.918667c-42.88-58.46-151.626667-96.413333-225.96-117.96l-69.64 254.706667c0 23.46-18.4 42.666667-40.84 42.666667-22.466667 0-40.853333-19.206667-40.853333-42.666667l0-202.666667c0-29.44-22.88-53.333333-51.053333-53.333333-28.182667 0-51.049333 23.893333-51.049333 53.333333l0 202.666667c0 23.46-18.382667 42.666667-40.846667 42.666667-22.462667 0-40.846667-19.206667-40.846667-42.666667l-69.636-254.706667c-74.322667 21.753333-183.086667 59.5-225.976 117.96-16.949333 23.046667-26.142667 69.326667-26.753333 94.086667 0.2 6.393333 0 13.88 0 21.333333l0 42.66 0 42.666667c0 47.153333 36.553333 85.333333 81.689333 85.333333l746.845333 0c45.133333 0 81.68-38.18 81.68-85.333333l0-42.666667 0-42.66c0-7.453333-0.186667-14.94 0-21.333333C966.490667 807.244 957.304 760.965333 940.344 737.918667zM297.578667 225.713333c0 124.582667 74.336 307.625333 214.426667 307.625333 137.633333 0 214.42-183.042667 214.42-307.625333C726.425333 101.126667 630.438667 0 512.005333 0 393.562667 0 297.578667 101.126667 297.578667 225.713333z" p-id="5841"/></svg>