<svg version="1.1" viewBox="0.0 0.0 345.742782152231 363.56430446194224" fill="none" stroke="none" stroke-linecap="square" stroke-miterlimit="10" xmlns:xlink="http://www.w3.org/1999/xlink" xmlns="http://www.w3.org/2000/svg"><clipPath id="p.0"><path d="m0 0l345.74277 0l0 363.5643l-345.74277 0l0 -363.5643z" clip-rule="nonzero"/></clipPath><g clip-path="url(#p.0)"><path fill="#000000" fill-opacity="0.0" d="m0 0l345.74277 0l0 363.5643l-345.74277 0z" fill-rule="evenodd"/><path fill="#e55529" d="m172.8703 114.2576c-21.683289 0.5940552 -37.276474 -23.762032 -58.811028 -24.950127c-21.534554 -1.1881027 -54.802273 2.3761978 -70.396324 17.821518c-15.594051 15.44532 -22.72266 48.11767 -23.16798 74.850395c-0.44531822 26.732727 6.684166 58.813217 20.496063 85.545944c13.811897 26.732697 39.05862 65.34558 62.37533 74.85037c23.316704 9.504822 55.099304 -17.821503 77.52493 -17.821503c22.425629 0 38.761597 19.30664 57.02887 17.821503c18.267273 -1.4851074 38.76291 -11.732269 52.5748 -26.73227c13.81189 -15.0 24.950134 -38.614166 30.2966 -63.267715c5.3464355 -24.65355 5.0494385 -59.406387 1.782135 -84.65355c-3.267273 -25.247162 -8.316711 -53.16623 -21.385803 -66.8294c-13.069122 -13.663162 -35.64261 -17.377075 -57.028885 -15.149605c-21.386261 2.2274704 -49.605423 27.920387 -71.28871 28.514435z" fill-rule="evenodd"/><path stroke="#c60909" stroke-width="24.0" stroke-linejoin="round" stroke-linecap="butt" d="m172.8703 114.2576c-21.683289 0.5940552 -37.276474 -23.762032 -58.811028 -24.950127c-21.534554 -1.1881027 -54.802273 2.3761978 -70.396324 17.821518c-15.594051 15.44532 -22.72266 48.11767 -23.16798 74.850395c-0.44531822 26.732727 6.684166 58.813217 20.496063 85.545944c13.811897 26.732697 39.05862 65.34558 62.37533 74.85037c23.316704 9.504822 55.099304 -17.821503 77.52493 -17.821503c22.425629 0 38.761597 19.30664 57.02887 17.821503c18.267273 -1.4851074 38.76291 -11.732269 52.5748 -26.73227c13.81189 -15.0 24.950134 -38.614166 30.2966 -63.267715c5.3464355 -24.65355 5.0494385 -59.406387 1.782135 -84.65355c-3.267273 -25.247162 -8.316711 -53.16623 -21.385803 -66.8294c-13.069122 -13.663162 -35.64261 -17.377075 -57.028885 -15.149605c-21.386261 2.2274704 -49.605423 27.920387 -71.28871 28.514435z" fill-rule="evenodd"/><path fill="#000000" fill-opacity="0.0" d="m168.39896 96.9462c-2.2497864 -6.449257 -7.64917 -28.4217 -13.498688 -38.69554c-5.849518 -10.273842 -17.998688 -19.122921 -21.598434 -22.947506" fill-rule="evenodd"/><path stroke="#915b30" stroke-width="12.0" stroke-linejoin="round" stroke-linecap="butt" d="m168.39896 96.9462c-2.2497864 -6.449257 -7.64917 -28.4217 -13.498688 -38.69554c-5.849518 -10.273842 -17.998688 -19.122921 -21.598434 -22.947506" fill-rule="evenodd"/><path fill="#915b30" d="m128.23885 36.062992l0 0c0 -3.2267342 2.6157837 -5.8425198 5.842514 -5.8425198l0 0c1.54953 0 3.0355988 0.6155491 4.1312866 1.711235c1.0956879 1.095686 1.7112427 2.5817509 1.7112427 4.1312847l0 0c0 3.2267342 -2.6157837 5.842518 -5.8425293 5.842518l0 0c-3.2267303 0 -5.842514 -2.6157837 -5.842514 -5.842518z" fill-rule="evenodd"/><path stroke="#915b30" stroke-width="1.0" stroke-linejoin="round" stroke-linecap="butt" d="m128.23885 36.062992l0 0c0 -3.2267342 2.6157837 -5.8425198 5.842514 -5.8425198l0 0c1.54953 0 3.0355988 0.6155491 4.1312866 1.711235c1.0956879 1.095686 1.7112427 2.5817509 1.7112427 4.1312847l0 0c0 3.2267342 -2.6157837 5.842518 -5.8425293 5.842518l0 0c-3.2267303 0 -5.842514 -2.6157837 -5.842514 -5.842518z" fill-rule="evenodd"/><path fill="#915b30" d="m162.68767 97.50656l0 0c0 -3.2267303 2.6157837 -5.8425217 5.842514 -5.8425217l0 0c1.54953 0 3.0355988 0.6155548 4.1312866 1.711235c1.0956879 1.0956879 1.7112274 2.5817566 1.7112274 4.1312866l0 0c0 3.226738 -2.6157837 5.8425217 -5.842514 5.8425217l0 0c-3.2267303 0 -5.842514 -2.6157837 -5.842514 -5.8425217z" fill-rule="evenodd"/><path stroke="#915b30" stroke-width="1.0" stroke-linejoin="round" stroke-linecap="butt" d="m162.68767 97.50656l0 0c0 -3.2267303 2.6157837 -5.8425217 5.842514 -5.8425217l0 0c1.54953 0 3.0355988 0.6155548 4.1312866 1.711235c1.0956879 1.0956879 1.7112274 2.5817566 1.7112274 4.1312866l0 0c0 3.226738 -2.6157837 5.8425217 -5.842514 5.8425217l0 0c-3.2267303 0 -5.842514 -2.6157837 -5.842514 -5.8425217z" fill-rule="evenodd"/><path fill="#4fd9b3" d="m172.87248 100.68912c-8.762466 -3.267273 -6.5358734 -44.85083 0.8897705 -60.593174c7.4256287 -15.742344 34.901566 -37.12817 43.664032 -33.860893c8.762466 3.2672791 16.336395 37.722225 8.910767 53.46457c-7.4256287 15.742344 -44.702103 44.25678 -53.46457 40.9895z" fill-rule="evenodd"/><path stroke="#4fd9b3" stroke-width="4.0" stroke-linejoin="round" stroke-linecap="butt" d="m172.87248 100.68912c-8.762466 -3.267273 -6.5358734 -44.85083 0.8897705 -60.593174c7.4256287 -15.742344 34.901566 -37.12817 43.664032 -33.860893c8.762466 3.2672791 16.336395 37.722225 8.910767 53.46457c-7.4256287 15.742344 -44.702103 44.25678 -53.46457 40.9895z" fill-rule="evenodd"/></g></svg>