<?xml version="1.0"?>
<svg xmlns="http://www.w3.org/2000/svg" xmlns:xlink="http://www.w3.org/1999/xlink" version="1.1" id="Layer_1" x="0px" y="0px" viewBox="0 0 512 512" style="enable-background:new 0 0 512 512;" xml:space="preserve" width="512px" height="512px" class="hovered-paths"><g><g><g><path style="fill:#094492" d="M480,382.933H32c-18.133,0-32-13.867-32-32V32C0,13.867,13.867,0,32,0h448c18.133,0,32,13.867,32,32  v318.933C512,369.067,498.133,382.933,480,382.933z" data-original="#094492" class="" data-old_color="#415A6B"/><rect x="42.667" y="42.667" style="fill:#FFFFFF" width="379.733" height="297.6" data-original="#FFFFFF" class="" data-old_color="#EAE3E3"/><path id="SVGCleanerId_0" style="fill:#094492" d="M189.867,228.267c-30.933,0-56.533-25.6-56.533-56.533  s25.6-56.533,56.533-56.533s56.533,25.6,56.533,56.533C246.4,203.733,220.8,228.267,189.867,228.267z M189.867,132.267  c-22.4,0-40.533,18.133-40.533,40.533s18.133,40.533,40.533,40.533S230.4,195.2,230.4,172.8  C230.4,150.4,212.267,132.267,189.867,132.267z" data-original="#094492" class="" data-old_color="#415A6B"/><path id="SVGCleanerId_1" style="fill:#094492" d="M189.867,262.4c-50.133,0-89.6-40.533-89.6-89.6c0-50.133,40.533-89.6,89.6-89.6  c50.133,0,89.6,40.533,89.6,89.6C280.533,221.867,240,262.4,189.867,262.4z M189.867,98.133c-40.533,0-73.6,33.067-73.6,73.6  s33.067,73.6,73.6,73.6s73.6-33.067,73.6-73.6C264.533,131.2,231.467,98.133,189.867,98.133z" data-original="#094492" class="" data-old_color="#415A6B"/><g>
	<path id="SVGCleanerId_0_1_" style="fill:#094492" d="M189.867,228.267c-30.933,0-56.533-25.6-56.533-56.533   s25.6-56.533,56.533-56.533s56.533,25.6,56.533,56.533C246.4,203.733,220.8,228.267,189.867,228.267z M189.867,132.267   c-22.4,0-40.533,18.133-40.533,40.533s18.133,40.533,40.533,40.533S230.4,195.2,230.4,172.8   C230.4,150.4,212.267,132.267,189.867,132.267z" data-original="#094492" class="" data-old_color="#415A6B"/>
</g><g>
	<path id="SVGCleanerId_1_1_" style="fill:#094492" d="M189.867,262.4c-50.133,0-89.6-40.533-89.6-89.6   c0-50.133,40.533-89.6,89.6-89.6c50.133,0,89.6,40.533,89.6,89.6C280.533,221.867,240,262.4,189.867,262.4z M189.867,98.133   c-40.533,0-73.6,33.067-73.6,73.6s33.067,73.6,73.6,73.6s73.6-33.067,73.6-73.6C264.533,131.2,231.467,98.133,189.867,98.133z" data-original="#094492" class="" data-old_color="#415A6B"/>
</g><path style="fill:#FFD15C" d="M381.867,512c6.4-23.467,10.667-46.933,10.667-71.467V339.2c0-13.867-9.6-27.733-23.467-29.867  c-18.133-3.2-34.133,10.667-34.133,28.8V329.6c0-13.867-9.6-27.733-23.467-29.867c-18.133-3.2-34.133,10.667-34.133,28.8V320  c0-13.867-9.6-27.733-23.467-29.867c-18.133-3.2-34.133,10.667-34.133,28.8v-131.2c0-13.867-9.6-27.733-23.467-29.867  c-18.133-3.2-34.133,10.667-34.133,28.8v188.8l-32-45.867c-9.6-12.8-26.667-16-40.533-7.467c-12.8,9.6-16,26.667-6.4,40.533  l69.333,98.133c10.667,14.933,18.133,32,20.267,50.133h209.067V512z" data-original="#FFD15C" class="active-path"/><circle style="fill:#FFFFFF" cx="467.2" cy="190.933" r="21.333" data-original="#FFFFFF" class="" data-old_color="#FFD300"/></g></g></g> </svg>
