<svg xmlns="http://www.w3.org/2000/svg" width="106.845" height="107.071" viewBox="0 0 106.845 107.071"><path id="其他" fill="#fff" d="M76.976,47.754A6.752,6.752,0,1,0,80.343,53.6,6.724,6.724,0,0,0,76.976,47.754ZM104.323,37.4a52.529,52.529,0,0,0-4.515-10.316,3.308,3.308,0,0,0-5.651-.355,3.431,3.431,0,0,0-.021,3.906c6.233,11.351,7.747,23.323,4.2,35.768A46.905,46.905,0,1,1,76.308,12.764a3.6,3.6,0,0,0,2.372.566,3.347,3.347,0,0,0,.994-6.346,52.516,52.516,0,0,0-38.11-5.616,53.511,53.511,0,1,0,65.012,57.454A52.66,52.66,0,0,0,104.323,37.4ZM50.046,47.754a6.734,6.734,0,1,0,6.734,0A6.749,6.749,0,0,0,50.046,47.754Zm-20.182,0a6.734,6.734,0,1,0,6.734,0A6.749,6.749,0,0,0,29.864,47.754Z" transform="translate(0 -0.001)"/></svg>