<?xml version="1.0" encoding="iso-8859-1"?>
<!-- Generator: Adobe Illustrator 19.0.0, SVG Export Plug-In . SVG Version: 6.00 Build 0)  -->
<svg version="1.1" id="Layer_1" xmlns="http://www.w3.org/2000/svg" xmlns:xlink="http://www.w3.org/1999/xlink" x="0px" y="0px"
	 viewBox="0 0 508 508" style="enable-background:new 0 0 508 508;" xml:space="preserve">
<circle style="fill:#324A5E;" cx="254" cy="254" r="254"/>
<path style="fill:#F9B54C;" d="M421.2,317.6l-10.4-14.4c-12-16.8-26-32-42-45.2L332,226c-4.8-4.4-12.4-3.6-16.4,1.6
	c-3.6,4.8-2.8,11.6,1.6,15.6l28.4,23.6c0.4,0.4,0.4,1.2,0,1.6s-1.2,0.4-2,0L298,230.8c-4-3.2-10-4-14-1.2c3.2-4,3.6-9.6,0.4-14l0,0
	c0-0.4-0.4-0.4-0.8-0.8c-4-4.4-11.2-4.8-16-1.2l-60,42.4c-0.4,0.4-1.2,0.4-1.6-0.4c-0.4-0.4-0.4-1.2,0.4-1.6l54.4-38.8
	c5.6-4,6.8-12,2.8-17.6c-4-5.2-11.2-6.4-16.8-2.8L184,238.4c7.2-12,12-24.8,10.8-36c-0.4-5.6-8-8.4-13.6-6.4
	c-2.4,0.8-5.2,2.8-6.8,6.4c0,0-2,17.2-24.8,30.8c-23.2,13.6-29.2,56.8-29.2,56.8c-3.6,16-53.2,49.2-53.2,49.2l38.4,50
	c23.2-15.2,62-29.6,62-29.6l16.8-6.4c19.2-7.2,37.6-16.8,54.8-28.4l28-19.2l33.2,28c-13.6-4-27.2-4.8-37.6-0.8c-5.2,2-6,10-2.8,14.8
	c1.2,2,4,4.4,8,5.2c0,0,17.2-2.4,36.4,16c19.2,18.4,62.4,13.2,62.4,13.2c16.4-0.8,61.2,38.4,61.2,38.4l38.4-50
	C445.6,351.2,421.2,317.6,421.2,317.6z M235.6,300c-0.4,0.4-1.2,0.4-1.6-0.4c-0.4-0.4,0-1.2,0.4-1.6l12.8-9.2l2,1.6L235.6,300z
	 M225.6,274.8c-0.4,0.4-1.2,0.4-1.6-0.4c-0.4-0.4-0.4-1.2,0.4-1.6l26.8-18.8c0.4,0.8,0.8,1.6,1.2,2L225.6,274.8z M311.2,307.6
	c-0.4,0.4-1.2,0.4-1.6,0L284,286.8c-0.4-2-0.8-3.6-2-5.2l29.2,24.4C311.6,306,311.6,306.8,311.2,307.6z M324.8,285.2
	c-0.4,0.4-1.2,0.4-1.6,0L288,256c0.4-0.8,0.4-2,0.4-3.2l36.4,30.4C325.2,284,325.2,284.8,324.8,285.2z"/>
<path style="fill:#FF7058;" d="M18,348c12.8,32.4,32.4,61.6,56.4,85.6l76.8-48.8l-52-88.4L18,348z"/>
<path style="fill:#4CDBC4;" d="M450,326.4L378.4,400l46.4,42c25.6-23.2,46.4-51.6,60.8-83.6L450,326.4z"/>
<path style="fill:#FFD05B;" d="M220.8,255.6c6-0.4,10.8-5.6,10.8-11.6l-0.8-36.8c0-0.8,0.4-1.2,1.2-1.2s1.2,0.4,1.2,1.2l1.6,58.8
	c0,6,4.4,11.2,10,12c7.2,0.8,13.6-4.8,13.2-12l-1.2-53.6c0-0.8,0.4-1.2,1.2-1.2c0.8,0,1.2,0.4,1.2,1.2l1.6,70c0,6.8,5.6,12,12.4,12
	l0,0c0.4,0,0.8,0,1.2,0c6-1.2,10-6.8,10-12.8l-2-73.6c0-0.8,0.4-1.2,1.2-1.2c0.8,0,1.2,0.4,1.2,1.2l2,66.8c0,6.8,6,12.4,13.2,12
	c6.4-0.4,11.6-6,11.6-12.4l-1.2-76c6,12.8,14,23.6,24,28.8c5.2,2.8,11.2-2,12.8-7.6c0.8-2.4,0.4-6-1.6-9.2c0,0-13.2-11.6-12-38
	s-31.2-55.6-31.2-55.6c-11.2-12-11.6-71.2-11.6-71.2l-62.8,4c0,27.6-9.6,68-9.6,68l-4,17.6c-4.4,20-6.8,40.8-6.8,61.2l0.4,48.4
	C208.8,250.8,214.4,256,220.8,255.6z"/>
<path style="fill:#E6E9EE;" d="M311.2,6.4C292.8,2.4,273.6,0,254,0c-15.6,0-30.8,1.6-45.2,4l-1.6,85.6l102.4,5.6L311.2,6.4z"/>
<g>
</g>
<g>
</g>
<g>
</g>
<g>
</g>
<g>
</g>
<g>
</g>
<g>
</g>
<g>
</g>
<g>
</g>
<g>
</g>
<g>
</g>
<g>
</g>
<g>
</g>
<g>
</g>
<g>
</g>
</svg>
