<svg xmlns="http://www.w3.org/2000/svg" width="116" height="94" fill="none" viewBox="0 0 116 94"><path fill="#E55529" d="M1.5587 93.272H114.452C115.355 93.272 116 92.5567 116 91.8414C116 91.603 115.871 91.3646 115.742 91.1261L59.489 0.760395C59.1019 0.0450986 58.0697 -0.193333 57.2956 0.164315C57.0376 0.283531 56.9086 0.521963 56.6505 0.760395L0.268497 91.1261C-0.247586 91.8414 0.0104555 92.6759 0.784579 93.1528C1.04262 93.272 1.30066 93.272 1.5587 93.272ZM58.0697 9.58238L106.84 87.7881H9.29994L58.0697 9.58238Z"/><path fill="#E55529" d="M55.9331 40.8721H60.0787C60.6315 40.8721 61 41.3586 61 41.8452V67.1469C61 67.7308 60.5394 68.1201 60.0787 68.1201H55.9331C55.3803 68.1201 55.0118 67.6335 55.0118 67.1469V41.9425C54.9197 41.3586 55.3803 40.8721 55.9331 40.8721Z"/><path fill="#E55529" d="M55.9331 73.3601H60.0787C60.6315 73.3601 61 73.8294 61 74.2986V78.7096C61 79.2727 60.5394 79.6481 60.0787 79.6481H55.9331C55.3803 79.6481 55.0118 79.1788 55.0118 78.7096V74.2986C54.9197 73.8294 55.3803 73.3601 55.9331 73.3601Z"/></svg>