<svg xmlns="http://www.w3.org/2000/svg" width="512" height="512" viewBox="-50 0 380 380.001"><g><path fill="#FFE602" d="m204.160156 27.160156v18.769532c0 18.738281-15.1875 33.929687-33.925781 33.929687h-60.683594c-18.738281 0-33.929687-15.1875-33.929687-33.925781v-18.773438h29.828125c3.820312-15.925781 18.0625-27.15624975 34.441406-27.15624975s30.621094 11.23046875 34.441406 27.15624975zm0 0" data-old_color="#FFE603" data-original="#F8EC7D"/><path fill="#42AEFF" d="m279.78125 61.089844v284.980468c0 18.738282-15.191406 33.929688-33.929688 33.929688h-211.921874c-18.738282 0-33.929688-15.1875-33.929688-33.925781v-284.984375c0-18.738282 15.191406-33.925782 33.929688-33.929688h41.691406v18.769532c0 18.738281 15.1875 33.929687 33.925781 33.929687h60.683594c18.738281 0 33.929687-15.1875 33.929687-33.925781v-18.773438h41.691406c18.738282 0 33.929688 15.191406 33.929688 33.929688zm0 0" class="active-path" data-old_color="#43AFFF" data-original="#E48E66"/><path fill="#0091FF" d="m139.890625 79.859375h-30.339844c-18.738281 0-33.929687-15.1875-33.929687-33.925781v-18.773438h-41.691406c-18.738282 0-33.929688 15.191406-33.929688 33.929688v284.980468c0 18.738282 15.191406 33.929688 33.929688 33.929688h105.960937zm0 0" data-old_color="#001EFF" data-original="#D18162"/><path fill="#FFD800" d="m139.890625 0c-16.425781-.132812-30.742187 11.15625-34.441406 27.160156h-29.828125v18.769532c0 18.738281 15.1875 33.929687 33.925781 33.929687h30.34375zm0 0" data-old_color="#FFEA4E" data-original="#E2D574"/><path fill="#FFE602" d="m123.730469 262.839844c-2.609375.003906-5.117188-1.015625-6.984375-2.839844l-40.320313-39.359375c-3.953125-3.855469-4.03125-10.1875-.171875-14.140625s10.1875-4.027344 14.140625-.171875l33.335938 32.542969 65.652343-64.101563c3.957032-3.832031 10.265626-3.742187 14.113282.199219 3.847656 3.9375 3.785156 10.246094-.140625 14.109375l-72.640625 70.921875c-1.867188 1.824219-4.375 2.84375-6.984375 2.839844zm0 0" data-old_color="#FFE603" data-original="#F8EC7D"/></g></svg>