<svg width="584" height="584" viewBox="0 0 584 584" fill="none" xmlns="http://www.w3.org/2000/svg">
<circle cx="292" cy="292" r="292" fill="white"/>
<path d="M113.198 131.643V451.357C113.198 461.544 121.456 469.802 131.643 469.802H451.357C461.544 469.802 469.803 461.544 469.803 451.357V192.716L390.284 113.198H131.643C121.456 113.198 113.198 121.456 113.198 131.643Z" fill="#094492"/>
<path d="M362.878 113.198H174.328V219.77H362.878V113.198Z" fill="#EFEFEF"/>
<path d="M362.879 113.198H321.832V219.77H362.879V113.198Z" fill="#D1D5D8"/>
<path d="M413.238 291.5H169.763V334.539H413.238V291.5Z" fill="#EFEFEF"/>
<path d="M413.238 334.539H169.763V367.74H413.238V334.539Z" fill="#EFEFEF"/>
<path d="M362.206 367.74H413.237V401.76H169.763V367.74H297.649H362.206Z" fill="#EFEFEF"/>
<path d="M413.238 401.76H169.763V435.781H413.238V401.76Z" fill="#EFEFEF"/>
<path d="M413.238 435.781H169.763V469.802H413.238V435.781Z" fill="#E99C2E"/>
<path d="M475.599 186.92L396.08 107.401C394.543 105.864 392.458 105 390.284 105H131.643C116.953 105 105 116.953 105 131.643V451.357C105 466.048 116.953 478 131.643 478H451.357C466.048 478 478 466.048 478 451.357V192.716C478 190.542 477.136 188.457 475.599 186.92ZM354.683 121.395V211.571H330.03V121.395H354.683ZM313.634 121.395V211.571H182.53V121.395H313.634ZM405.04 359.542H362.206C357.678 359.542 354.008 363.212 354.008 367.74C354.008 372.268 357.678 375.938 362.206 375.938H405.04V393.563H177.96V375.938H297.648C302.176 375.938 305.846 372.268 305.846 367.74C305.846 363.212 302.176 359.542 297.648 359.542H177.96V342.736H405.039V359.542H405.04ZM177.96 409.958H405.039V427.583H177.96V409.958ZM405.04 326.341H177.96V299.698H405.039V326.341H405.04ZM177.96 461.605V443.98H405.039V461.605H177.96ZM461.605 451.357C461.605 457.009 457.009 461.605 451.357 461.605H421.435V291.5C421.435 286.972 417.765 283.302 413.237 283.302H169.763C165.235 283.302 161.565 286.972 161.565 291.5V461.605H131.643C125.991 461.605 121.395 457.009 121.395 451.357V131.643C121.395 125.991 125.991 121.395 131.643 121.395H166.134V219.769C166.134 224.297 169.804 227.967 174.332 227.967H362.881C367.409 227.967 371.079 224.297 371.079 219.769V121.395H386.888L461.605 196.112V451.357V451.357Z" fill="#231F20"/>
<path d="M328.8 375.937H329.62C334.147 375.937 337.818 372.267 337.818 367.739C337.818 363.211 334.147 359.541 329.62 359.541H328.8C324.272 359.541 320.602 363.211 320.602 367.739C320.602 372.267 324.272 375.937 328.8 375.937Z" fill="#231F20"/>
<circle cx="444" cy="445" r="62" fill="#4FD9B3"/>
<path d="M436.622 474.063L409.556 449.129L418.975 438.902L435.199 453.844L467.187 414.749L477.949 423.554L436.622 474.063Z" fill="white"/>
</svg>
