<svg width="584" height="584" viewBox="0 0 584 584" fill="none" xmlns="http://www.w3.org/2000/svg">
<circle cx="292" cy="292" r="292" fill="white"/>
<path d="M114.198 131.643V451.357C114.198 461.544 122.456 469.802 132.643 469.802H452.357C462.544 469.802 470.803 461.544 470.803 451.357V192.716L391.284 113.198H132.643C122.456 113.198 114.198 121.456 114.198 131.643Z" fill="#094492"/>
<path d="M363.878 113.198H175.328V219.77H363.878V113.198Z" fill="#EFEFEF"/>
<path d="M363.879 113.198H322.832V219.77H363.879V113.198Z" fill="#D1D5D8"/>
<path d="M414.238 291.5H170.763V334.539H414.238V291.5Z" fill="#EFEFEF"/>
<path d="M414.238 334.539H170.763V367.74H414.238V334.539Z" fill="#EFEFEF"/>
<path d="M363.206 367.74H414.237V401.76H170.763V367.74H298.649H363.206Z" fill="#EFEFEF"/>
<path d="M414.238 401.76H170.763V435.781H414.238V401.76Z" fill="#EFEFEF"/>
<path d="M414.238 435.781H170.763V469.802H414.238V435.781Z" fill="#E99C2E"/>
<path d="M476.599 186.92L397.08 107.401C395.543 105.864 393.458 105 391.284 105H132.643C117.953 105 106 116.953 106 131.643V451.357C106 466.048 117.953 478 132.643 478H452.357C467.048 478 479 466.048 479 451.357V192.716C479 190.542 478.136 188.457 476.599 186.92ZM355.683 121.395V211.571H331.03V121.395H355.683ZM314.634 121.395V211.571H183.53V121.395H314.634ZM406.04 359.542H363.206C358.678 359.542 355.008 363.212 355.008 367.74C355.008 372.268 358.678 375.938 363.206 375.938H406.04V393.563H178.96V375.938H298.648C303.176 375.938 306.846 372.268 306.846 367.74C306.846 363.212 303.176 359.542 298.648 359.542H178.96V342.736H406.039V359.542H406.04ZM178.96 409.958H406.039V427.583H178.96V409.958ZM406.04 326.341H178.96V299.698H406.039V326.341H406.04ZM178.96 461.605V443.98H406.039V461.605H178.96ZM462.605 451.357C462.605 457.009 458.009 461.605 452.357 461.605H422.435V291.5C422.435 286.972 418.765 283.302 414.237 283.302H170.763C166.235 283.302 162.565 286.972 162.565 291.5V461.605H132.643C126.991 461.605 122.395 457.009 122.395 451.357V131.643C122.395 125.991 126.991 121.395 132.643 121.395H167.134V219.769C167.134 224.297 170.804 227.967 175.332 227.967H363.881C368.409 227.967 372.079 224.297 372.079 219.769V121.395H387.888L462.605 196.112V451.357V451.357Z" fill="#231F20"/>
<path d="M329.8 375.937H330.62C335.147 375.937 338.818 372.267 338.818 367.739C338.818 363.211 335.147 359.541 330.62 359.541H329.8C325.272 359.541 321.602 363.211 321.602 367.739C321.602 372.267 325.272 375.937 329.8 375.937Z" fill="#231F20"/>
</svg>
