<svg width="106" height="106" viewBox="0 0 106 106" fill="none" xmlns="http://www.w3.org/2000/svg">
<path d="M106 51.5V47.6861L92 27.8111H61.8597L55 20V17H74.0406V0H52V20L44.1403 27.8111H13.9647L0 47.6861V51.5H5.72793V102H0V106H106V101H100.272V51.5H106ZM55 3H71V14H55V3ZM4.5 47.6861L16 31H41.5L27.4644 47.6861H6.21094H4.5ZM51 102H41V76H51V102ZM65 102H56.1055V76H65V102ZM96 101H69.3555V71.9779H36.6445V102H10V51.5H29.5L53.5 23.5L77 51.5H96V101ZM99.7891 47.6861H78.5359L64.5 31H89.5L101.5 47.6861H99.7891Z" fill="#094492"/>
<path d="M27.2598 64.041H21.0488V72.8744H27.2598V64.041Z" fill="#094492"/>
<path d="M27.3965 81.709H21.1855V90.5422H27.3965V81.709Z" fill="#094492"/>
<path d="M84.9512 64.041H78.7402V72.8744H84.9512V64.041Z" fill="#094492"/>
<path d="M84.8145 81.709H78.6035V90.5422H84.8145V81.709Z" fill="#094492"/>
<circle cx="53.5" cy="55.5" r="9" stroke="#094492" stroke-width="3"/>
</svg>
