<svg xmlns="http://www.w3.org/2000/svg" id="SequentialActivities" viewBox="0 0 165 165"><defs><style>.cls-1{fill:#ffd300}.cls-2{fill:none;stroke:#fff;stroke-linecap:round;stroke-linejoin:round;stroke-width:3.93px}.cls-3{opacity:.1}.cls-4{fill:#fff}</style></defs><title>Artboard 1</title><rect width="163.64" height="163.64" x=".36" y=".86" class="cls-1" rx="19.64"/><path d="M82,52.55v17H99a9.42,9.42,0,1,1,11.27,0h17.65V32.92a9.32,9.32,0,0,0-9.29-9.29H82V41.27" class="cls-2"/><path d="M64.78,69.51h17v-17a9.42,9.42,0,1,1,0-11.27V23.63H45.16a9.32,9.32,0,0,0-9.29,9.29V69.51H53.52" class="cls-2"/><path d="M81.74,86.72v-17h-17a9.42,9.42,0,1,1-11.26,0H35.87v36.58a9.32,9.32,0,0,0,9.29,9.29H81.74V98.05" class="cls-2"/><path d="M99,69.76H82v17A9.42,9.42,0,1,1,82,98v17.65h36.59a9.32,9.32,0,0,0,9.29-9.29V69.76H110.22" class="cls-2"/><path d="M144.36,164.5H20A19.64,19.64,0,0,1,.36,144.86V20.5A19,19,0,0,1,6.91,5.77L157.45,159.59A19.57,19.57,0,0,1,144.36,164.5Z" class="cls-3"/><path d="M15.48,142.54v.8c0,1.1.36,1.72,1.2,1.72s1.16-.74,1.16-1.86c0-1.48-.32-2-1.76-3.12s-2.18-1.84-2.18-3.81c0-1.74.52-3.44,2.8-3.44s2.72,1.58,2.72,3.14v.66H17.64V136c0-1-.18-1.64-1-1.64s-1,.68-1,1.64.2,1.54,1.4,2.42c1.94,1.45,2.54,2.29,2.54,4.51,0,1.88-.62,3.64-3,3.64s-2.94-1.5-2.94-3.26v-.78Z" class="cls-4"/><path d="M26.24,140.14h-3v4.62h3.38l-.22,1.64h-5V133H26.4v1.66H23.28v3.81h3Z" class="cls-4"/><path d="M34.3,136.47v6.45a4.33,4.33,0,0,1-.62,2.54l1.56,1.24L34.16,148l-1.9-1.52a4,4,0,0,1-1.14.14c-2.12,0-3-1.26-3-3.64v-6.48c0-2.45,1.18-3.61,3.14-3.61S34.3,134.09,34.3,136.47Zm-4.36-.16v6.83c0,1.28.46,1.82,1.26,1.82s1.28-.52,1.28-1.86v-6.79c0-1.22-.4-1.84-1.28-1.84S29.94,135.05,29.94,136.31Z" class="cls-4"/><path d="M38.14,133V143.3c0,1,.34,1.66,1.22,1.66s1.22-.66,1.22-1.66V133h1.78v10.23c0,2.08-.94,3.32-3,3.32s-3-1.1-3-3.3V133Z" class="cls-4"/><path d="M49.42,140.14h-3v4.62h3.38l-.22,1.64h-5V133h4.92v1.66H46.46v3.81h3Z" class="cls-4"/><path d="M51.4,146.4V133h2.1l2,7.41a22.53,22.53,0,0,1,.52,2.38h0c-.1-1.72-.1-3.61-.1-5.78v-4h1.66V146.4h-2L53.36,138c-.18-.71-.28-1.27-.36-1.67h0c.08,1.63.1,3.57.1,6v4.12Z" class="cls-4"/><path d="M61.22,134.69H59.06V133h6.1v1.66H63V146.4H61.22Z" class="cls-4"/><path d="M68.38,133V146.4h-1.8V133Z" class="cls-4"/><path d="M72.34,142.54l-.54,3.86H70L72.16,133H74.7L77,146.4H75.08l-.6-3.86Zm1.92-1.66c-.36-2.55-.68-4.77-.82-6.17h-.06c-.06,1.08-.5,4-.8,6.17Z" class="cls-4"/><path d="M78.5,133h1.8V144.8h3.36l-.18,1.6h-5Z" class="cls-4"/><path d="M89.8,142.54l-.54,3.86H87.44L89.62,133h2.54l2.26,13.37H92.54l-.6-3.86Zm1.92-1.66c-.36-2.55-.68-4.77-.82-6.17h-.06c-.06,1.08-.5,4-.8,6.17Z" class="cls-4"/><path d="M101.66,142.48V143c0,1.6-.28,3.62-2.94,3.62-2.4,0-2.88-1.58-2.88-3.58v-6.77c0-2.1.94-3.38,2.92-3.38,2.38,0,2.84,1.62,2.84,3.44v.56H99.8v-.76c0-1-.2-1.62-1.06-1.62s-1.06.62-1.06,1.64v7c0,1.06.22,1.82,1.1,1.82s1.06-.72,1.06-1.82v-.66Z" class="cls-4"/><path d="M104.94,134.69h-2.16V133h6.1v1.66h-2.16V146.4h-1.78Z" class="cls-4"/><path d="M112.1,133V146.4h-1.8V133Z" class="cls-4"/><path d="M115.62,133l.78,5.67c.26,1.84.6,3.9.72,5.36h0c.12-1.4.48-3.46.7-5.31l.78-5.72h1.9l-2.3,13.37H116L113.68,133Z" class="cls-4"/><path d="M123.86,133V146.4h-1.8V133Z" class="cls-4"/><path d="M127.5,134.69h-2.17V133h6.11v1.66h-2.16V146.4H127.5Z" class="cls-4"/><path d="M134.66,133V146.4h-1.8V133Z" class="cls-4"/><path d="M141.78,140.14h-3v4.62h3.38L142,146.4h-5V133h4.92v1.66h-3.12v3.81h3Z" class="cls-4"/><path d="M145.25,142.54v.8c0,1.1.37,1.72,1.21,1.72s1.16-.74,1.16-1.86c0-1.48-.33-2-1.76-3.12s-2.19-1.84-2.19-3.81c0-1.74.52-3.44,2.8-3.44s2.73,1.58,2.73,3.14v.66h-1.78V136c0-1-.18-1.64-1-1.64s-1,.68-1,1.64.2,1.54,1.41,2.42c1.94,1.45,2.54,2.29,2.54,4.51,0,1.88-.63,3.64-3,3.64s-2.95-1.5-2.95-3.26v-.78Z" class="cls-4"/></svg>