<svg width="88" height="88" viewBox="0 0 88 88" fill="none" xmlns="http://www.w3.org/2000/svg">
<g filter="url(#filter0_d)">
<mask id="mask0" mask-type="alpha" maskUnits="userSpaceOnUse" x="4" y="0" width="80" height="80">
<circle cx="44" cy="40" r="40" fill="#094492"/>
</mask>
<g mask="url(#mask0)">
<circle cx="44" cy="40" r="40" fill="#FFD300"/>
<path d="M45.319 32.2782C44.8315 30.7969 43.8864 29.5076 42.6192 28.5952C41.352 27.6828 39.8278 27.1942 38.2651 27.1994H26.7355C25.1727 27.1941 23.6484 27.6826 22.3812 28.595C21.1139 29.5074 20.1689 30.7968 19.6815 32.2782L12.2172 55.0321C12.0328 55.5857 11.9647 56.1712 12.0171 56.7522C12.1094 57.7572 12.5459 58.6998 13.253 59.4214C13.9602 60.143 14.8949 60.5995 15.8999 60.7141C16.9049 60.8287 17.9187 60.5945 18.7709 60.0507C19.6231 59.507 20.2615 58.687 20.5787 57.7287L21.8434 53.874V87.559C21.8434 88.7362 22.3121 89.8653 23.1465 90.6977C23.9808 91.5302 25.1125 91.9979 26.2924 91.9979C27.4724 91.9979 28.604 91.5302 29.4384 90.6977C30.2728 89.8653 30.7415 88.7362 30.7415 87.559V61.2014H34.2573V87.5607C34.2573 88.7381 34.7261 89.8672 35.5605 90.6998C36.395 91.5323 37.5267 92 38.7068 92C39.8869 92 41.0186 91.5323 41.8531 90.6998C42.6875 89.8672 43.1563 88.7381 43.1563 87.5607V53.8706L44.421 57.7253C44.7386 58.6833 45.3771 59.5029 46.2293 60.0464C47.0814 60.5899 48.0952 60.824 49.1 60.7094C50.1048 60.5948 51.0394 60.1385 51.7467 59.4171C52.4539 58.6958 52.8906 57.7535 52.9834 56.7487C53.0348 56.1678 52.9667 55.5825 52.7833 55.0287L45.319 32.2748V32.2782ZM28.6226 23.2505C30.0331 23.7287 31.5375 23.8654 33.0114 23.6494C34.4854 23.4334 35.8867 22.8708 37.0999 22.0081C38.313 21.1453 39.3032 20.0072 39.9887 18.6875C40.6742 17.3678 41.0354 15.9045 41.0425 14.4181C41.0505 12.6928 40.5812 10.9987 39.6861 9.52241C38.791 8.04614 37.5049 6.84496 35.9695 6.05114C34.4341 5.25733 32.7089 4.90167 30.9839 5.02334C29.2589 5.14501 27.601 5.73929 26.1928 6.74073C24.7846 7.74217 23.6807 9.11193 23.0027 10.6992C22.3247 12.2864 22.0989 14.0295 22.3501 15.7366C22.6013 17.4436 23.3199 19.0484 24.4266 20.3742C25.5333 21.6999 26.9853 22.6952 28.6226 23.2505Z" fill="white"/>
<path d="M81.9418 38.5584C81.6208 37.6049 80.9984 36.775 80.1639 36.1877C79.3294 35.6004 78.3256 35.2859 77.2965 35.2893H69.7038C68.6747 35.2858 67.6709 35.6003 66.8364 36.1876C66.0019 36.7749 65.3795 37.6048 65.0586 38.5584L60.143 53.2046C60.0216 53.5609 59.9768 53.9378 60.0113 54.3117C60.0721 54.9586 60.3595 55.5654 60.8252 56.0298C61.2909 56.4943 61.9064 56.7882 62.5682 56.862C63.23 56.9357 63.8977 56.7849 64.4589 56.435C65.0201 56.085 65.4405 55.5571 65.6494 54.9403L66.4822 52.4591V74.1414C66.4822 74.8992 66.7909 75.6259 67.3404 76.1618C67.8898 76.6976 68.635 76.9986 69.4121 76.9986C70.1891 76.9986 70.9344 76.6976 71.4838 76.1618C72.0333 75.6259 72.342 74.8992 72.342 74.1414V57.1756H74.6573V74.1425C74.6573 74.9004 74.966 75.6272 75.5155 76.1631C76.065 76.6989 76.8103 77 77.5874 77C78.3645 77 79.1098 76.6989 79.6593 76.1631C80.2088 75.6272 80.5176 74.9004 80.5176 74.1425V52.4569L81.3504 54.9381C81.5596 55.5548 81.9801 56.0823 82.5412 56.4322C83.1024 56.782 83.77 56.9327 84.4317 56.8589C85.0934 56.7852 85.7089 56.4914 86.1746 56.0271C86.6404 55.5628 86.928 54.9563 86.9891 54.3095C87.0229 53.9356 86.9781 53.5588 86.8573 53.2024L81.9418 38.5562V38.5584ZM70.9466 32.7475C71.8755 33.0553 72.8661 33.1433 73.8368 33.0042C74.8074 32.8652 75.7303 32.503 76.5292 31.9477C77.3281 31.3924 77.9802 30.6598 78.4316 29.8104C78.883 28.9609 79.1209 28.019 79.1256 27.0622C79.1308 25.9517 78.8217 24.8612 78.2323 23.911C77.6429 22.9607 76.7959 22.1876 75.7848 21.6766C74.7737 21.1656 73.6376 20.9367 72.5016 21.015C71.3656 21.0933 70.2738 21.4759 69.3465 22.1205C68.4191 22.7651 67.6922 23.6468 67.2457 24.6684C66.7992 25.6901 66.6505 26.8121 66.8159 27.9109C66.9814 29.0097 67.4546 30.0426 68.1834 30.896C68.9122 31.7494 69.8683 32.39 70.9466 32.7475Z" fill="#B9B9B9"/>
<path d="M75.9418 42.5584C75.6208 41.6049 74.9984 40.775 74.1639 40.1877C73.3294 39.6004 72.3256 39.2859 71.2965 39.2893H63.7038C62.6747 39.2858 61.6709 39.6003 60.8364 40.1876C60.0019 40.7749 59.3795 41.6048 59.0586 42.5584L54.143 57.2046C54.0216 57.5609 53.9768 57.9378 54.0113 58.3117C54.0721 58.9586 54.3595 59.5654 54.8252 60.0298C55.2909 60.4943 55.9064 60.7882 56.5682 60.862C57.23 60.9357 57.8977 60.7849 58.4589 60.435C59.0201 60.085 59.4405 59.5571 59.6494 58.9403L60.4822 56.4591V78.1414C60.4822 78.8992 60.7909 79.6259 61.3404 80.1618C61.8898 80.6976 62.635 80.9986 63.4121 80.9986C64.1891 80.9986 64.9344 80.6976 65.4838 80.1618C66.0333 79.6259 66.342 78.8992 66.342 78.1414V61.1756H68.6573V78.1425C68.6573 78.9004 68.966 79.6272 69.5155 80.1631C70.065 80.6989 70.8103 81 71.5874 81C72.3645 81 73.1098 80.6989 73.6593 80.1631C74.2088 79.6272 74.5176 78.9004 74.5176 78.1425V56.4569L75.3504 58.9381C75.5596 59.5548 75.9801 60.0823 76.5412 60.4322C77.1024 60.782 77.77 60.9327 78.4317 60.8589C79.0934 60.7852 79.7089 60.4914 80.1746 60.0271C80.6404 59.5628 80.928 58.9563 80.9891 58.3095C81.0229 57.9356 80.9781 57.5588 80.8573 57.2024L75.9418 42.5562V42.5584ZM64.9466 36.7475C65.8755 37.0553 66.8661 37.1433 67.8368 37.0042C68.8074 36.8652 69.7303 36.503 70.5292 35.9477C71.3281 35.3924 71.9802 34.6598 72.4316 33.8104C72.883 32.9609 73.1209 32.019 73.1256 31.0622C73.1308 29.9517 72.8217 28.8612 72.2323 27.911C71.6429 26.9607 70.7959 26.1876 69.7848 25.6766C68.7737 25.1656 67.6376 24.9367 66.5016 25.015C65.3656 25.0933 64.2738 25.4759 63.3465 26.1205C62.4191 26.7651 61.6922 27.6468 61.2457 28.6684C60.7992 29.6901 60.6505 30.8121 60.8159 31.9109C60.9814 33.0097 61.4546 34.0426 62.1834 34.896C62.9122 35.7494 63.8683 36.39 64.9466 36.7475Z" fill="#D5D2D2"/>
<path d="M69.9418 46.5584C69.6208 45.6049 68.9984 44.775 68.1639 44.1877C67.3294 43.6004 66.3256 43.2859 65.2965 43.2893H57.7038C56.6747 43.2858 55.6709 43.6003 54.8364 44.1876C54.0019 44.7749 53.3795 45.6048 53.0586 46.5584L48.143 61.2046C48.0216 61.5609 47.9768 61.9378 48.0113 62.3117C48.0721 62.9586 48.3595 63.5654 48.8252 64.0298C49.2909 64.4943 49.9064 64.7882 50.5682 64.862C51.23 64.9357 51.8977 64.7849 52.4589 64.435C53.0201 64.085 53.4405 63.5571 53.6494 62.9403L54.4822 60.4591V82.1414C54.4822 82.8992 54.7909 83.6259 55.3404 84.1618C55.8898 84.6976 56.635 84.9986 57.4121 84.9986C58.1891 84.9986 58.9344 84.6976 59.4838 84.1618C60.0333 83.6259 60.342 82.8992 60.342 82.1414V65.1756H62.6573V82.1425C62.6573 82.9004 62.966 83.6272 63.5155 84.1631C64.065 84.6989 64.8103 85 65.5874 85C66.3645 85 67.1098 84.6989 67.6593 84.1631C68.2088 83.6272 68.5176 82.9004 68.5176 82.1425V60.4569L69.3504 62.9381C69.5596 63.5548 69.9801 64.0823 70.5412 64.4322C71.1024 64.782 71.77 64.9327 72.4317 64.8589C73.0934 64.7852 73.7089 64.4914 74.1746 64.0271C74.6404 63.5628 74.928 62.9563 74.9891 62.3095C75.0229 61.9356 74.9781 61.5588 74.8573 61.2024L69.9418 46.5562V46.5584ZM58.9466 40.7475C59.8755 41.0553 60.8661 41.1433 61.8368 41.0042C62.8074 40.8652 63.7303 40.503 64.5292 39.9477C65.3281 39.3924 65.9802 38.6598 66.4316 37.8104C66.883 36.9609 67.1209 36.019 67.1256 35.0622C67.1308 33.9517 66.8217 32.8612 66.2323 31.911C65.6429 30.9607 64.7959 30.1876 63.7848 29.6766C62.7737 29.1656 61.6376 28.9367 60.5016 29.015C59.3656 29.0933 58.2738 29.4759 57.3465 30.1205C56.4191 30.7651 55.6922 31.6468 55.2457 32.6684C54.7992 33.6901 54.6505 34.8121 54.8159 35.9109C54.9814 37.0097 55.4546 38.0426 56.1834 38.896C56.9122 39.7494 57.8683 40.39 58.9466 40.7475Z" fill="white"/>
</g>
</g>
<defs>
<filter id="filter0_d" x="0" y="0" width="88" height="88" filterUnits="userSpaceOnUse" color-interpolation-filters="sRGB">
<feFlood flood-opacity="0" result="BackgroundImageFix"/>
<feColorMatrix in="SourceAlpha" type="matrix" values="0 0 0 0 0 0 0 0 0 0 0 0 0 0 0 0 0 0 127 0"/>
<feOffset dy="4"/>
<feGaussianBlur stdDeviation="2"/>
<feColorMatrix type="matrix" values="0 0 0 0 0 0 0 0 0 0 0 0 0 0 0 0 0 0 0.25 0"/>
<feBlend mode="normal" in2="BackgroundImageFix" result="effect1_dropShadow"/>
<feBlend mode="normal" in="SourceGraphic" in2="effect1_dropShadow" result="shape"/>
</filter>
</defs>
</svg>
