<svg xmlns="http://www.w3.org/2000/svg" xmlns:xlink="http://www.w3.org/1999/xlink" fill="none" stroke="none" stroke-linecap="square" stroke-miterlimit="10" version="1.1" viewBox="0 0 474.95 545.346"><clipPath id="p.0"><path d="m0 0l474.95013 0l0 545.34644l-474.95013 0l0 -545.34644z" clip-rule="nonzero"/></clipPath><g clip-path="url(#p.0)"><path fill="#000" fill-opacity="0" fill-rule="evenodd" d="m0 0l474.95013 0l0 545.34644l-474.95013 0z"/><path fill="#fff" fill-rule="evenodd" d="m18.700787 99.66013l0 0c0 -37.07485 30.055103 -67.12995 67.12996 -67.12995l268.51175 0l0 0c17.803955 0 34.878723 7.0726013 47.46805 19.661911c12.589294 12.58931 19.661896 29.66407 19.661896 47.46804l0 329.99207c0 37.07486 -30.055115 67.129974 -67.129944 67.129974l-268.51175 0c-37.074852 0 -67.12996 -30.055115 -67.12996 -67.129974z"/><path fill-rule="evenodd" stroke="#e55529" stroke-linecap="butt" stroke-linejoin="round" stroke-width="24" d="m18.700787 99.66013l0 0c0 -37.07485 30.055103 -67.12995 67.12996 -67.12995l268.51175 0l0 0c17.803955 0 34.878723 7.0726013 47.46805 19.661911c12.589294 12.58931 19.661896 29.66407 19.661896 47.46804l0 329.99207c0 37.07486 -30.055115 67.129974 -67.129944 67.129974l-268.51175 0c-37.074852 0 -67.12996 -30.055115 -67.12996 -67.129974z"/><path fill="#000" fill-opacity="0" fill-rule="evenodd" d="m83.17585 131.80577l181.79529 0"/><path fill-rule="evenodd" stroke="#e55529" stroke-linecap="butt" stroke-linejoin="round" stroke-width="24" d="m83.17585 131.80577l181.79529 0"/><path fill="#000" fill-opacity="0" fill-rule="evenodd" d="m83.17585 204.67455l262.86615 0"/><path fill-rule="evenodd" stroke="#e55529" stroke-linecap="butt" stroke-linejoin="round" stroke-width="24" d="m83.17585 204.67455l262.86615 0"/><path fill="#000" fill-opacity="0" fill-rule="evenodd" d="m83.17585 277.5433l262.86615 0"/><path fill-rule="evenodd" stroke="#e55529" stroke-linecap="butt" stroke-linejoin="round" stroke-width="24" d="m83.17585 277.5433l262.86615 0"/><path fill="#000" fill-opacity="0" fill-rule="evenodd" d="m83.17585 350.41208l252.1575 0.881897"/><path fill-rule="evenodd" stroke="#e55529" stroke-linecap="butt" stroke-linejoin="round" stroke-width="24" d="m83.17585 350.41208l252.1575 0.881897"/><path fill="#000" fill-opacity="0" fill-rule="evenodd" d="m83.17585 424.16272l223.65356 0"/><path fill-rule="evenodd" stroke="#e55529" stroke-linecap="butt" stroke-linejoin="round" stroke-width="24" d="m83.17585 424.16272l223.65356 0"/><path fill="#e55529" fill-rule="evenodd" d="m264.97113 430.83728l0 0c0 -53.39334 43.283844 -96.677185 96.677155 -96.677185l0 0c25.64038 0 50.23059 10.185608 68.361084 28.316101c18.130493 18.130493 28.316101 42.720703 28.316101 68.361084l0 0c0 53.39331 -43.283844 96.677185 -96.677185 96.677185l0 0c-53.39331 0 -96.677155 -43.283875 -96.677155 -96.677185z"/><path fill-rule="evenodd" stroke="#fff" stroke-linecap="butt" stroke-linejoin="round" stroke-width="24" d="m264.97113 430.83728l0 0c0 -53.39334 43.283844 -96.677185 96.677155 -96.677185l0 0c25.64038 0 50.23059 10.185608 68.361084 28.316101c18.130493 18.130493 28.316101 42.720703 28.316101 68.361084l0 0c0 53.39331 -43.283844 96.677185 -96.677185 96.677185l0 0c-53.39331 0 -96.677155 -43.283875 -96.677155 -96.677185z"/><path fill="#fff" fill-rule="evenodd" d="m319.73007 417.4216l28.502563 0l0 -28.502563l26.83133 0l0 28.502563l28.502563 0l0 26.83133l-28.502563 0l0 28.502563l-26.83133 0l0 -28.502563l-28.502563 0z"/><path fill-rule="evenodd" stroke="#e55529" stroke-linecap="butt" stroke-linejoin="round" stroke-width="1" d="m319.73007 417.4216l28.502563 0l0 -28.502563l26.83133 0l0 28.502563l28.502563 0l0 26.83133l-28.502563 0l0 28.502563l-26.83133 0l0 -28.502563l-28.502563 0z"/><path fill="#e55529" fill-rule="evenodd" d="m75.17585 3.5695539l23.181107 0l0 60.598423l-23.181107 0z"/><path fill-rule="evenodd" stroke="#e55529" stroke-linecap="butt" stroke-linejoin="round" stroke-width="1" d="m75.17585 3.5695539l23.181107 0l0 60.598423l-23.181107 0z"/><path fill="#fff" fill-rule="evenodd" d="m98.35696 3.5695539l10.677162 0l0 60.598423l-10.677162 0z"/><path fill="#e55529" fill-rule="evenodd" d="m139.17586 3.5695539l23.181091 0l0 60.598423l-23.181091 0z"/><path fill-rule="evenodd" stroke="#e55529" stroke-linecap="butt" stroke-linejoin="round" stroke-width="1" d="m139.17586 3.5695539l23.181091 0l0 60.598423l-23.181091 0z"/><path fill="#fff" fill-rule="evenodd" d="m162.35695 3.5695539l10.67717 0l0 60.598423l-10.67717 0z"/><path fill="#e55529" fill-rule="evenodd" d="m203.17586 3.5695539l23.181091 0l0 60.598423l-23.181091 0z"/><path fill-rule="evenodd" stroke="#e55529" stroke-linecap="butt" stroke-linejoin="round" stroke-width="1" d="m203.17586 3.5695539l23.181091 0l0 60.598423l-23.181091 0z"/><path fill="#fff" fill-rule="evenodd" d="m226.35695 3.5695539l10.67717 0l0 60.598423l-10.67717 0z"/><path fill="#e55529" fill-rule="evenodd" d="m267.17584 3.5695539l23.181122 0l0 60.598423l-23.181122 0z"/><path fill-rule="evenodd" stroke="#e55529" stroke-linecap="butt" stroke-linejoin="round" stroke-width="1" d="m267.17584 3.5695539l23.181122 0l0 60.598423l-23.181122 0z"/><path fill="#fff" fill-rule="evenodd" d="m290.35696 3.5695539l10.677155 0l0 60.598423l-10.677155 0z"/><path fill="#e55529" fill-rule="evenodd" d="m331.17584 3.5695539l23.181122 0l0 60.598423l-23.181122 0z"/><path fill-rule="evenodd" stroke="#e55529" stroke-linecap="butt" stroke-linejoin="round" stroke-width="1" d="m331.17584 3.5695539l23.181122 0l0 60.598423l-23.181122 0z"/><path fill="#fff" fill-rule="evenodd" d="m354.35696 3.5695539l10.677155 0l0 60.598423l-10.677155 0z"/></g></svg>