<svg xmlns="http://www.w3.org/2000/svg" width="103.468" height="119.386" viewBox="0 0 103.468 119.386"><path id="Waiting" fill="#fff" d="M195.664,145.679a7.445,7.445,0,0,1-1.891-.245v24.485a4.027,4.027,0,0,0,1.335.307c2.56,0,4.635-2.371,4.635-5.3V144.359a7.861,7.861,0,0,1-1.485.845,7.347,7.347,0,0,1-2.594.476Zm25.09-47.127a8.514,8.514,0,0,0-8.112-5.928H199.385a8.4,8.4,0,0,0-6.148,2.771c-.295.4-.613.782-.946,1.152a8.939,8.939,0,0,0-.508,1,12.7,12.7,0,0,1,7.9,8.108l8.584,26.559a9.237,9.237,0,0,1,.421,3.666,9.351,9.351,0,0,1-.654,2.715v24.491a5.117,5.117,0,1,0,10.234,0V123.762l1.455,4.5a5.059,5.059,0,0,0,9.616-3.147l-8.585-26.564ZM201.2,88.014A10.916,10.916,0,1,0,193.774,77.7,10.84,10.84,0,0,0,201.2,88.014Zm-8.3,18.5a8.516,8.516,0,0,0-8.112-5.929H171.529a8.4,8.4,0,0,0-6.148,2.771c-.3.4-.613.782-.945,1.152a8.355,8.355,0,0,0-.508,1,12.706,12.706,0,0,1,7.9,8.108l8.583,26.558a9.268,9.268,0,0,1-.233,6.38v24.493a5.117,5.117,0,1,0,10.235,0V131.722l1.455,4.5a5.063,5.063,0,0,0,4.807,3.516,5,5,0,0,0,1.565-.252,5.078,5.078,0,0,0,3.474-4.4,5.024,5.024,0,0,0-.23-2.008L192.9,106.513Zm-21.11,47.124a7.438,7.438,0,0,1-1.892-.245v24.486a4.032,4.032,0,0,0,1.335.307c2.56,0,4.635-2.371,4.635-5.3V152.318a7.794,7.794,0,0,1-1.483.843,7.352,7.352,0,0,1-2.594.476Zm1.55-57.664A10.944,10.944,0,0,0,187.8,85.661a10.944,10.944,0,1,0-14.466,10.312Zm-8.41,20.489a8.617,8.617,0,0,0-8.216-5.929H143.285a8.616,8.616,0,0,0-8.216,5.929l-8.694,26.563a4.959,4.959,0,0,0-.233,2.008,5.126,5.126,0,0,0,9.972,1.14l1.473-4.5v39.324a5.182,5.182,0,0,0,10.364,0v-30.77h4.095V181a5.182,5.182,0,0,0,10.365,0V141.67l1.473,4.5a5.127,5.127,0,0,0,9.973-1.14,5,5,0,0,0-.233-2.008l-8.694-26.563Zm-19.447-10.539a10.945,10.945,0,0,0,14.466-10.311,10.944,10.944,0,1,0-14.466,10.311Z" transform="translate(-126.122 -66.757)"/></svg>