<svg xmlns="http://www.w3.org/2000/svg" xmlns:xlink="http://www.w3.org/1999/xlink" fill="none" stroke="none" stroke-linecap="square" stroke-miterlimit="10" version="1.1" viewBox="0 0 960 720"><clipPath id="p.0"><path d="m0 0l960.0 0l0 720.0l-960.0 0l0 -720.0z" clip-rule="nonzero"/></clipPath><g clip-path="url(#p.0)"><path fill="#000" fill-opacity="0" fill-rule="evenodd" d="m0 0l960.0 0l0 720.0l-960.0 0z"/><path fill="#c4e0f3" fill-rule="evenodd" d="m120.0 360.0l0 0c0 -198.82251 161.17749 -360.0 360.0 -360.0l0 0c95.47797 0 187.04535 37.928463 254.55847 105.44156c67.51306 67.51309 105.44153 159.0805 105.44153 254.55844l0 0c0 198.82251 -161.17749 360.0 -360.0 360.0l0 0c-198.82251 0 -360.0 -161.17749 -360.0 -360.0z"/><path fill="#e55529" fill-rule="evenodd" d="m493.25314 90.61044l0 0c0 -30.661915 27.053253 -55.51831 60.42514 -55.51831l0 0c33.371887 0 60.42517 24.856396 60.42517 55.51831l0 0c0 30.661919 -27.053284 55.51831 -60.42517 55.51831l0 0c-33.371887 0 -60.42514 -24.856392 -60.42514 -55.51831z"/><path fill-rule="evenodd" stroke="#e55529" stroke-linecap="butt" stroke-linejoin="round" stroke-width="1" d="m493.25314 90.61044l0 0c0 -30.661915 27.053253 -55.51831 60.42514 -55.51831l0 0c33.371887 0 60.42517 24.856396 60.42517 55.51831l0 0c0 30.661919 -27.053284 55.51831 -60.42517 55.51831l0 0c-33.371887 0 -60.42514 -24.856392 -60.42514 -55.51831z"/><path fill="#e55529" fill-rule="evenodd" d="m482.761 161.58517l0 0c0 -8.536346 6.920105 -15.456421 15.456451 -15.456421l110.92172 0c4.099304 0 8.030701 1.6284332 10.929321 4.5270844c2.8986816 2.8986359 4.5270996 6.8300476 4.5270996 10.929337l0 61.823853c0 8.536346 -6.920105 15.456436 -15.456421 15.456436l-110.92172 0c-8.536346 0 -15.456451 -6.9200897 -15.456451 -15.456436z"/><path fill-rule="evenodd" stroke="#e55529" stroke-linecap="butt" stroke-linejoin="round" stroke-width="1" d="m482.761 161.58517l0 0c0 -8.536346 6.920105 -15.456421 15.456451 -15.456421l110.92172 0c4.099304 0 8.030701 1.6284332 10.929321 4.5270844c2.8986816 2.8986359 4.5270996 6.8300476 4.5270996 10.929337l0 61.823853c0 8.536346 -6.920105 15.456436 -15.456421 15.456436l-110.92172 0c-8.536346 0 -15.456451 -6.9200897 -15.456451 -15.456436z"/><path fill="#0988ec" fill-rule="evenodd" d="m348.65866 89.66031l0 0c0 -30.661911 27.053253 -55.518307 60.42514 -55.518307l0 0c33.371887 0 60.42514 24.856396 60.42514 55.518307l0 0c0 30.661919 -27.053253 55.51831 -60.42514 55.51831l0 0c-33.371887 0 -60.42514 -24.856392 -60.42514 -55.51831z"/><path fill-rule="evenodd" stroke="#0988ec" stroke-linecap="butt" stroke-linejoin="round" stroke-width="1" d="m348.65866 89.66031l0 0c0 -30.661911 27.053253 -55.518307 60.42514 -55.518307l0 0c33.371887 0 60.42514 24.856396 60.42514 55.518307l0 0c0 30.661919 -27.053253 55.51831 -60.42514 55.51831l0 0c-33.371887 0 -60.42514 -24.856392 -60.42514 -55.51831z"/><path fill="#0988ec" fill-rule="evenodd" d="m338.1665 160.63506l0 0c0 -8.536362 6.9200745 -15.456436 15.456421 -15.456436l110.92172 0c4.099304 0 8.030731 1.6284485 10.929352 4.5270844c2.8986511 2.8986511 4.5270996 6.8300476 4.5270996 10.929352l0 61.823837c0 8.536362 -6.9200745 15.456436 -15.456451 15.456436l-110.92172 0c-8.536346 0 -15.456421 -6.9200745 -15.456421 -15.456436z"/><path fill-rule="evenodd" stroke="#0988ec" stroke-linecap="butt" stroke-linejoin="round" stroke-width="1" d="m338.1665 160.63506l0 0c0 -8.536362 6.9200745 -15.456436 15.456421 -15.456436l110.92172 0c4.099304 0 8.030731 1.6284485 10.929352 4.5270844c2.8986511 2.8986511 4.5270996 6.8300476 4.5270996 10.929352l0 61.823837c0 8.536362 -6.9200745 15.456436 -15.456451 15.456436l-110.92172 0c-8.536346 0 -15.456421 -6.9200745 -15.456421 -15.456436z"/><path fill="#ffd300" fill-rule="evenodd" d="m261.25446 189.5737l0 0c0 -30.661911 27.053253 -55.51831 60.42514 -55.51831l0 0c33.371887 0 60.42514 24.8564 60.42514 55.51831l0 0c0 30.661911 -27.053253 55.51831 -60.42514 55.51831l0 0c-33.371887 0 -60.42514 -24.8564 -60.42514 -55.51831z"/><path fill-rule="evenodd" stroke="#ffd300" stroke-linecap="butt" stroke-linejoin="round" stroke-width="1" d="m261.25446 189.5737l0 0c0 -30.661911 27.053253 -55.51831 60.42514 -55.51831l0 0c33.371887 0 60.42514 24.8564 60.42514 55.51831l0 0c0 30.661911 -27.053253 55.51831 -60.42514 55.51831l0 0c-33.371887 0 -60.42514 -24.8564 -60.42514 -55.51831z"/><path fill="#ffd300" fill-rule="evenodd" d="m250.76231 260.54843l0 0c0 -8.536346 6.9200897 -15.456421 15.456436 -15.456421l110.92172 0c4.099304 0 8.030701 1.6284332 10.929321 4.5270844c2.8986511 2.8986359 4.5270996 6.8300323 4.5270996 10.929337l0 61.823853c0 8.536346 -6.9200745 15.456421 -15.456421 15.456421l-110.92172 0c-8.536346 0 -15.456436 -6.9200745 -15.456436 -15.456421z"/><path fill-rule="evenodd" stroke="#ffd300" stroke-linecap="butt" stroke-linejoin="round" stroke-width="1" d="m250.76231 260.54843l0 0c0 -8.536346 6.9200897 -15.456421 15.456436 -15.456421l110.92172 0c4.099304 0 8.030701 1.6284332 10.929321 4.5270844c2.8986511 2.8986359 4.5270996 6.8300323 4.5270996 10.929337l0 61.823853c0 8.536346 -6.9200745 15.456421 -15.456421 15.456421l-110.92172 0c-8.536346 0 -15.456436 -6.9200745 -15.456436 -15.456421z"/><path fill="#009365" fill-rule="evenodd" d="m583.1941 189.5737l0 0c0 -30.661911 27.053284 -55.51831 60.42517 -55.51831l0 0c33.371826 0 60.42511 24.8564 60.42511 55.51831l0 0c0 30.661911 -27.053284 55.51831 -60.42511 55.51831l0 0c-33.371887 0 -60.42517 -24.8564 -60.42517 -55.51831z"/><path fill-rule="evenodd" stroke="#009365" stroke-linecap="butt" stroke-linejoin="round" stroke-width="1" d="m583.1941 189.5737l0 0c0 -30.661911 27.053284 -55.51831 60.42517 -55.51831l0 0c33.371826 0 60.42511 24.8564 60.42511 55.51831l0 0c0 30.661911 -27.053284 55.51831 -60.42511 55.51831l0 0c-33.371887 0 -60.42517 -24.8564 -60.42517 -55.51831z"/><path fill="#009365" fill-rule="evenodd" d="m572.70197 260.54843l0 0c0 -8.536346 6.920044 -15.456421 15.456421 -15.456421l110.92169 0c4.099304 0 8.030701 1.6284332 10.929382 4.5270844c2.8986206 2.8986359 4.5270386 6.8300323 4.5270386 10.929337l0 61.823853c0 8.536346 -6.920044 15.456421 -15.456421 15.456421l-110.92169 0c-8.536377 0 -15.456421 -6.9200745 -15.456421 -15.456421z"/><path fill-rule="evenodd" stroke="#009365" stroke-linecap="butt" stroke-linejoin="round" stroke-width="1" d="m572.70197 260.54843l0 0c0 -8.536346 6.920044 -15.456421 15.456421 -15.456421l110.92169 0c4.099304 0 8.030701 1.6284332 10.929382 4.5270844c2.8986206 2.8986359 4.5270386 6.8300323 4.5270386 10.929337l0 61.823853c0 8.536346 -6.920044 15.456421 -15.456421 15.456421l-110.92169 0c-8.536377 0 -15.456421 -6.9200745 -15.456421 -15.456421z"/><path fill="#6f39c4" fill-rule="evenodd" d="m421.25446 189.5737l0 0c0 -30.661911 27.053253 -55.51831 60.42514 -55.51831l0 0c33.371857 0 60.42514 24.8564 60.42514 55.51831l0 0c0 30.661911 -27.053284 55.51831 -60.42514 55.51831l0 0c-33.371887 0 -60.42514 -24.8564 -60.42514 -55.51831z"/><path fill-rule="evenodd" stroke="#6f39c4" stroke-linecap="butt" stroke-linejoin="round" stroke-width="1" d="m421.25446 189.5737l0 0c0 -30.661911 27.053253 -55.51831 60.42514 -55.51831l0 0c33.371857 0 60.42514 24.8564 60.42514 55.51831l0 0c0 30.661911 -27.053284 55.51831 -60.42514 55.51831l0 0c-33.371887 0 -60.42514 -24.8564 -60.42514 -55.51831z"/><path fill="#6f39c4" fill-rule="evenodd" d="m410.7623 260.54843l0 0c0 -8.536346 6.920105 -15.456421 15.456451 -15.456421l110.92169 0c4.099304 0 8.030701 1.6284332 10.929382 4.5270844c2.8986206 2.8986359 4.5270386 6.8300323 4.5270386 10.929337l0 61.823853c0 8.536346 -6.920044 15.456421 -15.456421 15.456421l-110.92169 0c-8.536346 0 -15.456451 -6.9200745 -15.456451 -15.456421z"/><path fill-rule="evenodd" stroke="#6f39c4" stroke-linecap="butt" stroke-linejoin="round" stroke-width="1" d="m410.7623 260.54843l0 0c0 -8.536346 6.920105 -15.456421 15.456451 -15.456421l110.92169 0c4.099304 0 8.030701 1.6284332 10.929382 4.5270844c2.8986206 2.8986359 4.5270386 6.8300323 4.5270386 10.929337l0 61.823853c0 8.536346 -6.920044 15.456421 -15.456421 15.456421l-110.92169 0c-8.536346 0 -15.456451 -6.9200745 -15.456451 -15.456421z"/><path fill="#4fd9b3" fill-rule="evenodd" d="m344.25183 285.5737l0 0c0 -30.661911 27.053253 -55.51831 60.42514 -55.51831l0 0c33.371887 0 60.42514 24.8564 60.42514 55.51831l0 0c0 30.661926 -27.053253 55.51831 -60.42514 55.51831l0 0c-33.371887 0 -60.42514 -24.856384 -60.42514 -55.51831z"/><path fill-rule="evenodd" stroke="#4fd9b3" stroke-linecap="butt" stroke-linejoin="round" stroke-width="1" d="m344.25183 285.5737l0 0c0 -30.661911 27.053253 -55.51831 60.42514 -55.51831l0 0c33.371887 0 60.42514 24.8564 60.42514 55.51831l0 0c0 30.661926 -27.053253 55.51831 -60.42514 55.51831l0 0c-33.371887 0 -60.42514 -24.856384 -60.42514 -55.51831z"/><path fill="#4fd9b3" fill-rule="evenodd" d="m333.75967 356.54843l0 0c0 -8.536346 6.920105 -15.456421 15.456451 -15.456421l110.92172 0c4.099304 0 8.030701 1.6284485 10.929321 4.527069c2.8986511 2.8986511 4.5270996 6.8300476 4.5270996 10.929352l0 61.823853c0 8.536346 -6.9200745 15.456421 -15.456421 15.456421l-110.92172 0c-8.536346 0 -15.456451 -6.9200745 -15.456451 -15.456421z"/><path fill-rule="evenodd" stroke="#4fd9b3" stroke-linecap="butt" stroke-linejoin="round" stroke-width="1" d="m333.75967 356.54843l0 0c0 -8.536346 6.920105 -15.456421 15.456451 -15.456421l110.92172 0c4.099304 0 8.030701 1.6284485 10.929321 4.527069c2.8986511 2.8986511 4.5270996 6.8300476 4.5270996 10.929352l0 61.823853c0 8.536346 -6.9200745 15.456421 -15.456421 15.456421l-110.92172 0c-8.536346 0 -15.456451 -6.9200745 -15.456451 -15.456421z"/><path fill="#e99c2e" fill-rule="evenodd" d="m501.25446 285.5737l0 0c0 -30.661911 27.053284 -55.51831 60.42517 -55.51831l0 0c33.371826 0 60.42511 24.8564 60.42511 55.51831l0 0c0 30.661926 -27.053284 55.51831 -60.42511 55.51831l0 0c-33.371887 0 -60.42517 -24.856384 -60.42517 -55.51831z"/><path fill-rule="evenodd" stroke="#e99c2e" stroke-linecap="butt" stroke-linejoin="round" stroke-width="1" d="m501.25446 285.5737l0 0c0 -30.661911 27.053284 -55.51831 60.42517 -55.51831l0 0c33.371826 0 60.42511 24.8564 60.42511 55.51831l0 0c0 30.661926 -27.053284 55.51831 -60.42511 55.51831l0 0c-33.371887 0 -60.42517 -24.856384 -60.42517 -55.51831z"/><path fill="#e99c2e" fill-rule="evenodd" d="m490.7623 356.54843l0 0c0 -8.536346 6.920105 -15.456421 15.456451 -15.456421l110.92169 0c4.099304 0 8.030701 1.6284485 10.929382 4.527069c2.8986206 2.8986511 4.5270386 6.8300476 4.5270386 10.929352l0 61.823853c0 8.536346 -6.920044 15.456421 -15.456421 15.456421l-110.92169 0c-8.536346 0 -15.456451 -6.9200745 -15.456451 -15.456421z"/><path fill-rule="evenodd" stroke="#e99c2e" stroke-linecap="butt" stroke-linejoin="round" stroke-width="1" d="m490.7623 356.54843l0 0c0 -8.536346 6.920105 -15.456421 15.456451 -15.456421l110.92169 0c4.099304 0 8.030701 1.6284485 10.929382 4.527069c2.8986206 2.8986511 4.5270386 6.8300476 4.5270386 10.929352l0 61.823853c0 8.536346 -6.920044 15.456421 -15.456421 15.456421l-110.92169 0c-8.536346 0 -15.456451 -6.9200745 -15.456451 -15.456421z"/><path fill="#ffd300" fill-rule="evenodd" d="m661.4224 337.63144l0 0c0 -30.661926 27.053284 -55.51831 60.42517 -55.51831l0 0c33.371887 0 60.42511 24.856384 60.42511 55.51831l0 0c0 30.661926 -27.053223 55.51831 -60.42511 55.51831l0 0c-33.371887 0 -60.42517 -24.856384 -60.42517 -55.51831z"/><path fill-rule="evenodd" stroke="#ffd300" stroke-linecap="butt" stroke-linejoin="round" stroke-width="1" d="m661.4224 337.63144l0 0c0 -30.661926 27.053284 -55.51831 60.42517 -55.51831l0 0c33.371887 0 60.42511 24.856384 60.42511 55.51831l0 0c0 30.661926 -27.053223 55.51831 -60.42511 55.51831l0 0c-33.371887 0 -60.42517 -24.856384 -60.42517 -55.51831z"/><path fill="#ffd300" fill-rule="evenodd" d="m650.9303 408.60617l0 0c0 -8.536346 6.920044 -15.456421 15.456421 -15.456421l110.92175 0c4.099243 0 8.030701 1.6284485 10.929321 4.527069c2.8986206 2.8986511 4.5270996 6.8300476 4.5270996 10.929352l0 61.823853c0 8.536346 -6.920105 15.456421 -15.456421 15.456421l-110.92175 0c-8.536377 0 -15.456421 -6.9200745 -15.456421 -15.456421z"/><path fill-rule="evenodd" stroke="#ffd300" stroke-linecap="butt" stroke-linejoin="round" stroke-width="1" d="m650.9303 408.60617l0 0c0 -8.536346 6.920044 -15.456421 15.456421 -15.456421l110.92175 0c4.099243 0 8.030701 1.6284485 10.929321 4.527069c2.8986206 2.8986511 4.5270996 6.8300476 4.5270996 10.929352l0 61.823853c0 8.536346 -6.920105 15.456421 -15.456421 15.456421l-110.92175 0c-8.536377 0 -15.456421 -6.9200745 -15.456421 -15.456421z"/><path fill="#0988ec" fill-rule="evenodd" d="m546.41455 393.63144l0 0c0 -30.661926 27.053284 -55.51831 60.42517 -55.51831l0 0c33.371887 0 60.42511 24.856384 60.42511 55.51831l0 0c0 30.661926 -27.053223 55.51831 -60.42511 55.51831l0 0c-33.371887 0 -60.42517 -24.856384 -60.42517 -55.51831z"/><path fill-rule="evenodd" stroke="#0988ec" stroke-linecap="butt" stroke-linejoin="round" stroke-width="1" d="m546.41455 393.63144l0 0c0 -30.661926 27.053284 -55.51831 60.42517 -55.51831l0 0c33.371887 0 60.42511 24.856384 60.42511 55.51831l0 0c0 30.661926 -27.053223 55.51831 -60.42511 55.51831l0 0c-33.371887 0 -60.42517 -24.856384 -60.42517 -55.51831z"/><path fill="#0988ec" fill-rule="evenodd" d="m535.9224 464.60617l0 0c0 -8.536346 6.920044 -15.456421 15.456421 -15.456421l110.92175 0c4.099243 0 8.030701 1.6284485 10.929321 4.527069c2.8986206 2.8986511 4.5270996 6.8300476 4.5270996 10.929352l0 61.823883c0 8.536316 -6.920105 15.456421 -15.456421 15.456421l-110.92175 0c-8.536377 0 -15.456421 -6.920105 -15.456421 -15.456421z"/><path fill-rule="evenodd" stroke="#0988ec" stroke-linecap="butt" stroke-linejoin="round" stroke-width="1" d="m535.9224 464.60617l0 0c0 -8.536346 6.920044 -15.456421 15.456421 -15.456421l110.92175 0c4.099243 0 8.030701 1.6284485 10.929321 4.527069c2.8986206 2.8986511 4.5270996 6.8300476 4.5270996 10.929352l0 61.823883c0 8.536316 -6.920105 15.456421 -15.456421 15.456421l-110.92175 0c-8.536377 0 -15.456421 -6.920105 -15.456421 -15.456421z"/><path fill="#009365" fill-rule="evenodd" d="m182.08911 337.63144l0 0c0 -30.661926 27.053253 -55.51831 60.42514 -55.51831l0 0c33.371887 0 60.42514 24.856384 60.42514 55.51831l0 0c0 30.661926 -27.053253 55.51831 -60.42514 55.51831l0 0c-33.371887 0 -60.42514 -24.856384 -60.42514 -55.51831z"/><path fill-rule="evenodd" stroke="#009365" stroke-linecap="butt" stroke-linejoin="round" stroke-width="1" d="m182.08911 337.63144l0 0c0 -30.661926 27.053253 -55.51831 60.42514 -55.51831l0 0c33.371887 0 60.42514 24.856384 60.42514 55.51831l0 0c0 30.661926 -27.053253 55.51831 -60.42514 55.51831l0 0c-33.371887 0 -60.42514 -24.856384 -60.42514 -55.51831z"/><path fill="#009365" fill-rule="evenodd" d="m171.59695 408.60617l0 0c0 -8.536346 6.9200745 -15.456421 15.456436 -15.456421l110.92171 0c4.099304 0 8.030701 1.6284485 10.929352 4.527069c2.8986511 2.8986511 4.5270996 6.8300476 4.5270996 10.929352l0 61.823853c0 8.536346 -6.920105 15.456421 -15.456451 15.456421l-110.92171 0c-8.536362 0 -15.456436 -6.9200745 -15.456436 -15.456421z"/><path fill-rule="evenodd" stroke="#009365" stroke-linecap="butt" stroke-linejoin="round" stroke-width="1" d="m171.59695 408.60617l0 0c0 -8.536346 6.9200745 -15.456421 15.456436 -15.456421l110.92171 0c4.099304 0 8.030701 1.6284485 10.929352 4.527069c2.8986511 2.8986511 4.5270996 6.8300476 4.5270996 10.929352l0 61.823853c0 8.536346 -6.920105 15.456421 -15.456451 15.456421l-110.92171 0c-8.536362 0 -15.456436 -6.9200745 -15.456436 -15.456421z"/><path fill="#e55529" fill-rule="evenodd" d="m293.43164 393.63144l0 0c0 -30.661926 27.053253 -55.51831 60.42514 -55.51831l0 0c33.371857 0 60.42511 24.856384 60.42511 55.51831l0 0c0 30.661926 -27.053253 55.51831 -60.42511 55.51831l0 0c-33.371887 0 -60.42514 -24.856384 -60.42514 -55.51831z"/><path fill-rule="evenodd" stroke="#e55529" stroke-linecap="butt" stroke-linejoin="round" stroke-width="1" d="m293.43164 393.63144l0 0c0 -30.661926 27.053253 -55.51831 60.42514 -55.51831l0 0c33.371857 0 60.42511 24.856384 60.42511 55.51831l0 0c0 30.661926 -27.053253 55.51831 -60.42511 55.51831l0 0c-33.371887 0 -60.42514 -24.856384 -60.42514 -55.51831z"/><path fill="#e55529" fill-rule="evenodd" d="m282.93948 464.60617l0 0c0 -8.536346 6.9200745 -15.456421 15.456421 -15.456421l110.92172 0c4.099304 0 8.030701 1.6284485 10.929352 4.527069c2.8986206 2.8986511 4.527069 6.8300476 4.527069 10.929352l0 61.823883c0 8.536316 -6.9200745 15.456421 -15.456421 15.456421l-110.92172 0c-8.536346 0 -15.456421 -6.920105 -15.456421 -15.456421z"/><path fill-rule="evenodd" stroke="#e55529" stroke-linecap="butt" stroke-linejoin="round" stroke-width="1" d="m282.93948 464.60617l0 0c0 -8.536346 6.9200745 -15.456421 15.456421 -15.456421l110.92172 0c4.099304 0 8.030701 1.6284485 10.929352 4.527069c2.8986206 2.8986511 4.527069 6.8300476 4.527069 10.929352l0 61.823883c0 8.536316 -6.9200745 15.456421 -15.456421 15.456421l-110.92172 0c-8.536346 0 -15.456421 -6.920105 -15.456421 -15.456421z"/><path fill="#094492" fill-rule="evenodd" d="m405.0866 432.58267l0 0c0 -41.373505 33.539856 -74.91339 74.91339 -74.91339l0 0c19.868256 0 38.92279 7.892639 52.97174 21.94162c14.049011 14.049011 21.94165 33.103516 21.94165 52.97177l0 0c0 41.373535 -33.539856 74.91339 -74.91339 74.91339l0 0c-41.373535 0 -74.91339 -33.539856 -74.91339 -74.91339z"/><path fill-rule="evenodd" stroke="#094492" stroke-linecap="butt" stroke-linejoin="round" stroke-width="1" d="m405.0866 432.58267l0 0c0 -41.373505 33.539856 -74.91339 74.91339 -74.91339l0 0c19.868256 0 38.92279 7.892639 52.97174 21.94162c14.049011 14.049011 21.94165 33.103516 21.94165 52.97177l0 0c0 41.373535 -33.539856 74.91339 -74.91339 74.91339l0 0c-41.373535 0 -74.91339 -33.539856 -74.91339 -74.91339z"/><path fill="#094492" fill-rule="evenodd" d="m392.07874 528.3521l0 0c0 -11.518494 9.337585 -20.856049 20.85608 -20.856049l134.13037 0c5.531372 0 10.836182 2.1973267 14.747498 6.108612c3.911255 3.911255 6.1085815 9.216064 6.1085815 14.747437l0 83.42175c0 11.518494 -9.337585 20.85608 -20.85608 20.85608l-134.13037 0c-11.518494 0 -20.85608 -9.337585 -20.85608 -20.85608z"/><path fill-rule="evenodd" stroke="#094492" stroke-linecap="butt" stroke-linejoin="round" stroke-width="1" d="m392.07874 528.3521l0 0c0 -11.518494 9.337585 -20.856049 20.85608 -20.856049l134.13037 0c5.531372 0 10.836182 2.1973267 14.747498 6.108612c3.911255 3.911255 6.1085815 9.216064 6.1085815 14.747437l0 83.42175c0 11.518494 -9.337585 20.85608 -20.85608 20.85608l-134.13037 0c-11.518494 0 -20.85608 -9.337585 -20.85608 -20.85608z"/></g></svg>