<svg id="AssocCoopInteractions" xmlns="http://www.w3.org/2000/svg" viewBox="0 0 165 165"><defs><style>.cls-1{fill:#6f39c4;}.cls-2{fill:none;stroke:#fff;stroke-linecap:round;stroke-linejoin:round;stroke-width:3.93px;}.cls-3{opacity:0.1;}.cls-4{fill:#fff;}</style></defs><title>Artboard 1</title><rect class="cls-1" x="0.73" y="0.86" width="163.64" height="163.64" rx="19.64"/><path class="cls-2" d="M103.35,70.12l18.94-3c3.69-.67,7.15,1.21,7.75,4.53s-1.93,6.58-5.62,7.24L84.85,86l-1.92-.14L51.22,76.48s-4.41-.18-11.07,3.75"/><path class="cls-2" d="M34.35,60.08l18.52-8.49c8.5-2.44,15.92,2.84,15.92,2.84,3.65,2.35,11,5,11,5l12.33,4c3.68,1.19,5.83,4.8,4.79,8S92,76.3,88.34,75.1L71.28,69.56"/><path class="cls-2" d="M64.66,39.36l-18.94,3c-3.69.66-7.15-1.21-7.75-4.53s1.93-6.58,5.62-7.24L83.16,23.5l1.92.13L116.79,33s4.41.18,11.06-3.74"/><path class="cls-2" d="M133.66,49.4l-18.52,8.49c-8.5,2.43-15.92-2.84-15.92-2.84-3.65-2.36-11-5-11-5L75.88,46c-3.68-1.2-5.83-4.8-4.79-8s4.9-4.85,8.58-3.66l17.06,5.55"/><path class="cls-3" d="M144.72,164.5H20.37A19.64,19.64,0,0,1,.73,144.86V20.5A19,19,0,0,1,7.27,5.77L157.82,159.59A19.61,19.61,0,0,1,144.72,164.5Z"/><path class="cls-4" d="M48.07,108.58l-.54,3.86H45.71l2.18-13.36h2.54l2.26,13.36H50.81l-.6-3.86ZM50,106.92c-.36-2.54-.68-4.76-.82-6.16h-.06c-.06,1.08-.5,4-.8,6.16Z"/><path class="cls-4" d="M55.81,108.58v.8c0,1.1.36,1.72,1.2,1.72s1.16-.74,1.16-1.86c0-1.48-.32-2-1.76-3.12s-2.18-1.84-2.18-3.8c0-1.74.52-3.44,2.8-3.44s2.72,1.58,2.72,3.14v.66H58v-.62c0-1-.18-1.64-1-1.64s-1,.68-1,1.64.2,1.54,1.4,2.42c1.94,1.44,2.54,2.28,2.54,4.5,0,1.88-.62,3.64-3,3.64S54,111.12,54,109.36v-.78Z"/><path class="cls-4" d="M63.29,108.58v.8c0,1.1.36,1.72,1.2,1.72s1.16-.74,1.16-1.86c0-1.48-.32-2-1.76-3.12s-2.18-1.84-2.18-3.8c0-1.74.52-3.44,2.8-3.44s2.72,1.58,2.72,3.14v.66H65.45v-.62c0-1-.18-1.64-1-1.64s-1,.68-1,1.64.2,1.54,1.4,2.42c1.94,1.44,2.54,2.28,2.54,4.5,0,1.88-.62,3.64-3,3.64s-2.94-1.5-2.94-3.26v-.78Z"/><path class="cls-4" d="M75.37,102.52V109c0,2.48-1,3.66-3.18,3.66s-3-1.26-3-3.64V102.5c0-2.44,1.18-3.6,3.14-3.6S75.37,100.14,75.37,102.52ZM71,102.36v6.82c0,1.28.46,1.82,1.26,1.82s1.28-.52,1.28-1.86v-6.78c0-1.22-.4-1.84-1.28-1.84S71,101.1,71,102.36Z"/><path class="cls-4" d="M83.05,108.52V109c0,1.6-.28,3.62-2.94,3.62-2.4,0-2.88-1.58-2.88-3.58v-6.76c0-2.1.94-3.38,2.92-3.38,2.38,0,2.84,1.62,2.84,3.44v.56h-1.8v-.76c0-1-.2-1.62-1.06-1.62s-1.06.62-1.06,1.64v7c0,1.06.22,1.82,1.1,1.82s1.06-.72,1.06-1.82v-.66Z"/><path class="cls-4" d="M86.63,99.08v13.36h-1.8V99.08Z"/><path class="cls-4" d="M90.59,108.58l-.54,3.86H88.23l2.18-13.36H93l2.26,13.36H93.33l-.6-3.86Zm1.92-1.66c-.36-2.54-.68-4.76-.82-6.16h-.06c-.06,1.08-.5,4-.8,6.16Z"/><path class="cls-4" d="M97.25,100.74H95.09V99.08h6.1v1.66H99v11.7H97.25Z"/><path class="cls-4" d="M104.41,99.08v13.36h-1.8V99.08Z"/><path class="cls-4" d="M107.93,99.08l.78,5.66c.26,1.84.6,3.9.72,5.36h0c.12-1.4.48-3.46.7-5.3l.78-5.72h1.9l-2.3,13.36h-2.2L106,99.08Z"/><path class="cls-4" d="M119.11,106.18h-3v4.62h3.38l-.22,1.64h-5V99.08h4.92v1.66h-3.12v3.8h3Z"/><path class="cls-4" d="M36.89,129.76c0,.7,0,1.4,0,1.68H35.75a4.74,4.74,0,0,1-.1-.84,1.61,1.61,0,0,1-1.66,1c-1.44,0-2-1.28-2-2.84v-.18c0-2.26,1.36-3.1,3.16-3.1h.48V123.8c0-.94-.16-1.56-1-1.56s-1.06.64-1.06,1.46v.3H32.29v-.28c0-1.4.56-2.58,2.36-2.58s2.24,1.12,2.24,2.58Zm-1.24-3.24h-.54c-1.2,0-1.9.5-1.9,2v.18c0,.94.28,1.72,1.12,1.72,1,0,1.32-.8,1.32-2.36Z"/><path class="cls-4" d="M39.33,124.38c0-2,0-2.58,0-3.08h1.2a6.37,6.37,0,0,1,.06,1,1.82,1.82,0,0,1,1.86-1.2c1.08,0,2,.6,2,2.46v7.84H43.13v-7.6c0-1-.32-1.52-1.1-1.52s-1.44.42-1.44,2.48v6.64H39.33Z"/><path class="cls-4" d="M51.67,117.48v11.4c0,1.12,0,2,0,2.56H50.47c0-.18-.06-.74-.06-1a1.71,1.71,0,0,1-1.76,1.16c-1.68,0-2.12-1.32-2.12-3.26v-4.2c0-1.8.72-3,2.28-3a1.69,1.69,0,0,1,1.58.76v-4.42Zm-3.86,10.88c0,1.36.36,2.06,1.2,2.06,1.12,0,1.38-1.08,1.38-2.52v-3.4c0-1.12-.12-2.18-1.34-2.18-.86,0-1.24.72-1.24,1.88Z"/><path class="cls-4" d="M62.75,127.52V128c0,1.6-.28,3.62-2.94,3.62-2.4,0-2.88-1.58-2.88-3.58v-6.76c0-2.1.94-3.38,2.92-3.38,2.38,0,2.84,1.62,2.84,3.44v.56h-1.8v-.76c0-1-.2-1.62-1.06-1.62s-1.06.62-1.06,1.64v7c0,1.06.22,1.82,1.1,1.82s1.06-.72,1.06-1.82v-.66Z"/><path class="cls-4" d="M70.63,121.52V128c0,2.48-1,3.66-3.18,3.66s-3-1.26-3-3.64V121.5c0-2.44,1.18-3.6,3.14-3.6S70.63,119.14,70.63,121.52Zm-4.36-.16v6.82c0,1.28.46,1.82,1.26,1.82s1.28-.52,1.28-1.86v-6.78c0-1.22-.4-1.84-1.28-1.84S66.27,120.1,66.27,121.36Z"/><path class="cls-4" d="M78.69,121.52V128c0,2.48-1,3.66-3.18,3.66s-3-1.26-3-3.64V121.5c0-2.44,1.18-3.6,3.14-3.6S78.69,119.14,78.69,121.52Zm-4.36-.16v6.82c0,1.28.46,1.82,1.26,1.82s1.28-.52,1.28-1.86v-6.78c0-1.22-.4-1.84-1.28-1.84S74.33,120.1,74.33,121.36Z"/><path class="cls-4" d="M80.79,118.08h2.74c2.08,0,3.1,1,3.1,3.3v.8c0,2.12-.72,3.6-3.2,3.6h-.84v5.66h-1.8Zm1.8,6.22h.66c1.38,0,1.6-.82,1.6-2.16v-.68c0-1-.2-1.88-1.44-1.88h-.82Z"/><path class="cls-4" d="M93.19,125.18h-3v4.62h3.38l-.22,1.64h-5V118.08h4.92v1.66H90.23v3.8h3Z"/><path class="cls-4" d="M95.17,118.08h2.64c2,0,3.12.84,3.12,3.16v.54c0,2-.74,2.58-1.36,2.8.82.36,1.24.94,1.24,2.74a37.84,37.84,0,0,0,.12,4.12H99.21a28.91,28.91,0,0,1-.14-4c0-1.66-.24-2.08-1.48-2.08H97v6.08h-1.8Zm1.8,5.78h.64c1.16,0,1.54-.54,1.54-2v-.52c0-1.12-.28-1.78-1.52-1.78H97Z"/><path class="cls-4" d="M104.73,127.58l-.54,3.86h-1.82l2.18-13.36h2.54l2.26,13.36h-1.88l-.6-3.86Zm1.92-1.66c-.36-2.54-.68-4.76-.82-6.16h-.06c-.06,1.08-.5,4-.8,6.16Z"/><path class="cls-4" d="M111.39,119.74h-2.16v-1.66h6.1v1.66h-2.16v11.7h-1.78Z"/><path class="cls-4" d="M118.55,118.08v13.36h-1.8V118.08Z"/><path class="cls-4" d="M122.07,118.08l.78,5.66c.26,1.84.6,3.9.72,5.36h0c.12-1.4.48-3.46.7-5.3l.78-5.72H127l-2.3,13.36h-2.2l-2.35-13.36Z"/><path class="cls-4" d="M133.25,125.18h-3v4.62h3.38l-.22,1.64h-5V118.08h4.92v1.66h-3.12v3.8h3Z"/><path class="cls-4" d="M43.61,137.08v13.36h-1.8V137.08Z"/><path class="cls-4" d="M46,150.44V137.08h2.1l2,7.4a22.53,22.53,0,0,1,.52,2.38h0c-.1-1.72-.1-3.6-.1-5.78v-4h1.66v13.36h-2L48,142c-.18-.7-.28-1.26-.36-1.66h0c.08,1.62.1,3.56.1,6v4.12Z"/><path class="cls-4" d="M55.81,138.74H53.65v-1.66h6.1v1.66H57.59v11.7H55.81Z"/><path class="cls-4" d="M65.91,144.18H63v4.62h3.38l-.22,1.64h-5V137.08h4.92v1.66H63v3.8h3Z"/><path class="cls-4" d="M67.89,137.08h2.64c2,0,3.12.84,3.12,3.16v.54c0,2-.74,2.58-1.36,2.8.82.36,1.24.94,1.24,2.74a37.84,37.84,0,0,0,.12,4.12H71.93a28.91,28.91,0,0,1-.14-4c0-1.66-.24-2.08-1.48-2.08h-.62v6.08h-1.8Zm1.8,5.78h.64c1.16,0,1.54-.54,1.54-2v-.52c0-1.12-.28-1.78-1.52-1.78h-.66Z"/><path class="cls-4" d="M77.45,146.58l-.54,3.86H75.09l2.18-13.36h2.54l2.26,13.36H80.19l-.6-3.86Zm1.92-1.66c-.36-2.54-.68-4.76-.82-6.16h-.06c-.06,1.08-.5,4-.8,6.16Z"/><path class="cls-4" d="M89.31,146.52V147c0,1.6-.28,3.62-2.94,3.62-2.4,0-2.88-1.58-2.88-3.58v-6.76c0-2.1.94-3.38,2.92-3.38,2.38,0,2.84,1.62,2.84,3.44v.56h-1.8v-.76c0-1-.2-1.62-1.06-1.62s-1.06.62-1.06,1.64v7c0,1.06.22,1.82,1.1,1.82s1.06-.72,1.06-1.82v-.66Z"/><path class="cls-4" d="M92.59,138.74H90.43v-1.66h6.1v1.66H94.37v11.7H92.59Z"/><path class="cls-4" d="M99.75,137.08v13.36H98V137.08Z"/><path class="cls-4" d="M108,140.52V147c0,2.48-1,3.66-3.18,3.66s-3-1.26-3-3.64V140.5c0-2.44,1.18-3.6,3.14-3.6S108,138.14,108,140.52Zm-4.36-.16v6.82c0,1.28.46,1.82,1.26,1.82s1.28-.52,1.28-1.86v-6.78c0-1.22-.4-1.84-1.28-1.84S103.67,139.1,103.67,140.36Z"/><path class="cls-4" d="M110.13,150.44V137.08h2.1l2,7.4a22.53,22.53,0,0,1,.52,2.38h0c-.1-1.72-.1-3.6-.1-5.78v-4h1.66v13.36h-2l-2.2-8.44c-.18-.7-.28-1.26-.36-1.66h0c.08,1.62.1,3.56.1,6v4.12Z"/><path class="cls-4" d="M119.81,146.58v.8c0,1.1.36,1.72,1.2,1.72s1.16-.74,1.16-1.86c0-1.48-.32-2-1.76-3.12s-2.18-1.84-2.18-3.8c0-1.74.52-3.44,2.8-3.44s2.72,1.58,2.72,3.14v.66H122v-.62c0-1-.18-1.64-1-1.64s-1,.68-1,1.64.2,1.54,1.4,2.42c1.94,1.44,2.54,2.28,2.54,4.5,0,1.88-.62,3.64-3,3.64s-2.94-1.5-2.94-3.26v-.78Z"/></svg>