<?xml version="1.0" standalone="no"?>
<!DOCTYPE svg PUBLIC "-//W3C//DTD SVG 20010904//EN"
 "http://www.w3.org/TR/2001/REC-SVG-20010904/DTD/svg10.dtd">
<svg version="1.0" xmlns="http://www.w3.org/2000/svg"
 width="416.000000pt" height="465.000000pt" viewBox="0 0 416.000000 465.000000"
 preserveAspectRatio="xMidYMid meet">
<metadata>
Created by potrace 1.15, written by Peter Selinger 2001-2017
</metadata>
<g transform="translate(0.000000,465.000000) scale(0.100000,-0.100000)"
fill="#000000" stroke="none">
<path d="M922 4455 c-22 -16 -562 -637 -595 -685 -16 -23 -17 -128 -17 -1557
l0 -1533 27 -30 c27 -29 32 -31 134 -37 l107 -6 6 -45 c3 -25 6 -93 6 -151 0
-117 8 -140 57 -160 21 -8 427 -11 1581 -9 l1554 3 24 28 24 28 0 1890 0 1891
-29 29 -29 29 -170 0 -169 0 -6 136 c-5 132 -6 137 -33 165 l-28 29 -1211 0
c-1077 0 -1213 -2 -1233 -15z m2303 -1910 l0 -1730 -1360 0 -1360 0 -3 1385
c-1 762 0 1390 2 1396 3 7 60 5 182 -7 257 -25 277 -25 314 9 l31 27 19 325
c11 179 20 326 20 328 0 1 485 1 1078 0 l1077 -3 0 -1730z m-2373 1381 c-5
-81 -11 -148 -13 -150 -5 -3 -222 15 -228 20 -2 1 52 66 119 144 67 78 124
139 126 137 3 -2 1 -70 -4 -151z m2788 -1736 l0 -1750 -1430 0 -1430 0 0 39
c0 21 3 59 6 85 l7 46 1269 0 c1406 0 1325 -4 1353 64 13 31 15 255 15 1651
l0 1615 105 0 105 0 0 -1750z"/>
<path d="M1162 3804 l3 -179 28 -3 27 -3 0 75 0 76 34 0 c44 0 55 -15 64 -86
6 -55 9 -59 35 -62 27 -3 27 -3 22 40 -12 88 -16 102 -32 120 -10 11 -12 18
-4 18 21 0 44 65 37 103 -11 57 -36 71 -132 76 l-84 3 2 -178z"/>
<path d="M1422 3803 l3 -178 98 -3 97 -3 0 31 0 30 -70 0 -70 0 0 50 0 50 60
0 60 0 0 30 0 30 -60 0 -60 0 0 45 0 45 70 0 c68 0 70 1 70 25 l0 25 -100 0
-100 0 2 -177z"/>
<path d="M1660 3801 l0 -181 25 0 c23 0 24 4 27 63 l3 62 49 6 c68 7 96 41 96
114 0 42 -5 60 -24 82 -21 25 -31 28 -100 31 l-76 4 0 -181z"/>
<path d="M1961 3954 c-34 -28 -61 -103 -60 -163 1 -89 63 -171 129 -171 43 0
92 40 112 90 47 125 -13 270 -112 270 -27 0 -48 -8 -69 -26z m113 -48 c35 -54
32 -175 -5 -215 -61 -65 -124 27 -104 155 11 78 74 112 109 60z"/>
<path d="M2202 3803 l3 -178 28 -3 27 -3 0 75 0 76 34 0 c43 0 53 -12 63 -85
7 -56 10 -60 36 -63 27 -3 27 -3 22 40 -13 93 -16 106 -30 118 -12 10 -11 14
5 30 26 26 35 82 18 116 -19 40 -53 54 -136 54 l-72 0 2 -177z"/>
<path d="M2450 3950 c0 -28 2 -30 40 -30 l40 0 0 -151 0 -150 28 3 27 3 3 148
3 147 39 0 c38 0 40 2 40 30 l0 30 -110 0 -110 0 0 -30z"/>
<path d="M914 3496 c-3 -8 -4 -25 -2 -38 l3 -23 975 0 975 0 0 35 0 35 -973 3
c-836 2 -973 0 -978 -12z"/>
<path d="M764 3205 c-4 -8 -4 -22 0 -30 5 -13 136 -15 1123 -13 l1118 3 0 25
0 25 -1118 3 c-987 2 -1118 0 -1123 -13z"/>
<path d="M772 3041 c-8 -4 -12 -19 -10 -32 l3 -24 1120 0 1120 0 3 24 c2 13
-2 28 -10 32 -17 11 -2209 11 -2226 0z"/>
<path d="M776 2857 c-10 -7 -16 -22 -14 -33 3 -19 24 -19 1123 -19 1099 0
1120 0 1123 19 9 47 36 46 -1123 46 -886 0 -1095 -2 -1109 -13z"/>
<path d="M770 2675 c-6 -8 -10 -22 -8 -32 3 -17 53 -18 1123 -18 l1120 0 3 24
c2 13 -2 28 -10 32 -7 5 -509 9 -1114 9 -951 0 -1103 -2 -1114 -15z"/>
<path d="M772 2501 c-8 -4 -12 -19 -10 -32 l3 -24 1120 0 1120 0 3 24 c2 13
-2 28 -10 32 -17 11 -2209 11 -2226 0z"/>
<path d="M772 2321 c-8 -4 -12 -19 -10 -32 l3 -24 1120 0 1120 0 3 24 c2 13
-2 28 -10 32 -17 11 -2209 11 -2226 0z"/>
<path d="M773 2143 c-18 -7 -16 -50 3 -57 25 -9 2207 -7 2222 3 8 4 12 19 10
32 l-3 24 -1110 2 c-610 1 -1116 -1 -1122 -4z"/>
<path d="M764 1945 c-4 -8 -4 -22 0 -30 5 -13 136 -15 1123 -13 l1118 3 0 25
0 25 -1118 3 c-987 2 -1118 0 -1123 -13z"/>
<path d="M772 1781 c-8 -4 -12 -19 -10 -32 l3 -24 1120 0 1120 0 3 24 c2 13
-2 28 -10 32 -17 11 -2209 11 -2226 0z"/>
<path d="M776 1597 c-10 -7 -16 -22 -14 -33 3 -19 24 -19 1123 -19 1099 0
1120 0 1123 19 9 47 36 46 -1123 46 -886 0 -1095 -2 -1109 -13z"/>
<path d="M770 1415 c-6 -8 -10 -22 -8 -32 3 -17 53 -18 1123 -18 l1120 0 3 24
c2 13 -2 28 -10 32 -7 5 -509 9 -1114 9 -951 0 -1103 -2 -1114 -15z"/>
<path d="M772 1241 c-8 -4 -12 -19 -10 -32 l3 -24 1120 0 1120 0 3 24 c2 13
-2 28 -10 32 -17 11 -2209 11 -2226 0z"/>
<path d="M772 1061 c-8 -4 -12 -19 -10 -32 l3 -24 1120 0 1120 0 3 24 c2 13
-2 28 -10 32 -17 11 -2209 11 -2226 0z"/>
</g>
</svg>
