<?xml version="1.0" encoding="iso-8859-1"?>
<!-- Generator: Adobe Illustrator 19.0.0, SVG Export Plug-In . SVG Version: 6.00 Build 0)  -->
<svg xmlns="http://www.w3.org/2000/svg"  version="1.1" id="Capa_1" x="0px" y="0px" viewBox="0 0 511.493 511.493" style="enable-background:new 0 0 511.493 511.493;" xml:space="preserve" width="512" height="512">
<g>
	<g>
		<g>
			<path style="fill:#F9C295;" d="M117.412,180.792h24.822v-49.414h-24.822c-13.645,0-24.707,11.062-24.707,24.707v0     C92.705,169.73,103.767,180.792,117.412,180.792z"/>
			<path style="fill:#F9C295;" d="M360.832,180.792H336.01v-49.414h24.822c13.645,0,24.707,11.062,24.707,24.707v0     C385.539,169.73,374.477,180.792,360.832,180.792z"/>
		</g>
		<path style="fill:#656D88;" d="M275.553,301.757h-72.862c-50.052,0-90.627,40.575-90.627,90.628v111.609H366.18V392.385    C366.18,342.332,325.605,301.757,275.553,301.757z"/>
		<path style="fill:#444966;" d="M275.553,301.757h-26.5c50.052,0,90.627,40.575,90.627,90.627v111.609h26.5V392.384    C366.18,342.332,325.605,301.757,275.553,301.757z"/>
		<path style="fill:#F9C295;" d="M239.122,6.993L239.122,6.993c-58.246,0-105.464,47.218-105.464,105.464v50.846    c0,58.246,47.218,105.464,105.464,105.464l0,0c58.246,0,105.464-47.218,105.464-105.464v-50.846    C344.586,54.211,297.368,6.993,239.122,6.993z"/>
		<path style="fill:#E59F6A;" d="M239.122,6.993c-4.56,0-9.052,0.29-13.459,0.851c51.89,6.61,92.005,50.926,92.005,104.613v50.846    c0,53.686-40.115,98.003-92.005,104.613c4.407,0.562,8.899,0.851,13.459,0.851c58.246,0,105.464-47.218,105.464-105.464v-50.846    C344.586,54.211,297.368,6.993,239.122,6.993z"/>
		<path style="fill:#EBEEF2;" d="M239.122,455.065l73.175-145.523c-11.234-4.991-23.659-7.786-36.744-7.786h-72.862    c-13.085,0-25.51,2.795-36.744,7.786L239.122,455.065z"/>
		<path style="fill:#ED5575;" d="M227.372,331.371l-10.958,78.534l22.708,45.16l22.708-45.16l-10.958-78.534    c11.779-4.678,20.111-16.169,20.111-29.614h-63.722C207.261,315.202,215.593,326.693,227.372,331.371z"/>
		<g>
			<path style="fill:#EBEEF2;" d="M408.3,378.411H261.792c-5.543,0-10.036,4.493-10.036,10.036v105.509     c0,5.543,4.493,10.036,10.036,10.036H408.3c5.543,0,10.036-4.493,10.036-10.036V388.448     C418.337,382.905,413.843,378.411,408.3,378.411z"/>
			<path style="fill:#D1D6DE;" d="M408.3,378.411h-24.547c5.543,0,10.036,4.493,10.036,10.036v105.509     c0,5.543-4.493,10.037-10.036,10.037H408.3c5.543,0,10.036-4.494,10.036-10.037V388.447     C418.336,382.904,413.843,378.411,408.3,378.411z"/>
		</g>
		<path style="fill:#656D88;" d="M133.692,109.804c28.748-0.018,52.047-23.327,52.047-52.079c0-11.151-3.516-21.476-9.485-29.949    C151.067,46.506,134.521,76.204,133.692,109.804z"/>
		<path style="fill:#444966;" d="M160.748,41.893c13.617,39.111,69.898,68.428,137.272,68.428c16.236,0,31.824-1.708,46.33-4.84    c-3.592-54.992-49.328-98.487-105.228-98.487C208.012,6.993,180.052,20.466,160.748,41.893z"/>
		<path style="fill:#2E344C;" d="M234.865,6.447c-2.796,0.231-5.446,0.713-7.852,1.512c24.298,4.212,46.659,15.269,63.356,33.694    c16.68,18.407,26.546,42.853,27.314,67.682c8.966-0.578,17.884-1.903,26.631-3.957c-1.9-28.611-16.071-56.201-38.221-74.411    c-10.781-8.863-23.388-15.447-36.751-19.44C259.697,8.645,246.099,5.519,234.865,6.447z"/>
	</g>
	<g>
		<path d="M129.025,188.243c2.436,4.204,2.342,9.504,3.702,14.236c1.456,5.064,6.52,10.178,11.355,8.08    c5.44-2.361,4.246-10.275,2.551-15.958c-7.454-24.995-6.368-51.629-5.215-77.687c18.584-2.585,35.671-14.322,44.752-30.742    c44.325,27.785,99.303,38.072,150.676,28.194c1.69,31.163,3.107,63.82-10.207,92.046c-13.569,28.769-42.426,49.659-73.939,53.976    s-64.742-7.905-86.256-31.334c-3.35-3.649-8.079-7.948-12.522-5.758c-2.895,1.427-3.959,5.23-3.2,8.367    c0.759,3.137,2.91,5.73,5.096,8.104c27.846,30.229,72.988,43.285,112.67,32.585s72.143-44.679,81.017-84.809    c12.897,4.197,28.2-0.568,36.435-11.345s8.81-26.795,1.371-38.136c-7.439-11.341-22.361-17.192-35.526-13.932    c4.131-41.71-17.047-84.926-52.542-107.218C242.09-18.979,165.521,4.668,137.106,65.065    c-8.628,18.339-12.663,38.917-10.836,59.146c-13.11-3.262-27.978,2.55-35.401,13.838c-7.422,11.288-6.866,27.242,1.324,37.986    c8.19,10.743,23.428,15.506,36.278,11.339C128.67,187.657,128.854,187.947,129.025,188.243z M141.767,101.569    c0.056-0.507,0.11-1.015,0.174-1.519c0.002-0.018,0.004-0.037,0.007-0.055c0-0.003,0.001-0.007,0.001-0.011    c0.097-0.759,0.204-1.516,0.319-2.27c0.047-0.322,0.108-0.661,0.16-0.988c2.422-14.94,8.231-28.758,16.617-40.636    c3.938,6.883,9.128,13.441,15.432,19.536C168.524,89.26,156.263,98.92,141.767,101.569z M188.755,68.408    c-7.02-6.028-13.087-13.032-17.583-21.134c-0.722-1.3-1.42-2.799-0.991-4.223c0.351-1.163,1.371-1.976,2.336-2.713    c31.426-23.982,70.878-34.576,108.357-16.483c29.468,13.904,51,43.418,55.245,75.724c-40.096,6.497-82.426,3.45-119.302-13.583    C206.808,81.374,197.107,75.581,188.755,68.408z M360.831,138.873c9.489,0,17.21,7.721,17.21,17.21    c0,4.594-1.791,8.914-5.05,12.173c-3.24,3.248-7.56,5.037-12.16,5.037h-9.192c0.29-3.293,0.447-6.623,0.447-9.99v-24.43H360.831z     M100.2,156.083c0-9.489,7.721-17.21,17.21-17.21h8.748v24.43c0,3.353,0.153,6.684,0.441,9.99h-9.189    c-4.601,0-8.92-1.789-12.166-5.044C101.991,164.997,100.2,160.677,100.2,156.083z"/>
		<path d="M221.419,496.493H119.564V392.385c0-11.092,2.146-21.857,6.379-31.998c1.596-3.822-0.209-8.214-4.032-9.81    c-3.818-1.597-8.215,0.209-9.81,4.032c-5.001,11.98-7.537,24.689-7.537,37.775v111.608c0,4.143,3.357,7.5,7.5,7.5h109.355    c4.143,0,7.5-3.357,7.5-7.5S225.562,496.493,221.419,496.493z"/>
		<path d="M239.122,135.612c-4.143,0-7.5,3.357-7.5,7.5v44.927c0,4.143,3.357,7.5,7.5,7.5h16.903c4.143,0,7.5-3.357,7.5-7.5    s-3.357-7.5-7.5-7.5h-9.403v-37.427C246.622,138.97,243.265,135.612,239.122,135.612z"/>
		<path d="M408.3,370.911H263.965l-4.916-35.201c9.802-5.723,16.573-15.325,18.707-26.413c0.262,0.007,0.525,0.006,0.787,0.016    c0.583,0.021,1.164,0.057,1.745,0.089c0.429,0.024,0.859,0.046,1.288,0.078c0.629,0.045,1.256,0.101,1.882,0.16    c0.362,0.035,0.724,0.07,1.086,0.109c0.668,0.073,1.336,0.151,2,0.239c0.291,0.039,0.58,0.082,0.87,0.124    c0.719,0.104,1.438,0.21,2.152,0.332c0.136,0.023,0.271,0.051,0.406,0.075c2.306,0.406,4.584,0.912,6.833,1.506    c0.45,0.12,0.901,0.236,1.349,0.363c0.457,0.129,0.91,0.267,1.364,0.403c0.602,0.182,1.203,0.368,1.802,0.564    c0.19,0.062,0.38,0.126,0.569,0.189l-16.621,33.038c-1.861,3.7-0.371,8.209,3.329,10.071c3.704,1.862,8.21,0.37,10.071-3.329    l16.985-33.762c13.699,7.544,25.245,18.937,32.996,33.204c1.359,2.503,3.936,3.921,6.597,3.921c1.209,0,2.436-0.293,3.573-0.911    c3.64-1.977,4.987-6.53,3.01-10.17c-10.53-19.383-27.003-34.261-46.45-42.898c-0.013-0.006-0.025-0.013-0.038-0.019    c-0.039-0.018-0.079-0.033-0.118-0.051c-0.687-0.304-1.377-0.6-2.071-0.888c-0.191-0.079-0.383-0.156-0.574-0.234    c-0.65-0.265-1.3-0.528-1.956-0.779c-0.381-0.146-0.764-0.283-1.146-0.424c-0.714-0.263-1.43-0.521-2.151-0.768    c-0.692-0.238-1.386-0.47-2.082-0.692c-0.244-0.077-0.49-0.152-0.734-0.228c-0.828-0.257-1.659-0.502-2.492-0.737    c-0.115-0.032-0.229-0.065-0.343-0.097c-6.309-1.749-12.769-2.851-19.338-3.3c-0.059-0.004-0.119-0.008-0.178-0.012    c-1.013-0.067-2.029-0.12-3.047-0.156c-0.101-0.004-0.202-0.008-0.304-0.012c-1.084-0.036-2.169-0.06-3.258-0.06h-4.57h-63.72    h-4.57c-13.802,0-27.188,2.838-39.786,8.437c-0.19,0.084-0.373,0.182-0.554,0.281c-11.936,5.385-22.81,13.139-31.836,22.935    c-2.807,3.046-2.613,7.791,0.434,10.598c3.045,2.807,7.79,2.613,10.598-0.434c6.13-6.652,13.266-12.19,21.063-16.479    l47.086,93.644c0.006,0.012,0.009,0.025,0.015,0.038l22.711,45.16c0.913,1.815,2.508,3.137,4.378,3.748    c0.087,0.028,0.17,0.068,0.259,0.094c0.107,0.03,0.22,0.044,0.329,0.07c0.563,0.134,1.141,0.219,1.734,0.219    c1.946,0,3.766-0.766,5.135-2.057v33.451c0,9.67,7.866,17.536,17.536,17.536H408.3c9.67,0,17.537-7.866,17.537-17.536v-105.51    C425.837,378.777,417.97,370.911,408.3,370.911z M248.102,324.403c-3.212,1.276-5.137,4.583-4.658,8.007l6.079,43.529    c-3.246,3.185-5.267,7.612-5.267,12.508v39.705l-5.135,10.214l-14.959-29.75l10.637-76.207c0.479-3.424-1.446-6.731-4.659-8.007    c-6.922-2.75-12.03-8.345-14.211-15.146h46.385C260.132,316.059,255.024,321.653,248.102,324.403z M193.916,309.727    c0.146-0.015,0.292-0.03,0.439-0.044c0.948-0.096,1.898-0.172,2.851-0.236c0.491-0.032,0.982-0.065,1.475-0.089    c0.431-0.021,0.863-0.037,1.295-0.051c0.169-0.005,0.339-0.006,0.509-0.01c2.134,11.088,8.905,20.69,18.709,26.413l-6.885,49.332    l-35.941-71.479C182.038,311.666,187.921,310.368,193.916,309.727z M410.837,493.957c0,1.398-1.138,2.536-2.537,2.536H261.792    c-1.398,0-2.536-1.138-2.536-2.536v-64.096c0-0.068,0.002-0.137,0-0.206v-41.208c0-1.398,1.138-2.536,2.536-2.536H408.3    c1.399,0,2.537,1.138,2.537,2.536V493.957z"/>
		<path d="M337.68,413.511c-3.589-2.07-8.175-0.844-10.245,2.745l-13.313,23.059c-2.071,3.587-0.842,8.174,2.745,10.245    c1.182,0.682,2.471,1.006,3.743,1.006c2.592,0,5.113-1.345,6.502-3.751l13.313-23.059    C342.496,420.169,341.267,415.582,337.68,413.511z"/>
		<path d="M353.226,432.844c-3.586-2.071-8.175-0.844-10.245,2.745l-13.313,23.059c-2.071,3.587-0.842,8.174,2.745,10.245    c1.181,0.682,2.471,1.006,3.743,1.006c2.592,0,5.113-1.345,6.502-3.751l13.313-23.059    C358.042,439.502,356.813,434.915,353.226,432.844z"/>
		<path d="M175.715,410.375c4.143,0,7.5-3.357,7.5-7.5s-3.357-7.5-7.5-7.5h-32c-4.143,0-7.5,3.357-7.5,7.5s3.357,7.5,7.5,7.5    H175.715z"/>
	</g>
</g>















</svg>
