<svg id="MathInstruction" xmlns="http://www.w3.org/2000/svg" viewBox="0 0 165 165">
    <defs>
        <style>
            .cls-1{fill:#e55529;}.cls-2{fill:none;stroke:#fff;stroke-linecap:round;stroke-linejoin:round;stroke-width:3.93px;}.cls-3{fill:#fff;}.cls-4{opacity:0.1;}
        </style>
    </defs>
    <title>Artboard 1</title>
    <rect class="cls-1" x="0.36" y="0.5" width="163.64" height="163.64" rx="19.64"/>
    <rect class="cls-2" x="28" y="74.5" width="38" height="38"/>
    <circle class="cls-2" cx="77.87" cy="39.7" r="21.87"/>
    <path class="cls-3"
          d="M46.2,98.78V89.9c-1.65,1.27-2.76,1.9-3.34,1.9a1,1,0,0,1-.72-.33,1,1,0,0,1-.32-.75.86.86,0,0,1,.31-.74,8,8,0,0,1,1.11-.6,8.25,8.25,0,0,0,1.88-1.17,7.49,7.49,0,0,0,1.26-1.38c.36-.51.6-.82.71-.94a.9.9,0,0,1,.63-.17,1,1,0,0,1,.83.4,1.71,1.71,0,0,1,.31,1.1V98.4c0,1.31-.45,2-1.34,2a1.2,1.2,0,0,1-1-.41A1.65,1.65,0,0,1,46.2,98.78Z"/>
    <polygon class="cls-2" points="110.48 102.5 84.96 102.5 97.72 80.4 110.48 58.3 123.24 80.4 136 102.5 110.48 102.5"/>
    <path class="cls-4"
          d="M144.36,164.14H20A19.65,19.65,0,0,1,.36,144.5V20.14A19,19,0,0,1,6.91,5.41L157.45,159.23A19.57,19.57,0,0,1,144.36,164.14Z"/>
    <path class="cls-3"
          d="M32.86,141.23c0-2.36,0-5.1.08-6.58h0c-.32,2.28-1.18,7.88-1.82,11.8H29.4c-.48-3.46-1.36-9.4-1.66-11.82h0c0,1.56.1,4.58.1,6.88v4.94H26.16V133.09h2.66c.62,3.62,1.3,7.9,1.48,9.7h0c.2-1.8,1.06-6.28,1.68-9.7h2.58v13.36H32.86Z"/>
    <path class="cls-3"
          d="M38.42,142.59l-.54,3.86H36.06l2.18-13.36h2.54L43,146.45H41.16l-.6-3.86Zm1.92-1.66c-.36-2.54-.68-4.76-.82-6.16h-.06c-.06,1.08-.5,4-.8,6.16Z"/>
    <path class="cls-3" d="M45.08,134.75H42.92v-1.66H49v1.66H46.86v11.7H45.08Z"/>
    <path class="cls-3" d="M50.44,133.09h1.8v5.38h2.44v-5.38h1.8v13.36h-1.8v-6.32H52.24v6.32h-1.8Z"/>
    <path class="cls-3" d="M63.82,133.09v13.36H62V133.09Z"/>
    <path class="cls-3"
          d="M66.2,146.45V133.09h2.1l2,7.4a22.53,22.53,0,0,1,.52,2.38h0c-.1-1.72-.1-3.6-.1-5.78v-4h1.66v13.36h-2L68.16,138c-.18-.7-.28-1.26-.36-1.66h0c.08,1.62.1,3.56.1,6v4.12Z"/>
    <path class="cls-3"
          d="M75.88,142.59v.8c0,1.1.36,1.72,1.2,1.72s1.16-.74,1.16-1.86c0-1.48-.32-2-1.76-3.12s-2.18-1.84-2.18-3.8c0-1.74.52-3.44,2.8-3.44s2.72,1.58,2.72,3.14v.66H78v-.62c0-1-.18-1.64-1-1.64s-1,.68-1,1.64.2,1.54,1.4,2.42c1.94,1.44,2.54,2.28,2.54,4.5,0,1.88-.62,3.64-3,3.64s-2.94-1.5-2.94-3.26v-.78Z"/>
    <path class="cls-3" d="M83.2,134.75H81v-1.66h6.1v1.66H85v11.7H83.2Z"/>
    <path class="cls-3"
          d="M88.56,133.09H91.2c2,0,3.12.84,3.12,3.16v.54c0,2-.74,2.58-1.36,2.8.82.36,1.24.94,1.24,2.74a37.84,37.84,0,0,0,.12,4.12H92.6a28.91,28.91,0,0,1-.14-4c0-1.66-.24-2.08-1.48-2.08h-.62v6.08h-1.8Zm1.8,5.78H91c1.16,0,1.54-.54,1.54-2v-.52c0-1.12-.28-1.78-1.52-1.78h-.66Z"/>
    <path class="cls-3"
          d="M98,133.09v10.26c0,1,.34,1.66,1.22,1.66s1.22-.66,1.22-1.66V133.09h1.78v10.22c0,2.08-.94,3.32-3,3.32s-3-1.1-3-3.3V133.09Z"/>
    <path class="cls-3"
          d="M110.1,142.53V143c0,1.6-.28,3.62-2.94,3.62-2.4,0-2.88-1.58-2.88-3.58v-6.76c0-2.1.94-3.38,2.92-3.38,2.38,0,2.84,1.62,2.84,3.44v.56h-1.8v-.76c0-1-.2-1.62-1.06-1.62s-1.06.62-1.06,1.64v7c0,1.06.22,1.82,1.1,1.82s1.06-.72,1.06-1.82v-.66Z"/>
    <path class="cls-3" d="M113.38,134.75h-2.17v-1.66h6.11v1.66h-2.16v11.7h-1.78Z"/>
    <path class="cls-3" d="M120.54,133.09v13.36h-1.8V133.09Z"/>
    <path class="cls-3"
          d="M128.82,136.53V143c0,2.48-1,3.66-3.18,3.66s-3-1.26-3-3.64v-6.48c0-2.44,1.17-3.6,3.14-3.6S128.82,134.15,128.82,136.53Zm-4.36-.16v6.82c0,1.28.46,1.82,1.26,1.82s1.28-.52,1.28-1.86v-6.78c0-1.22-.4-1.84-1.28-1.84S124.46,135.11,124.46,136.37Z"/>
    <path class="cls-3"
          d="M130.92,146.45V133.09H133l2,7.4a22.53,22.53,0,0,1,.52,2.38h0c-.1-1.72-.1-3.6-.1-5.78v-4h1.66v13.36h-2l-2.2-8.44c-.18-.7-.28-1.26-.36-1.66h0c.08,1.62.1,3.56.1,6v4.12Z"/>
    <path class="cls-3"
          d="M75.91,43.82H81a1.87,1.87,0,0,1,1.17.31,1,1,0,0,1,.4.85,1.13,1.13,0,0,1-.32.81,1.27,1.27,0,0,1-1,.33H74.1a1.54,1.54,0,0,1-1.14-.4,1.28,1.28,0,0,1-.41-1,2.54,2.54,0,0,1,.26-.93,3.32,3.32,0,0,1,.58-.91c.86-.9,1.65-1.67,2.34-2.31a17.57,17.57,0,0,1,1.5-1.27,8.62,8.62,0,0,0,1.33-1.13A4.79,4.79,0,0,0,79.37,37a2.86,2.86,0,0,0,.28-1.17,2.11,2.11,0,0,0-.3-1.12,2.07,2.07,0,0,0-.81-.77,2.38,2.38,0,0,0-1.12-.27,2.28,2.28,0,0,0-2,1.12,5.36,5.36,0,0,0-.33.8,3.16,3.16,0,0,1-.52,1,1,1,0,0,1-.84.35,1.1,1.1,0,0,1-.81-.32,1.18,1.18,0,0,1-.32-.88,3.73,3.73,0,0,1,.3-1.41,4,4,0,0,1,.9-1.33,4.65,4.65,0,0,1,1.53-1,5.89,5.89,0,0,1,2.16-.36,6.11,6.11,0,0,1,2.55.47,3.86,3.86,0,0,1,1.2.85A4.3,4.3,0,0,1,82,34.31a4,4,0,0,1,.28,1.49,4.15,4.15,0,0,1-.6,2.2,6.91,6.91,0,0,1-1.22,1.55q-.63.57-2.1,1.77a15.38,15.38,0,0,0-2,1.86A5.07,5.07,0,0,0,75.91,43.82Z"/>
    <path class="cls-3"
          d="M109.81,85.5a2.41,2.41,0,0,0,1.55-.53,1.89,1.89,0,0,0-1.27-3.35,2.5,2.5,0,0,0-1,.17,1.58,1.58,0,0,0-.61.44,3.69,3.69,0,0,0-.43.7l-.36.81a.65.65,0,0,1-.35.32,1.38,1.38,0,0,1-.59.12,1,1,0,0,1-.72-.32,1.1,1.1,0,0,1-.32-.84A2.26,2.26,0,0,1,106,82a4.17,4.17,0,0,1,.9-1.07,4.51,4.51,0,0,1,1.47-.81,5.8,5.8,0,0,1,2-.31,5.24,5.24,0,0,1,1.73.26,4.06,4.06,0,0,1,1.36.74,3.22,3.22,0,0,1,1.16,2.52,3.22,3.22,0,0,1-.42,1.68A5.81,5.81,0,0,1,113,86.32a5.37,5.37,0,0,1,1.29.94,3.65,3.65,0,0,1,.78,1.16,3.55,3.55,0,0,1,.27,1.39,4.32,4.32,0,0,1-.36,1.72,4.42,4.42,0,0,1-1,1.47,4.79,4.79,0,0,1-1.65,1,5.86,5.86,0,0,1-2.1.37,5,5,0,0,1-2.1-.42,4.82,4.82,0,0,1-1.53-1,4.92,4.92,0,0,1-.91-1.31,2.89,2.89,0,0,1-.3-1.11,1.2,1.2,0,0,1,.36-.91,1.29,1.29,0,0,1,.91-.35.94.94,0,0,1,.53.16.76.76,0,0,1,.33.39,6.79,6.79,0,0,0,1.09,2,2.08,2.08,0,0,0,1.64.66,2.59,2.59,0,0,0,1.17-.29,2.7,2.7,0,0,0,.66-4,2.28,2.28,0,0,0-1.73-.65l-.61,0-.53,0a1.2,1.2,0,0,1-.83-.27,1,1,0,0,1-.29-.75.93.93,0,0,1,.35-.75,1.66,1.66,0,0,1,1-.29Z"/>
</svg>