<svg version="1.1" viewBox="0.0 0.0 345.742782152231 363.56430446194224" fill="none" stroke="none" stroke-linecap="square" stroke-miterlimit="10" xmlns:xlink="http://www.w3.org/1999/xlink" xmlns="http://www.w3.org/2000/svg"><clipPath id="p.0"><path d="m0 0l345.74277 0l0 363.5643l-345.74277 0l0 -363.5643z" clip-rule="nonzero"/></clipPath><g clip-path="url(#p.0)"><path fill="#000000" fill-opacity="0.0" d="m0 0l345.74277 0l0 363.5643l-345.74277 0z" fill-rule="evenodd"/><path fill="#b7b7b7" d="m172.8703 114.2576c-21.683289 0.5940552 -37.276474 -23.762032 -58.811028 -24.950127c-21.534554 -1.1881027 -54.802273 2.3761978 -70.396324 17.821518c-15.594051 15.44532 -22.72266 48.11767 -23.16798 74.850395c-0.44531822 26.732727 6.684166 58.813217 20.496063 85.545944c13.811897 26.732697 39.05862 65.34558 62.37533 74.85037c23.316704 9.504822 55.099304 -17.821503 77.52493 -17.821503c22.425629 0 38.761597 19.30664 57.02887 17.821503c18.267273 -1.4851074 38.76291 -11.732269 52.5748 -26.73227c13.81189 -15.0 24.950134 -38.614166 30.2966 -63.267715c5.3464355 -24.65355 5.0494385 -59.406387 1.782135 -84.65355c-3.267273 -25.247162 -8.316711 -53.16623 -21.385803 -66.8294c-13.069122 -13.663162 -35.64261 -17.377075 -57.028885 -15.149605c-21.386261 2.2274704 -49.605423 27.920387 -71.28871 28.514435z" fill-rule="evenodd"/><path stroke="#999999" stroke-width="24.0" stroke-linejoin="round" stroke-linecap="butt" d="m172.8703 114.2576c-21.683289 0.5940552 -37.276474 -23.762032 -58.811028 -24.950127c-21.534554 -1.1881027 -54.802273 2.3761978 -70.396324 17.821518c-15.594051 15.44532 -22.72266 48.11767 -23.16798 74.850395c-0.44531822 26.732727 6.684166 58.813217 20.496063 85.545944c13.811897 26.732697 39.05862 65.34558 62.37533 74.85037c23.316704 9.504822 55.099304 -17.821503 77.52493 -17.821503c22.425629 0 38.761597 19.30664 57.02887 17.821503c18.267273 -1.4851074 38.76291 -11.732269 52.5748 -26.73227c13.81189 -15.0 24.950134 -38.614166 30.2966 -63.267715c5.3464355 -24.65355 5.0494385 -59.406387 1.782135 -84.65355c-3.267273 -25.247162 -8.316711 -53.16623 -21.385803 -66.8294c-13.069122 -13.663162 -35.64261 -17.377075 -57.028885 -15.149605c-21.386261 2.2274704 -49.605423 27.920387 -71.28871 28.514435z" fill-rule="evenodd"/><path fill="#000000" fill-opacity="0.0" d="m168.39896 96.9462c-2.2497864 -6.449257 -7.64917 -28.4217 -13.498688 -38.69554c-5.849518 -10.273842 -17.998688 -19.122921 -21.598434 -22.947506" fill-rule="evenodd"/><path stroke="#efefef" stroke-width="12.0" stroke-linejoin="round" stroke-linecap="butt" d="m168.39896 96.9462c-2.2497864 -6.449257 -7.64917 -28.4217 -13.498688 -38.69554c-5.849518 -10.273842 -17.998688 -19.122921 -21.598434 -22.947506" fill-rule="evenodd"/><path fill="#efefef" d="m128.23885 36.062992l0 0c0 -3.2267342 2.6157837 -5.8425198 5.842514 -5.8425198l0 0c1.54953 0 3.0355988 0.6155491 4.1312866 1.711235c1.0956879 1.095686 1.7112427 2.5817509 1.7112427 4.1312847l0 0c0 3.2267342 -2.6157837 5.842518 -5.8425293 5.842518l0 0c-3.2267303 0 -5.842514 -2.6157837 -5.842514 -5.842518z" fill-rule="evenodd"/><path stroke="#efefef" stroke-width="1.0" stroke-linejoin="round" stroke-linecap="butt" d="m128.23885 36.062992l0 0c0 -3.2267342 2.6157837 -5.8425198 5.842514 -5.8425198l0 0c1.54953 0 3.0355988 0.6155491 4.1312866 1.711235c1.0956879 1.095686 1.7112427 2.5817509 1.7112427 4.1312847l0 0c0 3.2267342 -2.6157837 5.842518 -5.8425293 5.842518l0 0c-3.2267303 0 -5.842514 -2.6157837 -5.842514 -5.842518z" fill-rule="evenodd"/><path fill="#efefef" d="m162.68767 97.50656l0 0c0 -3.2267303 2.6157837 -5.8425217 5.842514 -5.8425217l0 0c1.54953 0 3.0355988 0.6155548 4.1312866 1.711235c1.0956879 1.0956879 1.7112274 2.5817566 1.7112274 4.1312866l0 0c0 3.226738 -2.6157837 5.8425217 -5.842514 5.8425217l0 0c-3.2267303 0 -5.842514 -2.6157837 -5.842514 -5.8425217z" fill-rule="evenodd"/><path stroke="#efefef" stroke-width="1.0" stroke-linejoin="round" stroke-linecap="butt" d="m162.68767 97.50656l0 0c0 -3.2267303 2.6157837 -5.8425217 5.842514 -5.8425217l0 0c1.54953 0 3.0355988 0.6155548 4.1312866 1.711235c1.0956879 1.0956879 1.7112274 2.5817566 1.7112274 4.1312866l0 0c0 3.226738 -2.6157837 5.8425217 -5.842514 5.8425217l0 0c-3.2267303 0 -5.842514 -2.6157837 -5.842514 -5.8425217z" fill-rule="evenodd"/><path fill="#d9d9d9" d="m172.87248 100.68912c-8.762466 -3.267273 -6.5358734 -44.85083 0.8897705 -60.593174c7.4256287 -15.742344 34.901566 -37.12817 43.664032 -33.860893c8.762466 3.2672791 16.336395 37.722225 8.910767 53.46457c-7.4256287 15.742344 -44.702103 44.25678 -53.46457 40.9895z" fill-rule="evenodd"/><path stroke="#d9d9d9" stroke-width="4.0" stroke-linejoin="round" stroke-linecap="butt" d="m172.87248 100.68912c-8.762466 -3.267273 -6.5358734 -44.85083 0.8897705 -60.593174c7.4256287 -15.742344 34.901566 -37.12817 43.664032 -33.860893c8.762466 3.2672791 16.336395 37.722225 8.910767 53.46457c-7.4256287 15.742344 -44.702103 44.25678 -53.46457 40.9895z" fill-rule="evenodd"/><path fill="#000000" fill-opacity="0.0" d="m-58.99318 329.44897l432.34644 -329.44882l55.496063 72.850395l-432.34647 329.44882z" fill-rule="evenodd"/><path fill="#666666" d="m51.66774 315.10065q-4.088825 3.1156921 -8.7486725 3.8573608q-4.647419 0.73220825 -8.931999 -0.9729614q-4.2940483 -1.7175903 -7.3144855 -5.682556q-3.0299053 -3.9773865 -3.5363617 -8.561493q-0.51592636 -4.596527 1.4329834 -8.871094q1.95187 -4.2964478 6.077978 -7.4405518q3.4798508 -2.6516724 7.204067 -3.564392q3.7366447 -0.9221802 7.4022293 -0.08114624l-1.1837807 6.697113q-5.09536 -1.067688 -9.097191 1.98172q-2.4856071 1.8940125 -3.6035843 4.47464q-1.1150188 2.5586853 -0.72213936 5.3434753q0.3958397 2.7628784 2.2895298 5.248749q1.8842239 2.4734497 4.452011 3.6009521q2.5802116 1.118042 5.352211 0.73446655q2.7749557 -0.40545654 5.2605667 -2.2994995q4.0018272 -3.049408 4.2966843 -8.283386l6.7701645 0.63619995q-0.14331436 3.7827148 -2.0271034 7.1629333q-1.8932571 3.3678284 -5.373108 6.01947zm27.56166 -21.002045q-4.150963 3.1630554 -8.857559 3.9207153q-4.716072 0.74520874 -9.000652 -0.95996094q-4.2940483 -1.7175903 -7.2860794 -5.6452637q-3.0014992 -3.940094 -3.5079575 -8.5242q-0.50645447 -4.5841064 1.4732285 -8.921417q1.9702187 -4.3497314 6.1211815 -7.5127563q4.163395 -3.1725159 8.854607 -3.8988037q4.694168 -0.74819946 8.99118 0.94750977q4.309433 1.6862183 7.310936 5.6263123q2.9920273 3.9276733 3.483101 8.543152q0.49402618 4.593567 -1.4637604 8.933838q-1.9548264 4.3183594 -6.118225 7.4908752zm-4.014618 -5.27005q2.3737488 -1.8088074 3.4514847 -4.339081q1.0806961 -2.5522156 0.6753845 -5.3275146q-0.39287567 -2.78479 -2.2770996 -5.2582397q-1.893692 -2.4858704 -4.4644394 -3.5914612q-2.5677795 -1.1275024 -5.305458 -0.75045776q-2.7347107 0.35516357 -5.108467 2.163971q-2.3613281 1.7993164 -3.4420204 4.351532q-1.0777359 2.5302734 -0.6848564 5.3150635q0.3958397 2.7628784 2.2895317 5.248749q1.8842201 2.4734497 4.4520073 3.6009521q2.5802155 1.118042 5.314926 0.7628784q2.7376785 -0.37704468 5.0990067 -2.1763916zm47.27146 -28.41858l-12.251587 -16.005463l2.1980133 19.207031l-2.7838821 2.121338l-17.638977 -6.910614l11.958656 15.698303l-5.803894 4.422577l-20.357178 -26.723145l5.1203537 -3.9017181l22.641998 8.991592l-2.794426 -24.115479l5.083069 -3.8733063l20.43174 26.666306l-5.8038864 4.422577zm-8.2178955 -35.97328l6.189163 -4.716156l20.35717 26.72313l-6.189163 4.716156l-20.35717 -26.72313zm37.030815 -28.217545l20.357178 26.72313l-5.070648 3.8638306l-25.70108 -6.071228l12.365799 16.232742l-6.102173 4.6498566l-20.35717 -26.723114l5.1203537 -3.9017181l25.641907 6.0966797l-12.3563385 -16.220322l6.102173 -4.6498566zm34.255157 -5.6527405l5.6547546 -4.3089294l8.256485 10.838394q-0.91560364 3.3103943 -3.114212 6.380493q-2.1956635 3.0482025 -5.103821 5.264221q-4.163391 3.1725159 -8.835663 3.9236603q-4.672287 0.75112915 -8.956863 -0.95402527q-4.294052 -1.7175751 -7.314499 -5.682541q-3.0299072 -3.9774017 -3.5363464 -8.561508q-0.5159302 -4.596527 1.4951172 -8.918442q2.0140228 -4.3438263 6.214691 -7.544739q3.504715 -2.6705933 7.262665 -3.6679535q3.7703705 -1.0068207 7.435364 -0.243927l-1.1837769 6.697113q-5.149811 -0.8297577 -9.201355 2.2575226q-2.5601807 1.9508667 -3.734375 4.535019q-1.1617737 2.5746765 -0.78131104 5.3689423q0.37097168 2.7818298 2.2930756 5.3049774q1.8842163 2.4734497 4.4768677 3.582016q2.592636 1.1085663 5.389496 0.7060547q2.787384 -0.41493225 5.310272 -2.337387q2.6720276 -2.036087 3.9385529 -4.8084564l-5.9651184 -7.8305054zm41.820206 -9.35466q-3.1691437 2.4149017 -6.7927704 3.8206482q-3.611206 1.3962708 -6.4518433 1.3803253l-1.4503326 -6.2614746q2.6808624 -0.039093018 5.6292267 -1.06781q2.9513397 -1.0506134 5.3250885 -2.8594208q2.6347504 -2.0076752 3.293457 -3.7472076q0.6587219 -1.7395477 -0.33546448 -3.044632q-0.72906494 -0.95706177 -1.9481659 -1.010315q-1.216156 -0.075149536 -2.6779022 0.42973328q-1.4617615 0.5048828 -3.7911224 1.5726624q-3.6035004 1.5868683 -6.1038666 2.3527832q-2.5003815 0.7659149 -5.1137543 0.22319031q-2.6228333 -0.5551605 -4.658554 -3.227478q-1.7705994 -2.3242798 -1.9545746 -5.170044q-0.1715393 -2.8552094 1.5210876 -5.893341q1.692627 -3.0381317 5.358902 -5.831848q2.5601654 -1.9508514 5.460022 -3.1979675q2.9122772 -1.2565918 5.6227264 -1.514679l1.6651459 6.156708q-5.303711 0.7215576 -9.007278 3.5436707q-2.597458 1.9792633 -3.1963959 3.7714844q-0.59599304 1.7703094 0.45500183 3.1499786q1.0415344 1.367218 2.9820557 0.9493408q1.9405212 -0.41789246 5.3783264 -2.0159912q3.6035004 -1.5868683 6.103882 -2.3527832q2.5003662 -0.7659149 5.085327 -0.2604828q2.5849762 0.5054321 4.620682 3.1777496q1.7516632 2.2994385 1.9107819 5.1641235q0.15911865 2.8647003 -1.5583649 5.921768q-1.7174835 3.0570679 -5.3713226 5.8413086zm28.50917 -21.724045q-4.1509705 3.1630402 -8.857574 3.9207q-4.7160645 0.745224 -9.000641 -0.9599304q-4.294052 -1.7175903 -7.286087 -5.645279q-3.0014954 -3.9401093 -3.5079498 -8.5242q-0.50645447 -4.584091 1.4732208 -8.921402q1.9702148 -4.3497467 6.1211853 -7.512787q4.163391 -3.1725159 8.854599 -3.898796q4.6941833 -0.7481842 8.99118 0.94750214q4.3094482 1.6862183 7.3109436 5.6263275q2.992035 3.9276886 3.4830933 8.543152q0.49404907 4.593567 -1.4637451 8.933838q-1.954834 4.3183594 -6.118225 7.4908752zm-4.014633 -5.27005q2.373764 -1.8088074 3.4514923 -4.339096q1.0806885 -2.5522003 0.6753845 -5.3275146q-0.39286804 -2.7847748 -2.2770996 -5.2582245q-1.893692 -2.4858704 -4.464432 -3.5914764q-2.5677948 -1.1275024 -5.3054657 -0.7504425q-2.7347107 0.35514832 -5.1084747 2.1639557q-2.3613129 1.7993317 -3.4420166 4.351532q-1.0777283 2.5302887 -0.684845 5.3150787q0.39582825 2.7628784 2.2895203 5.248764q1.8842316 2.4734344 4.452011 3.600937q2.5802155 1.118042 5.314926 0.7628784q2.737671 -0.37705994 5.098999 -2.1763916zm36.237717 -19.283997q-4.1509705 3.1630402 -8.857574 3.9206848q-4.7160645 0.745224 -9.000641 -0.9599304q-4.294037 -1.7175903 -7.286072 -5.6452637q-3.0014954 -3.9401093 -3.507965 -8.524208q-0.5064392 -4.584099 1.4732361 -8.921402q1.9702148 -4.349739 6.1211853 -7.512787q4.163391 -3.1725082 8.854584 -3.898796q4.6941833 -0.7481842 8.99118 0.94750977q4.3094482 1.6862183 7.3109436 5.6263275q2.992035 3.9276733 3.4830933 8.543144q0.49404907 4.593567 -1.4637451 8.93383q-1.954834 4.3183746 -6.118225 7.4908905zm-4.014618 -5.27005q2.3737488 -1.8088074 3.451477 -4.3391037q1.0806885 -2.5521927 0.6753845 -5.327507q-0.3928833 -2.78479 -2.2770996 -5.258232q-1.8936768 -2.4858704 -4.4644165 -3.5914764q-2.56781 -1.1275024 -5.305481 -0.75045013q-2.7347107 0.35515594 -5.1084595 2.1639633q-2.3613281 1.7993393 -3.4420166 4.351532q-1.0777283 2.5302887 -0.6848755 5.3150787q0.3958435 2.762886 2.2895508 5.2487564q1.8842163 2.4734497 4.451996 3.6009521q2.5802307 1.1180267 5.3149414 0.7628784q2.737671 -0.37705994 5.098999 -2.1763916zm27.100708 -55.283768l20.357178 26.723122l-5.070648 3.8638382l-25.70108 -6.071228l12.365784 16.232742l-6.1021423 4.649864l-20.357178 -26.72313l5.120331 -3.9017181l25.641907 6.0966873l-12.356323 -16.220314l6.102173 -4.649864zm5.1598816 -3.9318466l7.096405 -5.4074783l12.113068 18.350487l-4.7351074 3.6081467l-14.474365 -16.551155zm24.135895 24.334854q-1.5659485 1.1932449 -3.376831 0.9819641q-1.8203735 -0.22371674 -2.9281921 -1.677948q-1.1078186 -1.4542389 -0.82724 -3.2002792q0.29296875 -1.755516 1.8962097 -2.9771729q1.6032104 -1.2216568 3.3732605 -1.0381927q1.7700806 0.18346405 2.8778992 1.637703q1.1077881 1.4542313 0.8278198 3.2784042q-0.27700806 1.8022766 -1.842926 2.9955215z" fill-rule="nonzero"/></g></svg>