<?xml version="1.0" encoding="iso-8859-1"?>
<!-- Generator: Adobe Illustrator 21.0.0, SVG Export Plug-In . SVG Version: 6.00 Build 0)  -->
<svg version="1.1" id="Capa_1" xmlns="http://www.w3.org/2000/svg" xmlns:xlink="http://www.w3.org/1999/xlink" x="0px" y="0px"
	 viewBox="0 0 511.999 511.999" style="enable-background:new 0 0 511.999 511.999;" xml:space="preserve">
<path style="fill:#5A5555;" d="M332.391,452.016l0.091-0.071l0.091-0.051C332.533,451.915,332.482,451.955,332.391,452.016z"/>
<g>
	<circle style="fill:#7C3F2C;" cx="184.843" cy="194.102" r="81.113"/>
	<circle style="fill:#7C3F2C;" cx="327.125" cy="194.102" r="81.113"/>
</g>
<path style="fill:#E3A76F;" d="M418.528,431.637v54.16c0,10.281-8.326,18.607-18.607,18.607H112.055
	c-10.281,0-18.607-8.336-18.607-18.607v-54.16c0-47.677,38.703-85.995,85.985-85.995h1.985c26.275-0.071,25.13,0.172,27.146-0.223
	c5.399-1.013,9.471-5.753,9.471-11.476V302.31c0-2.512-1.489-4.761-3.788-5.794c-32.646-14.657-55.517-47.505-55.517-85.458V69.86
	h191.073v141.198c0,38.085-23.054,71.014-55.882,85.59v37.295c0,6.462,5.237,11.699,11.699,11.699
	c12.894,0.061,19.944-0.01,24.664-0.01c4.619,0,6.989,0.081,10.413,0.415C384.373,350.149,418.528,386.907,418.528,431.637z"/>
<path style="fill:#F2BB88;" d="M418.528,431.637v54.16c0,10.276-8.33,18.607-18.607,18.607H145.41
	c-10.271,0-18.597-8.326-18.597-18.597v-54.17c0-47.677,38.703-80.149,85.975-80.149c28.331-0.081,27.065,0.182,29.141-0.223
	c5.389-1.013,9.471-5.753,9.471-11.476v-37.475c0-2.512-1.493-4.767-3.784-5.796c-32.658-14.658-55.531-47.507-55.531-85.459V69.86
	h157.718v141.198c0,38.085-23.054,71.014-55.882,85.59v37.295c0,6.462,5.237,11.699,11.699,11.699
	c25.535,0.111,28.179-0.273,35.077,0.405C384.373,350.149,418.528,386.907,418.528,431.637z"/>
<path style="fill:#C0694E;" d="M379.552,44.081v69.698c0,14.434-13.36,26.244-29.698,26.244h-1.236
	c-16.338,0-29.698-11.81-29.698-26.244v-9.501c0-2.188-2.968-3.272-4.73-1.742c-11.638,10.251-31.764,14.788-47.799,17.27
	l-89.105,12.6l-27.784,3.93c-9.44,0-17.088-6.756-17.088-15.102V62.557c0-18.992,11.051-35.816,27.753-45.692
	c9.886-5.855,21.737-9.268,34.459-9.268h71.764c26.437,0,41.012,10.828,53.896,28.635c3.798-10.625,15.092-18.384,28.331-18.384
	C373.333,17.847,379.552,36.505,379.552,44.081z"/>
<path style="fill:#C97E67;" d="M379.552,44.081v56.327c-0.77,0.061-1.56,0.091-2.35,0.091h-1.236
	c-16.338,0-29.698-11.8-29.698-26.234v-9.511c0-2.178-2.968-3.272-4.73-1.732c-11.638,10.251-31.764,14.778-47.799,17.26
	l-89.095,12.6l-27.794,3.94c-9.44,0-17.088-6.766-17.088-15.102V23.043c0-2.087,0.132-4.153,0.405-6.179
	c9.886-5.855,21.737-9.268,34.459-9.268h71.764c26.437,0,41.012,10.828,53.896,28.635c3.798-10.625,15.092-18.384,28.331-18.384
	C373.333,17.847,379.552,36.505,379.552,44.081z"/>
<path style="fill:#E3A76F;" d="M132.696,198.575c0,16.745,13.575,30.321,30.32,30.321v-60.641
	C146.271,168.255,132.696,181.829,132.696,198.575z"/>
<path style="fill:#F2BB88;" d="M345.512,168.255v60.641c16.745,0,30.32-13.575,30.32-30.321
	C375.832,181.829,362.258,168.255,345.512,168.255z"/>
<path style="fill:#DCD2CD;" d="M334.012,180.215c0,15.052-9.916,27.804-23.59,32.048c-3.15,0.983-6.493,1.509-9.967,1.509
	c-18.536,0-33.557-15.031-33.557-33.557c0-18.536,15.021-33.557,33.557-33.557c3.474,0,6.817,0.527,9.967,1.509
	C324.096,152.411,334.012,165.153,334.012,180.215z"/>
<path style="fill:#EBE1DC;" d="M334.012,180.215c0,15.052-9.916,27.804-23.59,32.048c-13.674-4.234-23.601-16.986-23.601-32.048
	c0-15.072,9.926-27.814,23.601-32.048C324.096,152.411,334.012,165.153,334.012,180.215z"/>
<path style="fill:#DCD2CD;" d="M241.413,180.215c0,15.062-9.937,27.814-23.601,32.058c-3.15,0.972-6.493,1.499-9.957,1.499
	c-18.536,0-33.557-15.031-33.557-33.557c0-18.536,15.021-33.557,33.557-33.557c3.464,0,6.807,0.527,9.957,1.499
	C231.476,152.401,241.413,165.143,241.413,180.215z"/>
<path style="fill:#EBE1DC;" d="M241.413,180.215c0,15.062-9.937,27.814-23.601,32.058c-13.664-4.244-23.601-16.996-23.601-32.058
	c0-15.072,9.937-27.814,23.601-32.058C231.476,152.401,241.413,165.143,241.413,180.215z"/>
<g>
	<polygon style="fill:#736E6E;" points="196.828,403.502 256.576,502.008 316.003,403.502 	"/>
	<path style="fill:#736E6E;" d="M340.697,346.047c-3.303-0.322-2.406-0.397-6.487-0.401c-0.289,0-0.574,0.087-0.812,0.251
		c-3.321,2.289-5.99,5.403-7.743,9.036l-69.161,143.352c-75.856-156.229-71.146-150.061-74.701-151.945l-0.452-0.134
		c-1.265-0.375-2.581-0.572-3.9-0.542c-46.373,1.057-83.994,38.966-83.994,85.972v54.16c0,10.271,8.326,18.607,18.607,18.607
		h287.866c10.276,0,18.607-8.331,18.607-18.607v-54.16C418.528,386.907,384.373,350.149,340.697,346.047z"/>
	<path style="fill:#736E6E;" d="M328.325,349.391c0.833-1.726,2.338-3.095,4.197-3.558c2.451-0.609,4.934,0.283,6.442,2.175
		c8.057,10.11,35.911,50.332-8.09,75.594c-1.511,0.868-2.265,2.637-1.828,4.324l5.115,19.778c0.408,1.579-0.217,3.245-1.564,4.166"
		/>
</g>
<g>
	<path style="fill:#5A5555;" d="M183.951,348.326c-4.73,1.215-9.298,2.816-13.684,4.781c-29.941,13.401-50.918,43.423-50.918,78.53
		v54.16c0,10.271,8.326,18.607,18.607,18.607h-25.9c-10.281,0-18.607-8.336-18.607-18.607v-54.16
		c0-47.009,37.619-84.911,83.99-85.975h0.334c1.215,0.01,2.411,0.203,3.565,0.547l0.456,0.132c0.557,0.294,0.912,0.395,1.398,0.942
		c0.041,0.041,0.081,0.091,0.122,0.142c0.111,0.132,0.233,0.304,0.365,0.496c0.071,0.081,0.132,0.182,0.192,0.284
		C183.89,348.245,183.921,348.285,183.951,348.326z"/>
	<path style="fill:#5A5555;" d="M342.885,353.107c-4.42-6.5-5.957-8.423-11.071-6.898c-3.681,1.412,2.053-6.944-75.238,152.244
		c-77.291-159.188-71.558-150.832-75.238-152.244c-5.114-1.525-6.651,0.398-11.071,6.898c-14.798,21.554-18.546,45.52,1.286,63.033
		c8.549,7.546,13.563,7.232,12.388,11.79l-5.115,19.772c-0.355,1.388,0.081,2.836,1.094,3.788c0.405,0.375-3.494-2.37,76.656,52.914
		c80.151-55.284,76.251-52.539,76.656-52.914c1.013-0.952,1.448-2.401,1.094-3.788l-5.115-19.772
		c-1.175-4.558,3.839-4.244,12.388-11.79C361.431,398.626,357.683,374.661,342.885,353.107z"/>
</g>
<path d="M166.421,141.62c0.017-0.002,0.035-0.005,0.053-0.007C166.458,141.615,166.442,141.617,166.421,141.62z"/>
<path d="M425.365,419.664c-0.537-4.163-4.335-7.09-8.498-6.564c-4.163,0.527-7.111,4.335-6.574,8.498
	c1.101,8.551,0.451,10.597,0.638,64.198c0,6.067-4.943,11.01-11,11.01h-119.63l58.827-40.199c2.643-1.806,3.87-5.076,3.068-8.174
	l-5.094-19.701c28.192-17.475,32.162-44.46,16.41-72.638c20.719,5.701,38.31,19.725,48.526,39.231
	c1.936,3.698,6.494,5.174,10.251,3.211c3.717-1.945,5.156-6.533,3.201-10.251c-28.93-55.281-83.207-50.119-109.869-50.24
	c-2.269,0-4.102-1.843-4.102-4.102V301.46c9.693-4.882,18.404-11.213,25.89-18.647c48.791-0.152,88.436-39.888,88.436-88.71
	c0-27.095-12.205-51.384-31.41-67.672c4.531-10.11,1.974-15.452,2.715-53.998c0-4.193-3.393-7.597-7.597-7.597
	c-4.193,0-7.597,3.403-7.597,7.597c-0.142,43.625,0.316,41.729-0.405,44.892c-1.534,6.717-7.237,11.86-14.15,13.978
	c-13.997,4.324-30.893-3.541-30.893-17.523c0-0.264,0-9.214,0-9.501c0-8.716-10.686-13.254-17.331-7.445
	c-17.458,15.367-58.912,16.618-79.827,20.542c-8.399,1.188-12.016,1.7-13.431,1.899c0.022-0.003-7.305,1.032-66.882,9.454
	c-4.943-0.192-9.025-3.545-9.025-7.495c0-16.792,0-41.886,0-58.677c0-26.113,24.502-47.363,54.615-47.363h71.764
	c24.33,0,36.677,10.19,47.738,25.485c3.586,4.971,11.254,3.843,13.31-1.884c6.724-18.836,41.828-18.11,44.446,4.153
	c0.496,4.163,4.274,7.131,8.437,6.645s7.141-4.264,6.655-8.437c-1.367-11.476-10.97-30.904-38.358-30.904
	c-11.618,0-22.233,4.832-29.161,12.732C308.456,10.595,292.908,0,266.391,0h-71.764c-38.49,0-69.809,28.067-69.809,62.557
	c0.361,60.8-0.817,59.627,1.074,65.302c-59.201,52.762-24.468,151.486,55.132,154.872c8.508,8.478,18.445,15.376,29.415,20.4v30.812
	c0,13.895-50.891-13.223-96.033,30.407c-3.018,2.917-3.099,7.718-0.182,10.737c1.489,1.55,3.474,2.32,5.46,2.32
	c1.904,0,3.809-0.709,5.277-2.127c9.841-9.509,21.766-16.144,34.7-19.504c-5.798,10.274-11.282,24.605-8.685,39.449
	c2.356,13.465,10.727,24.715,24.912,33.508l-5.096,19.701c-0.801,3.099,0.425,6.368,3.069,8.174l58.827,40.199H112.055
	c-6.067,0-11.01-4.943-11.01-11.01v-54.15c0-11.942,2.613-23.398,7.749-34.043c1.833-3.778,0.243-8.326-3.535-10.149
	c-3.778-1.823-8.316-0.243-10.139,3.535c-6.148,12.732-9.268,26.406-9.268,40.658v54.15c0,14.444,11.75,26.204,26.204,26.204
	h287.876c14.444,0,26.194-11.76,26.194-26.204C425.907,432.285,426.656,429.728,425.365,419.664z M357.4,179.212
	c14.598,9.018,14.368,30.121-0.243,38.865C357.572,212.109,357.331,210.068,357.4,179.212z M354.402,235.438
	c16.642-4.011,29.03-19.012,29.03-36.859c0-16.763-10.919-31.015-26.031-36.009v-15.649c6.797-1.276,12.925-4.234,17.827-8.387
	c46.405,40.215,25.83,116.381-34.358,127.787C347.038,256.901,351.636,246.469,354.402,235.438z M215.122,119.387
	C215.105,119.389,215.107,119.389,215.122,119.387L215.122,119.387z M215.901,119.277H215.9H215.901z M151.376,218.077
	c-14.653-8.769-14.794-29.89-0.243-38.865C151.203,210.785,150.963,212.139,151.376,218.077z M135.322,139.8
	c4.96,3.219,11.041,4.548,15.811,3.981v18.789c-15.102,4.994-26.031,19.245-26.031,36.009c0,17.837,12.388,32.838,29.009,36.849
	c2.634,10.585,6.989,20.694,12.965,30.012C110.229,251.287,92.046,179.299,135.322,139.8z M209.972,352.884
	c9.076-1.702,15.659-9.673,15.659-18.941v-35.826c0-3.12-1.894-5.915-4.791-7.07c-25.306-10.037-44.446-31.8-51.546-57.877
	c-3.803-13.917-2.968-17.683-2.968-91.536c0.036-0.005,0.068-0.009,0.094-0.013c-0.032,0.004-0.062,0.009-0.082,0.011
	c0.024-0.003,0.069-0.01,0.142-0.02c-0.002,0-0.005,0-0.007,0.001c0.058-0.008,0.083-0.012,0.087-0.012
	c1.655-0.234,13.285-1.88,79.876-11.301c10.553-2.012,43.699-3.834,64.876-16.368c0.059,16.334,13.166,30.399,30.893,33.193
	c0,11.447,0,47.829,0,63.934c0,33.542-19.816,64.607-51.374,78.652c-2.745,1.215-4.507,3.94-4.507,6.938v37.295
	c0,10.646,8.65,19.296,19.255,19.296c4.679,0.021,8.585,0.025,11.9,0.022l-18.724,42.645h-83.226l-20.582-42.681
	C206.776,353.241,207.478,353.373,209.972,352.884z M166.324,141.634C166.312,141.636,166.309,141.636,166.324,141.634
	L166.324,141.634z M166.553,141.601c0,0-0.001,0-0.002,0C166.552,141.601,166.553,141.601,166.553,141.601z M186.838,447.073
	l5.211-20.151c0.881-3.408-0.695-6.978-3.81-8.621c-12.993-6.858-20.492-15.486-22.289-25.645
	c-2.706-15.305,7.455-31.212,12.713-38.22l62.61,129.833L186.838,447.073z M222.855,411.099h69.228l-32.993,75.14L222.855,411.099z
	 M333.839,353.794c5.085,6.634,15.994,23.07,13.201,38.863c-1.796,10.158-9.296,18.787-22.29,25.645
	c-3.114,1.643-4.691,5.211-3.809,8.621l5.21,20.151l-47.531,32.48L333.839,353.794z"/>
<circle cx="207.856" cy="180.215" r="10.98"/>
<circle cx="300.456" cy="180.215" r="10.98"/>
<path d="M248.885,183.206h10.537c1.541,21.298,19.349,38.159,41.034,38.159c22.692,0,41.153-18.461,41.153-41.153
	s-18.461-41.153-41.153-41.153c-18.447,0-34.097,12.199-39.308,28.954H247.16c-5.21-16.754-20.861-28.954-39.308-28.954
	c-22.692,0-41.153,18.461-41.153,41.153s18.461,41.153,41.153,41.153C229.536,221.365,247.344,204.504,248.885,183.206z
	 M300.455,154.252c14.314,0,25.96,11.645,25.96,25.96s-11.645,25.96-25.96,25.96c-14.315,0-25.961-11.645-25.961-25.96
	S286.14,154.252,300.455,154.252z M207.852,206.171c-14.314,0-25.96-11.645-25.96-25.96s11.645-25.96,25.96-25.96
	c14.314,0,25.96,11.645,25.96,25.96S222.167,206.171,207.852,206.171z"/>
<path d="M255.037,261.127c18.919,0,34.31-15.391,34.31-34.31c0-4.196-3.4-7.597-7.597-7.597s-7.597,3.4-7.597,7.597
	c0,10.54-8.576,19.116-19.116,19.116c-10.54,0-19.116-8.576-19.116-19.116c0-4.196-3.401-7.597-7.597-7.597
	c-4.195,0-7.597,3.4-7.597,7.597C220.727,245.736,236.118,261.127,255.037,261.127z"/>
<g>
</g>
<g>
</g>
<g>
</g>
<g>
</g>
<g>
</g>
<g>
</g>
<g>
</g>
<g>
</g>
<g>
</g>
<g>
</g>
<g>
</g>
<g>
</g>
<g>
</g>
<g>
</g>
<g>
</g>
</svg>
