<svg width="62" height="45" viewBox="0 0 62 45" fill="none" xmlns="http://www.w3.org/2000/svg">
<g clip-path="url(#clip0)">
<path d="M59.0012 6.0127H2.99876C1.34987 6.0127 0 7.3621 0 9.01042V42.0025C0 43.6593 1.34987 45.0002 2.99876 45.0002H59.0012C60.6587 45.0002 62 43.6508 62 42.0025V9.01042C62 7.3621 60.6501 6.0127 59.0012 6.0127Z" fill="#E55529"/>
<path d="M34.0034 40.0039H28.0059V45.0001H34.0034V40.0039Z" fill="#E3001E"/>
<path d="M5.43311 38.3809C13.6519 34.9903 22.9472 35.1953 31.0294 38.9958V3.01459C22.6738 -0.914051 13.0368 -1.008 4.62148 2.74129C4.26265 2.90356 4.02344 3.2708 4.02344 3.66367V37.467C4.02344 38.193 4.75818 38.6627 5.43311 38.3809Z" fill="#FFEBB7"/>
<path d="M31.03 39.0046C39.1122 35.2041 48.4075 34.9905 56.6263 38.3897C57.2927 38.663 58.0274 38.2018 58.0274 37.4758V3.67246C58.0274 3.27959 57.7968 2.91235 57.4294 2.75008C49.0141 -0.999208 39.377 -0.905262 31.0215 3.02338V39.0046H31.03Z" fill="#FFD788"/>
<path d="M25.0242 18.5072C25.0242 18.9086 25.4684 19.1478 25.8016 18.9257L28.0229 17.4482L30.2443 18.9257C30.5775 19.1478 31.0217 18.9086 31.0217 18.5072V3.10014C31.0217 2.70728 30.791 2.34004 30.4322 2.17777C28.8773 1.48598 27.2711 0.930851 25.6478 0.503825C25.3317 0.41842 25.0156 0.666095 25.0156 0.990634L25.0242 18.5072Z" fill="#5D647F"/>
</g>
<defs>
<clipPath id="clip0">
<rect width="62" height="45" fill="white"/>
</clipPath>
</defs>
</svg>
