<svg width="62" height="62" viewBox="0 0 62 62" fill="none" xmlns="http://www.w3.org/2000/svg">
<g clip-path="url(#clip0)">
<path d="M41.3333 40.3939L31 34.3155L41.3333 28.2923L51.6667 22.2139L62 28.2923L51.6667 34.3155L41.3333 40.3939Z" fill="#D9AC80"/>
<path d="M30.8896 34.2603V57.9662L51.3905 46.0856V34.4813L41.3335 40.3939L31.0002 34.3155L30.8896 34.2603Z" fill="#A67E4F"/>
<path d="M20.6667 40.3939L31 34.3155L20.6667 28.2923L10.3333 22.2139L0 28.2923L10.3333 34.3155L20.6667 40.3939Z" fill="#D9AC80"/>
<path d="M31.0007 10.0566L41.334 16.1351L51.6673 22.2135L41.334 28.2919L31.0007 34.3151L20.6673 28.2919L10.334 22.2135L20.6673 16.1351L31.0007 10.0566Z" fill="#643513"/>
<path d="M20.6667 4.03369L31 10.0569L20.6667 16.1353L10.3333 22.2137L0 16.1353L10.3333 10.0569L20.6667 4.03369Z" fill="#D9AC80"/>
<path d="M41.3333 4.03369L31 10.0569L41.3333 16.1353L51.6667 22.2137L62 16.1353L51.6667 10.0569L41.3333 4.03369Z" fill="#D9AC80"/>
<path d="M30.8901 34.4255V57.9656L10.334 46.085V34.3149L20.6673 40.3934L30.8901 34.4255Z" fill="#926E43"/>
<path d="M20.6673 16.1351L10.334 22.2135L20.6673 28.2919L23.9828 30.226L31.0006 26.1369V10.0566L20.6673 16.1351Z" fill="#8D5122"/>
<path d="M31 10.0566V26.1369L38.0178 30.226L41.3333 28.2919L51.6667 22.2135L41.3333 16.1351L31 10.0566Z" fill="#77411B"/>
</g>
<defs>
<clipPath id="clip0">
<rect width="62" height="62" fill="white"/>
</clipPath>
</defs>
</svg>
