<?xml version="1.0"?>
<svg xmlns="http://www.w3.org/2000/svg" enable-background="new 0 0 512 512" height="512px" viewBox="0 0 512 512" width="512px" class=""><g><g><g><g id="_x32_5_chat"><g><g><path clip-rule="evenodd" d="m447.9479 362.0369h-295.3023l-57.0962 38.9673v48.3653c0 7.6789 3.2643 8.166 8.8193 4.126l76.9681-52.4913h307.1567c8.7906 0 16.0064-7.2204 16.0064-16.0167v-273.0292c0-8.825-7.2158-16.0167-16.0064-16.0167h-22.8213v248.3594c.0001 9.7705-7.9888 17.7359-17.7243 17.7359z" fill="#cdbeb9" fill-rule="evenodd" data-original="#9EDDCC" class="" style="fill:#9EDDCC" data-old_color="#cdbeb9"/></g><g><path clip-rule="evenodd" d="m447.9479 56h-422.6948c-9.7642 0-17.7531 7.994-17.7531 17.7645v270.5365c0 9.7705 7.9889 17.7359 17.7531 17.7359h32.385v53.6088c0 8.5098 3.6079 9.0255 9.7642 4.5557l85.2434-58.1645h295.3022c9.7356 0 17.7245-7.9654 17.7245-17.7359v-270.5365c-.0001-9.7705-7.989-17.7645-17.7245-17.7645z" fill="#ffefd2" fill-rule="evenodd" data-original="#4FD9B3" class="" style="fill:#4FD9B3" data-old_color="#ffefd2"/></g><g><path d="m94.9482 103.312h-46.6445c-4.1426 0-7.5 3.3579-7.5 7.5s3.3574 7.5 7.5 7.5h15.8076v57.1113c0 4.1421 3.3574 7.5 7.5 7.5s7.5-3.3579 7.5-7.5v-57.1113h15.8369c4.1426 0 7.5-3.3579 7.5-7.5s-3.3574-7.5-7.5-7.5z" data-original="#094492" class="active-path" style="fill:#094492" data-old_color="#000000"/><path d="m202.3594 182.3457c.9434.3936 1.9209.5796 2.8838.5796 2.9365 0 5.7246-1.7358 6.9248-4.6152l4.7434-11.3745h30.5588l4.7437 11.3745c1.2002 2.8799 3.9883 4.6152 6.9248 4.6152.9619 0 1.9404-.1865 2.8838-.5796 3.8232-1.5947 5.6299-5.9863 4.0352-9.8091l-5.9272-14.2128c-.1865-1.2523-.6804-2.4012-1.4058-3.371l-19.5958-46.988c-.002-.0047-.0039-.0094-.0059-.0141l-.0106-.0254c-.0588-.1412-.1145-.2556-.1685-.3568-.7683-1.6016-2.098-2.9413-3.8667-3.6788-3.8203-1.5933-8.2148.2119-9.8086 4.0356l-26.9443 64.6113c-1.5948 3.8233.2118 8.2149 4.0351 9.8091zm29.8312-52.0489 9.0242 21.6387h-18.048z" data-original="#094492" class="active-path" style="fill:#094492" data-old_color="#000000"/><path d="m127.3623 182.9233c4.1426 0 7.5-3.3579 7.5-7.5v-24.8198h29.4395v24.8198c0 4.1421 3.3574 7.5 7.5 7.5s7.5-3.3579 7.5-7.5v-64.6113c0-4.1421-3.3574-7.5-7.5-7.5s-7.5 3.3579-7.5 7.5v24.7915h-29.4395v-24.7915c0-4.1421-3.3574-7.5-7.5-7.5s-7.5 3.3579-7.5 7.5v64.6113c0 4.1421 3.3574 7.5 7.5 7.5z" data-original="#094492" class="active-path" style="fill:#094492" data-old_color="#000000"/><path d="m293.2676 182.9233c4.1426 0 7.5-3.3579 7.5-7.5v-42.0324l34.7383 46.5197c1.4727 1.9722 3.7295 3.0132 6.0156 3.0132 1.5605 0 3.1348-.4854 4.4814-1.4912 1.8726-1.3979 2.9043-3.5028 3.0042-5.6679.0056-.098.0085-.2114.0085-.3414v-64.6113c0-4.1421-3.3574-7.5-7.5-7.5s-7.5 3.3579-7.5 7.5v42.0324l-34.7383-46.5197c-2.4775-3.3184-7.1777-4.002-10.4971-1.522-1.9258 1.4376-2.9563 3.6232-3.0044 5.8528-.0024.0526-.0083.095-.0083.1564v64.6113c.0001 4.1422 3.3575 7.5001 7.5001 7.5001z" data-original="#094492" class="active-path" style="fill:#094492" data-old_color="#000000"/><path d="m379.3408 182.9233c4.1426 0 7.5-3.3579 7.5-7.5v-18.2342l13.1174-12.4247 17.2146 34.0432c1.3213 2.6118 3.96 4.1172 6.6992 4.1172 1.1377 0 2.2939-.2598 3.3789-.8086 3.6963-1.8691 5.1777-6.3809 3.3086-10.0771l-19.2355-38.0401 18.7307-17.7416c3.0078-2.8486 3.1367-7.5957.2881-10.603-2.8506-3.0083-7.5986-3.1348-10.6025-.2876l-22.6309 21.4357c-.1233.1102-.2437.2224-.3586.3397l-9.9099 9.3867v-25.7169c0-4.1421-3.3574-7.5-7.5-7.5s-7.5 3.3579-7.5 7.5v64.6113c-.0001 4.1421 3.3573 7.5 7.4999 7.5z" data-original="#094492" class="active-path" style="fill:#094492" data-old_color="#000000"/><path d="m488.4932 88.4414h-15.3213v-14.6768c0-13.9312-11.3154-25.2646-25.2236-25.2646h-422.6954c-13.9248 0-25.2529 11.3335-25.2529 25.2646v270.5366c0 13.915 11.3281 25.2358 25.2529 25.2358h24.8848v46.1084c0 6.9316 2.1553 11.5449 6.4043 13.7109 1.5908.8105 3.1904 1.1318 4.7305 1.1318 4.6436 0 8.749-2.9214 10.4473-4.1538l16.3301-11.1424v34.1776c0 6.5591 2.083 10.9458 6.1904 13.0376 1.5596.7944 3.1182 1.1079 4.6123 1.1079 4.4043-.0005 8.2383-2.7266 9.8359-3.8872l74.9629-51.1235h304.8418c12.9619 0 23.5068-10.5498 23.5068-23.5171v-273.0287c0-12.9673-10.5449-23.5171-23.5068-23.5171zm-423.3555 324.2256v-50.6299c0-4.1421-3.3574-7.5-7.5-7.5h-32.3848c-5.6533 0-10.2529-4.5918-10.2529-10.2358v-270.5367c0-5.6601 4.5996-10.2646 10.2529-10.2646h422.6953c5.6377 0 10.2236 4.6045 10.2236 10.2646v270.5366c0 5.644-4.5859 10.2358-10.2236 10.2358h-295.3027c-1.5078 0-2.9814.4546-4.2275 1.3047zm431.8623-27.6797c0 4.6167-3.8955 8.5171-8.5068 8.5171h-307.1563c-1.5078 0-2.9805.4546-4.2256 1.3037l-74.0615 50.5093v-40.3601l51.9111-35.4202h292.9873c13.9082 0 25.2236-11.3208 25.2236-25.2358v-240.8599h15.3213c4.6904 0 8.5068 3.8208 8.5068 8.5171v273.0288z" data-original="#094492" class="active-path" style="fill:#094492" data-old_color="#000000"/><path d="m166.0859 234.4019c-3.3809-2.3945-8.0605-1.5947-10.4551 1.7847l-16.8154 23.7375-16.8154-23.7376c-2.3945-3.3794-7.0762-4.1807-10.4551-1.7847-3.3809 2.3945-4.1797 7.0757-1.7852 10.4556l21.5557 30.429v29.8469c0 4.1421 3.3574 7.5 7.5 7.5s7.5-3.3579 7.5-7.5v-29.8469l21.5557-30.429c2.3945-3.3799 1.5957-8.061-1.7852-10.4555z" data-original="#094492" class="active-path" style="fill:#094492" data-old_color="#000000"/><path d="m214.5527 312.6904c18.4404 0 33.4424-15.0098 33.4424-33.459v-12.6074c0-18.4653-15.002-33.4878-33.4424-33.4878-18.4561 0-33.4717 15.0225-33.4717 33.4878v12.6074c.0001 18.4493 15.0157 33.459 33.4717 33.459zm-18.4716-46.0664c0-10.1943 8.2861-18.4878 18.4717-18.4878 10.1689 0 18.4424 8.2935 18.4424 18.4878v12.6074c0 10.1782-8.2734 18.459-18.4424 18.459-10.1855 0-18.4717-8.2808-18.4717-18.459z" data-original="#094492" class="active-path" style="fill:#094492" data-old_color="#000000"/><path d="m265.8955 284.3887c0 18.5381 14.6631 28.2373 29.1465 28.2373 14.4844 0 29.1475-9.6992 29.1475-28.2373v-43.8667c0-4.1421-3.3574-7.5-7.5-7.5s-7.5 3.3579-7.5 7.5v43.8667c0 9.7705-7.6211 13.2373-14.1475 13.2373-6.5254 0-14.1465-3.4668-14.1465-13.2373v-43.8667c0-4.1421-3.3574-7.5-7.5-7.5s-7.5 3.3579-7.5 7.5z" data-original="#094492" class="active-path" style="fill:#094492" data-old_color="#000000"/><path d="m358.4385 281.4019c4.1426 0 7.5-3.3579 7.5-7.5v-33.3799c0-4.1421-3.3574-7.5-7.5-7.5s-7.5 3.3579-7.5 7.5v33.3799c0 4.142 3.3574 7.5 7.5 7.5z" data-original="#094492" class="active-path" style="fill:#094492" data-old_color="#000000"/><path d="m358.4385 312.6333c4.1426 0 7.5-3.3579 7.5-7.5v-.4302c0-4.1421-3.3574-7.5-7.5-7.5s-7.5 3.3579-7.5 7.5v.4302c0 4.1421 3.3574 7.5 7.5 7.5z" data-original="#094492" class="active-path" style="fill:#094492" data-old_color="#000000"/></g></g></g></g></g></g> </svg>
