<svg xmlns="http://www.w3.org/2000/svg" id="Layer_1" width="512" height="512" enable-background="new 0 0 512 512" viewBox="0 0 512 512"><g><g><g><g><g><g><path fill="#1de8f1" d="m497 456.833c0 22.092-18.074 40.167-40.166 40.167h-401.666c-22.092 0-40.168-18.075-40.168-40.167v-401.667c0-22.091 18.076-40.166 40.168-40.166h401.666c22.092 0 40.166 18.075 40.166 40.166z" data-old_color="#1de8f1" data-original="#0988EC" style="fill:#0988ec"/></g><g><path d="m456.834 512h-401.666c-30.42 0-55.168-24.748-55.168-55.167v-401.667c0-30.419 24.748-55.166 55.168-55.166h401.666c30.418 0 55.166 24.747 55.166 55.166v401.667c0 30.419-24.748 55.167-55.166 55.167zm-401.666-482c-13.877 0-25.168 11.289-25.168 25.166v401.667c0 13.877 11.291 25.167 25.168 25.167h401.666c13.877 0 25.166-11.29 25.166-25.167v-401.667c0-13.877-11.289-25.166-25.166-25.166z" data-old_color="#000000" data-original="#094492" style="fill:#094492"/></g></g><g><g><path fill="#e7f0ef" d="m392.332 153.752c-12.549-12.547-32.896-12.547-45.445 0l-136.33 136.333-45.443-45.445c-12.549-12.55-32.893-12.55-45.443 0-12.549 12.548-12.549 32.894 0 45.442l68.166 68.168c12.549 12.548 32.893 12.548 45.441 0l159.055-159.055c12.548-12.549 12.544-32.894-.001-45.443z" class="active-path" data-old_color="#e7f0ef" data-original="#E7F0EF" style="fill:#e7f0ef"/></g><g><path d="m210.557 382.661c-12.588 0-24.424-4.902-33.326-13.804l-68.166-68.169c-8.902-8.902-13.805-20.738-13.805-33.328s4.902-24.426 13.805-33.328 20.74-13.805 33.328-13.805c12.59 0 24.426 4.903 33.328 13.806l34.836 34.838 125.723-125.726c8.904-8.901 20.74-13.804 33.33-13.804s24.426 4.902 33.328 13.803c18.375 18.382 18.375 48.283 0 66.657l-159.055 159.055c-8.901 8.903-20.737 13.805-33.326 13.805zm-68.164-132.433c-4.576 0-8.879 1.782-12.115 5.02-3.236 3.235-5.018 7.537-5.018 12.113s1.781 8.879 5.018 12.115l68.166 68.168c3.234 3.235 7.537 5.018 12.113 5.018s8.879-1.782 12.113-5.018l159.055-159.055c6.68-6.68 6.68-17.55-.002-24.232-3.232-3.232-7.537-5.015-12.113-5.015-4.578 0-8.881 1.782-12.117 5.018l-136.329 136.331c-2.813 2.813-6.629 4.394-10.607 4.394s-7.793-1.58-10.605-4.394l-45.443-45.445c-3.238-3.236-7.54-5.018-12.116-5.018z" data-old_color="#000000" data-original="#094492" style="fill:#094492"/></g></g></g></g></g></g></svg>