<svg width="551" height="555" viewBox="0 0 551 555" fill="none" xmlns="http://www.w3.org/2000/svg">
<path d="M277 550C425.565 550 546 429.788 546 281.5C546 133.212 425.565 13 277 13C128.435 13 8 133.212 8 281.5C8 429.788 128.435 550 277 550Z" stroke="#324A5E" stroke-width="10" stroke-miterlimit="10"/>
<path d="M276.5 27C283.956 27 290 20.9558 290 13.5C290 6.04416 283.956 0 276.5 0C269.044 0 263 6.04416 263 13.5C263 20.9558 269.044 27 276.5 27Z" fill="#324A5E"/>
<path d="M536.5 237C543.956 237 550 230.956 550 223.5C550 216.044 543.956 210 536.5 210C529.044 210 523 216.044 523 223.5C523 230.956 529.044 237 536.5 237Z" fill="#324A5E"/>
<path d="M434.5 512C441.956 512 448 506.18 448 499C448 491.82 441.956 486 434.5 486C427.044 486 421 491.82 421 499C421 506.18 427.044 512 434.5 512Z" fill="#324A5E"/>
<path d="M102.5 500C109.956 500 116 494.18 116 487C116 479.82 109.956 474 102.5 474C95.0442 474 89 479.82 89 487C89 494.18 95.0442 500 102.5 500Z" fill="#324A5E"/>
<path d="M13.5 236C20.9558 236 27 230.18 27 223C27 215.82 20.9558 210 13.5 210C6.04416 210 0 215.82 0 223C0 230.18 6.04416 236 13.5 236Z" fill="#324A5E"/>
</svg>
