<svg height="511pt" viewBox="-21 1 511 511.99933" width="511pt" xmlns="http://www.w3.org/2000/svg"><path d="m68.71875 255.796875h255.796875v247.265625h-255.796875zm0 0" fill="#3c4c5c"/><path d="m68.710938 255.796875v247.265625h-59.6875v-187.582031c0-32.964844 26.722656-59.683594 59.6875-59.683594zm0 0" fill="#d1e3ee"/><path d="m119.871094 255.796875h153.476562v25.578125c0 42.382812-34.359375 76.738281-76.738281 76.738281-42.382813 0-76.738281-34.355469-76.738281-76.738281zm0 0" fill="#d1e3ee"/><path d="m188.089844 317.773438h17.054687v185.289062h-17.054687zm0 0" fill="#a9bfd1"/><path d="m350.09375 306.953125 110.84375 110.84375-76.738281 76.742187h-34.105469l-102.316406-102.320312 85.265625-85.265625zm0 0" fill="#f6f6e7"/><path d="m256.300781 451.90625h76.742188v51.15625h-76.742188zm0 0" fill="#f8c09c"/><path d="m324.507812 255.796875c32.960938 0 59.683594 26.71875 59.683594 59.683594v187.582031h-59.683594zm0 0" fill="#d1e3ee"/><path d="m273.347656 85.265625v136.773437c.003906 18.636719-15.101562 33.75-33.738281 33.753907-.007813 0-.011719 0-.019531 0h-85.957032c-18.636718.011719-33.753906-15.089844-33.761718-33.730469 0-.007812 0-.015625 0-.023438v-136.773437zm0 0" fill="#f8c09c"/><path d="m165.003906 161.628906 29.222656-87.589844 16.167969 5.394532-29.222656 87.589844zm0 0" fill="#ef937d"/><path d="m153.976562 247.269531h85.265626v34.105469c0 23.546875-19.089844 42.632812-42.632813 42.632812-23.546875 0-42.632813-19.085937-42.632813-42.632812zm0 0" fill="#f8c09c"/><path d="m273.347656 117.863281-19.671875 26.148438c-8.164062 10.214843-22.785156 12.484375-33.660156 5.226562-4.140625-2.765625-9.007813-4.25-13.984375-4.261719h-18.800781c-4.980469.011719-9.84375 1.496094-13.984375 4.261719-10.878906 7.257813-25.496094 4.988281-33.664063-5.226562l-19.710937-23.746094v101.773437c-.003906 18.640626 15.101562 33.75 33.738281 33.757813h.015625 85.972656c18.640625 0 33.75-15.109375 33.75-33.75 0 0 0-.003906 0-.007813zm0 0" fill="#67342c"/><path d="m85.773438 204.636719c0 9.417969-7.636719 17.050781-17.054688 17.050781s-17.050781-7.632812-17.050781-17.050781 7.632812-17.054688 17.050781-17.054688 17.054688 7.636719 17.054688 17.054688zm0 0" fill="#ea676b"/><path d="m153.632812 8.527344h85.964844c18.640625.003906 33.75 15.117187 33.75 33.753906v51.511719h-153.476562v-51.511719c0-18.640625 15.113281-33.753906 33.753906-33.753906zm0 0" fill="#ffbf41"/><path d="m85.765625 93.792969c21.835937-21.839844 51.457031-34.105469 82.339844-34.105469h28.503906c27.296875 0 53.476563 10.84375 72.78125 30.140625l3.957031 3.964844zm0 0" fill="#ffd243"/><path d="m145.449219 179.058594h-76.738281c-14.128907 0-25.578126 11.449218-25.578126 25.578125 0 14.128906 11.449219 25.578125 25.578126 25.578125 14.128906 0 25.578124-11.449219 25.578124-25.578125-.027343-2.910157-.558593-5.796875-1.566406-8.527344h52.726563zm-68.210938 25.578125c0 4.707031-3.820312 8.527343-8.527343 8.527343-4.710938 0-8.527344-3.820312-8.527344-8.527343 0-4.710938 3.816406-8.527344 8.527344-8.527344 4.710937 0 8.527343 3.816406 8.527343 8.527344zm0 0" fill="#dd1c4b"/><path d="m466.96875 412.179688-74.25-74.238282v-22.050781c-.042969-37.65625-30.558594-68.171875-68.210938-68.210937h-51.160156c5.515625-7.257813 8.507813-16.117188 8.527344-25.230469v-180.167969c-.027344-23.339844-18.945312-42.2539062-42.285156-42.28125h-85.957032c-23.34375.0234375-42.261718 18.9375-42.289062 42.28125v22.546875c-11.667969 5.945313-22.335938 13.6875-31.609375 22.933594-3.328125 3.332031-3.328125 8.730469.003906 12.058593 1.597657 1.597657 3.765625 2.496094 6.027344 2.496094h25.578125v77.148438h-42.632812c-14.128907 0-25.578126 11.453125-25.578126 25.582031 0 14.125 11.449219 25.578125 25.578126 25.578125 14.128906 0 25.578124-11.453125 25.578124-25.578125-.027343-2.914063-.558593-5.796875-1.566406-8.527344h18.621094v25.929688c.023438 9.113281 3.015625 17.96875 8.527344 25.226562h-51.160156c-37.652344.042969-68.167969 30.558594-68.210938 68.214844v187.582031c0 4.710938 3.816406 8.527344 8.527344 8.527344h375.164062c4.710938 0 8.527344-3.816406 8.527344-8.527344v-4.996094l74.242188-74.242187c3.328124-3.324219 3.332031-8.722656.007812-12.054687zm-398.257812-198.605469c-4.710938 0-8.527344-3.820313-8.527344-8.527344 0-4.710937 3.816406-8.527344 8.527344-8.527344 4.710937 0 8.527343 3.816407 8.527343 8.527344 0 4.707031-3.816406 8.527344-8.527343 8.527344zm-8.527344 281.371093h-42.632813v-179.054687c.03125-24.953125 18.035157-46.257813 42.632813-50.453125zm179.414062-247.265624h-85.964844c-13.929687-.011719-25.222656-11.300782-25.238281-25.230469v-25.929688h17.054688v-17.054687h-17.054688v-35.304688l4.476563 5.601563c10.886718 13.742187 30.519531 16.789062 45.054687 6.992187 2.738281-1.835937 5.964844-2.8125 9.261719-2.808594h18.835938c3.292968-.003906 6.515624.96875 9.257812 2.796876 14.539062 9.804687 34.171875 6.761718 45.0625-6.980469l4.476562-5.601563v78.289063c-.015624 13.921875-11.296874 25.210937-25.222656 25.230469zm25.222656 17.050781v17.054687c-.058593 34.34375-25.613281 63.300782-59.683593 67.625v-17.234375c24.582031-4.175781 42.585937-25.453125 42.632812-50.390625v-17.054687zm-79.894531-162.414063-12.710937 38.132813c-1.289063.621093-2.535156 1.324219-3.734375 2.105469-7.1875 4.847656-16.894531 3.34375-22.273438-3.453126l-17.808593-22.261718v-14.496094zm62.101563 36.785156c-5.390625 6.792969-15.105469 8.277344-22.28125 3.410157-5.554688-3.699219-12.082032-5.664063-18.757813-5.652344h-14.613281l11.519531-34.574219h61.925781v14.496094zm-118.632813-96.820312c.015625-13.929688 11.308594-25.21875 25.238281-25.226562h85.964844c13.925782.015624 25.207032 11.304687 25.222656 25.226562v32.308594c-19.480468-15.210938-43.496093-23.457032-68.210937-23.421875h-28.496094c-13.503906.015625-26.917969 2.222656-39.714843 6.53125v-15.417969zm39.710938 25.929688h28.503906c19.382813-.050782 38.308594 5.910156 54.167969 17.054687h-140.960938c17.382813-11.183594 37.628906-17.105469 58.296875-17.054687zm19.976562 426.734374h-110.84375v-230.214843h34.105469v17.054687c.054688 43.765625 33.195312 80.402344 76.738281 84.828125zm0-145.539062c-34.070312-4.320312-59.628906-33.277344-59.6875-67.621094v-17.054687h17.054688v17.054687c.046875 24.933594 18.046875 46.214844 42.632812 50.390625zm8.527344-33.515625c-18.835937 0-34.105469-15.269531-34.105469-34.105469v-17.054687h68.210938v17.054687c0 18.835938-15.269532 34.105469-34.105469 34.105469zm119.371094 179.054687h-51.160157v-34.105468h51.160157zm0-51.15625h-4.996094l-51.160156-51.160156 56.15625-56.15625zm0-131.429687-74.242188 74.242187c-3.328125 3.328126-3.328125 8.726563 0 12.054688l45.140625 45.132812h-30.585937c-4.707031 0-8.527344 3.816407-8.527344 8.527344v42.632813h-42.632813v-128.335938c43.542969-4.425781 76.683594-41.0625 76.742188-84.828125v-17.054687h34.105469zm59.683593 182.585937h-42.632812v-229.507812c24.601562 4.195312 42.601562 25.5 42.632812 50.453125zm17.054688-20.582031v-112.308593l56.164062 56.152343zm0 0"/></svg>