<svg width="62" height="62" viewBox="0 0 62 62" fill="none" xmlns="http://www.w3.org/2000/svg">
<path d="M31 62C48.1208 62 62 48.1208 62 31C62 13.8792 48.1208 0 31 0C13.8792 0 0 13.8792 0 31C0 48.1208 13.8792 62 31 62Z" fill="#324A5E"/>
<path d="M36.37 25.9717C36.4677 25.9717 36.5653 26.0205 36.6629 26.0693C36.6141 26.0693 36.5165 26.0205 36.4677 26.0205C36.2236 26.0205 35.9795 26.2158 35.9795 26.5087L35.833 28.0709V26.5087C35.833 26.2158 36.0771 25.9717 36.37 25.9717Z" fill="#FF7058"/>
<path d="M49.3072 26.6063V34.3685C49.3072 34.9055 48.819 35.3449 48.2332 35.2473C47.7938 35.1984 47.5009 34.8079 47.4521 34.4173L46.7198 26.4599C46.7198 26.2158 46.4757 25.9717 46.2316 25.9717C45.9387 25.9717 45.6946 26.2158 45.6946 26.5087V49.9417C45.6946 50.5764 45.2064 51.211 44.5718 51.2598C43.8395 51.3575 43.2537 50.8205 43.156 50.137L41.9355 37.8347C41.8867 37.5417 41.6915 37.3465 41.3985 37.3465C41.1056 37.3465 40.8615 37.5906 40.8615 37.8835L39.7875 50.137C39.7387 50.7717 39.1529 51.3087 38.5182 51.3087H38.2741C37.5907 51.3087 37.0048 50.7228 37.0048 50.0394V27.0945L37.7371 35.052C37.7859 35.4914 38.1277 35.8819 38.567 35.9795C39.2017 36.0772 39.6899 35.589 39.6899 35.0032V26.6063C39.6899 24.0189 38.567 21.7244 36.7607 20.1134C37.9812 19.2347 39.4946 18.6977 41.1056 18.6488C45.6458 18.5024 49.3072 22.115 49.3072 26.6063Z" fill="#FF7058"/>
<path d="M41.3499 17.4283C43.399 17.4283 45.0601 15.7672 45.0601 13.718C45.0601 11.6689 43.399 10.0078 41.3499 10.0078C39.3008 10.0078 37.6396 11.6689 37.6396 13.718C37.6396 15.7672 39.3008 17.4283 41.3499 17.4283Z" fill="#FF7058"/>
<path d="M22.4562 26.7525V35.0029C22.4562 35.5399 22.8956 35.9793 23.4326 35.9793C23.9208 35.9793 24.3601 35.5887 24.4089 35.1005L25.1412 27.0454V49.9415C25.1412 50.5761 24.653 51.2108 24.0184 51.2596C23.3349 51.3572 22.7003 50.8202 22.6026 50.1368L21.3334 37.8344C21.2845 37.5415 21.0404 37.3462 20.7963 37.3462C20.5034 37.3462 20.2593 37.5415 20.2593 37.8344L19.2341 50.1368C19.1853 50.7714 18.5995 51.3084 17.9649 51.3084H17.7208C17.0373 51.3084 16.4515 50.7226 16.4515 50.0391V26.5084C16.4515 26.2155 16.2074 25.9714 15.9145 25.9714C15.6704 25.9714 15.4263 26.1667 15.4263 26.4596L14.6452 34.4171C14.5963 34.9053 14.2058 35.247 13.7664 35.247C13.2782 35.247 12.8389 34.8564 12.8389 34.3194V26.7525C12.8389 22.4076 16.2562 18.7462 20.5523 18.6486C22.3586 18.5998 24.0184 19.1368 25.3853 20.1131C23.579 21.7242 22.4562 24.1163 22.4562 26.7525Z" fill="#84DBFF"/>
<path d="M15.914 26.0205C15.7187 26.0205 15.5722 26.1181 15.4746 26.2646C15.5234 26.1181 15.6699 25.9717 15.914 26.0205C15.8652 25.9717 15.8652 25.9717 15.914 26.0205Z" fill="#84DBFF"/>
<path d="M26.3123 26.5087V28.0709L26.1659 26.4599C26.1659 26.2158 25.9218 25.9717 25.6777 25.9717C25.6289 25.9717 25.5312 25.9717 25.4824 26.0205C25.5801 25.9717 25.6777 25.9229 25.7753 25.9229C26.0682 25.9717 26.3123 26.2158 26.3123 26.5087Z" fill="#84DBFF"/>
<path d="M20.7962 17.4283C22.8453 17.4283 24.5064 15.7672 24.5064 13.718C24.5064 11.6689 22.8453 10.0078 20.7962 10.0078C18.7471 10.0078 17.0859 11.6689 17.0859 13.718C17.0859 15.7672 18.7471 17.4283 20.7962 17.4283Z" fill="#84DBFF"/>
<path d="M30.8539 17.9659C26.1673 18.1124 22.457 22.0667 22.457 26.8021V35.0525C22.457 35.5895 22.8964 36.0289 23.4334 36.0289C23.9216 36.0289 24.361 35.6383 24.4098 35.1502L25.2397 26.5092C25.2885 26.2163 25.4838 26.021 25.7767 26.021C26.0696 26.021 26.3137 26.2651 26.3137 26.558V52.0903C26.3137 52.8714 26.9484 53.4572 27.6807 53.4572H27.9736C28.7059 53.4572 29.2917 52.9202 29.3405 52.188L30.4633 38.8116C30.5122 38.5187 30.7563 38.2746 31.0492 38.2746C31.3421 38.2746 31.635 38.5187 31.635 38.8116L33.0019 52.2368C33.0996 52.9691 33.783 53.5549 34.5153 53.4572C35.2476 53.3596 35.7358 52.725 35.7358 51.9927V26.5092C35.7358 26.2163 35.9799 25.9722 36.2728 25.9722C36.5657 25.9722 36.8098 26.1675 36.8098 26.4604L37.6397 35.1013C37.6885 35.5407 38.0303 35.9313 38.4696 36.0289C39.1043 36.1265 39.5925 35.6383 39.5925 35.0525V26.6068C39.7389 21.725 35.7358 17.8194 30.8539 17.9659Z" fill="white"/>
<path d="M25.4833 26.021C25.3369 26.1186 25.2392 26.2651 25.2392 26.4604L25.1416 27.0462V26.5092C25.1416 26.3139 25.2881 26.1186 25.4833 26.021Z" fill="white"/>
<path d="M31.0979 16.6962C33.3357 16.6962 35.1498 14.8821 35.1498 12.6443C35.1498 10.4064 33.3357 8.59229 31.0979 8.59229C28.86 8.59229 27.0459 10.4064 27.0459 12.6443C27.0459 14.8821 28.86 16.6962 31.0979 16.6962Z" fill="white"/>
</svg>
