<svg width="62" height="62" viewBox="0 0 62 62" fill="none" xmlns="http://www.w3.org/2000/svg">
<path d="M31.0103 52.709C19.0433 52.709 9.30664 42.9723 9.30664 31.0054C9.30664 19.0384 19.0433 9.30176 31.0103 9.30176C42.9772 9.30176 52.7139 19.0384 52.7139 31.0054C52.7139 42.9723 42.9772 52.709 31.0103 52.709Z" fill="#556180"/>
<path d="M31.0101 15.5027C30.4396 15.5027 29.9766 15.0407 29.9766 14.4692V12.4022C29.9766 11.8306 30.4396 11.3687 31.0101 11.3687C31.5806 11.3687 32.0436 11.8306 32.0436 12.4022V14.4692C32.0436 15.0407 31.5806 15.5027 31.0101 15.5027Z" fill="white"/>
<path d="M31.0101 50.6418C30.4396 50.6418 29.9766 50.1799 29.9766 49.6083V47.5413C29.9766 46.9698 30.4396 46.5078 31.0101 46.5078C31.5806 46.5078 32.0436 46.9698 32.0436 47.5413V49.6083C32.0436 50.1799 31.5806 50.6418 31.0101 50.6418Z" fill="white"/>
<path d="M49.6132 32.0387H47.5462C46.9757 32.0387 46.5127 31.5767 46.5127 31.0052C46.5127 30.4337 46.9757 29.9717 47.5462 29.9717H49.6132C50.1837 29.9717 50.6467 30.4337 50.6467 31.0052C50.6467 31.5767 50.1837 32.0387 49.6132 32.0387Z" fill="white"/>
<path d="M14.4745 32.0387H12.4075C11.837 32.0387 11.374 31.5767 11.374 31.0052C11.374 30.4337 11.837 29.9717 12.4075 29.9717H14.4745C15.045 29.9717 15.508 30.4337 15.508 31.0052C15.508 31.5767 15.045 32.0387 14.4745 32.0387Z" fill="white"/>
<path d="M31.01 34.1059C28.7301 34.1059 26.876 32.2518 26.876 29.9719C26.876 27.692 28.7301 25.8379 31.01 25.8379C33.2899 25.8379 35.144 27.692 35.144 29.9719C35.144 32.2518 33.2899 34.1059 31.01 34.1059ZM31.01 27.9049C29.87 27.9049 28.943 28.832 28.943 29.9719C28.943 31.1119 29.87 32.0389 31.01 32.0389C32.15 32.0389 33.077 31.1119 33.077 29.9719C33.077 28.832 32.15 27.9049 31.01 27.9049Z" fill="white"/>
<path d="M31.0101 27.9048C30.4396 27.9048 29.9766 27.4428 29.9766 26.8713V20.6702C29.9766 20.0987 30.4396 19.6367 31.0101 19.6367C31.5806 19.6367 32.0436 20.0987 32.0436 20.6702V26.8713C32.0436 27.4428 31.5806 27.9048 31.0101 27.9048Z" fill="white"/>
<path d="M19.6412 42.3736C19.3766 42.3736 19.112 42.2724 18.9105 42.0708C18.5064 41.6667 18.5064 41.0136 18.9105 40.6095L28.087 31.433C28.4911 31.0289 29.1443 31.0289 29.5484 31.433C29.9525 31.8371 29.9525 32.4902 29.5484 32.8943L20.3719 42.0708C20.1703 42.2724 19.9058 42.3736 19.6412 42.3736Z" fill="white"/>
<path d="M1.03839 32.0387C0.467893 32.0387 0.00488281 31.5767 0.00488281 31.0052C0.00488281 13.9089 13.9138 0 31.0101 0C39.0022 0 46.5964 3.04471 52.3933 8.57293C52.8067 8.96669 52.8222 9.6209 52.4284 10.0343C52.0347 10.4477 51.3794 10.4622 50.967 10.0684C45.5566 4.90915 38.4689 2.06701 31.0101 2.06701C15.0538 2.06701 2.07189 15.0489 2.07189 31.0052C2.07189 31.5767 1.60888 32.0387 1.03839 32.0387Z" fill="#E55529"/>
<path d="M52.714 10.3351H43.4124C42.8419 10.3351 42.3789 9.87308 42.3789 9.30155C42.3789 8.73002 42.8419 8.26804 43.4124 8.26804H50.647V1.03351C50.647 0.461977 51.11 0 51.6805 0C52.251 0 52.714 0.461977 52.714 1.03351V10.3351Z" fill="#E55529"/>
<path d="M30.4106 62C29.8422 61.9886 29.3874 61.5246 29.3978 60.9458C29.4081 60.3774 29.8835 59.9216 30.452 59.933C31.0204 59.9433 31.4751 60.4187 31.4648 60.9872C31.4545 61.5556 30.9997 62 30.4313 62H30.4106ZM32.4983 60.9551C32.4466 60.3877 32.8704 59.8917 33.4388 59.839C34.0072 59.7976 34.5136 60.2224 34.555 60.7898C34.6066 61.3592 34.1829 61.8553 33.6145 61.8967V61.906H33.5318C32.9944 61.906 32.5396 61.4936 32.4983 60.9551ZM27.2171 61.783V61.7726C26.6487 61.7106 26.2456 61.1939 26.3179 60.6255C26.3903 60.056 26.8967 59.654 27.4651 59.7263C28.0336 59.7976 28.4366 60.3051 28.3643 60.8725C28.3023 61.4006 27.8579 61.783 27.3411 61.783H27.2171ZM35.5781 60.6461C35.4748 60.088 35.8469 59.5392 36.4049 59.4369C36.963 59.3336 37.5108 59.6953 37.6142 60.2637C37.7175 60.8218 37.3454 61.3592 36.7873 61.4719C36.7253 61.4833 36.6633 61.4833 36.6013 61.4833C36.1156 61.4833 35.6712 61.1422 35.5781 60.6461ZM24.0546 61.2249C23.5068 61.1009 23.1554 60.5428 23.2794 59.9847C23.4138 59.4266 23.9615 59.0855 24.5196 59.2095C25.0777 59.3336 25.4291 59.8917 25.2948 60.4498C25.1914 60.9252 24.7573 61.2456 24.2923 61.2456C24.2096 61.2456 24.1372 61.2456 24.0546 61.2249ZM38.6166 60.0147C38.4513 59.4679 38.7613 58.8881 39.3091 58.7341C39.8569 58.5688 40.4356 58.8788 40.601 59.4163C40.7663 59.964 40.4563 60.5428 39.9085 60.7081C39.8052 60.7391 39.7018 60.7495 39.6088 60.7495C39.1644 60.7495 38.751 60.4601 38.6166 60.0147ZM20.9747 60.3464C20.4373 60.1604 20.1479 59.5713 20.3339 59.0339C20.52 58.4861 21.1091 58.206 21.6465 58.3931C22.1839 58.5688 22.4733 59.1579 22.2873 59.7056C22.1426 60.1294 21.7395 60.397 21.3158 60.397C21.2021 60.397 21.0884 60.3774 20.9747 60.3464ZM41.5725 59.0752C41.3554 58.5471 41.6035 57.9383 42.1306 57.7213C42.6577 57.5043 43.2571 57.7523 43.4845 58.2794C43.7015 58.8054 43.4535 59.4049 42.9264 59.6333C42.792 59.685 42.6577 59.7056 42.5233 59.7056C42.1202 59.7056 41.7378 59.4679 41.5725 59.0752ZM17.9982 59.1465C17.4815 58.9098 17.2644 58.2887 17.5021 57.7719C17.7398 57.2552 18.3496 57.0289 18.8767 57.2769C19.3934 57.5136 19.6105 58.1244 19.3728 58.6411C19.1971 59.0225 18.825 59.2395 18.4323 59.2395C18.2876 59.2395 18.1429 59.2095 17.9982 59.1465ZM44.4146 57.8247C44.1356 57.3286 44.3216 56.6971 44.828 56.4294C45.3241 56.1504 45.9545 56.3364 46.2232 56.8428C46.5023 57.3379 46.3163 57.9693 45.8098 58.2381C45.6548 58.33 45.4895 58.3714 45.3241 58.3714C44.952 58.3714 44.6006 58.176 44.4146 57.8247ZM15.1664 57.649C14.6807 57.3596 14.5153 56.7188 14.815 56.2331C15.1044 55.737 15.7348 55.5819 16.2309 55.8713C16.7167 56.171 16.882 56.8015 16.5823 57.2872C16.3859 57.618 16.0449 57.7936 15.6935 57.7936C15.5178 57.7936 15.3318 57.7523 15.1664 57.649ZM47.1121 56.2951C46.7813 55.83 46.9054 55.1789 47.3704 54.8585C47.8459 54.5381 48.4866 54.6518 48.807 55.1272C49.1377 55.5923 49.0137 56.2434 48.5486 56.5627C48.3626 56.6878 48.1662 56.7384 47.9595 56.7384C47.6288 56.7384 47.3084 56.5844 47.1121 56.2951ZM12.5103 55.8713C12.0452 55.5292 11.9522 54.8792 12.2933 54.4244C12.6343 53.9593 13.2854 53.8663 13.7402 54.2074C14.1949 54.5484 14.2879 55.1995 13.9572 55.6543C13.7505 55.9333 13.4405 56.0677 13.1201 56.0677C12.903 56.0677 12.686 56.0047 12.5103 55.8713ZM49.6338 54.4957C49.2618 54.0627 49.3134 53.4116 49.7475 53.0385C50.1816 52.6675 50.8327 52.7181 51.2047 53.1532C51.5768 53.5873 51.5251 54.2374 51.0911 54.6104C50.8947 54.7758 50.657 54.8585 50.4193 54.8585C50.1299 54.8585 49.8405 54.7345 49.6338 54.4957ZM10.0402 53.825C9.61648 53.4323 9.58548 52.7801 9.97821 52.3574C10.3606 51.944 11.0221 51.912 11.4355 52.2954V52.3047C11.8592 52.6871 11.8799 53.3382 11.4975 53.763C11.2908 53.979 11.0117 54.0937 10.7327 54.0937C10.4846 54.0937 10.2366 54.0007 10.0402 53.825ZM51.9592 52.4401C51.5458 52.0463 51.5251 51.3952 51.9282 50.9828C52.3209 50.5694 52.972 50.5591 53.3854 50.9518C53.7988 51.3446 53.8092 51.9957 53.4165 52.4091C53.2201 52.6261 52.941 52.7295 52.6723 52.7295C52.4139 52.7295 52.1556 52.6365 51.9592 52.4401ZM7.79751 51.5296C7.41512 51.1069 7.45646 50.4547 7.8802 50.0734C8.31427 49.7013 8.96538 49.7323 9.33744 50.1664C9.71983 50.5901 9.67849 51.2412 9.25476 51.6236C9.05839 51.7993 8.81035 51.882 8.57264 51.882C8.28326 51.882 7.99388 51.7683 7.79751 51.5296ZM54.0572 50.1664C53.6128 49.815 53.5301 49.1628 53.8815 48.7195C54.2329 48.2647 54.8737 48.182 55.3284 48.5334C55.7832 48.8848 55.8659 49.5359 55.5145 49.9793C55.3078 50.2491 54.9977 50.3834 54.698 50.3834C54.4706 50.3834 54.2536 50.3111 54.0572 50.1664ZM5.79251 49.0285C5.46179 48.5644 5.56514 47.9237 6.03022 47.5826C6.4953 47.2519 7.14641 47.3656 7.47713 47.8203C7.80785 48.2854 7.7045 48.9365 7.23942 49.2672C7.05339 49.4016 6.84669 49.4626 6.63999 49.4626C6.30927 49.4626 5.99922 49.3086 5.79251 49.0285ZM55.9175 47.686C55.4318 47.3862 55.2871 46.7444 55.5868 46.2597C55.8865 45.7843 56.5273 45.6283 57.0131 45.928C57.4988 46.2277 57.6435 46.8695 57.3438 47.3542C57.1474 47.6756 56.8063 47.841 56.4653 47.841C56.2793 47.841 56.0932 47.7893 55.9175 47.686ZM4.06656 46.3321C3.77718 45.836 3.95287 45.2056 4.44896 44.9265C4.94504 44.6361 5.57548 44.8118 5.85452 45.3089H5.86486C6.14391 45.804 5.96821 46.4354 5.47213 46.7145C5.3171 46.8075 5.13107 46.8488 4.96571 46.8488C4.60398 46.8488 4.25259 46.6618 4.06656 46.3321ZM57.5091 45.0288C57.0027 44.7818 56.7857 44.1607 57.0337 43.6439C57.2818 43.1272 57.9122 42.9215 58.4186 43.1695C58.9354 43.4176 59.1421 44.0367 58.894 44.5534C58.7183 44.9162 58.3463 45.1332 57.9639 45.1332C57.8088 45.1332 57.6538 45.1022 57.5091 45.0288ZM2.61965 43.4693C2.39228 42.9422 2.62999 42.3324 3.14674 42.105C3.67383 41.8777 4.2836 42.1154 4.51097 42.6321C4.73834 43.1592 4.50063 43.769 3.98388 43.9953C3.84952 44.0584 3.70483 44.0894 3.57048 44.0894C3.16741 44.0894 2.79535 43.8517 2.61965 43.4693ZM58.8217 42.2187C58.2843 42.0224 58.0155 41.4333 58.2119 40.8948C58.3979 40.3574 58.9974 40.0794 59.5348 40.2757C60.0722 40.4721 60.3409 41.0602 60.1446 41.5986C59.9999 42.0224 59.5968 42.2807 59.1731 42.2807C59.0594 42.2807 58.9354 42.2601 58.8217 42.2187ZM1.4828 40.4721C1.3071 39.9243 1.60682 39.3445 2.15457 39.1688C2.692 38.9931 3.2811 39.2939 3.44646 39.8417C3.62215 40.3791 3.32244 40.9682 2.78501 41.1439C2.68166 41.1749 2.56798 41.1852 2.46463 41.1852C2.03055 41.1852 1.62749 40.9062 1.4828 40.4721ZM59.8345 39.2939C59.2868 39.1492 58.9457 38.5911 59.0801 38.033C59.2248 37.4853 59.7828 37.1432 60.3409 37.2786C60.8887 37.4243 61.2298 37.9824 61.0851 38.5405C60.9714 39.0056 60.5476 39.3259 60.0826 39.3259C59.9999 39.3249 59.9172 39.3146 59.8345 39.2939ZM0.666326 37.3716C0.542306 36.8135 0.904033 36.2657 1.46213 36.151C2.02022 36.027 2.56798 36.3897 2.68166 36.9478C2.80568 37.5059 2.44396 38.0527 1.88586 38.1674C1.81352 38.188 1.74117 38.188 1.66883 38.188C1.19341 38.188 0.759342 37.8573 0.666326 37.3716ZM60.5373 36.2657C59.9689 36.183 59.5761 35.6663 59.6588 35.0979C59.7415 34.5398 60.2686 34.1367 60.8267 34.2184C61.3951 34.301 61.7878 34.8292 61.7052 35.3872C61.6328 35.904 61.1884 36.2761 60.682 36.2761C60.6407 36.2761 60.589 36.2761 60.5373 36.2657ZM0.170244 34.1987C0.108233 33.6406 0.521635 33.1239 1.09006 33.0722C1.65849 33.0092 2.16491 33.4236 2.22692 33.992C2.28893 34.5594 1.87553 35.0669 1.3071 35.1289H1.19341C0.676661 35.1289 0.221919 34.7351 0.170244 34.1987ZM60.9197 33.1962C60.3513 33.1755 59.9069 32.6898 59.9275 32.1214C59.9482 31.5529 60.434 31.1085 61.0024 31.1292C61.5708 31.1499 62.0152 31.6253 61.9945 32.2041C61.9739 32.7508 61.5191 33.1962 60.961 33.1962H60.9197ZM0.00488281 31.0052C0.00488281 30.4368 0.46996 29.9717 1.03839 29.9717C1.60682 29.9717 2.07189 30.4368 2.07189 31.0052C2.07189 31.5736 1.60682 32.0387 1.03839 32.0387C0.46996 32.0387 0.00488281 31.5736 0.00488281 31.0052Z" fill="#E55529"/>
</svg>
