<svg xmlns="http://www.w3.org/2000/svg" width="512" height="512" viewBox="0 0 64 64"><g><g><g id="compose-note-office"><path fill="#ffeb99" d="m13 6h38v55h-38z" data-old_color="#ffeb99" data-original="#FFF3BA" style="fill:#fff3ba"/><path fill="#009698" d="m57 45a4 4 0 1 1 0 8h-4v-8z" data-old_color="#009698" data-original="#009365" style="fill:#009365"/><path fill="#ff7956" d="m53 45v8h-2-2v-8h2z" data-old_color="#ff7956" data-original="#E55529" style="fill:#e55529"/><path fill="#e0e0e2" d="m49 45v8h-23l2-2-2-2 2-2-2-2z" data-old_color="#e0e0e2" data-original="#FFD300" style="fill:#ffd300"/><path fill="#ff7956" d="m28 47-2 2 2 2-2 2-9-4 9-4z" data-old_color="#ff7956" data-original="#E55529" style="fill:#e55529"/><path d="m57 44h-5v-38a1 1 0 0 0 -1-1h-6v-3h-2v3h-6v-3h-2v3h-6v-3h-2v3h-6v-3h-2v3h-6a1 1 0 0 0 -1 1v55a1 1 0 0 0 1 1h38a1 1 0 0 0 1-1v-7h5a5 5 0 0 0 0-10zm-7 16h-36v-53h5v1.28a2 2 0 1 0 2 0v-1.28h6v1.28a2 2 0 1 0 2 0v-1.28h6v1.28a2 2 0 1 0 2 0v-1.28h6v1.28a2 2 0 1 0 2 0v-1.28h5v37h-24a.978.978 0 0 0 -.41.09l-9 4a1 1 0 0 0 0 1.82l9 4a.978.978 0 0 0 .41.09h24zm-21.29-9.71-1.3-1.29 1.3-1.29a1.008 1.008 0 0 0 0-1.42l-.3-.29h19.59v6h-19.59l.3-.29a1.008 1.008 0 0 0 0-1.42zm-3.42-.58 1.3 1.29-.81.81-6.32-2.81 6.32-2.81.81.81-1.3 1.29a1.008 1.008 0 0 0 0 1.42zm26.71 2.29h-2v-6h2zm5 0h-3v-6h3a3 3 0 0 1 0 6z" class="active-path" data-old_color="#000000" data-original="#094492" style="fill:#094492"/><path d="m19 18h26v2h-26z" class="active-path" data-old_color="#000000" data-original="#094492" style="fill:#094492"/><path d="m19 24h26v2h-26z" class="active-path" data-old_color="#000000" data-original="#094492" style="fill:#094492"/><path d="m19 30h26v2h-26z" class="active-path" data-old_color="#000000" data-original="#094492" style="fill:#094492"/><path d="m19 36h8v2h-8z" class="active-path" data-old_color="#000000" data-original="#094492" style="fill:#094492"/><path d="m29 36h6v2h-6z" class="active-path" data-old_color="#000000" data-original="#094492" style="fill:#094492"/></g></g></g></svg>