<svg width="62" height="62" viewBox="0 0 62 62" fill="none" xmlns="http://www.w3.org/2000/svg">
<path d="M31 62C48.1208 62 62 48.1208 62 31C62 13.8792 48.1208 0 31 0C13.8792 0 0 13.8792 0 31C0 48.1208 13.8792 62 31 62Z" fill="#324A5E"/>
<path d="M21.9195 16.94C22.9447 16.6471 24.0187 17.2329 24.3605 18.2093L26.362 24.3116C26.4109 24.4093 26.5085 24.5069 26.655 24.4581C26.7526 24.4093 26.8502 24.3117 26.8014 24.1652L23.5305 14.4014C23.2376 13.425 23.5794 12.351 24.5069 11.8628C25.6786 11.277 26.9967 11.8628 27.3872 13.0345L30.3164 21.9195C30.3652 22.0172 30.4628 22.1148 30.6093 22.066C30.7069 22.0172 30.8046 21.9195 30.7557 21.7731L26.9479 10.1542C26.6061 9.03134 27.192 7.85968 28.266 7.46913H28.3148C28.3636 7.46913 28.4613 7.42031 28.5101 7.42031C29.5353 7.22504 30.5116 7.9085 30.8534 8.9337L34.8077 21.0896C34.8565 21.1872 34.9542 21.2849 35.1006 21.2361C35.1983 21.1872 35.2959 21.0896 35.2471 20.9431L31.7321 9.91008C31.3416 8.73842 32.025 7.51795 33.1967 7.17622C34.2707 6.88331 35.4424 7.46913 35.7841 8.54315L40.0313 21.0896C40.2754 18.6487 40.9589 16.403 42.277 14.9872C42.9605 14.255 44.2786 14.6455 44.8156 15.4754C45.0597 15.8172 45.255 16.403 45.1085 17.0865C45.1085 17.0865 43.5951 19.7227 45.3526 24.0187C47.1101 28.266 43.4975 34.9053 43.4975 34.9053C42.3258 37.5416 45.792 47.2565 45.792 47.2565L35.2471 50.2345C33.6361 45.6943 29.6817 39.6408 29.6817 39.6408L28.0219 37.0046C26.1179 33.9778 24.5557 30.7069 23.3841 27.3384L20.6014 19.3809C20.2109 18.4046 20.7967 17.2329 21.9195 16.94Z" fill="#F9B54C"/>
<path d="M35.6377 61.6582C41.8377 60.7307 47.4031 57.9968 51.7968 53.9937L47.0125 41.252L30.5605 48.1354L35.6377 61.6582Z" fill="#E6E9EE"/>
<path d="M37.7368 16.5496C36.7116 16.3055 35.6376 16.8914 35.3447 17.9166L33.4896 24.0677C33.4408 24.1654 33.3431 24.263 33.1967 24.2142C33.099 24.1654 33.0014 24.0677 33.0502 23.9213L36.0282 14.0599C36.3211 13.0835 35.9305 12.0095 35.003 11.5701C33.8313 11.0331 32.5132 11.6189 32.1715 12.7906L29.4376 21.7244C29.3888 21.8221 29.2912 21.9197 29.1447 21.8709C29.0471 21.8221 28.9983 21.7244 29.0471 21.6268L32.562 9.95907C32.9038 8.83624 32.2691 7.66459 31.1463 7.32285H31.0975C31.0486 7.32285 30.951 7.27404 30.9022 7.27404C29.877 7.12758 28.9006 7.85986 28.6077 8.83624L24.9463 21.0898C24.8975 21.1874 24.7998 21.2851 24.6534 21.2362C24.5557 21.1874 24.4581 21.0898 24.5069 20.9433L27.7778 9.81262C28.1195 8.64096 27.436 7.42049 26.2644 7.12758C25.1416 6.83467 24.0187 7.46931 23.677 8.54333L19.7715 21.2362C19.4786 18.7953 18.7463 16.5496 17.3794 15.1827C16.6959 14.4504 15.3778 14.9386 14.8408 15.7685C14.5967 16.1591 14.4502 16.7449 14.5967 17.3795C14.5967 17.3795 16.1589 19.9669 14.499 24.3118C12.8392 28.6079 16.6471 35.1496 16.6471 35.1496C17.8675 37.737 14.6943 47.5984 14.6943 47.5984L25.288 50.3323C26.8014 45.7433 30.5605 39.5921 30.5605 39.5921L32.1715 36.9071C34.0266 33.8315 35.4912 30.5606 36.5652 27.1433L39.1038 19.137C39.4943 17.9654 38.8597 16.8425 37.7368 16.5496Z" fill="#FFD05B"/>
<path d="M9.22656 53.0662C13.5226 57.3134 19.0392 60.2914 25.1903 61.463L29.877 47.989L13.2297 41.4961L9.22656 53.0662Z" fill="#FF7058"/>
</svg>
