<svg width="62" height="62" viewBox="0 0 62 62" fill="none" xmlns="http://www.w3.org/2000/svg">
<path d="M38.104 47.404C38.879 44.8207 40.429 42.4957 42.4957 40.6873C46.3707 37.4581 48.8249 32.5498 48.8249 27.1248C48.8249 17.0498 40.4291 8.78313 30.0957 9.29983C20.9248 9.68733 13.4331 17.4373 13.1748 26.6081C13.0456 32.2915 15.4998 37.329 19.504 40.6873C21.6998 42.4956 23.2498 44.8206 24.0248 47.404H38.104Z" fill="#FFD15C"/>
<path d="M29.3208 47.6623H30.4833L25.3166 28.4165C25.4458 28.4165 25.5749 28.4165 25.7041 28.4165C26.3499 28.4165 26.9958 28.1582 27.5124 27.6415C27.7707 27.3832 28.0291 27.254 28.4166 27.254C28.8041 27.254 29.0624 27.3832 29.3208 27.6415C30.225 28.6748 31.775 28.6748 32.6791 27.6415C32.9374 27.3832 33.1958 27.254 33.5833 27.254C33.8416 27.254 34.2291 27.3832 34.4875 27.6415C35.0042 28.1582 35.5208 28.4165 36.2958 28.4165C36.425 28.4165 36.5541 28.4165 36.6833 28.4165L31.6458 47.6623H32.8083L38.1041 27.5123C38.1041 27.254 38.1041 26.9956 37.8458 26.8665C37.5875 26.7373 37.3291 26.8665 37.2 26.9957C36.9417 27.254 36.6833 27.3832 36.425 27.3832C36.0375 27.3832 35.7792 27.254 35.3917 26.9957C34.875 26.479 34.3584 26.2207 33.7125 26.2207C33.0666 26.2207 32.55 26.479 32.0333 26.9957C31.5166 27.5124 30.7416 27.5124 30.225 26.9957C29.8375 26.479 29.1917 26.2207 28.5458 26.2207C27.9 26.2207 27.2541 26.479 26.8666 26.9957C26.6083 27.254 26.2208 27.3832 25.8333 27.3832C25.575 27.3832 25.1875 27.254 25.0583 26.9957C24.9291 26.8665 24.6708 26.7374 24.4125 26.8665C24.1542 26.9957 24.025 27.254 24.1542 27.5123L29.3208 47.6623Z" fill="white"/>
<path d="M26.9961 59.2871C27.642 60.8371 29.192 61.9996 31.0003 61.9996C32.8086 61.9996 34.3586 60.8371 35.0045 59.2871H26.9961Z" fill="#344A5E"/>
<path d="M35.7796 59.4166H26.3504C25.0587 59.4166 24.0254 58.3833 24.0254 57.0916V47.2749H38.1046V57.0916C38.1046 58.3832 37.0712 59.4166 35.7796 59.4166Z" fill="#344A5E"/>
<path d="M37.9753 52.1834H24.0253C23.2503 52.1834 22.6045 51.5376 22.6045 50.7626C22.6045 49.9876 23.2503 49.3418 24.0253 49.3418H37.9753C38.7503 49.3418 39.3961 49.9876 39.3961 50.7626C39.3961 51.5376 38.7503 52.1834 37.9753 52.1834Z" fill="#415A6B"/>
<path d="M37.9753 56.7044H24.0253C23.2503 56.7044 22.6045 56.0586 22.6045 55.2836C22.6045 54.5086 23.2503 53.8628 24.0253 53.8628H37.9753C38.7503 53.8628 39.3961 54.5086 39.3961 55.2836C39.3961 56.0585 38.7503 56.7044 37.9753 56.7044Z" fill="#415A6B"/>
<path d="M30.9997 0C30.3539 0 29.708 0.516707 29.708 1.29171V5.68341C29.708 6.32921 30.2247 6.97512 30.9997 6.97512C31.7747 6.97512 32.2914 6.45841 32.2914 5.68341V1.29171C32.2914 0.516707 31.6455 0 30.9997 0Z" fill="#FFD15C"/>
<path d="M13.6919 7.87923C13.1752 7.36252 12.4002 7.36252 11.8836 7.87923C11.367 8.39594 11.3669 9.17094 11.8836 9.68752L14.9836 12.7875C15.5003 13.3042 16.2753 13.3042 16.7919 12.7875C17.3085 12.2708 17.3086 11.4958 16.7919 10.9792L13.6919 7.87923Z" fill="#FFD15C"/>
<path d="M9.68732 25.7041H5.29561C4.64982 25.7041 4.00391 26.2208 4.00391 26.9958C4.00391 27.6416 4.52061 28.2875 5.29561 28.2875H9.68732C10.3331 28.2875 10.979 27.7708 10.979 26.9958C10.979 26.3499 10.3331 25.7041 9.68732 25.7041Z" fill="#FFD15C"/>
<path d="M14.9826 41.2044L11.8826 44.3044C11.3659 44.8211 11.3659 45.5961 11.8826 46.1127C12.3994 46.6293 13.1744 46.6294 13.6909 46.1127L16.7909 43.0127C17.3076 42.496 17.3076 41.721 16.7909 41.2044C16.2742 40.6878 15.4994 40.6877 14.9826 41.2044Z" fill="#FFD15C"/>
<path d="M47.0163 41.2039C46.4996 40.6872 45.7246 40.6872 45.2078 41.2039C44.6911 41.7206 44.6911 42.4956 45.2078 43.0122L48.3079 46.1122C48.8246 46.6289 49.5996 46.6289 50.1161 46.1122C50.6327 45.5955 50.6329 44.8205 50.1161 44.3039L47.0163 41.2039Z" fill="#FFD15C"/>
<path d="M56.7039 25.7041H52.3122C51.6664 25.7041 51.0205 26.2208 51.0205 26.9958C51.0205 27.6416 51.5372 28.2875 52.3122 28.2875H56.7039C57.3497 28.2875 57.9956 27.7708 57.9956 26.9958C57.9955 26.3499 57.4789 25.7041 56.7039 25.7041Z" fill="#FFD15C"/>
<path d="M48.3078 7.87918L45.2078 10.9792C44.6911 11.4959 44.6911 12.2709 45.2078 12.7875C45.7245 13.3042 46.4995 13.3042 47.0161 12.7875L50.1161 9.68748C50.6328 9.17077 50.6328 8.39577 50.1161 7.87918C49.5994 7.3626 48.8245 7.36248 48.3078 7.87918Z" fill="#FFD15C"/>
</svg>
