<svg width="113" height="141" viewBox="0 0 113 141" fill="none" xmlns="http://www.w3.org/2000/svg">
<path d="M49.4372 88.0075H48.8487C47.5539 88.0075 46.6122 89.065 46.6122 90.24C46.6122 91.5325 47.6716 92.4725 48.8487 92.4725H49.2018V93.1775H48.8487C47.5539 93.1775 46.6122 94.235 46.6122 95.41C46.6122 96.7025 47.6716 97.6425 48.8487 97.6425H49.2018V98.3475H48.8487C47.5539 98.3475 46.6122 99.405 46.6122 100.58C46.6122 101.872 47.6716 102.812 48.8487 102.812H49.2018C49.2018 102.812 49.7903 105.515 52.8507 106.807C53.2039 107.512 54.1455 108.687 56.2643 108.687C58.383 108.687 59.3247 107.512 59.6778 106.807C62.6205 105.515 63.3268 102.812 63.3268 102.812H64.033C65.3278 102.812 66.2695 101.755 66.2695 100.58C66.2695 99.2875 65.2101 98.3475 64.033 98.3475H63.3268V97.6425H64.033C65.3278 97.6425 66.2695 96.585 66.2695 95.41C66.2695 94.1175 65.2101 93.1775 64.033 93.1775H63.3268V92.4725H64.033C65.3278 92.4725 66.2695 91.415 66.2695 90.24C66.2695 88.9475 65.2101 88.0075 64.033 88.0075H63.5622C63.5622 88.0075 64.3862 82.72 77.4518 61.57C90.5174 40.42 74.0382 21.0325 56.4997 21.0325C38.9612 21.0325 22.482 40.42 35.5476 61.57C48.6132 82.72 49.4372 88.0075 49.4372 88.0075ZM60.1486 33.37L56.6174 45.355L64.7393 44.5325L52.2622 64.2725L56.7351 49.115L48.3778 49.4675L60.1486 33.37Z" fill="#094492"/>
<path d="M85.4562 18.5649L82.9844 26.7899L91.224 24.3224L85.4562 18.5649Z" fill="#094492"/>
<path d="M82.2781 82.4851L88.0458 76.6101L79.6885 74.1426L82.2781 82.4851Z" fill="#094492"/>
<path d="M101.7 57.4575V44.5325L89.5762 50.995L101.7 57.4575Z" fill="#094492"/>
<path d="M27.5431 18.5649L21.7754 24.3224L30.015 26.7899L27.5431 18.5649Z" fill="#094492"/>
<path d="M30.7218 82.4851L33.3114 74.1426L24.9541 76.6101L30.7218 82.4851Z" fill="#094492"/>
<path d="M11.2998 44.5325V57.4575L23.4238 50.995L11.2998 44.5325Z" fill="#094492"/>
<path d="M62.9733 3.76001H50.0254L56.4993 15.8625L62.9733 3.76001Z" fill="#094492"/>
</svg>
