<svg id="ListeningtoChildren" xmlns="http://www.w3.org/2000/svg" viewBox="0 0 165 165"><defs><style>.cls-1{fill:#4fd9b3;}.cls-2{fill:none;stroke:#fff;stroke-linecap:round;stroke-linejoin:round;stroke-width:3.93px;}.cls-3{opacity:0.1;}.cls-4{fill:#fff;}</style></defs><title>Artboard 1</title><rect class="cls-1" x="1" y="0.86" width="163.64" height="163.64" rx="19.64"/><line class="cls-2" x1="116.83" y1="75.09" x2="131.46" y2="89.66"/><path class="cls-2" d="M53.86,67.42s-6.69-23.24,10.5-33.11c0,0,17.36-10.39,33.43.32,0,0,21.33,13,9.24,37.24a32.91,32.91,0,0,1-5.74,7.33A33.44,33.44,0,0,0,93,97.66s0,14.65-14,16.24c0,0-10.93,2.76-14.2-12.74"/><path class="cls-2" d="M99.54,62.64s4.24-12.84-8.71-20.48c0,0-10.76-6.58-19.1.21,0,0-7,5.73-5.52,14.75,0,0,1.13,15.07,7.81,4.14,0,0,6-10.29,14,1.78,0,0,4.59,7.45-3.9,10,0,0-7.11,2.86-6.86,14.59.1,4.06-6.91,7.64-8.35,0-1.1-5.22-1-6.47-1-6.47"/><line class="cls-2" x1="128.99" y1="68.96" x2="120.49" y2="65.44"/><line class="cls-2" x1="128.99" y1="41.59" x2="120.49" y2="45.11"/><line class="cls-2" x1="111.29" y1="21.05" x2="107.7" y2="29.69"/><line class="cls-2" x1="114.53" y1="36.7" x2="128.92" y2="22.37"/><line class="cls-2" x1="142.58" y1="55.22" x2="122.32" y2="55.22"/><path class="cls-3" d="M145,164.5H20.64A19.64,19.64,0,0,1,1,144.86V20.5A19,19,0,0,1,7.55,5.77L158.09,159.59A19.6,19.6,0,0,1,145,164.5Z"/><path class="cls-4" d="M15.87,133.11h1.8v11.76H21l-.18,1.6h-5Z"/><path class="cls-4" d="M24.17,133.11v13.36h-1.8V133.11Z"/><path class="cls-4" d="M27.67,142.61v.8c0,1.1.36,1.72,1.2,1.72s1.16-.74,1.16-1.86c0-1.48-.32-2-1.76-3.12s-2.18-1.84-2.18-3.8c0-1.74.52-3.44,2.8-3.44s2.72,1.58,2.72,3.14v.66H29.83v-.62c0-1-.18-1.64-1-1.64s-1,.68-1,1.64.2,1.54,1.4,2.42c1.94,1.44,2.54,2.28,2.54,4.5,0,1.88-.62,3.64-3,3.64s-2.94-1.5-2.94-3.26v-.78Z"/><path class="cls-4" d="M35,134.77H32.83v-1.66h6.1v1.66H36.77v11.7H35Z"/><path class="cls-4" d="M45.09,140.21h-3v4.62h3.38l-.22,1.64h-5V133.11h4.92v1.66H42.13v3.8h3Z"/><path class="cls-4" d="M47.07,146.47V133.11h2.1l2,7.4a22.53,22.53,0,0,1,.52,2.38h0c-.1-1.72-.1-3.6-.1-5.78v-4h1.66v13.36h-2L49,138c-.18-.7-.28-1.26-.36-1.66h0c.08,1.62.1,3.56.1,6v4.12Z"/><path class="cls-4" d="M57.43,133.11v13.36h-1.8V133.11Z"/><path class="cls-4" d="M59.81,146.47V133.11h2.1l2,7.4a22.53,22.53,0,0,1,.52,2.38h0c-.1-1.72-.1-3.6-.1-5.78v-4H66v13.36H64L61.77,138c-.18-.7-.28-1.26-.36-1.66h0c.08,1.62.1,3.56.1,6v4.12Z"/><path class="cls-4" d="M74.11,146.47h-1.4c0-.22-.08-.78-.1-1.06a2,2,0,0,1-2,1.24c-1.9,0-2.54-1.4-2.54-3.6v-6.44c0-2.2.88-3.68,3-3.68,2.62,0,3,1.88,3,3.42v.4H72.29v-.46c0-.82-.12-1.74-1.18-1.74-.82,0-1.2.56-1.2,1.8v6.86c0,1.18.32,1.86,1.16,1.86,1,0,1.24-.92,1.24-2.42v-2H71v-1.54h3.1Z"/><path class="cls-4" d="M78.51,136.33h1.18v-2.5H81v2.5h1.46v1.14H81v7c0,.52.1,1.06.74,1.06a3.37,3.37,0,0,0,.66-.06v1a3.81,3.81,0,0,1-1.08.14c-.9,0-1.58-.42-1.58-1.92v-7.22H78.51Z"/><path class="cls-4" d="M88.79,139.15v4.32c0,2.22-1,3.16-2.6,3.16s-2.54-.92-2.54-3.1v-4.4c0-1.9,1-3,2.6-3S88.79,137.27,88.79,139.15Zm-3.86,0v4.46c0,1.16.4,1.9,1.28,1.9s1.28-.56,1.28-1.92v-4.46c0-1-.36-1.8-1.26-1.8S84.93,138,84.93,139.13Z"/><path class="cls-4" d="M99.57,142.55V143c0,1.6-.28,3.62-2.94,3.62-2.4,0-2.88-1.58-2.88-3.58v-6.76c0-2.1.94-3.38,2.92-3.38,2.38,0,2.84,1.62,2.84,3.44v.56h-1.8v-.76c0-1-.2-1.62-1.06-1.62s-1.06.62-1.06,1.64v7c0,1.06.22,1.82,1.1,1.82s1.06-.72,1.06-1.82v-.66Z"/><path class="cls-4" d="M101.35,133.11h1.8v5.38h2.44v-5.38h1.8v13.36h-1.8v-6.32h-2.44v6.32h-1.8Z"/><path class="cls-4" d="M111.57,133.11v13.36h-1.8V133.11Z"/><path class="cls-4" d="M114,133.11h1.8v11.76h3.36l-.18,1.6h-5Z"/><path class="cls-4" d="M120.45,133.11h2.68c2.86,0,3.4,1.6,3.4,3.92v5.2c0,2-.34,4.24-3.44,4.24h-2.64Zm1.8,11.82H123c1.46,0,1.74-.88,1.74-2.42v-5.64c0-1.36-.24-2.22-1.74-2.22h-.72Z"/><path class="cls-4" d="M128.62,133.11h2.65c2,0,3.12.84,3.12,3.16v.54c0,2-.74,2.58-1.36,2.8.82.36,1.24.94,1.24,2.74a37.84,37.84,0,0,0,.12,4.12h-1.72a28.91,28.91,0,0,1-.14-4c0-1.66-.24-2.08-1.48-2.08h-.62v6.08h-1.81Zm1.81,5.78h.64c1.16,0,1.54-.54,1.54-2v-.52c0-1.12-.28-1.78-1.52-1.78h-.66Z"/><path class="cls-4" d="M141.23,140.21h-3v4.62h3.38l-.22,1.64h-5V133.11h4.93v1.66h-3.12v3.8h3Z"/><path class="cls-4" d="M143.2,146.47V133.11h2.1l2,7.4c.27,1,.42,1.8.52,2.38h0c-.11-1.72-.11-3.6-.11-5.78v-4h1.67v13.36h-2L145.16,138c-.18-.7-.28-1.26-.36-1.66h0c.08,1.62.1,3.56.1,6v4.12Z"/></svg>