<?xml version="1.0" encoding="utf-8"?>
<!-- Generator: Adobe Illustrator 23.0.4, SVG Export Plug-In . SVG Version: 6.00 Build 0)  -->
<svg version="1.1" id="Capa_1" xmlns="http://www.w3.org/2000/svg" xmlns:xlink="http://www.w3.org/1999/xlink" x="0px" y="0px"
	 viewBox="0 0 512 512" style="enable-background:new 0 0 512 512;" xml:space="preserve">
<style type="text/css">
	.st0{fill:#CECECE;}
	.st1{fill:#6E6E6E;}
	.st2{fill:#4B4B4B;}
	.st3{fill:#AEAEAE;}
	.st4{fill:#EEEEEE;}
	.st5{fill:#868686;}
	.st6{fill:#D5D5D5;}
	.st7{fill:#353535;}
	.st8{opacity:0.51;fill:#919090;}
	.st9{font-family:'Arial-BoldMT';}
	.st10{font-size:70.2845px;}
</style>
<g>
	<g>
		<g>
			<path class="st0" d="M117.5,181h24.8v-49.5h-24.8c-13.7,0-24.7,11.1-24.7,24.7l0,0C92.8,169.9,103.9,181,117.5,181z"/>
			<path class="st0" d="M361.2,181h-24.8v-49.5h24.8c13.7,0,24.7,11.1,24.7,24.7l0,0C385.9,169.9,374.8,181,361.2,181z"/>
		</g>
		<path class="st1" d="M275.8,302.1h-72.9c-50.1,0-90.7,40.6-90.7,90.7v111.7h254.4V392.8C366.5,342.7,325.9,302.1,275.8,302.1z"/>
		<path class="st2" d="M275.8,302.1h-26.5c50.1,0,90.7,40.6,90.7,90.7v111.7h26.5V392.8C366.5,342.7,325.9,302.1,275.8,302.1z"/>
		<path class="st0" d="M239.4,7L239.4,7c-58.3,0-105.6,47.3-105.6,105.6v50.9c0,58.3,47.3,105.6,105.6,105.6l0,0
			c58.3,0,105.6-47.3,105.6-105.6v-50.9C344.9,54.3,297.7,7,239.4,7z"/>
		<path class="st3" d="M239.4,7c-4.6,0-9.1,0.3-13.5,0.9c51.9,6.6,92.1,51,92.1,104.7v50.9c0,53.7-40.2,98.1-92.1,104.7
			c4.4,0.6,8.9,0.9,13.5,0.9c58.3,0,105.6-47.3,105.6-105.6v-50.9C344.9,54.3,297.7,7,239.4,7z"/>
		<path class="st4" d="M239.4,455.5l73.2-145.7c-11.2-5-23.7-7.8-36.8-7.8h-72.9c-13.1,0-25.5,2.8-36.8,7.8L239.4,455.5z"/>
		<path class="st5" d="M227.6,331.7l-11,78.6l22.7,45.2l22.7-45.2l-11-78.6c11.8-4.7,20.1-16.2,20.1-29.6h-63.8
			C207.5,315.5,215.8,327,227.6,331.7z"/>
		<g>
			<path class="st4" d="M408.7,378.8H262.1c-5.5,0-10,4.5-10,10v105.6c0,5.5,4.5,10,10,10h146.7c5.5,0,10-4.5,10-10V388.8
				C418.8,383.3,414.3,378.8,408.7,378.8z"/>
			<path class="st6" d="M408.7,378.8h-24.6c5.5,0,10,4.5,10,10v105.6c0,5.5-4.5,10-10,10h24.6c5.5,0,10-4.5,10-10V388.8
				C418.8,383.3,414.3,378.8,408.7,378.8z"/>
		</g>
		<path class="st1" d="M133.8,109.9c28.8,0,52.1-23.4,52.1-52.1c0-11.2-3.5-21.5-9.5-30C151.2,46.6,134.7,76.3,133.8,109.9z"/>
		<path class="st2" d="M160.9,41.9c13.6,39.1,70,68.5,137.4,68.5c16.3,0,31.9-1.7,46.4-4.8C341.1,50.5,295.3,7,239.4,7
			C208.2,7,180.2,20.5,160.9,41.9z"/>
		<path class="st7" d="M235.1,6.5c-2.8,0.2-5.5,0.7-7.9,1.5c24.3,4.2,46.7,15.3,63.4,33.7c16.7,18.4,26.6,42.9,27.3,67.7
			c9-0.6,17.9-1.9,26.7-4c-1.9-28.6-16.1-56.3-38.3-74.5c-10.8-8.9-23.4-15.5-36.8-19.5C260,8.7,246.3,5.5,235.1,6.5z"/>
	</g>
	<g>
		<path d="M129.2,188.4c2.4,4.2,2.3,9.5,3.7,14.3c1.5,5.1,6.5,10.2,11.4,8.1c5.4-2.4,4.3-10.3,2.6-16c-7.5-25-6.4-51.7-5.2-77.8
			c18.6-2.6,35.7-14.3,44.8-30.8c44.4,27.8,99.4,38.1,150.8,28.2c1.7,31.2,3.1,63.9-10.2,92.1c-13.6,28.8-42.5,49.7-74,54
			c-31.5,4.3-64.8-7.9-86.3-31.4c-3.4-3.7-8.1-8-12.5-5.8c-2.9,1.4-4,5.2-3.2,8.4c0.8,3.1,2.9,5.7,5.1,8.1
			c27.9,30.3,73.1,43.3,112.8,32.6c39.7-10.7,72.2-44.7,81.1-84.9c12.9,4.2,28.2-0.6,36.5-11.4c8.2-10.8,8.8-26.8,1.4-38.2
			c-7.4-11.4-22.4-17.2-35.6-13.9c4.1-41.8-17.1-85-52.6-107.3C242.3-19,165.7,4.7,137.2,65.1c-8.6,18.4-12.7,39-10.8,59.2
			c-13.1-3.3-28,2.6-35.4,13.9c-7.4,11.3-6.9,27.3,1.3,38c8.2,10.8,23.5,15.5,36.3,11.4C128.8,187.8,129,188.1,129.2,188.4z
			 M141.9,101.7c0.1-0.5,0.1-1,0.2-1.5c0,0,0,0,0-0.1c0,0,0,0,0,0c0.1-0.8,0.2-1.5,0.3-2.3c0-0.3,0.1-0.7,0.2-1
			c2.4-15,8.2-28.8,16.6-40.7c3.9,6.9,9.1,13.5,15.4,19.6C168.7,89.3,156.4,99,141.9,101.7z M188.9,68.5c-7-6-13.1-13-17.6-21.2
			c-0.7-1.3-1.4-2.8-1-4.2c0.4-1.2,1.4-2,2.3-2.7c31.5-24,70.9-34.6,108.5-16.5c29.5,13.9,51.1,43.5,55.3,75.8
			c-40.1,6.5-82.5,3.5-119.4-13.6C207,81.5,197.3,75.7,188.9,68.5z M361.2,139c9.5,0,17.2,7.7,17.2,17.2c0,4.6-1.8,8.9-5.1,12.2
			c-3.2,3.3-7.6,5-12.2,5H352c0.3-3.3,0.4-6.6,0.4-10V139L361.2,139L361.2,139z M100.3,156.2c0-9.5,7.7-17.2,17.2-17.2h8.8v24.5
			c0,3.4,0.2,6.7,0.4,10h-9.2c-4.6,0-8.9-1.8-12.2-5C102.1,165.2,100.3,160.8,100.3,156.2z"/>
		<path d="M221.6,497h-102V392.8c0-11.1,2.1-21.9,6.4-32c1.6-3.8-0.2-8.2-4-9.8c-3.8-1.6-8.2,0.2-9.8,4c-5,12-7.5,24.7-7.5,37.8
			v111.7c0,4.1,3.4,7.5,7.5,7.5h109.5c4.1,0,7.5-3.4,7.5-7.5S225.8,497,221.6,497z"/>
		<path d="M239.4,135.7c-4.1,0-7.5,3.4-7.5,7.5v45c0,4.1,3.4,7.5,7.5,7.5h16.9c4.1,0,7.5-3.4,7.5-7.5s-3.4-7.5-7.5-7.5h-9.4v-37.5
			C246.9,139.1,243.5,135.7,239.4,135.7z"/>
		<path d="M408.7,371.3H264.2l-4.9-35.2c9.8-5.7,16.6-15.3,18.7-26.4c0.3,0,0.5,0,0.8,0c0.6,0,1.2,0.1,1.7,0.1c0.4,0,0.9,0,1.3,0.1
			c0.6,0,1.3,0.1,1.9,0.2c0.4,0,0.7,0.1,1.1,0.1c0.7,0.1,1.3,0.2,2,0.2c0.3,0,0.6,0.1,0.9,0.1c0.7,0.1,1.4,0.2,2.2,0.3
			c0.1,0,0.3,0.1,0.4,0.1c2.3,0.4,4.6,0.9,6.8,1.5c0.5,0.1,0.9,0.2,1.4,0.4c0.5,0.1,0.9,0.3,1.4,0.4c0.6,0.2,1.2,0.4,1.8,0.6
			c0.2,0.1,0.4,0.1,0.6,0.2l-16.6,33.1c-1.9,3.7-0.4,8.2,3.3,10.1c3.7,1.9,8.2,0.4,10.1-3.3l17-33.8c13.7,7.6,25.3,19,33,33.2
			c1.4,2.5,3.9,3.9,6.6,3.9c1.2,0,2.4-0.3,3.6-0.9c3.6-2,5-6.5,3-10.2c-10.5-19.4-27-34.3-46.5-42.9c0,0,0,0,0,0c0,0-0.1,0-0.1-0.1
			c-0.7-0.3-1.4-0.6-2.1-0.9c-0.2-0.1-0.4-0.2-0.6-0.2c-0.7-0.3-1.3-0.5-2-0.8c-0.4-0.1-0.8-0.3-1.1-0.4c-0.7-0.3-1.4-0.5-2.2-0.8
			c-0.7-0.2-1.4-0.5-2.1-0.7c-0.2-0.1-0.5-0.2-0.7-0.2c-0.8-0.3-1.7-0.5-2.5-0.7c-0.1,0-0.2-0.1-0.3-0.1c-6.3-1.8-12.8-2.9-19.4-3.3
			c-0.1,0-0.1,0-0.2,0c-1-0.1-2-0.1-3.1-0.2c-0.1,0-0.2,0-0.3,0c-1.1,0-2.2-0.1-3.3-0.1h-4.6h-63.8h-4.6c-13.8,0-27.2,2.8-39.8,8.4
			c-0.2,0.1-0.4,0.2-0.6,0.3c-11.9,5.4-22.8,13.2-31.9,23c-2.8,3-2.6,7.8,0.4,10.6c3,2.8,7.8,2.6,10.6-0.4
			c6.1-6.7,13.3-12.2,21.1-16.5l47.1,93.7c0,0,0,0,0,0l22.7,45.2c0.9,1.8,2.5,3.1,4.4,3.8c0.1,0,0.2,0.1,0.3,0.1
			c0.1,0,0.2,0,0.3,0.1c0.6,0.1,1.1,0.2,1.7,0.2c1.9,0,3.8-0.8,5.1-2.1v33.5c0,9.7,7.9,17.6,17.6,17.6h146.7
			c9.7,0,17.6-7.9,17.6-17.6V388.8C426.3,379.2,418.4,371.3,408.7,371.3z M248.3,324.7c-3.2,1.3-5.1,4.6-4.7,8l6.1,43.6
			c-3.2,3.2-5.3,7.6-5.3,12.5v39.7l-5.1,10.2l-15-29.8l10.6-76.3c0.5-3.4-1.4-6.7-4.7-8c-6.9-2.8-12-8.4-14.2-15.2h46.4
			C260.4,316.4,255.3,322,248.3,324.7z M194.1,310c0.1,0,0.3,0,0.4,0c0.9-0.1,1.9-0.2,2.9-0.2c0.5,0,1-0.1,1.5-0.1
			c0.4,0,0.9,0,1.3-0.1c0.2,0,0.3,0,0.5,0c2.1,11.1,8.9,20.7,18.7,26.4l-6.9,49.4l-36-71.5C182.2,312,188.1,310.7,194.1,310z
			 M411.2,494.4c0,1.4-1.1,2.5-2.5,2.5H262.1c-1.4,0-2.5-1.1-2.5-2.5v-64.2c0-0.1,0-0.1,0-0.2v-41.2c0-1.4,1.1-2.5,2.5-2.5h146.7
			c1.4,0,2.5,1.1,2.5,2.5L411.2,494.4L411.2,494.4z"/>
		<path d="M338,413.9c-3.6-2.1-8.2-0.8-10.3,2.7l-13.3,23.1c-2.1,3.6-0.8,8.2,2.7,10.3c1.2,0.7,2.5,1,3.7,1c2.6,0,5.1-1.3,6.5-3.8
			l13.3-23.1C342.8,420.6,341.6,416,338,413.9z"/>
		<path d="M353.6,433.3c-3.6-2.1-8.2-0.8-10.3,2.7L330,459.1c-2.1,3.6-0.8,8.2,2.7,10.3c1.2,0.7,2.5,1,3.7,1c2.6,0,5.1-1.3,6.5-3.8
			l13.3-23.1C358.4,439.9,357.2,435.3,353.6,433.3z"/>
		<path d="M175.9,410.8c4.1,0,7.5-3.4,7.5-7.5c0-4.1-3.4-7.5-7.5-7.5h-32c-4.1,0-7.5,3.4-7.5,7.5c0,4.1,3.4,7.5,7.5,7.5H175.9z"/>
	</g>
</g>
<text transform="matrix(0.738 -0.6748 0.6748 0.738 72.5957 481.5065)" class="st8 st9 st10">COMING SOON</text>
</svg>
