<svg width="62" height="62" viewBox="0 0 62 62" fill="none" xmlns="http://www.w3.org/2000/svg">
<path d="M30.9451 49.2339C44.5406 49.2339 55.562 38.2125 55.562 24.6169C55.562 11.0214 44.5406 0 30.9451 0C17.3495 0 6.32812 11.0214 6.32812 24.6169C6.32812 38.2125 17.3495 49.2339 30.9451 49.2339Z" fill="#FFD15C"/>
<path d="M11.0023 39.0186L2.53223 53.7008L12.4181 53.176L16.9094 62L24.7448 48.4162C19.1307 46.9638 14.3098 43.5831 11.0023 39.0186Z" fill="#E55529"/>
<path d="M50.9364 38.9453C47.6533 43.5221 42.8324 46.915 37.2305 48.3918L45.0903 62L49.5816 53.176L59.4675 53.7008L50.9364 38.9453Z" fill="#E55529"/>
<path d="M30.9449 42.4601C40.7995 42.4601 48.7882 34.4713 48.7882 24.6167C48.7882 14.7622 40.7995 6.77344 30.9449 6.77344C21.0903 6.77344 13.1016 14.7622 13.1016 24.6167C13.1016 34.4713 21.0903 42.4601 30.9449 42.4601Z" fill="#F8B64C"/>
<path d="M43.1738 22.6884C43.723 22.1514 43.4179 21.2116 42.6612 21.1018L35.6191 20.0766C35.3139 20.0278 35.0576 19.8447 34.9234 19.564L31.7746 13.1809C31.4328 12.4853 30.4443 12.4853 30.1025 13.1809L26.9659 19.564C26.8317 19.8325 26.5632 20.0278 26.2702 20.0766L19.2281 21.1018C18.4714 21.2116 18.1663 22.1514 18.7155 22.6884L23.8049 27.6557C24.0246 27.8754 24.1222 28.1805 24.0734 28.4734L22.8773 35.479C22.7431 36.2357 23.5486 36.8215 24.2321 36.4553L30.5297 33.1479C30.7982 33.0014 31.1277 33.0014 31.3962 33.1479L37.6939 36.4553C38.3773 36.8093 39.1706 36.2357 39.0486 35.479L37.8403 28.4734C37.7915 28.1683 37.8891 27.8632 38.1088 27.6557L43.1738 22.6884Z" fill="white"/>
</svg>
