<svg version="1.1" viewBox="0.0 0.0 596.1391076115485 720.0" fill="none" stroke="none" stroke-linecap="square" stroke-miterlimit="10" xmlns:xlink="http://www.w3.org/1999/xlink" xmlns="http://www.w3.org/2000/svg"><clipPath id="p.0"><path d="m0 0l596.1391 0l0 720.0l-596.1391 0l0 -720.0z" clip-rule="nonzero"/></clipPath><g clip-path="url(#p.0)"><path fill="#000000" fill-opacity="0.0" d="m0 0l596.1391 0l0 720.0l-596.1391 0z" fill-rule="evenodd"/><path fill="#fce5cd" d="m23.643045 112.720985l0 0c0 -50.443016 40.892143 -91.33516 91.33516 -91.33516l365.32968 0l0 0c24.223572 0 47.455048 9.622784 64.58371 26.75145c17.128662 17.128662 26.751465 40.360123 26.751465 64.58371l0 494.558c0 50.443054 -40.89215 91.335205 -91.335175 91.335205l-365.32968 0c-50.443016 0 -91.33516 -40.89215 -91.33516 -91.335205z" fill-rule="evenodd"/><path stroke="#094492" stroke-width="24.0" stroke-linejoin="round" stroke-linecap="butt" d="m23.643045 112.720985l0 0c0 -50.443016 40.892143 -91.33516 91.33516 -91.33516l365.32968 0l0 0c24.223572 0 47.455048 9.622784 64.58371 26.75145c17.128662 17.128662 26.751465 40.360123 26.751465 64.58371l0 494.558c0 50.443054 -40.89215 91.335205 -91.335175 91.335205l-365.32968 0c-50.443016 0 -91.33516 -40.89215 -91.33516 -91.335205z" fill-rule="evenodd"/><path fill="#f3f3f3" d="m91.367455 90.0l420.59842 0l0 543.5591l-420.59842 0z" fill-rule="evenodd"/><path stroke="#094492" stroke-width="24.0" stroke-linejoin="round" stroke-linecap="butt" d="m91.367455 90.0l420.59842 0l0 543.5591l-420.59842 0z" fill-rule="evenodd"/><path fill="#000000" fill-opacity="0.0" d="m415.0201 152.50613l0 0c37.08017 23.506119 58.601837 68.19931 59.830414 124.24759c1.2285767 56.04828 -17.936523 118.86044 -53.279236 174.61856l-139.81104 -88.629944z" fill-rule="evenodd"/><path fill="#000000" fill-opacity="0.0" d="m415.0201 152.50613l0 0c37.08017 23.506119 58.601837 68.19931 59.830414 124.24759c1.2285767 56.04828 -17.936523 118.86044 -53.279236 174.61856" fill-rule="evenodd"/><path stroke="#ffd300" stroke-width="24.0" stroke-linejoin="round" stroke-linecap="butt" d="m415.0201 152.50613l0 0c37.08017 23.506119 58.601837 68.19931 59.830414 124.24759c1.2285767 56.04828 -17.936523 118.86044 -53.279236 174.61856" fill-rule="evenodd"/><path fill="#fce5cd" d="m165.76903 42.031765l0 0c0 -7.465416 6.0519104 -13.51733 13.517334 -13.51733l236.71336 0c3.585022 0 7.023224 1.4241447 9.558197 3.959137c2.5350037 2.5349884 3.959137 5.973175 3.959137 9.558193l0 54.0677c0 7.465416 -6.0519104 13.517334 -13.517334 13.517334l-236.71336 0c-7.4654236 0 -13.517334 -6.051918 -13.517334 -13.517334z" fill-rule="evenodd"/><path stroke="#094492" stroke-width="24.0" stroke-linejoin="round" stroke-linecap="butt" d="m165.76903 42.031765l0 0c0 -7.465416 6.0519104 -13.51733 13.517334 -13.51733l236.71336 0c3.585022 0 7.023224 1.4241447 9.558197 3.959137c2.5350037 2.5349884 3.959137 5.973175 3.959137 9.558193l0 54.0677c0 7.465416 -6.0519104 13.517334 -13.517334 13.517334l-236.71336 0c-7.4654236 0 -13.517334 -6.051918 -13.517334 -13.517334z" fill-rule="evenodd"/><path fill="#e55529" d="m351.50583 246.95049l17.930206 -17.930222l19.046906 19.04689l19.046906 -19.04689l17.930206 17.930222l-19.046906 19.04689l19.046906 19.046906l-17.930206 17.930206l-19.046906 -19.046906l-19.046906 19.046906l-17.930206 -17.930206l19.046906 -19.046906z" fill-rule="evenodd"/><path fill="#e55529" d="m260.66592 246.95049l17.930237 -17.930222l19.046875 19.04689l19.046906 -19.04689l17.930206 17.930222l-19.046875 19.04689l19.046875 19.046906l-17.930206 17.930206l-19.046906 -19.046906l-19.046875 19.046906l-17.930237 -17.930206l19.046906 -19.046906z" fill-rule="evenodd"/><path fill="#e55529" d="m170.59245 246.95049l17.930206 -17.930222l19.04689 19.04689l19.04689 -19.04689l17.930222 17.930222l-19.04689 19.04689l19.04689 19.046906l-17.930222 17.930206l-19.04689 -19.046906l-19.04689 19.046906l-17.930206 -17.930206l19.04689 -19.046906z" fill-rule="evenodd"/><path fill="#e55529" d="m214.06693 360.0l0 0c0 -22.395813 18.15538 -40.551178 40.551178 -40.551178l0 0c10.754852 0 21.069214 4.272339 28.674011 11.877167c7.604828 7.604828 11.877167 17.919159 11.877167 28.674011l0 0c0 22.395813 -18.155365 40.551178 -40.551178 40.551178l0 0c-22.395798 0 -40.551178 -18.155365 -40.551178 -40.551178zm20.275589 0l0 0c0 11.1979065 9.077698 20.275604 20.275589 20.275604c11.1979065 0 20.275604 -9.077698 20.275604 -20.275604c0 -11.1979065 -9.077698 -20.275604 -20.275604 -20.275604l0 0c-11.197891 0 -20.275589 9.077698 -20.275589 20.275604z" fill-rule="evenodd"/><path fill="#e55529" d="m308.16403 360.0l0 0c0 -22.395813 18.155396 -40.551178 40.551178 -40.551178l0 0c10.754852 0 21.069214 4.272339 28.674042 11.877167c7.6047974 7.604828 11.877167 17.919159 11.877167 28.674011l0 0c0 22.395813 -18.155396 40.551178 -40.55121 40.551178l0 0c-22.395782 0 -40.551178 -18.155365 -40.551178 -40.551178zm20.275604 0l0 0c0 11.1979065 9.077698 20.275604 20.275574 20.275604c11.1979065 0 20.275604 -9.077698 20.275604 -20.275604c0 -11.1979065 -9.077698 -20.275604 -20.275604 -20.275604l0 0c-11.197876 0 -20.275574 9.077698 -20.275574 20.275604z" fill-rule="evenodd"/><path fill="#e55529" d="m108.29586 151.48329l17.930214 -17.930222l19.04689 19.046906l19.04689 -19.046906l17.930222 17.930222l-19.04689 19.04689l19.04689 19.04689l-17.930222 17.930222l-19.04689 -19.04689l-19.04689 19.04689l-17.930214 -17.930222l19.04689 -19.04689z" fill-rule="evenodd"/><path fill="#e55529" d="m261.11548 457.98163l0 0c0 -22.395813 18.155396 -40.551178 40.551178 -40.551178l0 0c10.754852 0 21.069214 4.272339 28.674011 11.877167c7.604828 7.604828 11.877167 17.919159 11.877167 28.674011l0 0c0 22.395813 -18.155365 40.551178 -40.551178 40.551178l0 0c-22.395782 0 -40.551178 -18.155365 -40.551178 -40.551178zm20.275604 0l0 0c0 11.1979065 9.077698 20.275604 20.275574 20.275604c11.1979065 0 20.275604 -9.077698 20.275604 -20.275604c0 -11.1979065 -9.077698 -20.275604 -20.275604 -20.275604l0 0c-11.197876 0 -20.275574 9.077698 -20.275574 20.275604z" fill-rule="evenodd"/><path fill="#e55529" d="m347.93176 496.25723l0 0c0 -22.395813 18.155365 -40.55121 40.551178 -40.55121l0 0c10.754852 0 21.069183 4.2723694 28.674011 11.877167c7.604828 7.604828 11.877167 17.91919 11.877167 28.674042l0 0c0 22.395782 -18.155365 40.551178 -40.551178 40.551178l0 0c-22.395813 0 -40.551178 -18.155396 -40.551178 -40.551178zm20.275574 0l0 0c0 11.197876 9.077698 20.275604 20.275604 20.275604c11.1979065 0 20.275604 -9.077728 20.275604 -20.275604c0 -11.1979065 -9.077698 -20.275604 -20.275604 -20.275604l0 0c-11.1979065 0 -20.275604 9.077698 -20.275604 20.275604z" fill-rule="evenodd"/><path fill="#e55529" d="m319.37796 166.51706l0 0c0 -22.395798 18.155365 -40.551178 40.551178 -40.551178l0 0c10.754852 0 21.069183 4.272339 28.674011 11.877167c7.604828 7.6048126 11.877167 17.919174 11.877167 28.674011l0 0c0 22.395798 -18.155396 40.551178 -40.551178 40.551178l0 0c-22.395813 0 -40.551178 -18.15538 -40.551178 -40.551178zm20.275574 0l0 0c0 11.1979065 9.077698 20.275589 20.275604 20.275589c11.1979065 0 20.275574 -9.0776825 20.275574 -20.275589c0 -11.197891 -9.077667 -20.275589 -20.275574 -20.275589l0 0c-11.1979065 0 -20.275604 9.077698 -20.275604 20.275589z" fill-rule="evenodd"/></g></svg>