<svg height="496pt" viewBox="0 -8 496 496" width="496pt" xmlns="http://www.w3.org/2000/svg"><path d="m184 192c30.960938 0 56-25.039062 56-56 0-8.800781-7.199219-16-16-16s-16 7.199219-16 16c0 13.28125-10.71875 24-24 24h-8v-160h320v240h-320v-48zm0 0" fill="#656d78"/><path d="m456 272v24c13.28125 0 24 10.71875 24 24v40s-16 32-56 32-56-32-56-32v-40c0-26.558594 21.441406-48 48-48zm0 0" fill="#965353"/><path d="m424 392c40 0 56-32 56-32 0 22.320312-13.039062 41.601562-32 50.480469-7.28125 3.519531-15.441406 5.449219-24 5.449219s-16.71875-1.921876-24-5.449219c-18.960938-8.871094-32-28.160157-32-50.480469 0 0 16 32 56 32zm0 0" fill="#eac6bb"/><path d="m439.078125 390.320312c-5.621094 8.695313-13.605469 15.726563-23.078125 20.160157-2.550781 1.230469-5.246094 2.191406-8 3.023437 2.367188.710938 4.808594 1.25 7.28125 1.664063.292969.046875.582031.113281.878906.152343 2.558594.382813 5.167969.609376 7.832032.609376 8.558593 0 16.71875-1.921876 24-5.449219 18.960937-8.871094 32-28.160157 32-50.480469.007812 0-11.945313 23.785156-40.914063 30.320312zm0 0" fill="#d3b1a9"/><path d="m456 296v-24h-32v40c13.28125 0 24 10.71875 24 24v24c0 11.175781-3.273438 21.59375-8.921875 30.320312 28.96875-6.535156 40.921875-30.320312 40.921875-30.320312v-40c0-13.28125-10.71875-24-24-24zm0 0" fill="#844747"/><path d="m424 415.921875c8.558594 0 16.71875-1.921875 24-5.449219v21.527344h-48v-21.519531c7.28125 3.519531 15.441406 5.441406 24 5.441406zm0 0" fill="#f5f7fa"/><path d="m496 456v24h-144v-24c0-13.28125 10.71875-24 24-24h96c13.28125 0 24 10.71875 24 24zm0 0" fill="#e6e9ed"/><path d="m472 432h-32c13.28125 0 24 10.71875 24 24v24h32v-24c0-13.28125-10.71875-24-24-24zm0 0" fill="#ccd1d9"/><path d="m224 432v-16h48v16l-24 8zm0 0" fill="#eac6bb"/><path d="m320 336.320312v79.679688h-144v-79.679688c0-39.761718 32.238281-72 72-72s72 32.238282 72 72zm0 0" fill="#ffce54"/><path d="m248 264.320312c-5.503906 0-10.839844.671876-16 1.839844 32.046875 7.289063 56 35.902344 56 70.160156v79.679688h32v-79.679688c0-39.761718-32.238281-72-72-72zm0 0" fill="#f6bb42"/><path d="m320 456v24h-144v-24c0-13.28125 10.71875-24 24-24h24l24 8 24-8h24c13.28125 0 24 10.71875 24 24zm0 0" fill="#48cfad"/><path d="m296 432h-24l-2.273438.761719c10.488282 2.566406 18.273438 11.941406 18.273438 23.238281v24h32v-24c0-13.28125-10.71875-24-24-24zm0 0" fill="#37bc9b"/><path d="m144 480h-144v-24c0-13.28125 10.71875-24 24-24h96c13.28125 0 24 10.71875 24 24zm0 0" fill="#5d9cec"/><path d="m120 432h-32c13.28125 0 24 10.71875 24 24v24h32v-24c0-13.28125-10.71875-24-24-24zm0 0" fill="#4a89dc"/><path d="m72 415.921875c8.558594 0 16.71875-1.921875 24-5.449219v21.527344h-48v-21.519531c7.28125 3.519531 15.441406 5.441406 24 5.441406zm0 0" fill="#f5f7fa"/><path d="m72 415.921875c-8.558594 0-16.71875-1.921875-24-5.449219-18.960938-8.871094-32-28.152344-32-50.472656 0 0 16 32 56 32s56-32 56-32c0 22.320312-13.039062 41.601562-32 50.480469-7.28125 3.519531-15.441406 5.441406-24 5.441406zm0 0" fill="#eac6bb"/><path d="m128 328v32s-16 32-56 32-56-32-56-32v-32c0-30.960938 25.039062-56 56-56s56 25.039062 56 56zm0 0" fill="#656d78"/><path d="m87.078125 390.320312c-5.621094 8.695313-13.605469 15.726563-23.078125 20.160157-2.550781 1.230469-5.246094 2.191406-8 3.023437 2.367188.710938 4.808594 1.25 7.28125 1.664063.292969.046875.582031.113281.878906.152343 2.566406.375 5.175782.601563 7.839844.601563 8.558594 0 16.71875-1.921875 24-5.449219 18.960938-8.871094 32-28.160156 32-50.480468 0 .007812-11.953125 23.792968-40.921875 30.328124zm0 0" fill="#d3b1a9"/><path d="m72 272c-2.535156 0-5.023438.214844-7.472656.550781-.503906.074219-1.007813.152344-1.511719.226563-2.382813.390625-4.734375.878906-7.007813 1.558594-.007812 0-.007812 0-.007812 0 23.144531 6.871093 40 28.257812 40 53.65625v32c0 11.175781-3.273438 21.59375-8.921875 30.320312 28.96875-6.527344 40.921875-30.3125 40.921875-30.3125v-32c0-30.960938-25.039062-56-56-56zm0 0" fill="#434a54"/><path d="m88 143.921875c8.558594 0 16.71875-1.921875 24-5.449219v21.527344l-8 8-16-8-16 8-8-8v-21.519531c7.28125 3.519531 15.441406 5.441406 24 5.441406zm0 0" fill="#f5f7fa"/><path d="m88 160 16 8 8-8h72c13.28125 0 24-10.71875 24-24 0-8.800781 7.199219-16 16-16s16 7.199219 16 16c0 30.960938-25.039062 56-56 56h-40v48h-144v-48c0-17.679688 14.320312-32 32-32h32l8 8zm0 0" fill="#e6e9ed"/><path d="m336 32c30.960938 0 56 25.039062 56 56 0 15.441406-6.238281 29.519531-16.398438 39.601562l-28.320312-28.320312c2.878906-2.882812 4.71875-6.882812 4.71875-11.28125 0-8.800781-7.199219-16-16-16zm0 0" fill="#a0d468"/><path d="m347.28125 99.28125 28.320312 28.320312c-10.082031 10.160157-24.160156 16.398438-39.601562 16.398438-30.960938 0-56-25.039062-56-56s25.039062-56 56-56v40c-8.800781 0-16 7.199219-16 16s7.199219 16 16 16c4.398438 0 8.398438-1.839844 11.28125-4.71875zm0 0" fill="#5d9cec"/><path d="m144 60v10.960938c-13.761719-17.921876-22.078125-21.199219-32-19.121094l15.921875-32.558594c10 10.640625 16.078125 25.039062 16.078125 40.71875zm0 0" fill="#edab37"/><path d="m32 65.121094c-2.558594-.320313-5.199219-.640625-8-1.121094v-4c0-33.121094 26.878906-60 60-60 17.441406 0 33.121094 7.441406 43.921875 19.28125l-15.921875 32.558594c-14.960938 3.121094-33.519531 18.640625-80 13.28125zm0 0" fill="#ffce54"/><path d="m84 0c-2.625 0-5.199219.207031-7.726562.550781-.378907.050781-.738282.121094-1.105469.167969-2.441407.386719-4.847657.867188-7.183594 1.511719 0 0-.007813 0-.015625 0 10.910156 3.015625 20.582031 8.96875 27.953125 17.050781 8.261719 8.796875 13.789063 20.175781 15.476563 32.710938.203124-.039063.410156-.113282.601562-.152344l15.921875-32.558594c-10.800781-11.839844-26.480469-19.28125-43.921875-19.28125zm0 0" fill="#f6bb42"/><path d="m32 65.121094c46.480469 5.359375 65.039062-10.160156 80-13.273438 9.921875-2.085937 18.238281 1.191406 32 19.121094v17.03125c0 22.320312-13.039062 41.601562-32 50.480469-7.28125 3.519531-15.441406 5.449219-24 5.449219s-16.71875-1.921876-24-5.449219c-18.960938-8.878907-32-28.160157-32-50.480469zm0 0" fill="#eac6bb"/><path d="m112 51.839844v36.160156c0 22.320312-13.039062 41.601562-32 50.480469-2.550781 1.230469-5.246094 2.191406-8 3.023437 5.089844 1.527344 10.449219 2.425782 16 2.425782 8.558594 0 16.71875-1.921876 24-5.449219 18.960938-8.871094 32-28.160157 32-50.480469v-17.039062c-13.761719-17.921876-22.078125-21.199219-32-19.121094zm0 0" fill="#d3b1a9"/><path d="m368 208h-64c-4.425781 0-8-3.574219-8-8s3.574219-8 8-8h64c4.425781 0 8 3.574219 8 8s-3.574219 8-8 8zm0 0" fill="#434a54"/><path d="m400 184h-128c-4.425781 0-8-3.574219-8-8s3.574219-8 8-8h128c4.425781 0 8 3.574219 8 8s-3.574219 8-8 8zm0 0" fill="#434a54"/><path d="m32 200c-4.425781 0-8 3.574219-8 8v32h16v-32c0-4.425781-3.574219-8-8-8zm0 0" fill="#ccd1d9"/></svg>