<svg width="62" height="62" viewBox="0 0 62 62" fill="none" xmlns="http://www.w3.org/2000/svg">
<path d="M31 62C48.1208 62 62 48.1208 62 31C62 13.8792 48.1208 0 31 0C13.8792 0 0 13.8792 0 31C0 48.1208 13.8792 62 31 62Z" fill="#324A5E"/>
<path d="M51.4059 38.7624L50.1366 37.0049C48.672 34.9545 46.9634 33.0994 45.0106 31.4884L40.5193 27.5829C39.9335 27.0459 39.0059 27.1435 38.5177 27.7782C38.0783 28.364 38.176 29.1939 38.713 29.6821L42.1791 32.5624C42.2279 32.6112 42.2279 32.7089 42.1791 32.7577C42.1303 32.8065 42.0327 32.8065 41.935 32.7577L36.3697 28.1687C35.8815 27.7782 35.1492 27.6805 34.661 28.0223C35.0516 27.5341 35.1004 26.8506 34.7098 26.3136C34.7098 26.2648 34.661 26.2648 34.6122 26.216C34.124 25.679 33.2453 25.6301 32.6594 26.0695L25.3366 31.2443C25.2878 31.2931 25.1901 31.2931 25.1413 31.1955C25.0925 31.1467 25.0925 31.049 25.1901 31.0002L31.8295 26.2648C32.513 25.7766 32.6594 24.8002 32.1713 24.1167C31.6831 23.4821 30.8043 23.3356 30.1209 23.775L22.4563 29.0963C23.335 27.6317 23.9209 26.0695 23.7744 24.7026C23.7256 24.0191 22.798 23.6774 22.1146 23.9215C21.8216 24.0191 21.4799 24.2632 21.2846 24.7026C21.2846 24.7026 21.0405 26.8018 18.2579 28.4616C15.4264 30.1215 14.6941 35.3939 14.6941 35.3939C14.2547 37.3467 8.20117 41.3986 8.20117 41.3986L12.8878 47.501C15.7193 45.6459 20.4547 43.8884 20.4547 43.8884L22.5051 43.1073C24.8484 42.2286 27.0941 41.0569 29.1933 39.6412L32.6106 37.2978L36.6626 40.7152C35.0027 40.227 33.3429 40.1293 32.0736 40.6175C31.439 40.8616 31.3413 41.838 31.7319 42.4238C31.8783 42.6679 32.2201 42.9608 32.7083 43.0585C32.7083 43.0585 34.8075 42.7656 37.1508 45.0112C39.4941 47.2569 44.7665 46.6223 44.7665 46.6223C46.7681 46.5246 52.2358 51.3089 52.2358 51.3089L56.9224 45.2065C54.3839 42.8632 51.4059 38.7624 51.4059 38.7624ZM28.7539 36.6144C28.7051 36.6632 28.6075 36.6632 28.5587 36.5656C28.5098 36.5167 28.5587 36.4191 28.6075 36.3703L30.1697 35.2475L30.4138 35.4427L28.7539 36.6144ZM27.5335 33.5388C27.4846 33.5876 27.387 33.5876 27.3382 33.49C27.2894 33.4412 27.2894 33.3435 27.387 33.2947L30.6579 31.0002C30.7067 31.0978 30.7555 31.1955 30.8043 31.2443L27.5335 33.5388ZM37.9807 37.5419C37.9319 37.5908 37.8342 37.5908 37.7854 37.5419L34.661 35.0034C34.6122 34.7593 34.5634 34.564 34.4169 34.3687L37.9807 37.3467C38.0295 37.3467 38.0295 37.4443 37.9807 37.5419ZM39.6405 34.8081C39.5917 34.8569 39.4941 34.8569 39.4453 34.8081L35.1492 31.2443C35.198 31.1467 35.198 31.0002 35.198 30.8538L39.6405 34.564C39.6894 34.6616 39.6894 34.7593 39.6405 34.8081Z" fill="#F9B54C"/>
<path d="M2.19727 42.4724C3.75947 46.4268 6.1516 49.9906 9.08073 52.9197L18.454 46.9638L12.1075 36.1748L2.19727 42.4724Z" fill="#FF7058"/>
<path d="M54.9212 39.8364L46.1826 48.8191L51.8456 53.9451C54.97 51.1136 57.5086 47.6474 59.2661 43.7419L54.9212 39.8364Z" fill="#4CDBC4"/>
<path d="M26.9479 31.1954C27.6802 31.1465 28.266 30.5119 28.266 29.7796L28.1684 25.2883C28.1684 25.1906 28.2172 25.1418 28.3149 25.1418C28.4125 25.1418 28.4613 25.1906 28.4613 25.2883L28.6566 32.4646C28.6566 33.1969 29.1936 33.8316 29.8771 33.9292C30.7558 34.0268 31.5369 33.3434 31.4881 32.4646L31.3416 25.9229C31.3416 25.8253 31.3905 25.7765 31.4881 25.7765C31.5857 25.7765 31.6346 25.8253 31.6346 25.9229L31.8298 34.4662C31.8298 35.2961 32.5133 35.9308 33.3432 35.9308C33.392 35.9308 33.4409 35.9308 33.4897 35.9308C34.222 35.7843 34.7101 35.1009 34.7101 34.3686L34.466 25.3859C34.466 25.2883 34.5149 25.2394 34.6125 25.2394C34.7101 25.2394 34.759 25.2883 34.759 25.3859L35.0031 33.5387C35.0031 34.3686 35.7353 35.052 36.6141 35.0032C37.3952 34.9544 38.0298 34.2709 38.0298 33.4898L37.8834 24.2142C38.6157 25.7765 39.592 27.0946 40.8125 27.7292C41.4472 28.0709 42.1794 27.4851 42.3747 26.8017C42.4724 26.5087 42.4235 26.0694 42.1794 25.6788C42.1794 25.6788 40.5684 24.2631 40.7149 21.041C40.8613 17.819 36.907 14.2552 36.907 14.2552C35.5401 12.7906 35.4912 5.56543 35.4912 5.56543L27.8267 6.05362C27.8267 9.42212 26.655 14.3528 26.655 14.3528L26.1668 16.5009C25.6298 18.9418 25.3369 21.4804 25.3369 23.9702L25.3857 29.8772C25.4834 30.6095 26.1668 31.2442 26.9479 31.1954Z" fill="#FFD05B"/>
<path d="M37.981 0.781102C35.7353 0.292913 33.392 0 30.9999 0C29.096 0 27.2408 0.195276 25.4834 0.488189L25.2881 10.9354L37.7857 11.6189L37.981 0.781102Z" fill="#E6E9EE"/>
</svg>
