<svg width="114" height="131" viewBox="0 0 114 131" fill="none" xmlns="http://www.w3.org/2000/svg">
<g clip-path="url(#clip0)">
<path d="M0.558703 93.272H113.452C114.355 93.272 115 92.5567 115 91.8414C115 91.603 114.871 91.3646 114.742 91.1261L58.489 0.760395C58.1019 0.0450986 57.0697 -0.193333 56.2956 0.164315C56.0376 0.283531 55.9086 0.521963 55.6505 0.760395L-0.731503 91.1261C-1.24759 91.8414 -0.989545 92.6759 -0.215421 93.1528C0.0426205 93.272 0.300662 93.272 0.558703 93.272ZM57.0697 9.58238L105.84 87.7881H8.29994L57.0697 9.58238Z" fill="#094492"/>
<path d="M54.9331 40.8721H59.0787C59.6315 40.8721 60 41.3586 60 41.8452V67.1469C60 67.7308 59.5394 68.1201 59.0787 68.1201H54.9331C54.3803 68.1201 54.0118 67.6335 54.0118 67.1469V41.9425C53.9197 41.3586 54.3803 40.8721 54.9331 40.8721Z" fill="#094492"/>
<path d="M54.9331 73.3601H59.0787C59.6315 73.3601 60 73.8294 60 74.2986V78.7096C60 79.2727 59.5394 79.6481 59.0787 79.6481H54.9331C54.3803 79.6481 54.0118 79.1788 54.0118 78.7096V74.2986C53.9197 73.8294 54.3803 73.3601 54.9331 73.3601Z" fill="#094492"/>
</g>
<defs>
<clipPath id="clip0">
<rect width="114" height="131" fill="white"/>
</clipPath>
</defs>
</svg>
