<svg version="1.1" viewBox="0.0 0.0 800.1968503937007 720.8923884514436" fill="none" stroke="none" stroke-linecap="square" stroke-miterlimit="10" xmlns:xlink="http://www.w3.org/1999/xlink" xmlns="http://www.w3.org/2000/svg"><clipPath id="p.0"><path d="m0 0l800.19684 0l0 720.8924l-800.19684 0l0 -720.8924z" clip-rule="nonzero"/></clipPath><g clip-path="url(#p.0)"><path fill="#000000" fill-opacity="0.0" d="m0 0l800.19684 0l0 720.8924l-800.19684 0z" fill-rule="evenodd"/><path fill="#93c47d" d="m555.34644 35.64042l100.69293 0l0 50.803154l-100.69293 0z" fill-rule="evenodd"/><path stroke="#93c47d" stroke-width="4.0" stroke-linejoin="round" stroke-linecap="butt" d="m555.34644 35.64042l100.69293 0l0 50.803154l-100.69293 0z" fill-rule="evenodd"/><path fill="#000000" fill-opacity="0.0" d="m666.7323 25.84252l0 141.6693" fill-rule="evenodd"/><path stroke="#915b30" stroke-width="24.0" stroke-linejoin="round" stroke-linecap="butt" d="m666.7323 25.84252l0 141.6693" fill-rule="evenodd"/><path fill="#fff2cc" d="m68.519684 199.61417l662.9606 0l0 436.6299l-662.9606 0z" fill-rule="evenodd"/><path stroke="#3d85c6" stroke-width="24.0" stroke-linejoin="round" stroke-linecap="butt" d="m68.519684 199.61417l662.9606 0l0 436.6299l-662.9606 0z" fill-rule="evenodd"/><path fill="#cc0000" d="m66.44095 199.61417l333.55905 -161.29134l333.55908 161.29134z" fill-rule="evenodd"/><path stroke="#cc0000" stroke-width="24.0" stroke-linejoin="round" stroke-linecap="butt" d="m66.44095 199.61417l333.55905 -161.29134l333.55908 161.29134z" fill-rule="evenodd"/><path fill="#93c47d" d="m17.716536 617.0842l0 0c0 -7.1348877 5.783985 -12.918884 12.918894 -12.918884l738.7291 0c3.4263306 0 6.7122803 1.361084 9.135071 3.7838745c2.4227295 2.4227295 3.7838135 5.70874 3.7838135 9.13501l0 51.674072c0 7.1348877 -5.7839966 12.918884 -12.918884 12.918884l-738.7291 0l0 0c-7.1349087 0 -12.918894 -5.7839966 -12.918894 -12.918884z" fill-rule="evenodd"/><path stroke="#3d85c6" stroke-width="24.0" stroke-linejoin="round" stroke-linecap="butt" d="m17.716536 617.0842l0 0c0 -7.1348877 5.783985 -12.918884 12.918894 -12.918884l738.7291 0c3.4263306 0 6.7122803 1.361084 9.135071 3.7838745c2.4227295 2.4227295 3.7838135 5.70874 3.7838135 9.13501l0 51.674072c0 7.1348877 -5.7839966 12.918884 -12.918884 12.918884l-738.7291 0l0 0c-7.1349087 0 -12.918894 -5.7839966 -12.918894 -12.918884z" fill-rule="evenodd"/><path fill="#fff2cc" d="m354.11023 132.33333l0 0c0 -25.344215 20.545563 -45.889755 45.88977 -45.889755l0 0c12.170715 0 23.842957 4.8348007 32.448975 13.440796c8.605988 8.606003 13.440796 20.278244 13.440796 32.44896l0 0c0 25.344223 -20.545563 45.88977 -45.88977 45.88977l0 0c-25.344208 0 -45.88977 -20.545547 -45.88977 -45.88977z" fill-rule="evenodd"/><path stroke="#3d85c6" stroke-width="24.0" stroke-linejoin="round" stroke-linecap="butt" d="m354.11023 132.33333l0 0c0 -25.344215 20.545563 -45.889755 45.88977 -45.889755l0 0c12.170715 0 23.842957 4.8348007 32.448975 13.440796c8.605988 8.606003 13.440796 20.278244 13.440796 32.44896l0 0c0 25.344223 -20.545563 45.88977 -45.88977 45.88977l0 0c-25.344208 0 -45.88977 -20.545547 -45.88977 -45.88977z" fill-rule="evenodd"/><path fill="#000000" fill-opacity="0.0" d="m391.53018 137.24672l32.97638 -16.944885" fill-rule="evenodd"/><path stroke="#000000" stroke-width="16.0" stroke-linejoin="round" stroke-linecap="butt" d="m391.53018 137.24672l32.97638 -16.944885" fill-rule="evenodd"/><path fill="#000000" fill-opacity="0.0" d="m400.88452 137.24672l10.992126 23.149612" fill-rule="evenodd"/><path stroke="#000000" stroke-width="16.0" stroke-linejoin="round" stroke-linecap="butt" d="m400.88452 137.24672l10.992126 23.149612" fill-rule="evenodd"/><path fill="#b87a48" d="m297.53018 395.05103l0 0c0 -2.62146 2.125122 -4.7465515 4.746582 -4.7465515l100.995026 0c1.2588806 0 2.4661865 0.50006104 3.3563538 1.3902283c0.8901367 0.89016724 1.3902283 2.0974731 1.3902283 3.3563232l0 192.7746c0 2.62146 -2.125122 4.746582 -4.746582 4.746582l-100.995026 0c-2.62146 0 -4.746582 -2.125122 -4.746582 -4.746582z" fill-rule="evenodd"/><path fill="#b87a48" d="m408.01837 395.05103l0 0c0 -2.62146 2.125122 -4.7465515 4.746582 -4.7465515l100.995056 0c1.2588501 0 2.4661865 0.50006104 3.3563232 1.3902283c0.8901367 0.89016724 1.3902588 2.0974731 1.3902588 3.3563232l0 192.7746c0 2.62146 -2.125122 4.746582 -4.746582 4.746582l-100.995056 0c-2.62146 0 -4.746582 -2.125122 -4.746582 -4.746582z" fill-rule="evenodd"/><path fill="#cfe2f3" d="m548.5171 260.209l0 0c0 -9.596329 7.779297 -17.375687 17.375671 -17.375687l93.5636 0c4.6082764 0 9.027893 1.830658 12.286438 5.089218c3.258606 3.2585754 5.0892334 7.6781464 5.0892334 12.2864685l0 69.50061c0 9.596313 -7.779358 17.375671 -17.375671 17.375671l-93.5636 0l0 0c-9.5963745 0 -17.375671 -7.779358 -17.375671 -17.375671z" fill-rule="evenodd"/><path stroke="#93c47d" stroke-width="24.0" stroke-linejoin="round" stroke-linecap="butt" d="m548.5171 260.209l0 0c0 -9.596329 7.779297 -17.375687 17.375671 -17.375687l93.5636 0c4.6082764 0 9.027893 1.830658 12.286438 5.089218c3.258606 3.2585754 5.0892334 7.6781464 5.0892334 12.2864685l0 69.50061c0 9.596313 -7.779358 17.375671 -17.375671 17.375671l-93.5636 0l0 0c-9.5963745 0 -17.375671 -7.779358 -17.375671 -17.375671z" fill-rule="evenodd"/><path fill="#000000" fill-opacity="0.0" d="m612.67456 242.83333l0 104.25197" fill-rule="evenodd"/><path stroke="#93c47d" stroke-width="24.0" stroke-linejoin="round" stroke-linecap="butt" d="m612.67456 242.83333l0 104.25197" fill-rule="evenodd"/><path fill="#000000" fill-opacity="0.0" d="m548.5171 294.95932l128.31494 0" fill-rule="evenodd"/><path stroke="#93c47d" stroke-width="24.0" stroke-linejoin="round" stroke-linecap="butt" d="m548.5171 294.95932l128.31494 0" fill-rule="evenodd"/><path fill="#cfe2f3" d="m335.84253 260.209l0 0c0 -9.596329 7.779358 -17.375687 17.375671 -17.375687l93.5636 0c4.608307 0 9.027893 1.830658 12.2864685 5.089218c3.2585754 3.2585754 5.089203 7.6781464 5.089203 12.2864685l0 69.50061c0 9.596313 -7.779358 17.375671 -17.375671 17.375671l-93.5636 0l0 0c-9.596313 0 -17.375671 -7.779358 -17.375671 -17.375671z" fill-rule="evenodd"/><path stroke="#93c47d" stroke-width="24.0" stroke-linejoin="round" stroke-linecap="butt" d="m335.84253 260.209l0 0c0 -9.596329 7.779358 -17.375687 17.375671 -17.375687l93.5636 0c4.608307 0 9.027893 1.830658 12.2864685 5.089218c3.2585754 3.2585754 5.089203 7.6781464 5.089203 12.2864685l0 69.50061c0 9.596313 -7.779358 17.375671 -17.375671 17.375671l-93.5636 0l0 0c-9.596313 0 -17.375671 -7.779358 -17.375671 -17.375671z" fill-rule="evenodd"/><path fill="#000000" fill-opacity="0.0" d="m400.0 242.83333l0 104.25197" fill-rule="evenodd"/><path stroke="#93c47d" stroke-width="24.0" stroke-linejoin="round" stroke-linecap="butt" d="m400.0 242.83333l0 104.25197" fill-rule="evenodd"/><path fill="#000000" fill-opacity="0.0" d="m335.84253 294.95932l128.31494 0" fill-rule="evenodd"/><path stroke="#93c47d" stroke-width="24.0" stroke-linejoin="round" stroke-linecap="butt" d="m335.84253 294.95932l128.31494 0" fill-rule="evenodd"/><path fill="#cfe2f3" d="m123.16798 260.209l0 0c0 -9.596329 7.7793503 -17.375687 17.375679 -17.375687l93.563614 0c4.608307 0 9.027878 1.830658 12.286453 5.089218c3.2585754 3.2585754 5.089218 7.6781464 5.089218 12.2864685l0 69.50061c0 9.596313 -7.779358 17.375671 -17.375671 17.375671l-93.563614 0l0 0c-9.596329 0 -17.375679 -7.779358 -17.375679 -17.375671z" fill-rule="evenodd"/><path stroke="#93c47d" stroke-width="24.0" stroke-linejoin="round" stroke-linecap="butt" d="m123.16798 260.209l0 0c0 -9.596329 7.7793503 -17.375687 17.375679 -17.375687l93.563614 0c4.608307 0 9.027878 1.830658 12.286453 5.089218c3.2585754 3.2585754 5.089218 7.6781464 5.089218 12.2864685l0 69.50061c0 9.596313 -7.779358 17.375671 -17.375671 17.375671l-93.563614 0l0 0c-9.596329 0 -17.375679 -7.779358 -17.375679 -17.375671z" fill-rule="evenodd"/><path fill="#000000" fill-opacity="0.0" d="m187.32545 242.83333l0 104.25197" fill-rule="evenodd"/><path stroke="#93c47d" stroke-width="24.0" stroke-linejoin="round" stroke-linecap="butt" d="m187.32545 242.83333l0 104.25197" fill-rule="evenodd"/><path fill="#000000" fill-opacity="0.0" d="m123.16798 294.95932l128.31497 0" fill-rule="evenodd"/><path stroke="#93c47d" stroke-width="24.0" stroke-linejoin="round" stroke-linecap="butt" d="m123.16798 294.95932l128.31497 0" fill-rule="evenodd"/><path fill="#7b4e2b" d="m386.03937 499.74802l0 0c0 -3.8529358 3.1234436 -6.976349 6.9763794 -6.976349l0 0c1.8502502 0 3.6247253 0.73498535 4.9330444 2.043335c1.3083191 1.3083191 2.043335 3.0827637 2.043335 4.933014l0 0c0 3.8529663 -3.1234436 6.9763794 -6.9763794 6.9763794l0 0c-3.8529358 0 -6.9763794 -3.123413 -6.9763794 -6.9763794z" fill-rule="evenodd"/><path fill="#7b4e2b" d="m416.2966 499.74802l0 0c0 -3.8529358 3.123413 -6.976349 6.9763794 -6.976349l0 0c1.8502502 0 3.6246948 0.73498535 4.9330444 2.043335c1.3083191 1.3083191 2.0433044 3.0827637 2.0433044 4.933014l0 0c0 3.8529663 -3.123413 6.9763794 -6.976349 6.9763794l0 0c-3.8529663 0 -6.9763794 -3.123413 -6.9763794 -6.9763794z" fill-rule="evenodd"/></g></svg>