<svg width="36" height="36" viewBox="0 0 36 36" fill="none" xmlns="http://www.w3.org/2000/svg">
<g clip-path="url(#clip0)">
<path d="M12.2931 22.8597L13.1416 23.7083L18.425 18.4248L17.5765 17.5763L12.2931 22.8597Z" fill="#ECE7EA"/>
<path d="M24.9046 22.192C31.0327 22.192 36.0006 17.2241 36.0006 11.096C36.0006 4.96785 31.0327 0 24.9046 0C18.7764 0 13.8086 4.96785 13.8086 11.096C13.8086 17.2241 18.7764 22.192 24.9046 22.192Z" fill="#F14742"/>
<path d="M24.9046 19.816C29.7205 19.816 33.6246 15.9119 33.6246 11.096C33.6246 6.28005 29.7205 2.37598 24.9046 2.37598C20.0886 2.37598 16.1846 6.28005 16.1846 11.096C16.1846 15.9119 20.0886 19.816 24.9046 19.816Z" fill="#ECE7EA"/>
<path d="M20.4526 7.24423C20.2991 7.24423 20.1455 7.18566 20.0283 7.06852C19.794 6.83417 19.794 6.45427 20.0283 6.22006C21.3307 4.91759 23.0625 4.2002 24.9045 4.2002C26.7464 4.2002 28.4782 4.91745 29.7806 6.21999C30.0149 6.45434 30.0149 6.83424 29.7806 7.06845C29.5462 7.30266 29.1663 7.3028 28.9321 7.06838C27.8562 5.99253 26.4259 5.40015 24.9044 5.40015C23.3829 5.40015 21.9525 5.9926 20.8768 7.06845C20.7596 7.18559 20.6061 7.24423 20.4526 7.24423Z" fill="white"/>
<path d="M13.2471 26.2444L3.99128 35.5001C3.02736 36.4641 2.02717 35.9006 1.06326 34.9367C0.0993458 33.9728 -0.464067 32.9726 0.499845 32.0087L9.75562 22.7529L12.6327 23.3672L13.2471 26.2444Z" fill="#1B4145"/>
<path d="M14.3738 25.117L13.2463 26.2444L9.75488 22.753L10.8823 21.6255C11.8463 20.6616 13.4099 20.6616 14.3738 21.6255C15.3378 22.5895 15.3378 24.153 14.3738 25.117Z" fill="#C2B8B9"/>
</g>
<defs>
<clipPath id="clip0">
<rect width="36" height="36" fill="white"/>
</clipPath>
</defs>
</svg>
