<svg width="87" height="87" viewBox="0 0 87 87" fill="none" xmlns="http://www.w3.org/2000/svg">
<path d="M43.5 87C67.5244 87 87 67.5244 87 43.5C87 19.4756 67.5244 0 43.5 0C19.4756 0 0 19.4756 0 43.5C0 67.5244 19.4756 87 43.5 87Z" fill="#324A5E"/>
<path d="M61.8609 14H26.1391C23.8435 14 22 15.8716 22 18.1631V68.8369C22 71.1459 23.8609 73 26.1391 73H61.8609C64.1565 73 66 71.1284 66 68.8369V18.1631C66 15.8716 64.1391 14 61.8609 14Z" fill="#324A5E"/>
<path d="M64 20H24V63H64V20Z" fill="white"/>
<path d="M49.4514 18.2563H38.5593C38.114 18.2563 37.7715 17.8966 37.7715 17.4685C37.7715 17.0232 38.1311 16.6807 38.5593 16.6807H49.4514C49.8967 16.6807 50.2392 17.0403 50.2392 17.4685C50.2392 17.8966 49.8967 18.2563 49.4514 18.2563Z" fill="#2B3B4E"/>
<path d="M44.0052 70.2164C45.6131 70.2164 46.9166 68.9129 46.9166 67.305C46.9166 65.697 45.6131 64.3936 44.0052 64.3936C42.3972 64.3936 41.0938 65.697 41.0938 67.305C41.0938 68.9129 42.3972 70.2164 44.0052 70.2164Z" fill="#2B3B4E"/>
<path d="M36.6932 38.6533H32.3945V43.6199H36.6932V38.6533Z" fill="#FF7058"/>
<path d="M42.9959 35.7764H38.6973V43.6029H42.9959V35.7764Z" fill="#FF7058"/>
<path d="M49.3152 31.2725H45.0166V43.6032H49.3152V31.2725Z" fill="#FF7058"/>
<path d="M55.617 24.165H51.3184V43.6202H55.617V24.165Z" fill="#FF7058"/>
<path d="M59.6416 47.2163H28.3867V49.1173H59.6416V47.2163Z" fill="#E6E9EE"/>
<path d="M59.6416 51.9771H28.3867V53.878H59.6416V51.9771Z" fill="#E6E9EE"/>
<path d="M48.8009 56.7212H28.3867V58.6222H48.8009V56.7212Z" fill="#E6E9EE"/>
</svg>
