<svg width="87" height="87" viewBox="0 0 87 87" fill="none" xmlns="http://www.w3.org/2000/svg">
<path d="M43.5 87C67.5244 87 87 67.5244 87 43.5C87 19.4756 67.5244 0 43.5 0C19.4756 0 0 19.4756 0 43.5C0 67.5244 19.4756 87 43.5 87Z" fill="#324A5E"/>
<path d="M30 53H17V67H30V53Z" fill="#E6E9EE"/>
<path d="M23.5 54C25.9853 54 28 52.2091 28 50C28 47.7909 25.9853 46 23.5 46C21.0147 46 19 47.7909 19 50C19 52.2091 21.0147 54 23.5 54Z" fill="#F9B54C"/>
<path d="M31 40.528C31 45.22 27.8667 51 24 51C20.1333 51 17 45.22 17 40.528C17 35.836 20.1333 34 24 34C27.8667 34.068 31 35.904 31 40.528Z" fill="#FFD05B"/>
<path d="M21.0162 32.5421C21.0162 32.5421 26.8497 30.0771 29.8007 35.6597C32.9577 41.6048 28.9772 48.0575 28.1536 48.565C28.1536 48.565 28.3595 47.55 28.9772 45.5924C28.9772 45.5924 30.4184 41.1698 26.0948 40.5173C26.0948 40.5173 21.977 39.9373 21.6339 38.9948C21.6339 38.9948 21.9084 40.5898 23.83 40.8798C23.83 40.8798 19.575 40.8073 18.2711 39.2123C18.2711 39.2123 16.4867 45.5199 19.0946 49C19.0946 49 14.4965 45.1574 15.0455 39.1398C15.0455 39.1398 14.8396 30.9471 21.0162 32.5421Z" fill="#324A5E"/>
<path d="M68 34.8679C68 35.2453 67.8596 35.6981 67.6491 36C66.5965 35.3962 65.3333 35.0943 64 35.0943C62.6667 35.0943 61.4035 35.3962 60.3509 36C60.1404 35.6226 60 35.2453 60 34.8679C60 33.283 61.7544 32 64 32C66.2456 32 68 33.283 68 34.8679Z" fill="#2B3B4E"/>
<path d="M70 42.9933C70 43.9467 69.9337 44.9733 69.7347 46C69.5357 45.8533 69.3367 45.8533 69.0714 45.9267C69.2041 43.36 67.8112 42.9933 67.8112 42.9933C66.352 42.4067 65.7551 40.8667 65.5561 39.6933C64.9592 40.4267 63.9643 41.2333 62.3061 41.9667C57.7959 44.02 57.9949 45.9267 57.9949 45.9267L57.9286 45.8533C57.7296 45.78 57.4643 45.78 57.2653 45.8533C57.0663 44.8267 57 43.8 57 42.8467C57 37.2 59.9184 35 63.4337 35C67.0816 35.1467 70 37.3467 70 42.9933Z" fill="#324A5E"/>
<path d="M67.9802 50.9032C67.9802 50.9032 68.5532 53.7419 63.5391 56H63.4675C58.3817 53.8065 59.0264 50.9032 59.0264 50.9032C59.098 50.5806 59.1696 50.3226 59.3129 50.0645C60.3873 51.8065 61.8916 53.0323 63.5391 53.0323C65.1866 53.0323 66.6192 51.8065 67.7653 50C67.7653 50.3226 67.9085 50.6452 67.9802 50.9032C67.9802 50.9677 67.9802 50.9032 67.9802 50.9032Z" fill="#F9B54C"/>
<path d="M80 61.6C76.0221 65.5489 70.5354 68 64.5 68C58.4646 68 52.9779 65.5489 49 61.6L50.5774 56.6979L60.3164 52C60.5907 53.0894 61.5509 54.7234 64.5 56.1532H64.5686C67.4491 54.7234 68.4093 53.0894 68.7522 52L78.4226 56.6298L80 61.6Z" fill="#FF7058"/>
<path d="M70.6644 44.902C70.4524 44.7647 70.2404 44.7647 69.9578 44.8333C70.0991 42.4314 68.6152 42.0882 68.6152 42.0882C67.0607 41.5392 66.4248 40.098 66.2128 39C65.5769 39.6863 64.517 40.4412 62.7505 41.1275C57.9456 43.049 58.1576 44.8333 58.1576 44.8333L58.0869 44.7647C57.8043 44.6961 57.5923 44.6961 57.3803 44.8333C56.8857 45.1765 56.8857 46.2059 57.3096 47.0294C57.7336 47.8529 58.4402 48.2647 58.9348 47.9902C60.0654 50.8039 61.9025 53 63.9517 53C66.0008 53 67.838 50.8039 68.9685 47.9902C69.4631 48.2647 70.1697 47.8529 70.5937 47.0294C71.159 46.2059 71.0883 45.2451 70.6644 44.902Z" fill="#FFD05B"/>
<path d="M55.6 12H36.4C35.0971 12 34 12.9885 34 14.3066V25.7077C34 26.9599 35.0286 28.0143 36.4 28.0143H48.1943L56.2857 35L53.68 28.0143H55.6C56.9029 28.0143 58 27.0258 58 25.7077V14.3066C57.9314 13.0544 56.9029 12 55.6 12Z" fill="#E6E9EE"/>
<path d="M31.5119 7.53516H50.693C51.9946 7.53516 53.0906 8.56272 53.0906 9.93279V21.784C53.0906 23.0856 52.0631 24.1816 50.693 24.1816H38.9103L30.8269 31.3745L33.43 24.1131H31.5119C30.2103 24.1131 29.1143 23.0856 29.1143 21.7155V9.93279C29.1828 8.63122 30.2103 7.53516 31.5119 7.53516Z" fill="white"/>
<path d="M68.2991 51.1724C68.2991 51.1724 68.8472 54.255 63.9834 56.5842C63.9834 56.5842 67.6141 56.8582 68.6417 60.2834C68.7102 60.4204 70.6283 53.022 68.2991 51.1724Z" fill="white"/>
<path d="M59.6671 51.1724C57.2695 53.022 59.2561 60.4204 59.2561 60.2834C60.3521 56.9267 63.9144 56.5842 63.9144 56.5842C59.1191 54.255 59.6671 51.1724 59.6671 51.1724Z" fill="white"/>
<path d="M27.8812 48.6377C27.8812 48.6377 28.4292 51.7204 23.5654 54.0495C23.5654 54.0495 27.1961 54.3235 28.2237 57.7487C28.2922 57.8172 30.2788 50.4188 27.8812 48.6377Z" fill="white"/>
<path d="M19.2496 48.6377C19.2496 48.6377 18.7016 51.7204 23.5653 54.0495C23.5653 54.0495 19.9346 54.3235 18.9071 57.7487C18.8386 57.8172 16.9205 50.4188 19.2496 48.6377Z" fill="white"/>
<path d="M39.6637 61.4482L37.4031 54.5293L28.7716 50.3506C28.7716 53.3648 28.5661 60.7632 25.0039 69.6002C31.0323 69.1892 36.3756 66.038 39.6637 61.4482Z" fill="#324A5E"/>
<path d="M22.1268 69.6002C18.5646 60.7632 18.3591 53.2963 18.3591 50.3506L9.65907 54.5293L7.39844 61.4482C10.8236 66.038 16.0984 69.1892 22.1268 69.6002Z" fill="#324A5E"/>
</svg>
