<svg width="86" height="86" viewBox="0 0 86 86" fill="none" xmlns="http://www.w3.org/2000/svg">
<path d="M43 86C66.7482 86 86 66.7482 86 43C86 19.2518 66.7482 0 43 0C19.2518 0 0 19.2518 0 43C0 66.7482 19.2518 86 43 86Z" fill="#324A5E"/>
<path d="M63.6936 71H21.3064C21.1362 71 21 70.8637 21 70.6933V15.3067C21 15.1363 21.1362 15 21.3064 15H42.5H63.6936C63.8638 15 64 15.1363 64 15.3067V70.7104C64 70.8807 63.8638 71 63.6936 71Z" fill="#84DBFF"/>
<path d="M24 18V65H55.5523V58.6017H62V18H24Z" fill="white"/>
<path d="M55 65L62 58H55V65Z" fill="#E6E9EE"/>
<path d="M47.912 13.374L47.0845 11.6024C46.9261 11.2303 46.5563 11 46.1514 11H39.831C39.4261 11 39.0739 11.2303 38.8979 11.6024L38.088 13.374C37.9296 13.7461 37.5599 13.9764 37.1549 13.9764H34.0211C33.4577 13.9764 33 14.437 33 15.0039V18.9724C33 19.5394 33.4577 20 34.0211 20H51.9789C52.5423 20 53 19.5394 53 18.9724V15.0039C53 14.437 52.5423 13.9764 51.9789 13.9764H48.8451C48.4401 13.9764 48.0704 13.7461 47.912 13.374Z" fill="#FFD05B"/>
<path d="M46.6324 44C46.3568 44 46.0973 43.8468 45.9676 43.5745L39.5297 30.6733L37.6973 35.5751C37.5838 35.8814 37.3081 36.0687 37 36.0687H31.7459C31.3405 36.0687 31 35.7112 31 35.2857C31 34.8602 31.3405 34.5028 31.7459 34.5028H36.4973L38.7351 28.4948C38.8487 28.2054 39.0919 28.0182 39.3838 28.0012C39.6919 27.9841 39.9514 28.1543 40.0811 28.4267L46.5676 41.43L48.9838 35.8474C49.0973 35.5751 49.373 35.3879 49.6649 35.3879H54.2541C54.6595 35.3879 55 35.7453 55 36.1708C55 36.5963 54.6595 36.9537 54.2541 36.9537H50.1514L47.3135 43.5405C47.2 43.8128 46.9405 44 46.6486 44C46.6486 44 46.6486 44 46.6324 44Z" fill="#FF7058"/>
<path d="M57.8295 22.939H46.6562V24.5642H57.8295V22.939Z" fill="#E6E9EE"/>
<path d="M57.8295 26.2061H46.6562V27.8313H57.8295V26.2061Z" fill="#E6E9EE"/>
<path d="M49.8562 49.23H27.6113V50.8552H49.8562V49.23Z" fill="#E6E9EE"/>
<path d="M49.8562 52.4805H27.6113V54.1057H49.8562V52.4805Z" fill="#E6E9EE"/>
<path d="M49.8562 55.7305H27.6113V57.3557H49.8562V55.7305Z" fill="#E6E9EE"/>
<path d="M40.6468 58.981H27.6113V60.6062H40.6468V58.981Z" fill="#E6E9EE"/>
</svg>
