<svg width="83" height="84" viewBox="0 0 83 84" fill="none" xmlns="http://www.w3.org/2000/svg">
<path d="M41.5 84C64.4198 84 83 65.196 83 42C83 18.804 64.4198 0 41.5 0C18.5802 0 0 18.804 0 42C0 65.196 18.5802 84 41.5 84Z" fill="#324A5E"/>
<path d="M58.1654 71.8961H24.8347C22.3513 71.8961 20.3906 69.8457 20.3906 67.3985V16.6016C20.3906 14.0883 22.4166 12.104 24.8347 12.104H58.1001C60.5835 12.104 62.5442 14.1544 62.5442 16.6016V67.3323C62.6095 69.8457 60.5835 71.8961 58.1654 71.8961Z" fill="#324A5E"/>
<path d="M59.7343 18.4536H23.2666V63.4961H59.7343V18.4536Z" fill="white"/>
<path d="M41.5003 69.8458C42.7636 69.8458 43.7877 68.8093 43.7877 67.5308C43.7877 66.2523 42.7636 65.2158 41.5003 65.2158C40.237 65.2158 39.2129 66.2523 39.2129 67.5308C39.2129 68.8093 40.237 69.8458 41.5003 69.8458Z" fill="#ACB3BA"/>
<path d="M46.5326 16.0064H39.9318C39.5397 16.0064 39.2129 15.6757 39.2129 15.2788C39.2129 14.882 39.5397 14.5513 39.9318 14.5513H46.5326C46.9247 14.5513 47.2515 14.882 47.2515 15.2788C47.2515 15.6757 46.9247 16.0064 46.5326 16.0064Z" fill="#ACB3BA"/>
<path d="M37.4482 16.0064H36.4679C36.0758 16.0064 35.749 15.6757 35.749 15.2788C35.749 14.882 36.0758 14.5513 36.4679 14.5513H37.4482C37.8404 14.5513 38.1671 14.882 38.1671 15.2788C38.1671 15.6757 37.8404 16.0064 37.4482 16.0064Z" fill="#ACB3BA"/>
<path d="M52.8336 51.5753L55.3291 49.0498L52.0018 45.6825L49.5064 48.208L52.8336 51.5753Z" fill="#324A5E"/>
<path d="M34.4422 30.3593C29.7367 35.1215 29.7367 42.9262 34.4422 47.6884C39.1477 52.4506 46.8595 52.4506 51.5651 47.6884C56.2706 42.9262 56.2706 35.1215 51.5651 30.3593C46.8595 25.597 39.1477 25.597 34.4422 30.3593Z" fill="#FFD05B"/>
<path d="M52.4145 39.0896C52.4145 39.2219 52.4145 39.3542 52.4145 39.4203C52.4145 40.3463 52.2185 41.3384 51.8917 42.1983C51.4342 43.5211 50.7153 44.7117 49.6696 45.7699C47.8397 47.688 45.4216 48.614 43.0035 48.614C40.5854 48.614 38.1673 47.688 36.3373 45.8361C35.2917 44.7778 34.5728 43.5873 34.1153 42.2644C33.7885 41.3384 33.6578 40.4125 33.5925 39.4865C33.5271 38.2959 33.7232 37.0392 34.1153 35.8487C34.4421 34.8565 34.9649 33.9306 35.6838 33.0707C35.8799 32.8062 36.0759 32.6077 36.272 32.4093C38.1019 30.5573 40.52 29.6313 42.9381 29.6313C45.3562 29.6313 47.7744 30.5573 49.6043 32.4093C49.8003 32.6077 50.0618 32.8723 50.1925 33.0707C50.9114 33.9306 51.4342 34.8565 51.761 35.8487C52.2185 36.8408 52.4145 37.9652 52.4145 39.0896Z" fill="white"/>
<path d="M68.1644 61.8425L65.4848 64.5544C65.0273 65.0173 64.3084 65.0173 63.851 64.5544L52.0218 52.5827C51.5643 52.1197 51.5643 51.3922 52.0218 50.9292L54.7013 48.2174C55.1588 47.7544 55.8777 47.7544 56.3352 48.2174L68.1644 60.189C68.6218 60.652 68.6218 61.3796 68.1644 61.8425Z" fill="#FFD05B"/>
</svg>
