<svg width="86" height="86" viewBox="0 0 86 86" fill="none" xmlns="http://www.w3.org/2000/svg">
<path d="M43 86C66.7482 86 86 66.7482 86 43C86 19.2518 66.7482 0 43 0C19.2518 0 0 19.2518 0 43C0 66.7482 19.2518 86 43 86Z" fill="#324A5E"/>
<path d="M62 41.545L45.9655 26L43 28.8614L40.0345 26L24 41.545L29.6207 47L43 34.0319L56.3793 47L62 41.545Z" fill="#2B3B4E"/>
<path d="M43 36C46.866 36 50 33.0899 50 29.5C50 25.9102 46.866 23 43 23C39.134 23 36 25.9102 36 29.5C36 33.0899 39.134 36 43 36Z" fill="white"/>
<path d="M43 33C44.6569 33 46 31.6569 46 30C46 28.3431 44.6569 27 43 27C41.3431 27 40 28.3431 40 30C40 31.6569 41.3431 33 43 33Z" fill="#E6E9EE"/>
<path d="M64 33.0481C64 33.0481 50.2883 31.5787 44.202 44.8873C43.45 46.5255 44.9366 47.5726 46.3707 48.6873C47.9098 49.8864 53.9611 54.0749 55.5701 52.7406" fill="#324A5E"/>
<path d="M64 59C71.1797 59 77 53.1797 77 46C77 38.8203 71.1797 33 64 33C56.8203 33 51 38.8203 51 46C51 53.1797 56.8203 59 64 59Z" fill="#2B3B4E"/>
<path d="M64 57C69.5228 57 74 52.0751 74 46C74 39.9249 69.5228 35 64 35C58.4772 35 54 39.9249 54 46C54 52.0751 58.4772 57 64 57Z" fill="#84DBFF"/>
<path d="M22 33.0481C22 33.0481 35.7117 31.5787 41.798 44.8873C42.55 46.5255 41.0634 47.5726 39.6293 48.6873C38.0902 49.8864 32.0389 54.0749 30.4299 52.7406" fill="#324A5E"/>
<path d="M22 59C29.1797 59 35 53.1797 35 46C35 38.8203 29.1797 33 22 33C14.8203 33 9 38.8203 9 46C9 53.1797 14.8203 59 22 59Z" fill="#2B3B4E"/>
<path d="M22 57C27.5228 57 32 52.0751 32 46C32 39.9249 27.5228 35 22 35C16.4772 35 12 39.9249 12 46C12 52.0751 16.4772 57 22 57Z" fill="#84DBFF"/>
<path d="M69.9316 41.1127C68.8343 40.0154 67.4595 39.611 66.861 40.2096C66.2624 40.8081 66.6668 42.1829 67.7641 43.2802C68.8614 44.3775 70.2362 44.7819 70.8347 44.1833C71.4333 43.5848 71.0289 42.21 69.9316 41.1127Z" fill="white"/>
<path d="M27.6132 41.1137C26.5159 40.0164 25.1411 39.612 24.5426 40.2106C23.9441 40.8091 24.3484 42.1839 25.4457 43.2812C26.5431 44.3785 27.9178 44.7829 28.5164 44.1843C29.1149 43.5858 28.7106 42.211 27.6132 41.1137Z" fill="white"/>
</svg>
