<svg xmlns="http://www.w3.org/2000/svg" width="512" height="512" viewBox="-10 0 478 478.003"><g><g><g><g><g><path fill="#00acea" d="m449.929688 422.269531v47.980469h-190.558594v-47.980469c0-50.460937 42.878906-91.738281 95.28125-91.738281 25.070312-.066406 49.195312 9.59375 67.289062 26.949219 17.785156 16.871093 27.898438 40.277343 27.988282 64.789062zm0 0" data-old_color="#00acea" data-original="#E55529" style="fill:#e55529"/><path fill="#00acea" d="m354.652344 195.550781c30.488281 0 55.210937 23.800781 55.210937 53.167969 0 29.371094-24.722656 53.160156-55.210937 53.160156-30.492188 0-55.210938-23.800781-55.210938-53.160156s24.71875-53.167969 55.210938-53.167969zm0 0" data-old_color="#00acea" data-original="#E55529" style="fill:#e55529"/><path fill="#fedb41" d="m336.679688 27.75v101.5c.003906 11.046875-8.949219 20.003906-20 20h-57.679688l-30 47.960938-30-47.960938h-57.679688c-11.046874.003906-20.003906-8.953125-20-20v-101.5c0-11.046875 8.957032-20 20-20h175.359376c11.046874 0 20 8.953125 20 20zm0 0" data-old_color="#fedb41" data-original="#FFD300" style="fill:#ffd300"/><path fill="#00efd1" d="m198.632812 422.269531v47.980469h-190.5625v-47.980469c0-50.460937 42.882813-91.738281 95.28125-91.738281 25.074219-.066406 49.195313 9.59375 67.289063 26.949219 17.785156 16.871093 27.898437 40.277343 27.992187 64.789062zm0 0" data-old_color="#00efd1" data-original="#E99C2E" style="fill:#e99c2e"/><path fill="#00efd1" d="m103.351562 195.550781c30.488282 0 55.210938 23.800781 55.210938 53.167969 0 29.371094-24.722656 53.160156-55.210938 53.160156-30.488281 0-55.210937-23.800781-55.210937-53.160156s24.722656-53.167969 55.210937-53.167969zm0 0" data-old_color="#00efd1" data-original="#E99C2E" style="fill:#e99c2e"/><g fill="#083863"><path d="m141.320312 157h53.25l27.648438 44.328125c1.4375 2.375 4.015625 3.824219 6.792969 3.820313 2.777343-.007813 5.347656-1.46875 6.773437-3.851563l27.648438-44.300781h53.246094c15.441406 0 28.320312-12.3125 28.320312-27.75v-101.496094c0-15.4375-12.878906-27.75-28.320312-27.75h-175.359376c-15.4375 0-28.320312 12.3125-28.320312 27.75v101.5c0 15.4375 12.882812 27.75 28.320312 27.75zm-12.320312-129.25c0-6.617188 5.703125-11.75 12.320312-11.75h175.359376c6.621093 0 12.320312 5.132812 12.320312 11.75v101.5c0 6.617188-5.699219 11.75-12.320312 11.75h-57.679688c-2.773438.050781-5.332031 1.515625-6.78125 3.882812l-23.21875 37.179688-23.214844-37.210938c-1.453125-2.359374-4.011718-3.8125-6.785156-3.851562h-57.679688c-6.617187 0-12.320312-5.132812-12.320312-11.75zm0 0" class="active-path" data-old_color="#083863" data-original="#094492" style="fill:#094492"/><path d="m103.351562 309.878906c34.855469 0 63.210938-27.433594 63.210938-61.160156 0-33.722656-28.355469-61.167969-63.210938-61.167969-34.855468 0-63.210937 27.441407-63.210937 61.167969 0 33.730469 28.359375 61.160156 63.210937 61.160156zm0-106.328125c26.03125 0 47.210938 20.261719 47.210938 45.167969 0 24.910156-21.179688 45.160156-47.210938 45.160156s-47.210937-20.257812-47.210937-45.160156 21.179687-45.167969 47.210937-45.167969zm0 0" class="active-path" data-old_color="#083863" data-original="#094492" style="fill:#094492"/><path d="m8.070312 478h190.5625c4.417969 0 8.367188-3.332031 8.367188-7.75v-47.980469c0-26.597656-11-51.660156-30.625-70.550781-19.613281-18.832031-45.777344-29.300781-72.964844-29.1875-56.949218 0-103.410156 44.742188-103.410156 99.738281v47.980469c.0273438 2.101562.898438 4.109375 2.414062 5.566406 1.515626 1.457032 3.554688 2.242188 5.65625 2.183594zm7.929688-55.730469c0-46.171875 39.191406-83.738281 87.316406-83.738281 23.070313-.105469 45.28125 8.757812 61.945313 24.710938 16.46875 15.851562 25.738281 36.8125 25.738281 59.027343v39.730469h-175zm0 0" class="active-path" data-old_color="#083863" data-original="#094492" style="fill:#094492"/><path d="m291.441406 248.71875c0 33.726562 28.355469 61.160156 63.210938 61.160156 34.851562 0 63.210937-27.433594 63.210937-61.160156 0-33.722656-28.355469-61.167969-63.210937-61.167969-34.855469 0-63.210938 27.441407-63.210938 61.167969zm63.210938-45.167969c26.03125 0 47.210937 20.261719 47.210937 45.167969 0 24.910156-21.179687 45.160156-47.210937 45.160156s-47.210938-20.257812-47.210938-45.160156 21.179688-45.167969 47.210938-45.167969zm0 0" class="active-path" data-old_color="#083863" data-original="#094492" style="fill:#094492"/><path d="m251 422.269531v47.980469c0 4.417969 3.953125 7.75 8.371094 7.75h190.558594c2.105468.058594 4.140624-.726562 5.660156-2.183594 1.515625-1.457031 2.386718-3.464844 2.410156-5.566406v-47.980469c0-26.597656-10.84375-51.660156-30.472656-70.550781-19.640625-18.835938-45.832032-29.300781-73.042969-29.1875-56.949219 0-103.484375 44.742188-103.484375 99.738281zm191 0v39.730469h-175v-39.730469c0-46.171875 39.339844-83.738281 87.464844-83.738281 23.050781-.105469 45.238281 8.757812 61.871094 24.710938 16.464843 15.851562 25.664062 36.8125 25.664062 59.027343zm0 0" class="active-path" data-old_color="#083863" data-original="#094492" style="fill:#094492"/></g></g></g></g></g></g></svg>