<svg id="Layer" enable-background="new 0 0 64 64" height="512" viewBox="0 0 64 64" width="512" xmlns="http://www.w3.org/2000/svg"><path d="m32.83 20.45-.81 1.52-.02.03h-2c-1.96 0-3.75-.7-5.14-1.87-1.75-1.47-2.86-3.67-2.86-6.13v-2h2c4.42 0 8 3.58 8 8z" fill="#73d98b"/><path d="m52.85 28.95c.75 2.22 1.15 4.59 1.15 7.05 0 6.37-2.69 12.11-7 16.13-3.93 3.68-9.2.91-15 .91s-11.07 2.77-15-.91c-4.31-4.02-7-9.76-7-16.13 0-2.46.4-4.83 1.15-7.05 1.98-5.89 7.89-9.53 13.71-8.82 1.39 1.17 3.18 1.87 5.14 1.87h2l.02-.03c1.21 0 2.38-.28 3.41-.77 6.81-3.24 15.01.59 17.42 7.75z" fill="#ff5f7f"/><g fill="#532c00"><path d="m46.29 19.21c-3.326-1.41-7.005-1.538-10.304-.395l4.774-8.867-3.521-1.896-4.174 7.753c-1.59-3.422-5.051-5.805-9.065-5.805h-4v4c0 1.521.351 2.957.961 4.249-5.297.895-9.902 4.694-11.705 10.061-.833 2.466-1.256 5.053-1.256 7.69 0 6.654 2.783 13.066 7.633 17.59 3.408 3.191 7.471 2.564 11.397 1.959 1.625-.25 3.305-.509 4.97-.509s3.345.259 4.97.509c1.582.244 3.186.491 4.759.491 2.334 0 4.603-.543 6.636-2.447 4.852-4.527 7.635-10.939 7.635-17.593 0-2.637-.423-5.224-1.255-7.688-1.376-4.089-4.458-7.406-8.455-9.102zm-16.29.79c-3.309 0-6-2.691-6-6 3.309 0 6 2.691 6 6zm15.633 30.67c-1.896 1.775-4.185 1.522-8.054.926-1.773-.274-3.607-.556-5.579-.556s-3.806.282-5.579.556c-3.876.597-6.159.849-8.057-.929-4.045-3.772-6.364-9.118-6.364-14.667 0-2.2.352-4.357 1.046-6.413 1.582-4.705 6.283-7.859 11.085-7.509 1.65 1.203 3.675 1.922 5.869 1.922h2v-.03c1.467 0 2.947-.332 4.289-.964 2.646-1.258 5.644-1.299 8.438-.113 2.946 1.249 5.215 3.689 6.228 6.697.693 2.053 1.045 4.21 1.045 6.41 0 5.549-2.319 10.895-6.367 14.67z"/><path d="m16 35c0 4.278 1.666 8.434 4.571 11.399l2.857-2.799c-2.146-2.192-3.428-5.407-3.428-8.6z"/></g></svg>