<?xml version="1.0" encoding="utf-8"?>
<!-- Generator: Adobe Illustrator 23.0.4, SVG Export Plug-In . SVG Version: 6.00 Build 0)  -->
<svg version="1.1" id="Capa_1" xmlns="http://www.w3.org/2000/svg" xmlns:xlink="http://www.w3.org/1999/xlink" x="0px" y="0px"
	 viewBox="0 0 512 512" style="enable-background:new 0 0 512 512;" xml:space="preserve">
<style type="text/css">
	.st0{fill:#5A5555;}
	.st1{fill:#7C3F2C;}
	.st2{fill:#E3A76F;}
	.st3{fill:#F2BB88;}
	.st4{fill:#C0694E;}
	.st5{fill:#C97E67;}
	.st6{fill:#DCD2CD;}
	.st7{fill:#EBE1DC;}
	.st8{fill:#736E6E;}
</style>
<path class="st0" d="M332.4,452L332.4,452l0.2-0.1C332.5,451.9,332.5,452,332.4,452z"/>
<g>
	<circle class="st1" cx="184.8" cy="194.1" r="81.1"/>
	<circle class="st1" cx="327.1" cy="194.1" r="81.1"/>
</g>
<path class="st2" d="M418.5,431.6v54.2c0,10.3-8.3,18.6-18.6,18.6H112.1c-10.3,0-18.6-8.3-18.6-18.6v-54.2c0-47.7,38.7-86,86-86h2
	c26.3-0.1,25.1,0.2,27.1-0.2c5.4-1,9.5-5.8,9.5-11.5v-31.6c0-2.5-1.5-4.8-3.8-5.8c-32.6-14.7-55.5-47.5-55.5-85.5V69.9h191.1v141.2
	c0,38.1-23.1,71-55.9,85.6v37.3c0,6.5,5.2,11.7,11.7,11.7c12.9,0.1,19.9,0,24.7,0c4.6,0,7,0.1,10.4,0.4
	C384.4,350.1,418.5,386.9,418.5,431.6z"/>
<path class="st3" d="M418.5,431.6v54.2c0,10.3-8.3,18.6-18.6,18.6H145.4c-10.3,0-18.6-8.3-18.6-18.6v-54.2c0-47.7,38.7-80.1,86-80.1
	c28.3-0.1,27.1,0.2,29.1-0.2c5.4-1,9.5-5.8,9.5-11.5v-37.5c0-2.5-1.5-4.8-3.8-5.8c-32.7-14.7-55.5-47.5-55.5-85.5V69.9h157.7v141.2
	c0,38.1-23.1,71-55.9,85.6v37.3c0,6.5,5.2,11.7,11.7,11.7c25.5,0.1,28.2-0.3,35.1,0.4C384.4,350.1,418.5,386.9,418.5,431.6z"/>
<path class="st4" d="M379.6,44.1v69.7c0,14.4-13.4,26.2-29.7,26.2h-1.2c-16.3,0-29.7-11.8-29.7-26.2v-9.5c0-2.2-3-3.3-4.7-1.7
	c-11.6,10.3-31.8,14.8-47.8,17.3l-89.1,12.6l-27.8,3.9c-9.4,0-17.1-6.8-17.1-15.1V62.6c0-19,11.1-35.8,27.8-45.7
	c9.9-5.9,21.7-9.3,34.5-9.3h71.8c26.4,0,41,10.8,53.9,28.6c3.8-10.6,15.1-18.4,28.3-18.4C373.3,17.8,379.6,36.5,379.6,44.1z"/>
<path class="st5" d="M379.6,44.1v56.3c-0.8,0.1-1.6,0.1-2.4,0.1H376c-16.3,0-29.7-11.8-29.7-26.2v-9.5c0-2.2-3-3.3-4.7-1.7
	c-11.6,10.3-31.8,14.8-47.8,17.3l-89.1,12.6l-27.8,3.9c-9.4,0-17.1-6.8-17.1-15.1V23c0-2.1,0.1-4.2,0.4-6.2
	c9.9-5.9,21.7-9.3,34.5-9.3h71.8c26.4,0,41,10.8,53.9,28.6c3.8-10.6,15.1-18.4,28.3-18.4C373.3,17.8,379.6,36.5,379.6,44.1z"/>
<path class="st2" d="M132.7,198.6c0,16.7,13.6,30.3,30.3,30.3v-60.6C146.3,168.3,132.7,181.8,132.7,198.6z"/>
<path class="st3" d="M345.5,168.3v60.6c16.7,0,30.3-13.6,30.3-30.3S362.3,168.3,345.5,168.3z"/>
<path class="st6" d="M334,180.2c0,15.1-9.9,27.8-23.6,32c-3.1,1-6.5,1.5-10,1.5c-18.5,0-33.6-15-33.6-33.6c0-18.5,15-33.6,33.6-33.6
	c3.5,0,6.8,0.5,10,1.5C324.1,152.4,334,165.2,334,180.2z"/>
<path class="st7" d="M334,180.2c0,15.1-9.9,27.8-23.6,32c-13.7-4.2-23.6-17-23.6-32c0-15.1,9.9-27.8,23.6-32
	C324.1,152.4,334,165.2,334,180.2z"/>
<path class="st6" d="M241.4,180.2c0,15.1-9.9,27.8-23.6,32.1c-3.1,1-6.5,1.5-10,1.5c-18.5,0-33.6-15-33.6-33.6
	c0-18.5,15-33.6,33.6-33.6c3.5,0,6.8,0.5,10,1.5C231.5,152.4,241.4,165.1,241.4,180.2z"/>
<path class="st7" d="M241.4,180.2c0,15.1-9.9,27.8-23.6,32.1c-13.7-4.2-23.6-17-23.6-32.1c0-15.1,9.9-27.8,23.6-32.1
	C231.5,152.4,241.4,165.1,241.4,180.2z"/>
<g>
	<polygon class="st8" points="196.8,403.5 256.6,502 316,403.5 	"/>
	<path class="st8" d="M340.7,346c-3.3-0.3-2.4-0.4-6.5-0.4c-0.3,0-0.6,0.1-0.8,0.3c-3.3,2.3-6,5.4-7.7,9l-69.2,143.4
		c-75.9-156.2-71.1-150.1-74.7-151.9l-0.5-0.1c-1.3-0.4-2.6-0.6-3.9-0.5c-46.4,1.1-84,39-84,86v54.2c0,10.3,8.3,18.6,18.6,18.6
		h287.9c10.3,0,18.6-8.3,18.6-18.6v-54.2C418.5,386.9,384.4,350.1,340.7,346z"/>
	<path class="st8" d="M328.3,349.4c0.8-1.7,2.3-3.1,4.2-3.6c2.5-0.6,4.9,0.3,6.4,2.2c8.1,10.1,35.9,50.3-8.1,75.6
		c-1.5,0.9-2.3,2.6-1.8,4.3l5.1,19.8c0.4,1.6-0.2,3.2-1.6,4.2"/>
</g>
<g>
	<path class="st0" d="M184,348.3c-4.7,1.2-9.3,2.8-13.7,4.8c-29.9,13.4-50.9,43.4-50.9,78.5v54.2c0,10.3,8.3,18.6,18.6,18.6h-25.9
		c-10.3,0-18.6-8.3-18.6-18.6v-54.2c0-47,37.6-84.9,84-86h0.3c1.2,0,2.4,0.2,3.6,0.5l0.5,0.1c0.6,0.3,0.9,0.4,1.4,0.9
		c0,0,0.1,0.1,0.1,0.1c0.1,0.1,0.2,0.3,0.4,0.5c0.1,0.1,0.1,0.2,0.2,0.3C183.9,348.2,183.9,348.3,184,348.3z"/>
	<path class="st0" d="M342.9,353.1c-4.4-6.5-6-8.4-11.1-6.9c-3.7,1.4,2.1-6.9-75.2,152.2c-77.3-159.2-71.6-150.8-75.2-152.2
		c-5.1-1.5-6.7,0.4-11.1,6.9c-14.8,21.6-18.5,45.5,1.3,63c8.5,7.5,13.6,7.2,12.4,11.8l-5.1,19.8c-0.4,1.4,0.1,2.8,1.1,3.8
		c0.4,0.4-3.5-2.4,76.7,52.9c80.2-55.3,76.3-52.5,76.7-52.9c1-1,1.4-2.4,1.1-3.8l-5.1-19.8c-1.2-4.6,3.8-4.2,12.4-11.8
		C361.4,398.6,357.7,374.7,342.9,353.1z"/>
</g>
<path d="M166.4,141.6C166.4,141.6,166.5,141.6,166.4,141.6C166.5,141.6,166.4,141.6,166.4,141.6z"/>
<path d="M425.4,419.7c-0.5-4.2-4.3-7.1-8.5-6.6c-4.2,0.5-7.1,4.3-6.6,8.5c1.1,8.6,0.5,10.6,0.6,64.2c0,6.1-4.9,11-11,11H280.3
	l58.8-40.2c2.6-1.8,3.9-5.1,3.1-8.2l-5.1-19.7c28.2-17.5,32.2-44.5,16.4-72.6c20.7,5.7,38.3,19.7,48.5,39.2
	c1.9,3.7,6.5,5.2,10.3,3.2c3.7-1.9,5.2-6.5,3.2-10.3c-28.9-55.3-83.2-50.1-109.9-50.2c-2.3,0-4.1-1.8-4.1-4.1v-32.5
	c9.7-4.9,18.4-11.2,25.9-18.6c48.8-0.2,88.4-39.9,88.4-88.7c0-27.1-12.2-51.4-31.4-67.7c4.5-10.1,2-15.5,2.7-54
	c0-4.2-3.4-7.6-7.6-7.6c-4.2,0-7.6,3.4-7.6,7.6c-0.1,43.6,0.3,41.7-0.4,44.9c-1.5,6.7-7.2,11.9-14.1,14c-14,4.3-30.9-3.5-30.9-17.5
	c0-0.3,0-9.2,0-9.5c0-8.7-10.7-13.3-17.3-7.4c-17.5,15.4-58.9,16.6-79.8,20.5c-8.4,1.2-12,1.7-13.4,1.9c0,0-7.3,1-66.9,9.5
	c-4.9-0.2-9-3.5-9-7.5c0-16.8,0-41.9,0-58.7c0-26.1,24.5-47.4,54.6-47.4h71.8c24.3,0,36.7,10.2,47.7,25.5c3.6,5,11.3,3.8,13.3-1.9
	c6.7-18.8,41.8-18.1,44.4,4.2c0.5,4.2,4.3,7.1,8.4,6.6s7.1-4.3,6.7-8.4c-1.4-11.5-11-30.9-38.4-30.9c-11.6,0-22.2,4.8-29.2,12.7
	c-11-12.4-26.6-23-53.1-23h-71.8c-38.5,0-69.8,28.1-69.8,62.6c0.4,60.8-0.8,59.6,1.1,65.3c-59.2,52.8-24.5,151.5,55.1,154.9
	c8.5,8.5,18.4,15.4,29.4,20.4v30.8c0,13.9-50.9-13.2-96,30.4c-3,2.9-3.1,7.7-0.2,10.7c1.5,1.5,3.5,2.3,5.5,2.3
	c1.9,0,3.8-0.7,5.3-2.1c9.8-9.5,21.8-16.1,34.7-19.5c-5.8,10.3-11.3,24.6-8.7,39.4c2.4,13.5,10.7,24.7,24.9,33.5l-5.1,19.7
	c-0.8,3.1,0.4,6.4,3.1,8.2l58.8,40.2H112.1c-6.1,0-11-4.9-11-11v-54.1c0-11.9,2.6-23.4,7.7-34c1.8-3.8,0.2-8.3-3.5-10.1
	s-8.3-0.2-10.1,3.5c-6.1,12.7-9.3,26.4-9.3,40.7v54.1c0,14.4,11.8,26.2,26.2,26.2h287.9c14.4,0,26.2-11.8,26.2-26.2
	C425.9,432.3,426.7,429.7,425.4,419.7z M357.4,179.2c14.6,9,14.4,30.1-0.2,38.9C357.6,212.1,357.3,210.1,357.4,179.2z M354.4,235.4
	c16.6-4,29-19,29-36.9c0-16.8-10.9-31-26-36v-15.6c6.8-1.3,12.9-4.2,17.8-8.4c46.4,40.2,25.8,116.4-34.4,127.8
	C347,256.9,351.6,246.5,354.4,235.4z M215.1,119.4C215.1,119.4,215.1,119.4,215.1,119.4L215.1,119.4z M215.9,119.3L215.9,119.3
	L215.9,119.3z M151.4,218.1c-14.7-8.8-14.8-29.9-0.2-38.9C151.2,210.8,151,212.1,151.4,218.1z M135.3,139.8c5,3.2,11,4.5,15.8,4
	v18.8c-15.1,5-26,19.2-26,36c0,17.8,12.4,32.8,29,36.8c2.6,10.6,7,20.7,13,30C110.2,251.3,92,179.3,135.3,139.8z M210,352.9
	c9.1-1.7,15.7-9.7,15.7-18.9v-35.8c0-3.1-1.9-5.9-4.8-7.1c-25.3-10-44.4-31.8-51.5-57.9c-3.8-13.9-3-17.7-3-91.5c0,0,0.1,0,0.1,0
	c0,0-0.1,0-0.1,0c0,0,0.1,0,0.1,0c0,0,0,0,0,0c0.1,0,0.1,0,0.1,0c1.7-0.2,13.3-1.9,79.9-11.3c10.6-2,43.7-3.8,64.9-16.4
	c0.1,16.3,13.2,30.4,30.9,33.2c0,11.4,0,47.8,0,63.9c0,33.5-19.8,64.6-51.4,78.7c-2.7,1.2-4.5,3.9-4.5,6.9v37.3
	c0,10.6,8.6,19.3,19.3,19.3c4.7,0,8.6,0,11.9,0l-18.7,42.6h-83.2l-20.6-42.7C206.8,353.2,207.5,353.4,210,352.9z M166.3,141.6
	C166.3,141.6,166.3,141.6,166.3,141.6L166.3,141.6z M166.6,141.6C166.6,141.6,166.6,141.6,166.6,141.6
	C166.6,141.6,166.6,141.6,166.6,141.6z M186.8,447.1l5.2-20.2c0.9-3.4-0.7-7-3.8-8.6c-13-6.9-20.5-15.5-22.3-25.6
	c-2.7-15.3,7.5-31.2,12.7-38.2l62.6,129.8L186.8,447.1z M222.9,411.1h69.2l-33,75.1L222.9,411.1z M333.8,353.8
	c5.1,6.6,16,23.1,13.2,38.9c-1.8,10.2-9.3,18.8-22.3,25.6c-3.1,1.6-4.7,5.2-3.8,8.6l5.2,20.2l-47.5,32.5L333.8,353.8z"/>
<circle cx="207.9" cy="180.2" r="11"/>
<circle cx="300.5" cy="180.2" r="11"/>
<path d="M248.9,183.2h10.5c1.5,21.3,19.3,38.2,41,38.2c22.7,0,41.2-18.5,41.2-41.2s-18.5-41.2-41.2-41.2c-18.4,0-34.1,12.2-39.3,29
	h-14c-5.2-16.8-20.9-29-39.3-29c-22.7,0-41.2,18.5-41.2,41.2s18.5,41.2,41.2,41.2C229.5,221.4,247.3,204.5,248.9,183.2z
	 M300.5,154.3c14.3,0,26,11.6,26,26s-11.6,26-26,26s-26-11.6-26-26S286.1,154.3,300.5,154.3z M207.9,206.2c-14.3,0-26-11.6-26-26
	s11.6-26,26-26c14.3,0,26,11.6,26,26S222.2,206.2,207.9,206.2z"/>
<path d="M255,261.1c18.9,0,34.3-15.4,34.3-34.3c0-4.2-3.4-7.6-7.6-7.6s-7.6,3.4-7.6,7.6c0,10.5-8.6,19.1-19.1,19.1
	c-10.5,0-19.1-8.6-19.1-19.1c0-4.2-3.4-7.6-7.6-7.6c-4.2,0-7.6,3.4-7.6,7.6C220.7,245.7,236.1,261.1,255,261.1z"/>
</svg>
