<svg id="TransitionTime" xmlns="http://www.w3.org/2000/svg" viewBox="0 0 165 165"><defs><style>.cls-1{fill:#094492;}.cls-2{fill:none;stroke:#fff;stroke-linecap:round;stroke-linejoin:round;stroke-width:3.93px;}.cls-3{opacity:0.1;}.cls-4{fill:#fff;}</style></defs><title>Artboard 1</title><rect class="cls-1" x="0.64" y="0.5" width="163.64" height="163.64" rx="19.64"/><polyline class="cls-2" points="98.1 45.2 83.55 70.14 69.36 56.23"/><line class="cls-2" x1="119.93" y1="70.14" x2="111.98" y2="70.14"/><line class="cls-2" x1="55.63" y1="70.14" x2="47.68" y2="70.14"/><line class="cls-2" x1="83.37" y1="105.82" x2="83.37" y2="97.88"/><line class="cls-2" x1="83.37" y1="40.23" x2="83.37" y2="32.28"/><line class="cls-2" x1="49.38" y1="29.84" x2="49.17" y2="38.21"/><line class="cls-2" x1="49.38" y1="38.48" x2="57.33" y2="39.19"/><line class="cls-2" x1="117.59" y1="107.96" x2="117.79" y2="99.59"/><line class="cls-2" x1="117.59" y1="99.32" x2="109.64" y2="98.61"/><path class="cls-2" d="M44.08,46.08A45.74,45.74,0,0,0,117.7,99.51"/><path class="cls-2" d="M123.21,92a45.74,45.74,0,0,0-73.7-53.43"/><path class="cls-3" d="M144.63,164.14H20.28A19.64,19.64,0,0,1,.64,144.5V20.14A19,19,0,0,1,7.18,5.41L157.73,159.23A19.61,19.61,0,0,1,144.63,164.14Z"/><path class="cls-4" d="M33.52,134.75H31.36v-1.66h6.1v1.66H35.3v11.7H33.52Z"/><path class="cls-4" d="M38.88,133.09h2.64c2,0,3.12.84,3.12,3.16v.54c0,2-.74,2.58-1.36,2.8.82.36,1.24.94,1.24,2.74a37.84,37.84,0,0,0,.12,4.12H42.92a28.91,28.91,0,0,1-.14-4c0-1.66-.24-2.08-1.48-2.08h-.62v6.08h-1.8Zm1.8,5.78h.64c1.16,0,1.54-.54,1.54-2v-.52c0-1.12-.28-1.78-1.52-1.78h-.66Z"/><path class="cls-4" d="M48.44,142.59l-.54,3.86H46.08l2.18-13.36H50.8l2.26,13.36H51.18l-.6-3.86Zm1.92-1.66c-.36-2.54-.68-4.76-.82-6.16h-.06c-.06,1.08-.5,4-.8,6.16Z"/><path class="cls-4" d="M54.6,146.45V133.09h2.1l2,7.4a22.53,22.53,0,0,1,.52,2.38h0c-.1-1.72-.1-3.6-.1-5.78v-4h1.66v13.36h-2L56.56,138c-.18-.7-.28-1.26-.36-1.66h0c.08,1.62.1,3.56.1,6v4.12Z"/><path class="cls-4" d="M64.28,142.59v.8c0,1.1.36,1.72,1.2,1.72s1.16-.74,1.16-1.86c0-1.48-.32-2-1.76-3.12s-2.18-1.84-2.18-3.8c0-1.74.52-3.44,2.8-3.44s2.72,1.58,2.72,3.14v.66H66.44v-.62c0-1-.18-1.64-1-1.64s-1,.68-1,1.64.2,1.54,1.4,2.42c1.94,1.44,2.54,2.28,2.54,4.5,0,1.88-.62,3.64-3,3.64s-2.94-1.5-2.94-3.26v-.78Z"/><path class="cls-4" d="M72.1,133.09v13.36H70.3V133.09Z"/><path class="cls-4" d="M75.74,134.75H73.58v-1.66h6.1v1.66H77.52v11.7H75.74Z"/><path class="cls-4" d="M82.9,133.09v13.36H81.1V133.09Z"/><path class="cls-4" d="M91.18,136.53V143c0,2.48-1,3.66-3.18,3.66s-3-1.26-3-3.64v-6.48c0-2.44,1.18-3.6,3.14-3.6S91.18,134.15,91.18,136.53Zm-4.36-.16v6.82c0,1.28.46,1.82,1.26,1.82s1.28-.52,1.28-1.86v-6.78c0-1.22-.4-1.84-1.28-1.84S86.82,135.11,86.82,136.37Z"/><path class="cls-4" d="M93.28,146.45V133.09h2.1l2,7.4a22.53,22.53,0,0,1,.52,2.38h0c-.1-1.72-.1-3.6-.1-5.78v-4h1.66v13.36h-2L95.24,138c-.18-.7-.28-1.26-.36-1.66h0c.08,1.62.1,3.56.1,6v4.12Z"/><path class="cls-4" d="M106.2,134.75H104v-1.66h6.1v1.66H108v11.7H106.2Z"/><path class="cls-4" d="M113.36,133.09v13.36h-1.8V133.09Z"/><path class="cls-4" d="M122.44,141.23c0-2.36,0-5.1.08-6.58h0c-.32,2.28-1.18,7.88-1.82,11.8H119c-.48-3.46-1.36-9.4-1.66-11.82h0c0,1.56.1,4.58.1,6.88v4.94h-1.64V133.09h2.66c.62,3.62,1.3,7.9,1.48,9.7h0c.2-1.8,1.06-6.28,1.68-9.7h2.58v13.36h-1.72Z"/><path class="cls-4" d="M131.28,140.19h-3v4.62h3.38l-.22,1.64h-5V133.09h4.92v1.66h-3.12v3.8h3Z"/></svg>