<svg xmlns="http://www.w3.org/2000/svg" width="78.658" height="130.355" viewBox="0 0 78.658 130.355">
  <path id="走路" d="M263.062,60.457V79.331l17.4,39.813s5.308,8.258-3.244,10.912a8.1,8.1,0,0,1-8.258-4.424l-15.335-29.2s-3.539-8.552-6.193-5.6L236.52,102.924s-2.949,6.193-2.949,23.3c0,0,1.18,4.129-6.783,4.129,0,0-5.6.295-5.6-3.834v-15.63s.885-17.99,16.81-35.979V69.6L235.34,54.854s-3.244-3.834-5.308-.59c0,0,.59,4.424-8.552,9.142L210.862,67.24s-5.9,2.064-6.783-1.18c0,0-2.064-4.719,1.18-5.9l9.437-5.308s11.207-7.373,10.617-16.81c0,0,1.769-10.617,11.5-13.566A11.136,11.136,0,0,1,247.431,23L272.5,34.5s3.539,2.064,3.539,4.719V64s.59,4.719-2.654,4.719c0,0-5.6-1.769-5.6-3.539L267.485,46.3s-.59-1.475-4.719-4.129l-4.129-3.244s-4.719-3.244-3.834,1.18c0,.295,8.257,12.681,8.257,20.349Zm-32.44-38.633a10.912,10.912,0,0,1,0-21.823,10.705,10.705,0,0,1,10.912,10.912A10.705,10.705,0,0,1,230.621,21.823Z" transform="translate(-203.432)" fill="#fff"/>
</svg>
