<?xml version="1.0" standalone="no"?>
<!DOCTYPE svg PUBLIC "-//W3C//DTD SVG 20010904//EN"
 "http://www.w3.org/TR/2001/REC-SVG-20010904/DTD/svg10.dtd">
<svg version="1.0" xmlns="http://www.w3.org/2000/svg"
 width="1001.000000pt" height="1001.000000pt" viewBox="0 0 1001.000000 1001.000000"
 preserveAspectRatio="xMidYMid meet">
<metadata>
Created by potrace 1.11, written by Peter Selinger 2001-2013
</metadata>
<g transform="translate(0.000000,1001.000000) scale(0.100000,-0.100000)"
fill="#000000" stroke="none">
<path d="M4917 9884 c-1 -1 -65 -4 -143 -8 -78 -3 -147 -8 -155 -10 -8 -3 -46
-7 -85 -11 -39 -3 -80 -7 -90 -9 -11 -2 -41 -7 -69 -10 -27 -4 -108 -18 -180
-32 -576 -112 -1141 -357 -1627 -705 -95 -69 -261 -199 -278 -219 -3 -3 -21
-18 -40 -34 -19 -15 -66 -58 -103 -94 l-68 -66 183 -183 c100 -101 188 -183
194 -183 6 0 19 10 30 21 36 40 196 148 296 199 141 73 316 131 443 146 22 3
65 8 95 12 82 11 300 3 374 -13 12 -3 32 -7 46 -9 80 -13 238 -65 340 -113 66
-31 186 -99 200 -113 3 -3 32 -25 65 -49 185 -137 362 -361 451 -574 20 -45
39 -91 44 -102 20 -44 59 -214 76 -325 8 -56 5 -290 -6 -360 -40 -276 -139
-508 -307 -721 -35 -43 -63 -82 -63 -87 0 -4 105 -113 234 -241 l235 -234 240
239 241 239 -40 45 c-84 94 -189 265 -244 397 -28 68 -74 218 -81 267 -2 17
-6 40 -8 51 -24 107 -24 354 -1 475 2 14 6 36 9 49 64 338 270 668 553 885
170 130 402 235 602 272 14 2 34 6 46 9 81 18 273 23 399 11 85 -8 220 -37
305 -66 146 -48 368 -170 465 -255 17 -15 43 -38 58 -51 l28 -25 196 194 197
195 -35 33 c-80 79 -229 205 -337 287 -108 82 -356 252 -369 252 -3 0 -17 8
-31 19 -55 39 -349 192 -467 243 -290 125 -681 248 -900 281 -16 3 -41 8 -55
11 -25 5 -61 11 -135 22 -22 3 -51 7 -65 10 -14 2 -54 7 -90 10 -36 3 -76 8
-90 10 -51 8 -475 24 -483 18z"/>
<path d="M3315 7959 c-22 -5 -44 -11 -50 -12 -5 -2 -25 -7 -42 -11 -18 -4 -33
-11 -33 -15 0 -5 18 -16 41 -26 137 -62 211 -231 169 -384 -23 -87 -99 -174
-185 -212 -74 -33 -190 -32 -265 3 -68 31 -131 93 -162 158 l-24 50 -13 -44
c-7 -24 -18 -77 -25 -117 -61 -360 153 -706 505 -818 180 -57 382 -41 553 44
293 146 456 481 391 800 -56 274 -243 480 -510 565 -78 24 -277 35 -350 19z"/>
<path d="M6403 7953 c-58 -13 -85 -33 -47 -33 50 0 149 -70 193 -137 115 -173
47 -398 -147 -486 -36 -16 -66 -21 -127 -21 -94 0 -169 30 -230 92 -49 49 -94
145 -96 205 -1 26 -4 47 -5 47 -2 0 -17 -27 -34 -60 -83 -164 -98 -380 -40
-558 47 -144 157 -291 279 -375 87 -60 217 -110 320 -124 376 -49 718 181 817
549 21 78 24 270 5 347 -63 253 -242 448 -489 534 -76 27 -102 31 -212 33 -82
1 -146 -3 -187 -13z"/>
<path d="M1949 7557 c-120 -130 -145 -159 -235 -273 -141 -177 -256 -351 -375
-565 -212 -381 -392 -885 -453 -1269 -3 -19 -7 -44 -10 -55 -3 -19 -13 -79
-21 -135 -2 -14 -7 -54 -10 -90 -3 -36 -8 -76 -10 -90 -20 -134 -20 -638 0
-770 2 -14 6 -54 10 -90 4 -36 8 -76 10 -90 6 -40 17 -113 21 -135 2 -11 9
-47 15 -80 9 -48 38 -179 63 -285 36 -149 125 -409 203 -590 19 -46 178 -366
201 -405 60 -105 82 -140 140 -230 36 -55 79 -119 96 -141 17 -23 40 -55 51
-70 128 -180 396 -471 595 -645 47 -41 87 -77 90 -80 3 -3 64 -50 135 -103 72
-54 137 -103 145 -109 8 -7 60 -41 115 -76 55 -35 112 -72 127 -83 15 -10 30
-18 33 -18 3 0 22 -11 43 -23 97 -62 416 -214 579 -277 l31 -12 -24 -51 c-17
-37 -24 -70 -24 -112 l0 -60 -371 0 c-210 0 -373 -4 -376 -9 -5 -7 -7 -291 -4
-341 1 -12 4545 -14 4558 -2 12 13 11 346 -2 350 -5 2 -181 3 -390 3 l-380 -1
0 70 c-1 52 -6 81 -22 111 l-22 41 97 38 c138 55 445 210 600 303 890 538
1556 1401 1851 2398 23 80 71 265 77 304 2 14 9 45 14 70 5 25 14 73 20 107 6
35 12 75 15 90 3 16 8 55 11 88 4 33 8 63 10 66 1 3 7 61 11 130 15 226 8 666
-11 789 -3 14 -7 49 -10 79 -8 69 -34 233 -46 286 -5 22 -11 51 -14 65 -31
153 -97 381 -159 550 -173 473 -413 885 -743 1275 -114 135 -230 256 -221 232
29 -78 50 -233 51 -382 1 -185 -5 -244 -39 -375 -153 -597 -644 -1030 -1255
-1108 -71 -9 -269 -8 -340 1 -70 9 -120 16 -145 22 -11 2 -23 5 -27 6 -4 0
-26 6 -49 13 l-41 12 -565 -565 -565 -564 -567 567 c-312 312 -569 564 -573
561 -6 -6 -15 -9 -108 -30 -131 -29 -343 -39 -494 -21 -206 23 -452 116 -637
241 -98 66 -227 182 -311 282 -137 162 -273 445 -304 633 -5 29 -12 65 -20
100 -3 14 -7 88 -9 165 -3 149 13 294 45 414 5 19 8 36 7 38 -2 1 -42 -39 -88
-90z"/>
</g>
</svg>
